<svg xmlns="http://www.w3.org/2000/svg" data-name="Capa 2" viewBox="0 0 640.2 917.18">
  <g data-name="Capa 1">
    <path d="M509.57 183.3c-1.35 4.54-10.67-1.84-12.57-2.42-13.27-4.04-37.43-9.54-51.13-10.95-7.39-.76-20.94 1.59-27-.83-6.77-2.7-3.87-9.91-4.81-15.53-2.11-12.63-12.02-40.02-19.19-50.39-4.79-6.92-17.89-16.46-26.1-17.78-81.12-13.06-145.42 66.72-183.56 127.01-4.05 11.7-13.44 22.33-14.95 34.56 5.12 1.5 5.46-1.13 7.22-2.1 18.86-10.38 35.74-21.45 55.91-29.5 50.94-20.35 108.45-29.31 165.44-27.31 66.84 2.34 131.77 17.68 184.03 61.08 50.67 42.08 62.97 96.92 49.93 161.19-21.58 106.39-110.9 177.9-207.75 213.96-62.78 23.37-144.05 32.65-209.86 13.93-75.01-21.33-140.59-76.96-164.3-153.6-10.46-33.81-15.17-83.37-10.04-119.3 17.87-125.18 93.17-259.78 201.94-332.38 41.91-27.97 87.65-40.05 137.6-28.71C445.47 19.01 483.96 67.2 502.8 129.06c1.12 3.69 6.78 19.68 6.78 22.12 0 6.45 1.29 27.76 0 32.11ZM354.78 420.79c32.81-43.11 59.37-96.05 66-149.66.46-3.73 5.62-8.31-1.61-9.21-28.59-3.54-73.97 1.51-102.33 6.95-59.94 11.5-142.87 46.02-170.96 104.09-20.22 41.8-17.45 112.98 34.2 131.27 63.97 22.66 138.24-35.52 174.71-83.44Zm95.24 105.97c23.07-14.81 44.13-30.96 61.66-52.35 35.26-43.03 59.97-111.73 17.13-158.35-2.11-2.29-19.71-18.2-21.06-18.59-6.35-1.81-4.52 8.92-5.79 14.16-12.42 51.34-37.71 107.3-70.56 149.93-28.13 36.5-77.58 81.54-119.61 99.82-2.3 1-13.81 4.35-14.15 5.12-.18.41-.39 2.68.53 2.67 7.67-.05 14.67 1.54 22.46 1.05 47.07-2.95 90.23-18.32 129.38-43.46ZM590.92 732.93c1.41.05 2.62.19 4-.34 3.26-1.25 13.68-20 18.49-22.66l21.4-1.15.84 3.63c-4.35 3.75-9.82 8.35-13.52 12.67-2.06 2.41-2.9 5.27-4.47 7.3-2.61 3.4-12.03 10.82-9.4 15.31.19.32 2.56 1.27 3.55 2.29 7.09 7.32 12.03 14.91 18.33 22.42 3.62 4.31 11.38 8.19 9.86 13.9-1.04 1.67-16.63 1.69-19.1.65-3.06-1.29-11.86-14.7-14.98-18.2-1.97-2.21-9.32-10.1-11.21-11.26-7.83-4.8-3.88 4.49-3.76 8.04.48 13.63 2.6 28.91-16.62 25.18-2.65-.51-3.39-3.57-6.39-3.26-2.15.22-2.96 2.61-4.56 3.1-4.02 1.23-5.63-1.47-8.65-2.72-12.32-5.07-20.07-15.68-20.59-29.81-.12-3.1 1.15-5.62 1.15-8.46.05-20.61-3.05-43.92-1.17-64.32.43-4.61 3.48-9.88 8.3-10.96 2.56-.58 12.13-1.13 13 1.53l.17 84.39c2.85 5.13 5.21 10.37 11.25 12.35l2.65-1.63V677.8c0-4.73 21.41-6.15 21.41 0v55.12ZM427.89 775.42c-.39.68-10.44 10.69-11.12 11.08-1.62.91-3.67.51-4.84 1.1-1.06.53-1.08 1.8-1.59 2.05-3.06 1.51-13.25 1.68-16.64.82-6.69-1.69-13.87-13.76-18.46-13.77-4.28 0-8.31 7.41-11.74 9.78-.47.33-8.14 4.14-8.62 4.23-7.36 1.43-16.04-.47-22.29-4.44-20.87-13.27-22.98-47.42-21.09-69.98.86-10.29 9.97-7.16 17.78-5.91l3.91 44.25c1.59 4.75 3.82 8.45 6.19 12.22 2.65 4.23 1.57 8.73 10.2 4.64 12.51-5.93 15.07-21.41 15.27-33.75.08-5-3.19-25.28 1.28-27.84 2.22-1.27 13.89-2.42 15.82-.27 1.17 1.3.07 17.26.19 20.65.2 5.81.1 12.13 1.71 17.57 3.93 13.29 18.69 33.27 29.41 13.46 3.99-7.37 5.35-20.46 5.4-28.91.07-10.28-5.33-22.13 9.54-25.77 3.64-.89 10.07 2.02 10.72 5.41.81 4.22.41 18.73-.02 23.54-.89 9.78-6.15 31.38-11.02 39.84ZM22.56 711.52c.4.4 9.55-2.02 10.96-2.42 2.26-.64 2.99-2.5 6.68-2.96 21.33-2.65 45.05 16.49 46.63 37.98 1.12 15.14-1.02 25.02-12.2 35.53-27.01 25.39-69.84 6.41-73.46-29.07-1.48-14.5-1.66-50.91.11-65.15.37-2.93 2.67-9.49 5.48-10.65 3.26-1.35 13.07-1.6 15.8.9v35.86Zm7.96 56.27c13.1 12.03 33.36 1.97 36.76-14.23 1.63-7.77-4.01-21.07-11.13-24.79-1.39-.73-13.35-4.32-14.6-4.19-6.3.63-17.03 7.3-17.96 14.18-1.32 9.71-.5 22.21 6.93 29.02ZM175.88 834.88c2.55-2.33 14.3-3.59 15.65.41l.2 77.82c-5.06 2.66-13.45 6.81-16.95-.06-1.97-3.86.13-8.81-3.43-11.01.18 21.57-24.55 15.89-34.63 4.15-4.98-5.8-4.81-10.13-7.96-16.7l-.02-78.75c1.88-6.31 14.14-7.96 19.05-5.58 4.57 2.22.62 21.19 2.6 26.3 6.05 3.54 17.53-3.23 20.22 5.46 4.32 13.93-8.17 16.03-18.93 14.96l-1.61 1.61c.86 8.97-3.64 36.87 5.23 41.57 4.31 2.28 8.28.77 12.29.56 2.08-.11 4.75 2.42 5.72-.69 1.35-4.34.24-24.66.21-30.92-.02-3.71-1.24-7.37-1.16-11.77.06-3.34 1.48-15.48 3.52-17.35ZM99.31 837.08c12.54 6.98 22.25 25.42 22.88 39.79.12 2.82-1.01 5.38-.94 7.51.19 6.09 2.6 24.08-.16 28.69-3.42 5.74-20.8 6.54-17.19-4.61-4.83-.35-7.72 3.57-12.25 5.41-22.67 9.21-53.11-6.53-58.15-30.8-7.39-35.6 34.67-63.32 65.81-45.99m-26.7 13.86c-3.19.5-7.9 2.61-10.38 4.6-1.11.89-6.59 7.09-7 7.98-1.01 2.2-.96 16.81-.33 19.56.44 1.9 5.1 7.93 6.68 9.37 11.98 10.85 28.01 7.81 37.49-4.35 3.98-19.63-2.62-40.89-26.46-37.16M515.58 717.29c16.71 14.12 17.79 46.13 15.42 66.5-1.2 10.25-20.42 10.21-18.22-.56-4.99-1.38-5.84 2.05-8.63 3.69-24.78 14.57-57.15-6.72-61.76-33.37-1.34-7.74.41-9.09 2.43-15.26 2.94-8.99 5.98-15.09 14.1-21.23 8.42-6.37 15.9-8.67 26.52-8.8 10.91-.13 21.81 1.99 30.15 9.04Zm-10.62 50.62c.45-.38 3.19-4.25 3.31-4.71 1.14-4.15 1.19-20 0-24.17-1.06-3.73-6.76-9.23-10.23-11.18-7.75-4.36-13.09-4.11-21.16-.31-14.19 6.66-16.35 25.64-7.51 37.55 1.01 1.36 5.88 6.05 7.28 6.64 7.5 3.15 22.06 1.44 28.3-3.81ZM160.55 785.47c-4.99-1.05-7.57 4.42-12.28 5.2-17.24 2.87-36.57-1.22-47.55-15.49-1.39-1.8-7.2-11.3-7.5-12.84-.65-3.37-.55-19.91.03-23.48 1.77-10.81 17.88-26.84 28.52-29.27 31.9-7.31 55.1 9.56 58.01 42.18.58 6.54 1.26 34.04-2.53 37.91-1.98 2.03-18.32 2.89-16.71-4.22Zm-29.05-59.73c-3.98.74-10.38 4.11-13.08 7.25-2.25 2.61-5.92 11.47-6.59 14.88-.96 4.84 5.47 16.34 9.16 19.88 8.44 8.09 25.69 7.56 34.22-.12 7.33-6.61 5.12-24.38.11-32.07-4.51-6.91-15.82-11.32-23.82-9.83ZM352.91 841.43c6.16 4.89 14.69 19.01 15.43 26.84 4.35 46.33-56.38 65.84-81.4 28.15-28.43-42.84 28.82-84.52 65.97-54.98Zm-36.29 9.48c-17.05 3.11-20.49 30.06-9.39 41 1.43 1.41 8.16 5.45 9.99 6.07 6.47 2.19 15.99.05 21.66-3.4 8.99-5.48 10.55-21.13 7.76-30.3-.54-1.78-8.79-11.12-10.52-11.96-3.91-1.9-15.14-2.21-19.5-1.41"/>
    <path d="M199.17 836.21c.54-1.69 6.88-2.32 8.7-2.07 3.85.53 4.62 4.23 5.89 4.64 3.22 1.05 10.04-5.27 14.02-6.08 12.94-2.65 29.1.6 38.34 10.41 11.67 12.39 11.66 47.31 10.17 63.79-1.07 11.72-20.09 14.23-21.48 2.12-1.79-15.6 1.77-33.96-.45-49.85-4.12-8.52-12.66-9.91-21.42-9.59-7.27.27-12.28 3.81-15.34 10.41l-1.2 53.12c-2.56 2.73-17.22 6.36-17.22 1.24v-78.14ZM236.38 710.7c1.68 3.25 2.65 13.6-.36 15.72-4.79 3.37-23.15-.61-29.69 1.35-3.76 1.13-5.46 6.44-1.12 9.28 7.2 4.7 16.69 4.72 23.86 8.24 12.2 5.99 17.8 15.1 16.14 28.86-.7 5.79-9.85 15.45-15.59 16.52-6.61 1.23-30.01.73-37.46.09-4.09-.35-7.09-.56-6.67-5.64.22-2.58 2.77-10.95 5.1-12.07 6.01-2.88 32.43 3.68 33.13-5.32.45-5.79-13.66-7.64-17.56-9.17-4.58-1.79-11.8-4.24-15.49-6.99-4.53-3.38-9.5-13.63-9.51-19.19 0-1.53 3.89-12.9 4.72-14.39 1.36-2.43 11.03-8.11 13.86-8.57 6.29-1.02 24.23-.67 31.03-.1 1.95.16 3.92.16 5.59 1.37ZM300.85 709.38c1.99 3.86 1.78 18.2-3.75 18.2h-27.29c.35 2.52-1.04 7.38 1.05 9.12.48.39 9.89 4.01 11.49 4.56 3.69 1.26 10.16 1.93 14.19 4.05 2.92 4.65 11.1 8.21 11.85 13.8.45 3.36.36 14.71-.54 17.76-1.31 4.4-10.74 13.01-15.05 13.85-4.71.91-31.27.76-36.31-.04-12.43-1.97-7.59-19.42-1.99-21.14 6.27-1.93 20.73 6.07 31.32 2.42 8.37-2.89 4.05-8.9-2.19-11.62-7.7-3.35-19.25-5.09-26.01-9.31-.95-.59-8.71-11.48-8.98-12.42-.71-2.44-.59-13.97.35-16.32 1.05-2.61 11.49-12.89 13.87-12.89h38ZM27.18 896.36c1.82 2.03 7.78 4.29 8.73 5.72.82 1.25.65 3.45 1.42 5 2.73 5.52 6.06 6.66-2.7 9.69-51 .65-26.72-72.95-32.38-105.15.43-2.24 4.64-6.52 6.96-6.96 2.44-.47 12.38-.78 13.21 1.73l.12 80.15c.27 2.25 3.16 8.15 4.65 9.81ZM191.35 821.44c-2.35.28-3.84 4.42-4.7 4.63-7.31 1.79-12.85-.01-14.81-7.49-1.16-4.41.38-6.4 3.37-9.54 11.07-11.59 21.33 5.29 16.14 12.4"/>
  </g>
</svg>
