<svg xmlns="http://www.w3.org/2000/svg" id="Capa_2" data-name="Capa 2" viewBox="0 0 756.07 601.11">
  <defs>
    <style>
      .cls-1{fill:#37a31c}.cls-2{fill:#fcf5ba}.cls-3{fill:#fada7d}.cls-4{fill:#070705}.cls-5{fill:#060504}.cls-6{fill:#090a08}.cls-7{fill:#f39f04}.cls-8{fill:#53bb27}.cls-9{fill:#0e350f}.cls-10{fill:#f36705}.cls-11{fill:#fac915}.cls-12{fill:#fae189}.cls-13{fill:#f3420a}.cls-14{fill:#90d448}.cls-15{fill:#fdf8c5}
    </style>
  </defs>
  <g id="Capa_1-2" data-name="Capa 1">
    <path d="M.23 443.31c.94.32 2.06-.32 1.83-1.57-.1-.53-.65-1.21-1.22-1.67 1.98-36.79 17.32-77.41 35.91-110.25 39.95-70.59 96.67-128.83 161.37-177.78l26.89-77.83c3.45-14.47 13.56-25.61 28.26-28.88l158.67.24c9.98.01 17.7 4.87 24.73 11.09C486.81 29.43 538.31 9.33 594.39 1.88 610.43-.25 625.9-.49 642.01.76c33.16 2.57 69.18 17.2 90.07 43.37 9.04 11.32 15.68 24.25 19.55 38.28 9.57 34.74 2.67 79.14-10.88 112.59l-6.22 15.35c4.21 7.03 8.55 13.77 10.29 21.95 13.01 61.25-37.27 127.73-81.92 166.43l7.39 14.24c3.84 10.77 2.09 22.9-5.13 32.39-5.88 7.73-15.9 13.6-27.23 13.62l-96.45.21c-34.43 25.68-69.76 47.98-107.15 68.31-90.76 49.34-210.17 89.71-313.01 67.22-29.85-6.53-61.84-22.78-82.88-44.92C10.99 520.92-1.92 482.36.23 443.31m489.5-394.22c-8.02 1.79-16.36 7.39-24.07 11.03-5.77 2.72-11.74 6.03-16.78 9.77-1.68 1.25-6.22 1.42-6.72 4.44s.78 6.59 1.01 10.13c3.81-.3 6.16-3.33 8.83-4.99 10.5-6.53 21.43-12.56 32.88-17.13l28.2-11.27c35.07-14.02 91.74-27.77 127.59-22.97 18.01 2.41 35.71 7.57 51.02 18.4 20.87 14.77 31.38 38.96 32.43 63.69-.48.43-4.32.54-4.42-.6-.56-6.45-2.66-11.62-4.51-17.54-1.31-4.19-2.03-7.66-4.78-11.35l-5.36-11.35c-2.57-2.31-4.56-3.97-6.56-6.76-3.75-5.22-10.11-7.91-15.05-11.78-8.98-7.05-18.75-10.58-30.07-12.17-9.07-1.28-22.36-2.9-30.45-2.54-21.73.98-42.66 4.6-63.73 10.49-8.92 2.49-16.83 5.98-26.05 7.69l-9.79 3.34-28.2 11.74c-6.5 1.51-11.88 4.76-17.15 8.88-7.82 2.26-16.19 5.27-22.41 11.02-.88 2.79 3.85 5.74 5.87 6.72-5.02 2.3-9.27 6.15-15.41 7.61 1.28 1.31 1.59 2.34 2.16 4.9 6.26-4.23 12.56-6.54 18.67-9.54.2 4.97-4.56 8.41-2.68 15.39l-14.68 5.29c1 1.75 1.32 2.71 2.2 3.57l14.14-4.66c-.41 3.92-4.04 5.47-3.71 7.04.11.54 1.06 1.76 1.94 1.78l24.87.59 25.25-.14c34-.18 62.54 1.06 89.35 24.93L624 173.16c1.09 1.09 2.28 2.17 3.48 2.49 1.1.3 2.86-1.63 3.93-2.17 3.26.91 7.6 1.05 10.63-1.22 1.61-.26 5.3 1.28 5.64 2.69l-.94 5.38 4.62-3.34 20.34 28.33 5.49 8.77-2.76.52c-14.24-10.75-29.73-19.48-46.85-27.98.61 2.75 1.42 6.98 3.63 9.19l12.07 6.89c-.09 1.37.38 3.08-.11 3.92-.52.89-2.1 1.55-4.1 1.84l1.81 20.72-.97 5.28c-.7.14-1.85.16-2.49.07-.4-.05-1.33-.45-1.89-.34-.59.11-.87 1.6-.55 2.4.23.58 1.16.89 2.01.62l-.05 4.21 1.04 10.78c.51 5.31 3.96 8.85 8.44 11.57-3.18 2.03-6.71 5.3-10.33 6.58-.4-1.06-1-1.9-2.04-2.21-1.78 1.15-2.13 2.63-1.85 4.44-1.28.85-4.06 2.17-4.82 3.83l-5.01 11.99c-.62-.4-2.33-.27-2.65.49-1.39 3.23-.88 6.91.85 9.67 1.8-2.21 3.62-2.66 5.55-1.6l7.34 4.04c-1.78 3.05-3.28 5.37-3.34 8.18l-6.83 8.37-20.77 23.12-23.1 23.12c-29.5 27.28-60.58 52.2-94.05 73.69-.75-.41-2.02-.47-2.72-.14-.54.26-.93 1.38-.53 2.26l-24.34 16.25-25.21 14.9-12.35 6.9c-.87-3.75.56-7.33 3.11-10.16l5.67-6.31 12.04-4.89c3.51-1.42 5.89-3.62 9.37-4.78 4.49-1.49 6.06-6.99 8.9-9.9 3.18-3.26 6.76-5.44 7.78-10.4.7-.7 2.43-1.7 2.67-2.78-2.66-.57-4.16-.86-5.37-2.19-.39-3.1 5.58-5.89 6.68-3.49 1.38 3.01 1.65 5.7 3.96 7.19 2.76 1.79 5.57 1.56 9.85.93-.08-5.53.4-14.77-3.94-19.77-3.84-2.41-8.01-2.51-8.85-8.75l-3.32-11.21c-.81-2.72-4.76-5.34-7.5-5.44-1.74-.07-2.96 3.16-4.16 3.58-1.82.64-2.5-.84-2.75-2.12-.21-1.06-.89-2.6.98-3.66 1.23-.7 2.69-1.51 3.23-2.39 1.27-2.08-1.52-11.5-5.34-17.62l-2.11-9.38c-.34-1.53-2.5-1.09-3.47-.84s-2.72 2.25-1.8 3.54c1.68 2.36.78 5.07 1.32 6.99 1.88 6.72-1.99 9.98 1.55 19.4 1.2 3.19.23 4.15.05 7.09l-.71 13.87-6.15 1.09-31.81.26c-6.25.05-11.94.02-18.23-.08l-14.61-.23-35.22-.2-5.03-.65c-.6-1.8-1.29-3.73-1.19-5.77l105.81.07-12.88-83.01c-.55-3.52-2.3-6.41-1.69-9.5l4.22-2.66 22.12-1.53-31.88-131.17-19.75-82.12c2.08-.47 4.15.49 6.32.45l6.62 27.42 3.63 15.1c1.91 7.94 5.83 14.4 13.52 17.85l2.61 3.86c1.01 1.5 3.75.1 5.71.08l53.7-.52 14.12-.92c4.84-.32 10.05-2.58 11.35-8.56l-87.6-.26-5.34-21.68-2.63-13.31c3.09.69 6.21-1.91 7.07-5.55 1.54-6.54-1.32-13.47-2.89-20.06l-4.28-18.01c-1.09-4.6-5.53-6.34-10.04-6.85l-4.54-2.73-10.23-.75-135.68-.38c-12.45-.04-21.77 4.74-26.03 16.73l-10.17 28.61-10.4 30.12-8.63 24.97c-1.52 4.39-2.22 10.26-5.16 13.7-7.82 9.13-.91 11.9-1.86 15.54-1.52 5.83-13.72 9.11-14.07 17.37-.21 4.84-1.83 5.23-4.82 7.44-8.25 6.1-12.33 16.24-19.08 24-4.09 2.78-10.39 4.03-13.97 7.69l-8.15 8.34c-15.99 16.36-29.65 34.79-42.07 54.51-7.8 12.4-13.75 24.89-18.01 38.38-.49 1.54-.72 3.99-2.61 5.08-4.56 2.62-10.74 2.12-11.69 4.67-.29.78.48 2.26.34 3.08l-.6 3.38c-3.3-.15-5.49 10.44-8.35 17.68-5.3 13.43-8.57 27.19-9.94 41.12l.16 1.96c-1.59 1.25-1.6 3.6-.11 4.94l-.04 1.87c-.92-.2-1.67.34-1.82.92-.29 1.09-.18 2.51-.06 3.37l.27 1.97c-1.54.09-1.26 1.58-1.31 2.82-.47 11.86.6 22.79 4.04 34.03l8.03 26.22 10.33 17.36c2.65 4.45 7.53 6.12 11.47 8.6l10.44 6.55c10.64 5.15 20.87 8.64 32.35 11.56 3.73.95 8.45 8.12 18.67 4.97 4.91-1.51 10.59.29 15.6.63l9.27.62 10.69-.69c4.15-.27 7.16-.03 10.75-.17l30.75-1.15 14.29-3.11c3.47-.76 4.11.26 7.36-1.45 7.29-3.84 19.14 3.72 26.85-5.34 1.97-2.32 7.03-2.62 9.85-2.55 5.06.12 7.22-2 10.16-5.33 2.09-2.37 6.9-2.48 10.02-2.82l15.14-1.68c6.15-.68 17.4-6.3 17.43-11.76.59-.94 2.93-2.12 2.55-3.61l9.82 1.46c6.25.93 12.69 1.26 19.04.93l.17 1.97-6.2 2.65c-.55.23-.74 1.04-1.14.89-26.88 11.57-54.57 21.79-83.48 28.6-.84-.39-2.09-.2-2.29.74-21.86 6.14-44.4 9.4-66.93 11.89-1.67-1.55-5.43-1.66-6.29.74l-18.79.41-25.88-1.12c-.32-.88-1.46-.7-2.29-.65l-1.86.12c-.57-2.5-3.54-1-5.05-1.29l-17.79-3.32c-7.89-1.47-15.11-4.64-22.88-7.96-18.88-8.08-35.47-20.14-47.46-36.38-21.59-39.96-16.64-84.21-2.1-126.65l4.65-13.59c22.79-53.97 59.9-102.66 101.29-144.62l6.99-7.08 25.73-24.17c3.68-3.45 6.04-7.97 4.97-12.93-37.9 30.5-70.43 62.55-99.7 99.23-21.67 27.15-40.63 56.33-55.41 88.37-7.32 15.86-12.58 31.62-16.13 48.12-.91.07-2.65-.22-3.47.78-.89 1.07 1.33 3.12.96 3.81l-1.44 2.74c-.22.42 1.21 1.42 2.01 1.67l-2.07 22.89c-1.31 38.24 10.88 72.79 40.42 98.72 15.48 13.59 34.32 22.42 53.63 28.4 36.28 11.24 77.08 11.22 115.27 5.2 31.02-4.89 60.84-12.33 89.86-22.87l22.25-8.08c26.87-11.04 52.82-23.05 77.84-36.96 37.71-20.96 74.23-44.34 107.95-71.23 24.17-18.44 47.24-38.11 68.71-60.18l29.18-29.99c28.08-31.63 52.68-65.34 73.08-101.96l2-.03 3.26 10.7c1.9 6.22 2.02 12.26 1.75 18.29-1.46-.39-2.16.09-2.32 1.49-.2 1.73.21 2.88 2.14 2.5-.79 17.68-11.38 40.63-20.76 57.42-10.86 19.42-25.72 35.79-42.38 50.23l4.3 5.73 21.47-20.74 32.59-40.3c19.38-26.84 36.27-64.93 27.52-97.12-2.17-8-8.03-13.77-12.75-20.56 17.26-37.58 30.88-79.29 21.92-120.41-5.73-26.29-22.1-47.41-44.97-59.63-12.99-6.94-26.19-12.14-41.02-13.94-24.26-2.95-48.92-2.26-73.52 2.86l-41.94 11.06c-13.73 4.59-26.76 9.21-40.05 14.96-1.51.65-2.97.89-3.74 2.35Zm93.95 282.86-9.42-12.65 8.86-7 8.11-5.65c4.13-2.88 5.22-5.78 7.77-9.49 3.4-4.97 7.67-9.22 10.29-14.73 5.2-10.95 9.24-21.14 11.02-33.24 3.84-26.15-.05-52.59-16.63-73.67-8.76-11.14-19.68-21.77-33.55-25.07 11.09 7.79 21.25 13.69 28.84 23.7 11.01 14.52 16.86 30.99 18.2 49.05.92 12.45.36 24.27-6.04 35.16-3.74 3.22-5.87 7.88-5.99 12.88-6.71 11.55-15.65 20.8-24.29 30.78-2.99 3.45-5.46 6.06-9.61 8.73-3.06 1.96-.5 7.44 1.01 9.94l5.8 9.62c1.11 1.84 3.58 4.11 5.64 1.64ZM437.84 166.26c1.86 12.65 5.32 24.81 8.42 37.83l20.72.17 10.04-.04 5.06.08c4.15 2.31 7.14 5.86 7.86 11.18 2.83 21.04.66 42.39-6.99 61.69-1.26.21-1.71 1.12-2.15 2.53-1.88 5.97-7.04 9.49-13.42 9.99l3.56 14.75c.99 4.12-.94 9.15-5.59 9.27l-21.63.56 14.68 28.87c-1.5.84-2.41 2.55-1.49 4.11.41.7 1.2 1.58 1.65 1.61.69.04 1.76-.94 2.04-1.9l15.62 29.28c-.85.03-2.03-.16-2.53.12-.93.53-1.04 2.62.08 2.74 1.05.12 2.07.24 2.61.13.41-.08.83-.33 1.08-1.09l17.74 33.05c1.19 2.22.97 2.34 3.44 2.74 2.68.43 3.17-.53 5.11-2.08l35.57-28.37 36.5-30.88-24.15-34.01c-5.18-7.29 5.36-6.23 17.03-14.39 31.54-22.06 43.28-64.41 29.77-100.13-4.75-12.55-13.72-22.66-25.44-29.96-14.48-9.03-30.83-12.07-48.05-12.05l-87.99.07c-.87 1.81.73 3.17.87 4.13Zm171.19 216.01c-2.53-1.92-7.37 2.58-9.82 1.81-.42-.13-1.46-1.01-2-.5l-21.42 20.4-14.16 13.25 43.3.12c.5.93.12 3.52-1.09 3.55-3.85.12-6.5 2.98-9.95 3.02l-13.77.13c-4.56 1.06-9.27 1.98-13.56.42-3.63-1.32-4.24 1.92-6.13 3.32-3.57 2.65-12.19 6.78-11.38 8.9.3.79 1.66 1.45 3.11 1.45l89.67-.25c5.05-.43 9.25-7.71 10.06-11.57.74-3.56-.92-6.02-2.59-8.39l-16.96-24.06-13.32-17.06c-1.74-2.23-3.63-4.56-6.88-5.11-1.1 4.21-3.03 6.95-3.09 10.56Z" class="cls-5"/>
    <path d="M.23 443.31c.06-1.02-.63-2.47.61-3.24.57.46 1.13 1.15 1.22 1.67.23 1.25-.9 1.89-1.83 1.57M333.26 338.1c-1.98 1.27-1.31 4.03-1.25 6.06s.81 3.86.09 5.81c-2.26.6-3.34-1.82-4.85-2.85-4.59-3.13-8.1-6.52-7.88-12.35l.98-25.45.31-29.82-7.76 15.58c-8.12 11-5.45 19.57-9.95 32.25 6.43-3.63 3.96 2.28 7.73 16.07 1.15 4.2-.34 8.58-.5 12.76l-.64 16.54c-.41 10.53-1.12 20.97-3.66 31.44-1.05 4.33-.1 7.46 2.28 10.49 2.55 3.26 6.06 2.03 9.94 1.76l13.91-.96 36.99.09c5.65.01 11.26.64 16.41-1.88 1.36-.67 1.17-4.03-.04-4.75-2.55-1.52-5.09-1.84-8.14-2.08-.22-.61-.1-1.3.05-1.58l14.61.23c6.29.1 11.98.13 18.23.08l31.81-.26c.55 3.57-4.89 1.69-8.65 7.38 3.09 1.73 5.07 3.45 7.88 3.42l15.84-.15c2.21-.02 6.99-3.38 6.78-5.81l-1.87-21.48c-5.02 3.79-7.11 8.5-8.43 14.32-.42 1.73-4.06.98-5.4 1.22l.71-13.87c.18-2.94 1.15-3.9-.05-7.09-3.55-9.42.32-12.68-1.55-19.4-.54-1.92.36-4.63-1.32-6.99-.92-1.29.79-3.27 1.8-3.54s3.13-.69 3.47.84l2.11 9.38c3.82 6.12 6.61 15.54 5.34 17.62-.54.88-2 1.69-3.23 2.39-1.86 1.06-1.18 2.6-.98 3.66.25 1.28.93 2.76 2.75 2.12 1.2-.42 2.42-3.65 4.16-3.58 2.74.11 6.69 2.73 7.5 5.44l3.32 11.21c.84 6.25 5.01 6.35 8.85 8.75 4.34 5.01 3.86 14.25 3.94 19.77-4.28.63-7.09.85-9.85-.93-2.31-1.49-2.58-4.18-3.96-7.19-1.1-2.4-7.07.39-6.68 3.49 1.21 1.32 2.72 1.62 5.37 2.19-.24 1.08-1.96 2.07-2.67 2.78-1.02 4.96-4.6 7.14-7.78 10.4-2.84 2.91-4.41 8.41-8.9 9.9-3.48 1.16-5.87 3.35-9.37 4.78l-12.04 4.89-5.67 6.31c-2.55 2.83-3.97 6.41-3.11 10.16-10.22 5.71-20.54 13.1-31.8 16.43l-22.45 2.84c-15.46 1.96-31.17-2.15-45-8.77-.25.01-.54.05-.74 0l-1.25-1.12-16.93-11.73c.15-.17.31-.48.24-1.13 14.43-10.95 28.07-22.48 41.07-34.54l18.11-16.81-16.06.17-12.45 12.08-2.38 2.66-19.39 15.68c-1.17-.15-2.78-.23-3.88.54-.9.62-.97 2.48-1.32 3.38l-11.78 9.88c-6.8-6.35-10.09-13.73-13.74-20.85 2.79-2.27 7.08-1.6 9.49.65 3.04 2.84 5.4 1.83 8.65.99 7.21-1.87 14.1-5.7 13.92-11.35-.22-6.69-13.19-10.89-15.37-19.1l-1.32-13.23c-.62-6.24 4.07-13.51 1.69-20.56-4.2 1.52-7.29.83-9.81-1.77 1.2-1.27 1.72-4.4 4.32-4.6 1.68-.13 3.15-1.27 4.74-2.13 2.64-1.42 2.11-2.9 2.42-4.88.82-5.16 1.25-10.35.85-16.46-5.3 3.43-9.32 7.12-13.19 11.09-4.83 4.95-9.2 10.76-11.9 17.34-1.17.6-2.73 2.54-2.81 3.86l-4.02 2.31c-8.2-2.7-2.47-11.93-7.09-22.39-.65-1.46.24-4.34-1.02-5.28l22.38-8.32c6.11-2.27 12.84-3.69 17.82-8.11 1.88-2.44 1.31-7.14 1.12-10.2-6.9 4.61-13.74 7.08-20.72 9.69l-31.33 11.72c-2.87 1.07-5.58 1.89-8.24 1.67.03-4.71 10.68-5.4 12.46-12.5-5.22-1.22-9.87-3.04-14.46-2.98l-40.05.52-14.86.22c-.47-4.61 2.77-9.17 7.78-9.36 1.47-.06 3.05 2.58 4.1 3.13 10.7 1.88 22.91-.8 20.94-4.5-.4-.75-1.31-1.94-2.58-2.04l-10.25-.77c-4.05-.3-7.21-1.18-11.23.1-3.19 1.02-6.54.56-9.09-1.84 1.77-2.29 2.83-4.03 3.22-6.09l27.99.03 40.96-.13c1.96 0 4.29-3.07 3.74-4.67-2.26-2.72-6.11-3.25-9.5-3.49l-4.34-1.53-17.94.07c-2.47 0-4.8-1.43-7.39-1.54-4.5-.19-9.04-.05-13.66-1.99l-3.15.05c-.72.01-1.12-1.21-.74-2.51l74.83-.48 12.87-55.99c.91-3.95 2.77-6.82 7.37-6.47l36.44.32c3.55.03 3.78 4.72 3.63 7.38l-4.87 87.89Z" class="cls-4"/>
    <path d="M724.13 110.18c.33 7.76.11 15.37-1 23.05l-1.9 13.13c-4.44 19.05-10.61 37.05-19.43 55.25l-10.48-12.67-18.6-22.54c-13.38-16.21-24.7-33.42-36.5-50.32-9.86-14.13-23.93-29.17-38.98-37.29-22.04-11.89-49.04-11.5-73.5-6.14-21.64 4.74-42.08 14.1-62.26 23.33-2.02-.98-6.75-3.93-5.87-6.72 6.21-5.75 14.58-8.76 22.41-11.02 5.27-4.12 10.65-7.37 17.15-8.88l28.2-11.74 9.79-3.34c9.22-1.71 17.14-5.2 26.05-7.69 21.07-5.89 42-9.51 63.73-10.49 8.09-.36 21.38 1.26 30.45 2.54 11.32 1.59 21.09 5.12 30.07 12.17 4.94 3.87 11.3 6.56 15.05 11.78 2 2.79 3.99 4.45 6.56 6.76l5.36 11.35c2.75 3.69 3.48 7.17 4.78 11.35 1.85 5.92 3.94 11.09 4.51 17.54.1 1.14 3.94 1.03 4.42.6Z" class="cls-6"/>
    <path d="m703.06 277.18.18-3.99c.27-6.02.14-12.07-1.75-18.29l-3.26-10.7-.21-1.49c-.1-.74-1.2-.3-1.48.37-.16.39-.08 1.22-.31 1.14-20.4 36.63-45 70.33-73.08 101.96l-29.18 29.99c-21.47 22.07-44.55 41.74-68.71 60.18-.76-1.61.42-4.42 1.97-4.7 4.69-.87 4.93-4.64 7-7.3 4.8-6.18 8.62-11.94 10.86-19.35 3.09-4.81 9.37-8.22 13.54-12.18l11.82-11.21 9.6-8.53 25.93-25.85 12.08-12.97 17.28-20.78c1.16-1.39 2.05-2.9 1.64-4.5-.33-1.31-1.36-2.7-3.13-3.01l14.91-19.12c6.71-8.6 13.65-16.57 18.63-26.7-7.55.63-13.8 10.21-22.55 13.38.59-2.1 1.73-3.93 4.87-5.09l9.29-8.2c3.52-1.59 5.96-3.32 4.78-7.53l15.41-11.3c1.83-1.34 2.7-2.87 2.11-4.55s-.19-3.94-.11-5.76c.36.12 2.52.14 2.69-.43s-.89-1.79-.9-2.36c1.19-1.38 4.04-.95 5.92-1.5 1.77-.73 1.8-4.12 2.12-5.58.93.05 2.05-.28 2.56-1.4l5.41-11.86-10.35-12.48c.92-.16 2.3-.41 2.31-1.4l.38-5.18 10.48 12.67c8.82-18.2 14.98-36.2 19.43-55.25l1.9-13.13 6.87-6.34-.31-25.45c-1.47-16.62-7.22-31.51-17.01-44.91-3.47-4.75-6.75-10.01-11.51-13.49l-8.1-5.91c-1.8-1.32-3.4-2.54-3.06-5.34 22.86 12.22 39.24 33.33 44.97 59.63 8.96 41.11-4.66 82.83-21.92 120.41 4.72 6.79 10.58 12.56 12.75 20.56 8.75 32.19-8.14 70.28-27.52 97.12l-32.59 40.3-21.47 20.74-4.3-5.73c16.65-14.44 31.51-30.81 42.38-50.23 9.39-16.78 19.97-39.74 20.76-57.42Zm3.05-29.55c5.21 20.72 2.21 40.43-4.42 61.48 7.93-6.6 10.23-16.57 13.5-25.78 6.39-17.97 7.42-37.14.73-55.05l-6.06-10.11-7.34 13.18 12.18 1.05c1.09.09 1.56 1.6 1.25 2.23-1.04 2.12-8.06.57-13.18 3.75l3.33 9.26Z" class="cls-13"/>
    <path d="m423.8 108.19-9.62-40.92H253.59c-4.11 14.83-9.71 28.73-14.75 43.89l-47.87 143.92-19.95 59.03c-.42 1.25-2.16 2.54-2.11 3.55.07 1.37 1.47 3.37 3.24 3.39l14.89.12c-.39 2.07-1.46 3.8-3.22 6.09 2.55 2.4 5.91 2.86 9.09 1.84 4.01-1.28 7.18-.4 11.23-.1l10.25.77c1.27.1 2.17 1.28 2.58 2.04 1.97 3.71-10.23 6.38-20.94 4.5-1.05-.55-2.63-3.19-4.1-3.13-5.01.19-8.24 4.75-7.78 9.36l-18.94 1.71c-21.72 1.96-43.38 3.43-65.63 3.61 1.64-2.34 4.01-2.86 5.71-3.4 7.42-2.36 13.91-6.73 20.67-11.27 9.22-6.18 18.18-12.28 25.48-20.82l-7.8 3.8c3.94-6.02 9.37-9.98 14.36-14.99 3.71-3.72 4.95-9.15 5.94-13.78 2.85-.77 4.75-1.67 6.39-5.15 4.54-9.64 6.98-20.02 10.41-30.21l8.35-24.75 7.8-21.31c2.93-8 7.16-16.61 6.39-25.22-.41-4.66-.69-7.1 1.82-11.54s2.71-11.28 6.11-15.68c6.19-8.02 4.54-14.58 5.4-24.22l10.4-30.12 10.17-28.61c4.26-11.99 13.59-16.76 26.03-16.73l135.68.38 10.23.75 4.54 2.73c4.51.51 8.95 2.25 10.04 6.85l4.28 18.01c1.57 6.59 4.42 13.53 2.89 20.06-.86 3.64-3.97 6.24-7.07 5.55M104.58 449.27c6.29 19.82 14.6 39.14 28.5 54.82.67 1.09.55 4.93-.95 4.72-2.72-.38-4.07-.61-5.43.87l-.44 5.49-10.43 5.87c-6.46 3.63-9.37-4.96-15.76-6.71-4.91-1.34-8.75-3.68-13.28-5.97-4-2.02-10.74-.64-13.95-3.96-2.17-2.25-2.8-6.32-5.61-8.42-10.79-8.05-12.61-21-16-31.27-5.39-16.35-3.45-22.83-4.89-33.44l-.27-1.97c1.42.27 2.03-.79 2-1.62l-.12-2.66.04-1.87c1.55-.92 1.5-3.83.11-4.94l-.16-1.96c.52.15 1.2.06 1.46-.2.32-.31.44-.98.63-1.83l1.35-5.82c1.7-12.88 5.93-24.57 10.07-36.85l4.76-14.11.6-3.38c3.73-.45 9.92.26 11.73 4.5 13.3 31.14 16.49 60.67 26.01 90.69Z" class="cls-6"/>
    <path d="m423.8 108.19 2.63 13.31c-4.69-.76-7.58-4.88-11.7-4.95l-6.62-27.42-2.64-12.71-29.48-.22c-2.76-.02-4.84.27-6.26 2.22-1.1 1.51-2 3.13-1.73 5.26l-3.97.59-61.12-.02-39.68-.03-5.02 13.99-15.64 46.84-8.59 25.27-27.35 79.65-18.2 54.03c-.39.13-.53.58-.34.77.59.61 1.56.45 1.95.44l3.83-.07 9.12.29c-.38 1.31.02 2.52.74 2.51l3.15-.05c4.62 1.94 9.16 1.79 13.66 1.99 2.58.11 4.92 1.55 7.39 1.54 1.08 6.77-11.02 2.59-12.92 9.76l-27.99-.03-14.89-.12c-1.77-.01-3.17-2.01-3.24-3.39-.05-1 1.69-2.29 2.11-3.55l19.95-59.03 47.87-143.92c5.04-15.16 10.64-29.06 14.75-43.89h160.59l9.62 40.93Z" class="cls-9"/>
    <path d="m133.08 504.09 3.21 2.76c4.29 3.69 8.03 7.15 12.52 9.75 7.69 4.45 16.71 8.33 26.3 9.22 26.89 2.51 54.14-5.82 77.26-19.18l24.17-13.97 17.34-11.13 10.06 8.68c.6.52 1.17 1.09 2.04 1.23l.92.76c.14.46.53.99 1.01.99h1.07c6 5.87 14.13 9.13 22.08 11.78.39 1.49-1.96 2.67-2.55 3.61-.03 5.46-11.28 11.08-17.43 11.76l-15.14 1.68c-3.11.35-7.93.46-10.02 2.82-2.93 3.33-5.1 5.45-10.16 5.33-2.82-.07-7.88.23-9.85 2.55-7.71 9.06-19.55 1.51-26.85 5.34-3.25 1.71-3.89.69-7.36 1.45l-14.29 3.11-30.75 1.15c-3.59.13-6.6-.1-10.75.17l-10.69.69-9.27-.62c-5.01-.33-10.69-2.14-15.6-.63-10.22 3.15-14.94-4.02-18.67-4.97-11.48-2.92-21.71-6.41-32.35-11.56l-10.44-6.55c-3.94-2.48-8.82-4.15-11.47-8.6l-10.33-17.36-8.03-26.22c-3.44-11.24-4.52-22.17-4.04-34.03.05-1.24-.24-2.73 1.31-2.82 1.45 10.61-.5 17.09 4.89 33.44 3.39 10.27 5.2 23.22 16 31.27 2.81 2.1 3.44 6.17 5.61 8.42 3.21 3.33 9.94 1.94 13.95 3.96 4.54 2.29 8.38 4.63 13.28 5.97 6.39 1.75 9.31 10.34 15.76 6.71l10.43-5.87.44-5.49c1.36-1.48 2.71-1.25 5.43-.87 1.5.21 1.62-3.64.95-4.72Z" class="cls-4"/>
    <path d="m352.74 512.87 9.63 3.85c3.17 3.41.17 7.73-3.29 9.55l-19.82 10.38c-3.33 1.75-5.85 7.02-10.13 7.41-3.85.36-5.11 2.06-8.09 4.34-1.41 1.08-4.6 1.13-3.83 4.25-29.02 10.54-58.84 17.98-89.86 22.87-38.19 6.02-78.99 6.04-115.27-5.2-.12-2.69 1.36-4.02 3.75-5.44l3.92-4.88c1.48-1.84 3.99-2.27 5.24-3.78 6.19-.37 11.16 2.34 13.18 9.01 3.69.65 8.24 4.69 11.8 3.16l15.44-6.65c4.04-1.74 8.83-4.23 9.57-6.5l18.79-.41c2.13-.05 4.6 1.29 6.29-.74 22.52-2.49 45.07-5.75 66.93-11.89.78-.22 1.65-.14 2.29-.74 28.91-6.81 56.6-17.03 83.48-28.6Z" class="cls-11"/>
    <path d="m477.45 378.14-1.25-1.91-15.62-29.28-2.2-3.82-14.68-28.87 21.63-.56c4.64-.12 6.58-5.15 5.59-9.27l-3.56-14.75c6.39-.5 11.54-4.02 13.42-9.99.44-1.41.9-2.32 2.15-2.53-1.86 2.88 2.11 6.18 6.49 11.29-1.01 4.71-5.91 7.04-10.89 8.3 1.75 7.63 4.5 14.89 2.88 22.06-.74 3.29-6.53 4.19-9.15 4.39l-11.01.81c13.7 23.58 26.2 46.07 38.11 70.04 2.75.9 6.43 1.38 9.52.86 17.62-14.34 34.83-28.7 51.72-44.53l-25.94-36.82c-1.65-2.35-.69-6.46-.54-9.43 38.78-7.69 61.07-43.86 56.08-81.92-.62-4.75-1.87-9.41-3.65-13.79 1.25-6.14 8.22-1.21 11.9-4.36 13.51 35.73 1.77 78.08-29.77 100.13-11.67 8.16-22.2 7.1-17.03 14.39l24.15 34.01-36.5 30.88-35.57 28.37c-1.94 1.55-2.43 2.51-5.11 2.08-2.46-.4-2.24-.51-3.44-2.74l-17.74-33.05Z" class="cls-3"/>
    <path d="M525.25 436.38c-33.71 26.88-70.24 50.27-107.95 71.23.49-5.09 2.42-9.56 5.24-14.02l33.64-22.12c7.19-4.73 10.7-13.17 7.44-13.95l-5.8-1.68 24.34-16.25c1.25-.36 2.45-1.1 3.25-2.12 33.47-21.48 64.55-46.41 94.05-73.69l23.1-23.12 20.77-23.12 6.83-8.37 3.69-3.18c1.78.32 2.8 1.7 3.13 3.01.41 1.61-.48 3.11-1.64 4.5l-17.28 20.78-12.08 12.97-25.93 25.85-9.6 8.53-11.82 11.21c-4.17 3.95-10.46 7.37-13.54 12.18-2.24 7.41-6.06 13.18-10.86 19.35-2.07 2.66-2.31 6.43-7 7.3-1.56.29-2.74 3.09-1.97 4.7Z" class="cls-10"/>
    <path d="m537.7 109.53 4.25.8c.27-.11.74-.13.71.42 27.27 2.26 52.95 12.74 74.65 30.07 11.04 8.82 20.77 17.77 28.82 28.88l5.28 7.29-4.62 3.34.94-5.38c-.34-1.42-4.03-2.95-5.64-2.69-3.03 2.27-7.37 2.13-10.63 1.22-1.08.54-2.83 2.47-3.93 2.17-1.2-.33-2.39-1.41-3.48-2.49l-20.44-20.42c-26.81-23.87-55.35-25.12-89.35-24.93l-25.25.14-24.87-.59c-.88-.02-1.83-1.23-1.94-1.78-.33-1.57 3.3-3.12 3.71-7.04 22.93-7.56 47.66-10.2 71.81-9Z" class="cls-6"/>
    <path d="m347.59 298.58.02 7.55-3.44 52.04-1.18 28.95 84.64-.14-11.74-80.8c3.76-2.47 7.4-2.4 11.21 0-.61 3.09 1.14 5.98 1.69 9.5l12.88 83.01-105.81-.07h-5.07c-.33-.55-1.51-.68-1.4-2.4l2.74-41.94c.31.11 1.05.09 1.34-.14.32-.25.65-1.01.66-1.86l.03-8.07c2.3.03-1.12-7.8 2.8-15.1.09-2.14-2.11-6.24-.73-8.77 4.99-9.15 0-18.31 7.07-22.75 1.09-.69 3.47.77 4.3.99Z" class="cls-3"/>
    <path d="m334.14 344.2-2.13-.04c-.06-2.03-.73-4.79 1.25-6.06l.88 6.09Z" class="cls-3"/>
    <path d="M51.75 504.64c12 16.24 28.59 28.31 47.46 36.38 7.77 3.33 14.99 6.49 22.88 7.96-.43 3.5 2.92 4.58 2.89 7.24-1.25 1.5-3.76 1.93-5.24 3.78l-3.92 4.88c-2.4 1.42-3.88 2.76-3.75 5.44-19.31-5.98-38.15-14.82-53.63-28.4-29.54-25.93-41.73-60.48-40.42-98.72 3.55.52 6.91 1.2 11.3.8L31 461.21c.79 8.12 2.9 15.73 5.81 23.25 2.51 8.6 7.88 15.42 14.93 20.18Z" class="cls-14"/>
    <path d="M332.11 349.97c-.48 1.3.11 2.98.02 4.29l-2.74 41.94c-.11 1.72 1.07 1.85 1.4 2.41 1.35 2.33 3.32 5.38 6.26 5.76l5.03.65 35.22.2c-.15.29-.26.98-.05 1.58 3.04.24 5.58.56 8.14 2.08 1.21.72 1.4 4.09.04 4.75-5.14 2.51-10.76 1.89-16.41 1.88l-36.99-.09-13.91.96c-3.88.27-7.39 1.5-9.94-1.76-2.38-3.04-3.33-6.16-2.28-10.49 2.54-10.47 3.26-20.92 3.66-31.44l.64-16.54c.16-4.18 1.65-8.57.5-12.76-3.77-13.79-1.31-19.7-7.73-16.07 4.49-12.68 1.82-21.25 9.95-32.25l7.76-15.58-.31 29.82-.98 25.45c-.22 5.83 3.29 9.22 7.88 12.35 1.52 1.03 2.6 3.45 4.85 2.85Z" class="cls-6"/>
    <path d="M401.27 88.85s.36-.09.52-.16l19.75 82.12 31.88 131.17-22.12 1.53-4.22 2.66c-3.81-2.39-7.45-2.47-11.21 0l-1.61-10.63 24.35-4.36-8.4-37.97-37.34-156.87c1.71-2.8 3.39-6.21 6.33-7.16.54 2.58 2.79 2.15 2.06-.33Z" class="cls-12"/>
    <path d="m54.31 364.4-4.65 13.59c-14.54 42.44-19.48 86.7 2.1 126.65-7.05-4.76-12.42-11.58-14.93-20.18-2.91-7.52-5.02-15.13-5.81-23.25L29.34 444c-4.4.4-7.75-.28-11.3-.8l2.07-22.89 1.94-9c3.56-16.51 8.81-32.26 16.13-48.12 14.78-32.04 33.74-61.22 55.41-88.37 2.49 9.34-8.44 15.12-11.17 22.38-1.83 4.87-4.53 8.13-6.83 12.52l-12.72 24.26c-3.03 5.78-3.08 12.79-6.44 18.55-2.17 3.72-3.79 7.06-4.16 11.7.56.25 1.29.14 2.06.16Z" class="cls-8"/>
    <path d="m619 376.82 13.32 17.06 16.96 24.06c1.67 2.37 3.33 4.83 2.59 8.39-.8 3.86-5.01 11.14-10.06 11.57l-89.67.25c-1.45 0-2.8-.65-3.11-1.45-.8-2.13 7.81-6.25 11.38-8.9 1.88-1.4 2.49-4.64 6.13-3.32 4.3 1.56 9.01.64 13.56-.42l13.77-.13c3.45-.03 6.1-2.9 9.95-3.02 1.21-.04 1.59-2.62 1.09-3.55l17.19-.2-8.42-12.67-14.49-20.41c2.45.77 7.29-3.73 9.82-1.81 1.15.87 1.68 1.93 3.44 1.11 4.48-2.09 1.02-7.84 6.54-6.56Z" class="cls-6"/>
    <path d="m457.82 455.85 5.8 1.68c3.25.78-.25 9.22-7.44 13.95l-33.64 22.12c-2.81 4.47-4.75 8.93-5.24 14.02-25.02 13.91-50.97 25.92-77.84 36.96l-22.25 8.08c-.77-3.12 2.42-3.18 3.83-4.25 2.98-2.28 4.24-3.99 8.09-4.34 4.28-.39 6.8-5.67 10.13-7.41l19.82-10.38c3.46-1.81 6.46-6.13 3.29-9.55l-9.63-3.85c.4.15.59-.65 1.14-.89l6.2-2.65 2.07-.8 20.24-8.92c2.68-1.18 5.01-2.44 6.07-5.54 11.26-3.33 21.58-10.71 31.8-16.43l12.35-6.9z" class="cls-7"/>
    <path d="M163.93 287.39c1.06-4.97.74-11.03-.2-16.3l3.1-5.09c5.29-8.22 10.99-16.7 11.05-27.84-8.88 13.75-16.44 27.4-26.65 39.42 1.39-7.35 4.64-15.12-2.31-18.1-12.38 2.92-16.09 22.15-24.08 25.55-4.03 1.72-8.52 2.81-11.88 6.05.17 11.97-2.54 16.03-13.33 19.08 10.56-18.9 28.15-45.2 42.33-60.73l4.9-5.37c1.31-1.44 2.23-2.51 2.15-4.05 3.58-3.66 9.88-4.91 13.97-7.69 6.75-7.76 10.83-17.89 19.08-24 2.99-2.22 4.62-2.61 4.82-7.44.36-8.27 12.55-11.54 14.07-17.37.95-3.64-5.97-6.41 1.86-15.54 2.95-3.44 3.65-9.31 5.16-13.7l8.63-24.97c-.86 9.64.79 16.21-5.4 24.22-3.4 4.4-3.56 11.18-6.11 15.68s-2.24 6.88-1.82 11.54c.77 8.61-3.47 17.22-6.39 25.22l-7.8 21.31-8.35 24.75c-3.43 10.19-5.88 20.57-10.41 30.21-1.64 3.48-3.54 4.38-6.39 5.15Zm12.8-61.48c2-1.2 2.15-2.5 2.22-3.36.07-.92-1.21-2.32-1.72-1.99-1.7 1.15-2.19 2.3-2.45 3.14-.47 1.52.41 3.13 1.95 2.21" class="cls-4"/>
    <path d="M105.28 344.45c-1.7.54-4.07 1.06-5.71 3.4 22.24-.18 43.91-1.65 65.63-3.61-.12.92-.17 2.37.27 3.03s2.94.7 7.61 1.84l-43.03 4.16-33.44 1.14 26.43 8.83c32.09 8.71 68.25 7.52 100.11-.13-2.86 3.62-7.78 4.87-12.56 5.78-15.86 3.04-31.4 3.74-47.59 3.02-1.46-.06-2.98.45-3.53 1.24-.61.87-.67 2.19-.62 3.43-14.11-1.34-28.04-3.47-41.82-8.41l-28.69-10.28c6.91 11.19 13.61 20.59 19.3 31.18-.59.79-1.36 1.26-2.41 1.03l-5.26-1.09c-3.44-4.76-4.47-10.77-9.7-15.52 7.67 22.62 12.95 57.45 20.84 75.63l-6.54.15c-9.52-30.02-12.71-59.54-26.01-90.69-1.81-4.25-8-4.96-11.73-4.5.15-.82-.63-2.3-.34-3.08.95-2.56 7.13-2.05 11.69-4.67 1.88-1.08 2.12-3.53 2.61-5.08 1.66.42 3.41 1.26 4.83 2.2 1.29.85 1.99.07 3.17-.1 6.01-.85 9.77-5.39 14-3.55 1.83.8 2.66 2.46 2.5 4.66Z" class="cls-8"/>
    <path d="M598.45 204.07c-3.68 3.15-10.64-1.78-11.9 4.36-3.76-9.2-10-17.14-18.94-23-10.03-6.58-22.13-11.85-34.58-11.95l-72.89-.59-9.78-.72c-2.6-.19-5.41-7.79-12.53-5.91-.14-.96-1.74-2.32-.87-4.13l87.99-.07c17.23-.01 33.57 3.03 48.05 12.05 11.71 7.3 20.69 17.41 25.44 29.96Z" class="cls-12"/>
    <path d="M648.98 17.86c.4 3.66-5.66 2.5-5.46 6.57.11 2.11-1.12 3.23-2.84 3.67-35.85-4.8-92.52 8.95-127.59 22.97l-28.2 11.27c-1.82-5.89 7.29-4.37 11.59-11.95-3.16.75-5.26-.2-6.75-1.29.77-1.46 2.23-1.7 3.74-2.35 13.29-5.75 26.31-10.37 40.05-14.96l41.94-11.06c24.6-5.12 49.26-5.81 73.52-2.86Z" class="cls-7"/>
    <path d="M54.31 364.4c-.77-.03-1.5.09-2.06-.16.38-4.64 1.99-7.99 4.16-11.7 3.36-5.75 3.4-12.76 6.44-18.55l12.72-24.26c2.3-4.39 5-7.65 6.83-12.52 2.73-7.26 13.66-13.05 11.17-22.38 29.27-36.68 61.81-68.73 99.7-99.23 1.08 4.96-1.29 9.48-4.97 12.93l-25.73 24.17-6.99 7.08c-41.39 41.95-78.5 90.64-101.29 144.62Z" class="cls-1"/>
    <path d="M690 31.8c-.33 2.79 1.26 4.02 3.06 5.34l8.1 5.91c4.76 3.47 8.03 8.74 11.51 13.49 9.8 13.39 15.54 28.28 17.01 44.91l.31 25.45-6.87 6.34c1.11-7.67 1.34-15.29 1-23.05-1.06-24.73-11.57-48.92-32.43-63.69-15.3-10.83-33.01-15.99-51.02-18.4 1.71-.44 2.95-1.55 2.84-3.67-.21-4.06 5.86-2.91 5.46-6.57 14.83 1.8 28.03 7 41.02 13.94Z" class="cls-10"/>
    <path d="M583.68 331.95c-2.06 2.46-4.53.2-5.64-1.64l-5.8-9.62c-1.51-2.5-4.07-7.98-1.01-9.94 4.14-2.66 6.62-5.28 9.61-8.73 8.64-9.98 17.58-19.23 24.29-30.78.12-5 2.25-9.66 5.99-12.88 6.41-10.89 6.97-22.71 6.04-35.16-1.34-18.06-7.19-34.53-18.2-49.05-7.59-10.01-17.75-15.91-28.84-23.7 13.87 3.3 24.79 13.93 33.55 25.07 16.58 21.08 20.47 47.52 16.63 73.67-1.78 12.1-5.82 22.29-11.02 33.24-2.62 5.51-6.89 9.77-10.29 14.73-2.54 3.71-3.63 6.61-7.77 9.49l-8.11 5.65-8.86 7 9.42 12.65Z" class="cls-4"/>
    <path d="M502.47 246.11c-1.94 14.75-5.81 29.39-13.03 42.34-4.38-5.11-8.35-8.41-6.49-11.29 7.65-19.3 9.82-40.65 6.99-61.69-.72-5.33-3.71-8.87-7.86-11.18-.79-.44-1.16-1.41-2.57-1.25-.9.1-2.12-.05-2.49 1.17l-10.04.04c-.13-3.63-1.65-6.79-2.98-10.22l12.86-.25c7.18-.14 10.61 3.3 14.98 7.55 5.66 5.5 10.06 10.78 10.81 19.2s.91 17.28-.18 25.58" class="cls-12"/>
    <path d="M523.75 72.65c2.09 3.44 6.65 2.86 10.29 1.22 3.71 3.07 8.43 3.16 11.96-.2 10.86 0 21.9-.37 31.87 3.57l20.12 7.96c-.5-2.38-1.16-4.21-.73-6.41 15.05 8.12 29.12 23.16 38.98 37.29.38 1.46-1.13 4.81-2.99 3.9-7-3.42-9.38-13.71-14.9-11.19l-11.78-11.12C593.11 84.97 576.1 79 557.6 77.47c-17.09-1.41-33.52 1.66-49.59 5.97-14.1 3.78-27.94 9.06-41.09 15.5-6.11 3-12.41 5.31-18.67 9.54-.57-2.56-.88-3.59-2.16-4.9 6.14-1.46 10.39-5.31 15.41-7.61 20.18-9.23 40.62-18.59 62.26-23.33Z" class="cls-7"/>
    <path d="m426.43 121.5 5.34 21.68 87.6.26c-1.29 5.98-6.51 8.25-11.35 8.56l-14.12.92-53.7.52c-1.96.02-4.7 1.42-5.71-.08l-2.61-3.86c-7.68-3.45-11.61-9.91-13.52-17.85l-3.63-15.1c4.11.08 7 4.19 11.7 4.95" class="cls-6"/>
    <path d="M617.01 130.06c.3.49.71.81 1.21 1.03 0 .47.43 1.15.99.77-.16 1.22.19 2.72-.35 3.68-.47.85-2.18.88-3.32.12-21.08-13.86-34.62-22.66-61.44-26.47l-11.44 1.54c.03-.55-.44-.53-.71-.42-.65-1.56-2.85-1.36-4.25-.8-24.15-1.2-48.88 1.44-71.81 9l-14.14 4.66c-.89-.87-1.2-1.82-2.2-3.57l14.68-5.29c10.62-3.83 21.73-6.5 32.86-8.43 32.21-5.57 65.07-4.31 95.25 10.05l7.43 3.53c6.28 2.99 12.34 6.4 17.24 10.58Z" class="cls-7"/>
    <path d="m599.21 384.08 14.49 20.41 8.42 12.67-17.19.2-43.3-.12 14.16-13.25 21.42-20.4c.53-.51 1.58.37 2 .5Zm3.15 21.85c-2.85-4.9-4.57-8.23-8.26-11.92l-12.72 11.87z" class="cls-13"/>
    <path d="M675.02 223.44c1.58 1.08 4 3.68 6.01 3.89.52.06 1.46 1.17 1.93.99 0 .57 1.06 1.79.9 2.36s-2.33.55-2.69.43c-13.79.13-27.65.66-41.22 3.35l.97-5.28-1.81-20.72c2-.29 3.58-.95 4.1-1.84s.02-2.55.11-3.92l18.48 11.66 13.22 9.07Z" class="cls-6"/>
    <path d="m633.84 305.99-3.69 3.18c.06-2.81 1.56-5.13 3.34-8.18l-7.34-4.04c-1.93-1.06-3.75-.61-5.55 1.6-1.73-2.76-2.24-6.44-.85-9.67.33-.76 2.04-.89 2.65-.49l22.42-14.85c8.76-3.17 15-12.75 22.55-13.38-4.99 10.14-11.93 18.1-18.63 26.7l-14.91 19.12ZM681.28 236.88c.59 1.68-.28 3.21-2.11 4.55l-15.41 11.3-17.3 11.05c-4.48-2.71-7.93-6.25-8.44-11.57l-1.04-10.78z" class="cls-4"/>
    <path d="m674.48 214.61 1.77 1.34c1.05.8 2.13-.2 1.81-1.11-.13-.38-.26-.62-.82-.76l-5.49-8.77c.08-.98.46-1.48.81-2.04 2.24-3.6 3.36 2.92 8.22 3.26 5.64 5.89 6.21 14.4 10.16 13.81.07.22.14.63.08.89-.33 1.46-.35 4.85-2.12 5.58-1.89.54-4.73.12-5.92 1.5-.48.18-1.41-.94-1.93-.99.96-.36.88-1.14.85-1.67-.06-.99-.63-2.2-2.05-2.26l-4.81.04-13.22-9.07-18.48-11.66-12.07-6.89c-2.21-2.21-3.01-6.43-3.63-9.19 17.12 8.49 32.61 17.22 46.85 27.98Z" class="cls-10"/>
    <path d="M508 83.44c.06 2.75-1.6 3.84-3.58 5.22l-8.15 5.69c-2.49 1.74-3.19 4.52-1.3 6.83 1.18 1.45 1.75 3.05 2.12 4.72-11.13 1.93-22.24 4.6-32.86 8.43-1.87-6.97 2.88-10.42 2.68-15.39 13.15-6.45 26.99-11.72 41.09-15.5" class="cls-4"/>
    <path d="m450.37 172.17 4.82 21.86 8.81.02c1.33 3.43 2.85 6.59 2.98 10.22l-20.72-.17c-3.1-13.01-6.55-25.18-8.42-37.83 7.12-1.88 9.93 5.72 12.53 5.91ZM139.89 552.31c-.25 1.53 1.07 2.23 2.56 1.99.7-.11 1.65-.28 2.49-.7l1.86-.12c.7.5 1.46.61 2.29.65l25.88 1.12c-.74 2.27-5.53 4.76-9.57 6.5l-15.44 6.65c-3.55 1.53-8.1-2.51-11.8-3.16-2.03-6.67-6.99-9.38-13.18-9.01.02-2.66-3.32-3.74-2.89-7.24l17.79 3.32Z" class="cls-3"/>
    <path d="M141.96 249.43c-14.18 15.53-31.77 41.83-42.33 60.73-5.84 10.46-10.75 21.54-14.01 33.28-1.42-.93-3.17-1.77-4.83-2.2 4.26-13.49 10.21-25.99 18.01-38.38 12.42-19.72 26.08-38.16 42.07-54.51l1.1 1.08Z" class="cls-1"/>
    <path d="m441.94 405.28 6.15-1.09c1.34-.24 4.98.51 5.4-1.22 1.33-5.83 3.42-10.53 8.43-14.32l1.87 21.48c.21 2.43-4.58 5.79-6.78 5.81l-15.84.15c-2.81.03-4.78-1.69-7.88-3.42 3.75-5.69 9.2-3.81 8.65-7.38Z" class="cls-6"/>
    <path d="M489.73 49.09c1.49 1.08 3.59 2.04 6.75 1.29-4.3 7.58-13.41 6.06-11.59 11.95-11.45 4.57-22.38 10.6-32.88 17.13-2.65-1.91-2.58-5.26-2.94-8.03 3.94 1.41 7.34-1.27 11.21-3.01 1.97-.88 4.41-.67 5.78-2.68 1.01-1.48.85-3.5-.4-5.63 7.71-3.63 16.04-9.23 24.07-11.03Z" class="cls-11"/>
    <path d="M366.01 496.92c-.09.92-.82 2.01-2.06 2.21l-17.96 2.9c-1.55.25-3.59-.3-4.54 1.05-.49.71-.61 2.06-.58 3.36l-9.82-1.46c-7.95-2.66-16.08-5.91-22.08-11.78 7.42.02 9.17 2.7 14.11 2.96.32-3.28-1.02-5.57-2.07-8.01 13.83 6.62 29.55 10.72 45 8.77" class="cls-7"/>
    <path d="M666.88 188.04c1.95 2.86 2.85 6.38 5.84 8.55l3.99-1.96 3.03 5.84c4.96 6.28 8.9 12.53 11.19 19.88-3.95.59-4.53-7.92-10.16-13.81-4.86-.34-5.98-6.87-8.22-3.26-.34.55-.73 1.05-.81 2.04l-20.34-28.33-5.28-7.29c2.17-1.26 3.47-3.34 4.31-5.75l16.44 24.09Z" class="cls-13"/>
    <path d="M408.11 89.14c-2.17.04-4.24-.93-6.32-.45-.16.07-.48.13-.52.16.16-1.34-.19-4.48-2.16-4.56-10.81-.39-21.01.57-31.11-.6-.27-2.13.63-3.74 1.73-5.26 1.42-1.96 3.5-2.24 6.26-2.22l29.48.22z" class="cls-6"/>
    <path d="M681.17 231.12c-.08 1.82-.48 4.08.11 5.76l-44.3 4.55.05-4.21.43-2.68c.65.08 1.79.06 2.49-.07 13.57-2.7 27.44-3.22 41.22-3.35M663.76 252.73c1.18 4.2-1.25 5.93-4.78 7.53l-9.29 8.2c-3.13 1.15-4.27 2.99-4.87 5.09L622.4 288.4l5.01-11.99c.77-1.65 3.54-2.98 4.82-3.83.98-.65 2.77-1.83 3.89-2.23 3.62-1.28 7.14-4.55 10.33-6.58l17.3-11.05ZM388.46 494.08c-1.06 3.1-3.39 4.35-6.07 5.54l-20.24 8.92c-.03-.49-.36-.98-.78-1.14-.51-.2-1.05-.04-1.46-.02-6.36.32-12.79 0-19.04-.93-.04-1.3.08-2.65.58-3.36.94-1.36 2.99-.8 4.54-1.05l17.96-2.9c1.25-.2 1.97-1.29 2.06-2.21l22.45-2.84Z" class="cls-10"/>
    <path d="m66.23 357.46-4.76 14.11c-4.14 12.27-8.38 23.96-10.07 36.85l-1.35 5.82c-.2.85-.32 1.52-.63 1.83-.26.26-.94.35-1.46.2 1.37-13.92 4.64-27.69 9.94-41.12 2.86-7.24 5.05-17.83 8.35-17.68Z" class="cls-4"/>
    <path d="m448.89 69.88.18 1.55c.36 2.77.29 6.11 2.94 8.03-2.67 1.66-5.02 4.69-8.83 4.99-.23-3.53-1.49-7.2-1.01-10.13s5.04-3.2 6.72-4.44" class="cls-7"/>
    <path d="M465.67 60.11c1.25 2.13 1.41 4.16.4 5.63-1.37 2.01-3.82 1.79-5.78 2.68-3.88 1.74-7.27 4.42-11.21 3.01l-.18-1.55c5.03-3.73 11-7.05 16.78-9.77Z" class="cls-3"/>
    <path d="M619 376.82c-5.52-1.28-2.07 4.46-6.54 6.56-1.76.82-2.29-.24-3.44-1.11.06-3.61 1.99-6.35 3.09-10.56 3.25.55 5.14 2.88 6.88 5.11ZM335.85 398.6c-.1 2.04.59 3.97 1.19 5.77-2.94-.38-4.91-3.44-6.26-5.76h5.07ZM22.04 411.31l-1.94 9c-.8-.26-2.23-1.25-2.01-1.67l1.44-2.74c.36-.69-1.85-2.74-.96-3.81.82-1 2.57-.71 3.47-.78M460.58 346.95c-.28.96-1.36 1.93-2.04 1.9-.44-.02-1.24-.91-1.65-1.61-.92-1.56 0-3.28 1.49-4.11zM636.13 270.35c-1.12.4-2.91 1.58-3.89 2.23-.27-1.81.07-3.28 1.85-4.44 1.04.31 1.64 1.15 2.04 2.21M476.2 376.24l1.25 1.91c-.25.76-.68 1.01-1.08 1.09-.54.11-1.57-.01-2.61-.13-1.13-.13-1.02-2.22-.08-2.74.5-.28 1.68-.09 2.53-.12ZM200.05 554.1c-1.69 2.02-4.16.69-6.29.74.86-2.4 4.61-2.28 6.29-.74M144.94 553.6c-.83.42-1.78.59-2.49.7-1.49.24-2.81-.46-2.56-1.99 1.51.28 4.48-1.21 5.05 1.29M47.99 423.15c-1.49-1.34-1.48-3.69.11-4.94 1.39 1.1 1.43 4.01-.11 4.94M703.24 273.19l-.18 3.99c-1.93.38-2.35-.78-2.14-2.5.16-1.4.87-1.88 2.32-1.49M47.95 425.02l.12 2.66c.04.83-.58 1.9-2 1.62-.12-.86-.23-2.28.06-3.37.15-.57.89-1.12 1.82-.92Z" class="cls-4"/>
    <path d="m141.96 249.43-1.1-1.08 8.15-8.34c.07 1.54-.84 2.61-2.15 4.05z" class="cls-9"/>
    <path d="m637.46 234.55-.43 2.68c-.85.26-1.78-.04-2.01-.62-.32-.8-.04-2.29.55-2.4.55-.11 1.49.29 1.89.34" class="cls-4"/>
    <path d="m482.07 204.29-5.06-.08c.37-1.22 1.6-1.07 2.49-1.17 1.4-.16 1.78.81 2.57 1.25" class="cls-3"/>
    <path d="M677.24 214.08c.56.13.69.38.82.76.32.91-.76 1.9-1.81 1.11l-1.77-1.34 2.76-.52Z" class="cls-6"/>
    <path d="M485.41 437.47c-.8 1.03-1.99 1.77-3.25 2.12-.4-.88 0-2 .53-2.26.7-.33 1.97-.27 2.72.14M362.15 508.53l-2.07.8-.17-1.97c.42-.02.96-.18 1.46.02.41.16.75.65.78 1.14ZM698.22 244.21l-2 .03c.23.08.15-.76.31-1.14.28-.68 1.38-1.12 1.48-.37l.21 1.49ZM269.26 541.47c-.64.6-1.51.52-2.29.74.2-.94 1.45-1.12 2.29-.74M149.09 554.12c-.83-.04-1.6-.15-2.29-.65.84-.05 1.98-.24 2.29.65" class="cls-4"/>
    <path d="M158.86 376.58c30.24 2.88 60.49-1.99 89.15-12.07l12.03-3.68c1.26.94.37 3.82 1.02 5.28 4.62 10.45-1.1 19.68 7.09 22.39l-14.32 13.49-15.12 12.98c-12.05 10.34-25.34 19.24-39.77 25.91l-13.49 4.81c-9.94 3.55-20.55 3.62-30.1-.69-18.74-8.45-27.5-21.64-37.76-37.87l-9.94-18.07c-5.69-10.58-12.39-19.98-19.3-31.18l28.69 10.28c13.78 4.94 27.71 7.07 41.82 8.41Z" class="cls-6"/>
    <path d="M288.96 373.94c.8 1.3 1.84 1.96 3.01 2.16l.08 1.28c-2.6.19-3.12 3.32-4.32 4.6-6.61 7.03-10.22 15.97-12.3 25.73-2.88 13.56-.99 26.82 5.06 38.65 3.64 7.12 6.94 14.5 13.74 20.85l11.78-9.88c2.07-.8 3.91-2.13 5.2-3.92l19.39-15.68c2.74 2.27 2.66 6.49-.31 8.87l-28.26 22.65c-1.27 1.02-2.98 1.59-2.76 3.27.19 1.46 1.84 2.1 2.81 2.77l16.93 11.73c.24.57.72.97 1.25 1.12.2.06.5.02.74 0 1.05 2.44 2.39 4.73 2.07 8.01-4.94-.26-6.68-2.94-14.11-2.96h-1.07l-1.01-.99-.92-.76a2.01 2.01 0 0 0-2.04-1.23l-10.06-8.68-17.34 11.13-24.17 13.97c-23.11 13.36-50.37 21.69-77.26 19.18-9.58-.89-18.6-4.77-26.3-9.22-.1-1.25.13-2.04.8-2.32.84-.35 13.68 2.14 21.38 3.93 3.24.75 7.25.27 9.01-2.32l6.22.53c37.02-3.56 68.64-21.94 99.6-43.26-5.4-7.86-10.87-14.59-13.96-22.85 1.23.62 4.33 1.35 4.98-.08l-4.45-15.26-1.7-16.45c-1.84-1-3.71-1.2-5.52-1.31l1.23-13.44c-.78-1.2-3.01.63-4.12 1.75-28.13 28.57-74.6 66.2-113.56 48.1.44-1.93 1.27-3.28 2.44-5.19 7.57 2.54 16.25 4.26 24.86 3.49s16.73-2.74 23.32-6.8l28.17-17.33c5.62-3.46 10.37-6.99 14.79-11.19 1.81-1.72 5.23-3.33 7.7-5.33 8.43-6.83 21.67-16.95 22.18-25.08.08-1.32 1.64-3.26 2.81-3.86 2.94-1.49 6.03-3.19 9.04-5.16l4.94-3.23Z" class="cls-11"/>
    <path d="m334.14 344.2-.03 8.07c0 .84-.34 1.61-.66 1.86-.29.23-1.02.24-1.34.14.09-1.31-.5-2.98-.02-4.29.72-1.95-.04-3.82-.09-5.81l2.13.04Z" class="cls-12"/>
    <path d="M347.59 298.58c-.83-.23-3.21-1.68-4.3-.99-7.06 4.44-2.07 13.6-7.07 22.75-1.38 2.53.82 6.63.73 8.77-3.93 7.31-.51 15.13-2.8 15.1l-.88-6.09 4.87-87.89c.15-2.67-.08-7.35-3.63-7.38l-36.44-.32c-4.6-.35-6.46 2.51-7.37 6.47l-12.87 55.99-74.83.48-9.12-.29 10.48-10.92h63.23l12.83-51.45c.73-2.92 1.28-5.48 2.79-7.78 1.35.51 3.76-1.69 5.25-2.59l46.56-.12c9.83-.03 16.18 10.12 15.58 19.4l-3.01 46.87Z" class="cls-12"/>
    <path d="M241.05 357.28v.97l-17.9 4.86c-31.86 7.65-68.02 8.84-100.11.13l-26.43-8.83 33.44-1.14 43.03-4.16c1.47.36 3.5.19 5.03.08l33.47-2.51c8.73-.66 16.94-1.54 25.55-3.36 1.2-.25 1.73-.57 1.91-1.53 4.59-.06 9.23 1.77 14.46 2.98-1.78 7.11-12.43 7.79-12.46 12.5ZM280.51 446.36c-6.05-11.83-7.94-25.09-5.06-38.65 2.07-9.76 5.68-18.7 12.3-25.73 2.52 2.61 5.61 3.29 9.81 1.77 2.39 7.04-2.31 14.32-1.69 20.56l1.32 13.23c2.18 8.21 15.16 12.41 15.37 19.1.18 5.65-6.71 9.48-13.92 11.35-3.25.84-5.61 1.85-8.65-.99-2.41-2.25-6.7-2.92-9.49-.65ZM215.03 321.2c1.89-7.17 13.99-2.99 12.92-9.76l17.94-.07 4.34 1.53c3.39.24 7.24.77 9.5 3.49.54 1.6-1.78 4.66-3.74 4.67l-40.96.13Z" class="cls-6"/>
    <path d="m247.86 361.88-6.42.95c-1.78.26-1.13-3.84-.39-4.58v-.97c2.67.23 5.38-.59 8.25-1.67l31.33-11.72c4.39 2.5 9.74-2.26 15.87-.67l-35.99 14.5c-4.3 1.73-7.99 4.46-12.66 4.17ZM343.39 439.62c-13 12.07-26.64 23.59-41.07 34.54.07.65-.1.96-.24 1.13-.97-.67-2.62-1.31-2.81-2.77-.22-1.69 1.49-2.25 2.76-3.27l28.26-22.65c2.98-2.38 3.06-6.6.31-8.87l2.38-2.66c2.18.09 5.63-.92 7.2.92z" class="cls-7"/>
    <path d="m260.04 360.84-12.03 3.68-.15-2.63c4.66.29 8.35-2.43 12.66-4.17l35.99-14.5c-6.13-1.59-11.47 3.16-15.87.67 6.99-2.61 13.82-5.08 20.72-9.69.19 3.06.76 7.76-1.12 10.2-4.98 4.42-11.71 5.84-17.82 8.11l-22.38 8.32Z" class="cls-8"/>
    <path d="m343.39 439.62-3.21-3.63c-1.57-1.85-5.01-.83-7.2-.92l12.45-12.08 16.06-.17-18.11 16.81Z" class="cls-10"/>
    <path d="M239.05 341.79c-.18.97-.71 1.28-1.91 1.53-8.62 1.82-16.82 2.7-25.55 3.36l-33.47 2.51c-.44-3.08 6.5-1.2 16.81-5.29l3.37.1c.56.02 1.1-.78.7-1.69zM242.29 416.6c-.97-1.44-2.28-1.61-3.58-1.64l15.12-12.98 14.32-13.49 4.02-2.31c-.51 8.12-13.75 18.24-22.18 25.08-2.47 2-5.89 3.61-7.7 5.33Z" class="cls-8"/>
    <path d="m288.96 373.94-4.94 3.23c-3.01 1.97-6.1 3.67-9.04 5.16 2.7-6.58 7.07-12.38 11.9-17.34 3.49.41 6.42-.19 10.5-1.1 1.48 3.84-4.64 4.95-8.42 10.04ZM199 342.31c.4.92-.13 1.71-.7 1.69l-3.37-.1c-10.32 4.09-17.26 2.21-16.81 5.29-1.53.11-3.56.28-5.03-.08-4.67-1.14-7.14-1.15-7.61-1.84s-.4-2.11-.27-3.03l18.94-1.71 14.86-.22Z" class="cls-14"/>
    <path d="M299.22 370.37c-3.19 1.14-4.65 4.11-7.24 5.73-1.17-.2-2.22-.85-3.01-2.16 3.77-5.08 9.89-6.2 8.42-10.04-4.08.91-7.01 1.51-10.5 1.1 3.87-3.97 7.89-7.66 13.19-11.09.4 6.11-.04 11.29-.85 16.46Z" class="cls-7"/>
    <path d="m292.06 377.38-.08-1.28c2.59-1.61 4.05-4.59 7.24-5.73-.31 1.99.22 3.46-2.42 4.88-1.59.86-3.06 2-4.74 2.13M311.22 453.4c-1.29 1.79-3.12 3.12-5.2 3.92.35-.91.42-2.76 1.32-3.38 1.1-.76 2.71-.69 3.88-.54" class="cls-6"/>
    <path d="M320.26 488.14c-.54-.15-1.01-.55-1.25-1.12z" class="cls-7"/>
    <path d="M636.23 116.08c11.79 16.9 23.12 34.1 36.5 50.32l18.6 22.54-.38 5.18c0 1-1.38 1.24-2.31 1.4l-18.37-21.65c-1.4-1.65-2.29-.33-2.38.86-.16 2.11.51 2.75 2.2 2.55l.29 2.55c-.05.62-.1 1.32.81 1.45l5.51 13.36-3.99 1.96-4.16-8.72c-12.51-29.92-28.87-54.84-50.22-79.09 5.52-2.51 7.9 7.77 14.9 11.19 1.85.91 3.37-2.45 2.99-3.9Z" class="cls-10"/>
    <path d="M597.25 78.79c-.43 2.2.23 4.03.73 6.41l-20.12-7.96c-9.97-3.94-21.01-3.57-31.87-3.57-3.53 3.36-8.25 3.27-11.96.2-3.64 1.64-8.2 2.21-10.29-1.22 24.46-5.36 51.46-5.75 73.5 6.14Z" class="cls-11"/>
    <path d="m706.11 247.63-3.33-9.26c5.12-3.18 12.14-1.62 13.18-3.75.31-.63-.16-2.13-1.25-2.23l-12.18-1.05 7.34-13.18 6.06 10.11c6.68 17.91 5.65 37.08-.73 55.05-3.27 9.21-5.57 19.18-13.5 25.78 6.62-21.05 9.63-40.76 4.42-61.48ZM688.63 195.52 698.98 208l-5.41 11.86c-.51 1.12-1.63 1.45-2.56 1.4.06-.26 0-.67-.08-.89-2.29-7.36-6.23-13.61-11.19-19.88l-3.03-5.84-5.51-13.36-.81-1.45-.29-2.55.18-3.4 18.37 21.65Z" class="cls-4"/>
    <path d="m163.74 271.09-12.97 17.9c-9.6 13.25-19.39 25.92-31.16 36.79-2.27 2.1-4.93 3.96-6.79 7.6 4.64-1.19 6.5-4.74 9.44-7.01 6.06-4.66 11.59-9.97 17.49-15.45l12.5-11.61c4.04-3.75 6.98-9.64 11.7-11.93-.99 4.63-2.23 10.06-5.94 13.78-4.98 5-10.42 8.96-14.36 14.99l7.8-3.8c-7.3 8.54-16.26 14.65-25.48 20.82-6.77 4.54-13.26 8.9-20.67 11.27.16-2.2-.66-3.86-2.5-4.66-4.23-1.84-7.99 2.71-14 3.55.75-2.34 3.44-2.67 5.22-4.09l16.2-12.95c15.9-14.6 29.7-31.03 41.02-48.72 10.21-12.02 17.77-25.67 26.65-39.42-.06 11.14-5.76 19.61-11.05 27.84l-3.1 5.09Z" class="cls-1"/>
    <path d="m111.12 449.12 8.44 19.44c11.34 26.1 31.98 44.9 60.43 47.33-1.76 2.6-5.77 3.08-9.01 2.32-7.7-1.79-20.53-4.28-21.38-3.93-.66.27-.9 1.07-.8 2.32-4.49-2.6-8.23-6.06-12.52-9.75l-3.21-2.76c-13.91-15.68-22.22-35-28.5-54.82l6.54-.15Z" class="cls-14"/>
    <path d="M302.91 84.26c-2.97 14.6 19.21 11.1 39.1 11.27l50.87.8 37.34 156.87-13.46 5.73c-4.12 1.83-10.49 10.74-9.73 16.14 1.31 9.34-6.31 8.35-14.74 17.32l-10.67 11.34c-2.42.4-6.59-2.12-9.39-.05-2.1 1.55-5.69 5.37-8.66 3.14-2.79-2.1-4.45-4.09-8.05-3.98-3 .1-5.28.81-7.92 3.27l-.02-7.55 3.01-46.87c.6-9.28-5.75-19.43-15.58-19.4l-46.56.12c-1.49.9-3.9 3.11-5.25 2.59-1.94-.74-2.2 1.09-3.48 1.82-3.29 1.88-9.09-1.25-8.34-5.15 1.2-.82 2.78-1.53 2.69-2.93-.13-2.01-2.62-1.86-3.19-2.64-3.17-4.33-8.26-6.26-11.62-8.92-4.37-3.46 1.08-8.86 3.22-11.21 3.63-6.31 4.49-18.78 1.77-23.87-2.9-5.42-6.65-9.62-7.44-15.97-1.71-13.78-7.58-15.17-8.74-18.04-.95-2.35-3.17-3.31-5.5-3.05l15.64-46.84 5.02-13.99 39.68.03Zm50.21 126.34-.45-10.48-6.64-73.74c-1.02-11.28-12.15-16.62-21.91-15.59-5.77.61-12.77 1.85-14.33 8.27l-19.65 81.08c-1.35 5.56-1.57 10.56 1.93 15.37 2.45 3.36 6.59 6.67 11.99 6.73l34.06.39c7.16.08 15.4-2.75 15-12.03" class="cls-15"/>
    <path d="M283.21 235.02c-1.51 2.3-2.06 4.85-2.79 7.78l-12.83 51.45h-63.23l-10.48 10.92-3.83.07-1.61-1.21 18.2-54.03 27.35-79.65 8.59-25.27c2.33-.26 4.55.7 5.5 3.05 1.16 2.86 7.03 4.25 8.74 18.04.79 6.36 4.53 10.55 7.44 15.97 2.72 5.08 1.86 17.56-1.77 23.87-2.14 2.35-7.59 7.74-3.22 11.21 3.36 2.66 8.45 4.59 11.62 8.92.57.78 3.06.64 3.19 2.64.09 1.41-1.49 2.11-2.69 2.93-.75 3.9 5.05 7.03 8.34 5.15 1.28-.73 1.54-2.56 3.48-1.82ZM401.27 88.85c.73 2.48-1.52 2.91-2.06.33-2.94.95-4.63 4.36-6.33 7.16l-50.87-.8c-19.89-.17-42.06 3.33-39.1-11.27l61.12.02 3.97-.59c10.11 1.18 20.31.21 31.11.6 1.98.07 2.32 3.22 2.16 4.56Z" class="cls-2"/>
    <path d="M190.05 305.23c-.39 0-1.36.17-1.95-.44-.19-.19-.05-.64.34-.77z" class="cls-12"/>
    <path d="M305.97 491.44c-.88-.14-1.44-.71-2.04-1.23.91-.06 1.69.42 2.04 1.23M307.9 493.19c-.47 0-.87-.53-1.01-.99z" class="cls-7"/>
    <path d="M590.21 222.22c4.99 38.05-17.3 74.23-56.08 81.92-.15 2.96-1.11 7.08.54 9.43l25.94 36.82c-16.89 15.82-34.1 30.19-51.72 44.53-3.09.53-6.77.04-9.52-.86-11.91-23.97-24.41-46.46-38.11-70.04l11.01-.81c2.62-.19 8.41-1.1 9.15-4.39 1.62-7.17-1.13-14.43-2.88-22.06 4.98-1.27 9.88-3.59 10.89-8.3 7.22-12.95 11.1-27.6 13.03-42.34 2.29.92 3.38-2.34 4.54-3.42 3.93-.37 7.93 3.52 11.19 5.24 8.11 4.29 17.22 6.92 24.77 2.53l12.74-7.41c5.04-2.93 8.5-7.38 9.94-13.01l10.37-6.31c2.1.67 4.76 3.16 6.79 2.15l7.38-3.67Z" class="cls-2"/>
    <path d="M586.55 208.43c1.79 4.38 3.03 9.04 3.65 13.79l-7.38 3.67c-2.02 1.01-4.69-1.48-6.79-2.15l-10.37 6.31c-1.44 5.62-4.9 10.08-9.94 13.01l-12.74 7.41c-7.56 4.39-16.66 1.76-24.77-2.53-3.26-1.72-7.26-5.61-11.19-5.24-1.16 1.07-2.25 4.34-4.54 3.42 1.09-8.3.94-17.02.18-25.58s-5.16-13.7-10.81-19.2c-4.37-4.25-7.81-7.69-14.98-7.55l-12.86.25-8.81-.02-4.82-21.86 9.78.72 72.89.59c12.44.1 24.55 5.37 34.58 11.95 8.94 5.87 15.19 13.8 18.94 23Z" class="cls-15"/>
    <path d="M619.22 131.87c12 8.48 22.86 19.83 31.23 32.08-.84 2.4-2.14 4.49-4.31 5.75-8.05-11.11-17.78-20.06-28.82-28.88-21.7-17.34-47.38-27.81-74.65-30.07l11.44-1.54c26.82 3.81 40.36 12.61 61.44 26.47 1.15.75 2.85.73 3.32-.12.54-.96.19-2.46.35-3.68ZM541.95 110.33l-4.25-.8c1.4-.56 3.6-.76 4.25.8" class="cls-10"/>
    <path d="m430.22 253.21 8.4 37.97-24.35 4.36 1.61 10.63 11.74 80.8-84.64.14 1.18-28.95 3.44-52.04c2.64-2.47 4.92-3.18 7.92-3.27 3.6-.12 5.26 1.88 8.05 3.98 2.97 2.23 6.56-1.59 8.66-3.14 2.8-2.07 6.97.45 9.39.05l10.67-11.34c8.43-8.97 16.05-7.98 14.74-17.32-.76-5.4 5.61-14.31 9.73-16.14z" class="cls-2"/>
    <path d="M151.23 277.59c-11.32 17.69-25.12 34.12-41.02 48.72l-16.2 12.95c-1.78 1.43-4.47 1.75-5.22 4.09-1.18.17-1.88.95-3.17.1 3.26-11.75 8.17-22.82 14.01-33.28 10.79-3.05 13.5-7.1 13.33-19.08 3.36-3.24 7.85-4.34 11.88-6.05 7.99-3.4 11.7-22.63 24.08-25.55 6.95 2.99 3.7 10.76 2.31 18.1" class="cls-6"/>
    <path d="M163.93 287.39c-4.72 2.29-7.66 8.19-11.7 11.93l-12.5 11.61c-5.9 5.48-11.43 10.79-17.49 15.45l-2.65-.59c11.77-10.87 21.56-23.55 31.16-36.79l12.97-17.9c.93 5.27 1.26 11.32.2 16.3Z" class="cls-5"/>
    <path d="M176.73 225.91c-1.54.92-2.42-.69-1.95-2.21.26-.84.75-1.99 2.45-3.14.51-.33 1.79 1.07 1.72 1.99-.07.86-.22 2.16-2.22 3.36M99.98 389.01l10.69 22.04c4.92 10.15 11.4 19.32 18.76 27.68 5.42 6.15 11.67 11.35 19.29 14.9 38.96 18.1 85.43-19.52 113.56-48.1 1.11-1.12 3.33-2.95 4.12-1.75l-1.23 13.44c-.86 9.47 1.16 18.72 4.06 27.76.17.52.35.95.8 1.28.13 1.58 1.35 2.76 1.83 4.06 3.09 8.26 8.56 14.99 13.96 22.85-30.97 21.32-62.58 39.7-99.6 43.26l-6.22-.53c-28.45-2.43-49.09-21.22-60.43-47.33l-8.44-19.44c-7.9-18.18-13.17-53.01-20.84-75.63 5.23 4.75 6.27 10.76 9.7 15.52Z" class="cls-6"/>
    <path d="M241.05 358.25c-.75.75-1.39 4.85.39 4.58l6.42-.95.15 2.63c-28.66 10.08-58.91 14.94-89.15 12.07-.05-1.25 0-2.56.62-3.43.56-.8 2.08-1.31 3.53-1.24 16.19.72 31.73.02 47.59-3.02 4.77-.91 9.7-2.16 12.56-5.78z" class="cls-14"/>
    <path d="m107.65 389.07 9.94 18.07c-3.38.57-3.45-3.73-5.03-2.92-1.71.88.46 4.64-1.89 6.83l-10.69-22.04 5.26 1.09c1.05.22 1.82-.24 2.41-1.03" class="cls-1"/>
    <path d="M618.34 108.79c21.35 24.25 37.7 49.17 50.22 79.09l-1.68.17-16.44-24.09c-8.36-12.25-19.22-23.6-31.23-32.08-.56.37-1-.3-.99-.77l-1.21-1.03c-4.9-4.18-10.96-7.59-17.24-10.58l-7.43-3.53c-30.18-14.36-63.04-15.62-95.25-10.05-.37-1.67-.94-3.27-2.12-4.72-1.89-2.31-1.19-5.09 1.3-6.83l8.15-5.69c1.98-1.38 3.64-2.48 3.58-5.22 16.07-4.31 32.5-7.38 49.59-5.97 18.5 1.53 35.51 7.5 48.97 20.2l11.78 11.12Z" class="cls-6"/>
    <path d="M618.22 131.1c-.5-.23-.92-.54-1.21-1.03zM602.36 405.93l-20.98-.05 12.72-11.87c3.69 3.69 5.41 7.02 8.26 11.92" class="cls-10"/>
    <path d="M681.03 227.33c-2.01-.21-4.43-2.81-6.01-3.89l4.81-.04c1.41.06 1.99 1.27 2.05 2.26.03.53.11 1.31-.85 1.67" class="cls-13"/>
    <path d="M672.72 196.59c-2.99-2.17-3.88-5.69-5.84-8.55l1.68-.17z" class="cls-9"/>
    <path d="M117.59 407.14c10.25 16.23 19.02 29.41 37.76 37.87 9.55 4.31 20.16 4.24 30.1.69l13.49-4.81.4 4.24c-6.6 4.06-15.06 6.05-23.32 6.8s-17.29-.95-24.86-3.49c-9.21-3.09-14.12-12.3-21.73-9.7-7.36-8.36-13.84-17.53-18.76-27.68 2.34-2.19.18-5.96 1.89-6.83 1.58-.81 1.66 3.49 5.03 2.92Z" class="cls-8"/>
    <path d="M242.29 416.6c-4.42 4.2-9.16 7.74-14.79 11.19l-28.17 17.33-.4-4.24c14.44-6.67 27.72-15.57 39.77-25.91 1.3.03 2.61.19 3.58 1.64Z" class="cls-14"/>
    <path d="M271.86 450.31c-.48-1.29-1.7-2.47-1.83-4.06-.03-.39-.61-.98-.8-1.28-2.9-9.04-4.92-18.29-4.06-27.76 1.81.12 3.68.32 5.52 1.31l1.7 16.45 4.45 15.26c-.65 1.44-3.75.7-4.98.08" class="cls-3"/>
    <path d="M151.15 448.43c-1.16 1.91-2 3.27-2.44 5.19-7.62-3.54-13.88-8.74-19.29-14.9 7.61-2.59 12.52 6.62 21.73 9.7Z" class="cls-14"/>
    <path d="m670.27 173.86-.18 3.4c-1.69.2-2.35-.43-2.2-2.55.09-1.19.98-2.5 2.38-.86ZM671.19 181.27c-.92-.13-.86-.83-.81-1.45z" class="cls-13"/>
    <path d="m119.6 325.79 2.65.59c-2.95 2.27-4.8 5.82-9.44 7.01 1.87-3.64 4.53-5.5 6.79-7.6" class="cls-9"/>
    <path d="M353.12 210.6c.4 9.28-7.84 12.11-15 12.03l-34.06-.39c-5.4-.06-9.54-3.37-11.99-6.73-3.51-4.8-3.28-9.8-1.93-15.37l19.65-81.08c1.56-6.42 8.56-7.66 14.33-8.27 9.76-1.03 20.89 4.31 21.91 15.59l6.64 73.74zm-17.67.79c2.82-.01 5.54-2.98 5.35-5.39l-6.55-80.19c-.37-4.52-7.2-5.62-10.04-4.42-4.28 1.81-5.04 4.71-6.05 9.12l-16.87 73.84c-.5 2.21-.77 3.8.63 5.42.7.81 2.25 1.72 4.04 1.71l29.48-.1Z" class="cls-12"/>
    <path d="M270.03 446.26c-.45-.33-.63-.77-.8-1.28.19.31.77.9.8 1.28" class="cls-11"/>
    <path d="m335.45 211.39-29.48.1c-1.79 0-3.34-.9-4.04-1.71-1.4-1.63-1.14-3.22-.63-5.42l16.87-73.84c1.01-4.41 1.77-7.3 6.05-9.12 2.84-1.2 9.67-.1 10.04 4.42l6.55 80.19c.2 2.4-2.53 5.38-5.35 5.39Z" class="cls-5"/>
  </g>
</svg>
