<svg xmlns="http://www.w3.org/2000/svg" id="Capa_2" data-name="Capa 2" viewBox="0 0 719.1 651.86">
  <defs>
    <style>
      .cls-1{fill:#d9b436}.cls-4{fill:#1e2006}.cls-5{fill:#120e03}.cls-6{fill:#2c3008}.cls-7{fill:#c9b146}.cls-8{fill:#424e0e}.cls-9{fill:#ddb634}
    </style>
  </defs>
  <g id="Capa_1-2" data-name="Capa 1">
    <path d="M710.54 325.59c-.09-14.58 11.4-31.15 7.89-49.96-8.29-44.41-25.44-89.1-59.54-119.72-9.78-8.79-10.9-15.92-17.89-26.7-22.32-34.42-81.52-85.22-122.02-79.96-30.42-37.31-97.31-57.61-121.36-19.92C384.19 6.84 367.81 8.7 358.71.01c-6.59.66-13.69 1.1-22.51.01-15.69 11.66-35.25 18.87-54.34 11.28-28.03 4.19-51.08 18.74-76.52 28.93-19.05 7.63-34.05 14.32-45.32 33.86-3.35 4.73-18.91 4.02-24.53 8.61C73.94 133.02 30 202.34 16.3 281.57c-3.45 19.94-2.62 39.23-16.3 53.04v109.73c4.14 4.52 4.55 8.32 6.15 15.27 16.67 72.62 50.03 143.34 107.15 192.26 11.36-4.95 22.92-9.61 33.04-16.27 1.14-.8 2.29-1.6 3.44-2.38 5.69-4.17 10.82-9.12 15.06-15.31.55-.8 1.28-1.19 2.05-1.3 4.66-6.53 12.47-10.17 19.24-14.11 4.18-2.43 8.49-4.67 12.63-7.18 2.15-1.3 5.08-2.76 6.61-4.79 1.06-1.41 1.25-3.16 2.16-4.64 4.31-6.99 16.86-8.91 24.16-10.16 9.68-1.66 19.66-2.22 28.99-5.48.95-.33 1.75-.18 2.36.23 7.15-5.34 16.49-8.87 23.96-9.8 3.65-.46 6.93.26 10.53.63 1.51.15 2.9.05 4.22-.22 1.04-.75 2.33-1.12 3.71-1.21 1.56-.66 3.1-1.46 4.74-2.25 7.55-3.63 15.66-5.33 23.91-6.52 9.45-1.36 18.38-3.41 27.67-5.58 9.77-2.28 19.77-4.59 29.82-5.11 3.08-.16 7.33-.18 10.47 1.19 6.15-.98 11.03.22 15.46 1.87 11.5-1.04 23.02-1.67 34.57-1.71 6.01-.89 11.7-1.28 17.88.43.42.02.84.05 1.27.07 7.77-2.36 16.53-2.48 24.32-2.05 9.73.55 21.12 2.05 28.77 8.67 13.4 2.44 26.71 5.43 39.84 9 3.19-2.69 13.65.75 17.37 5.08 2.16.68 4.31 1.37 6.45 2.08 6.49 2.15 13.1 4.46 19.7 7.01l35.61 12.15c1.14 1.36 1.06 3.2.33 5.18 5.59 3.44 10.93 7.22 15.9 11.39.68-.69 1.34-1.37 1.99-2.05 29.7-31.16 44.32-73.16 55.31-113.36 5.61-20.51-5.52-37.11-5.62-53.27l-.66-106.51ZM678.9 495.7v3.53c-.03 12.38-26.63 58.03-35.5 61.88-15.58 6.77-34.15-7.58-48.79-11.37l-56.5-14.65c-2.42-5.28 2.36-15.22 7.16-14.6-2.38-14.26-7.41-18.81-24.35-17.77-11.13.69-18.55 8.01-17.46 27.09-39.63-6.77-75.49-2.94-114.2-2.71-9.95-2.59-14.93-21.8-18.77-28.31-5.46 11.07-5.6 25.09-16.07 31.69-12.07 7.6-37.02 13.97-50.66 10.51-17.85-4.53-19.67-.06-33.75 6.56l-70.9 33.35.12 6.14c-8.25 8.83-19.61 12.53-32.65 13.11-2.37.2-5.85 4.57-6.81 6.35-3.53 6.47-13.22 11.91-19.97 15.19-30.86 14.97-78.23-73.58-92.36-122.92 1.94-1.09 1.6-2.88 1.22-3.79-3.03-.59-4.31-3.5-4.47-6.5l-.44-8.11c-3.14-1.12-3.25-3.7-3.78-6.3-9.77-47.89-25.17-129.45-.35-144.18l2.05-30.75c.25-3.77 1.01-9 .55-12.8-.22-1.78-3.54-3.14-1.82-6.23.85-1.52 2.3-2.87 3.56-3.77 12.2-53.55 40.01-103.56 77.29-144.09 8.21-8.93 13.43-20.99 27.23-22.36-.37 10.67 1.61 16.87 5.67 21.4l33.69-50.53c3.01-4.52 7.79-5.31 11.18-3.51 1.62.86 3.28 3.79 4.41 5.09 2.4.23 6.4-1.01 9.25-1.47 4.14-6.17 9.62-12.75 15.33-17.95 14.59-13.29 36.15-18.26 58.17-24.32 4.47 19.59-8.55 32.06-5.49 54.6 18.23-37.69 52.46-75.83 78.53-62.35 7.49 3.87 14.27 15.11 14.94 27.21l1.44 25.67c-9.11 16.51-20.79 28.05-34.8 38.21-5.59-7.1-9.07-12.22-13.83-15.47-10.16 4.08-14.22 10.09-15.03 17.98-1.68 16.41 40.38 22.79 35.8 64.44l-4.7 42.74c-.26 2.4-1.21 4.43-3.45 5.13l.76 5.21c3.35 23.05-20.75 49.79-29.96 73.71 13.73 1.69 24.63 12.97 24.87 27.01 1.54 1.88 4.48 4.2 4.66 6.58l.98 13.38c1.92 4.13 3.13 8.16-.93 12.13l-.15 3.75-.32 4.68c-.1 1.41.32 3.3-.1 4.67-.68 2.25-2.71 4.13-4.9 4.95l.54 4.8c4.47 4.78 4.22 9.2 5.41 12.04 1.43 3.43 7.32 4.8 9.86 3.22-1.85-44.87-2.01-90.78 18.37-130.53 2.22-4.32 1.85-11.3 4.47-15.58-4.78-5.29-4.88-12.38-4.71-19.39l.24-9.52 7.29-35.38c4.32-20.96 8.19-42.01 13.87-62.69 4.9-17.85 6.67-37.29 16.86-53.45-.3-1.44.2-3.87.59-3.95 6.86-12.7 8.48-31.33 19.68-43.58 7.82-8.55 24.03-.4 30.92 3.68l3.07.32 11.26 4.32c22.27 8.54 30.7 27.77 33.84 55.5 13.18-6.53 14.72-18.79 21.09-26.69 29.16 5.74 60 26.85 63.37 49.93 2.43-3.4 4.82-4.89 7.58-4.23 2.68.64 24.89 17.38 19.21 28.61-4.45 8.81.56 19.11 8.2 22.43 45.86 19.93 69.87 89.06 63.72 114.05-1.26 5.14 4.37 15.93-5.23 20.18-19.78 8.75-47.63-3.14-44.82 13.39.91 4.53-2.59 15.47 3.37 17.95 3.61 1.5 10.7-.82 14.88-.13 4.14-5.39 24.12-6.33 24.3 2.55l1.41 71.48c.15 7.83-2.95 17.61-8.5 26.79-16.4-4.34-32.43-4.99-39.27 7.62l-.45 9.64 56.46-2.51c-.83 15.31-3.47 31.34-12.43 42.03Z" style="fill:#13120c"/>
    <path d="M689.19 286.72c-18.15 4.47-36.63 5.44-55.54 6.65-2.08 12.7 4.28 20.83 5.5 26.91.91 4.53-2.59 15.47 3.37 17.95 3.61 1.5 10.7-.82 14.88-.13 4.81.79 15.76 3.4 19.82 8.04l1.22 66.33c-8.95 7.46-23.76 5.22-37.76 4.35l-5.35 29.72-.45 9.64c-.47 9.99 23.26-1.18 52.27 4.13-4.72 13.83-8.22 23.86-8.24 35.39v3.53c-19.85 13.7-21.36 52.59-44.11 53.17-25.87.66-87.33-18.86-89.51-31.91-2.38-14.26-7.41-18.81-24.35-17.77-11.13.69-18.55 8.01-17.46 27.09-39.63-6.77-75.49-2.94-114.2-2.71-9.95-2.59-14.93-21.8-18.77-28.31-5.46 11.07-5.6 25.09-16.07 31.69-12.07 7.6-37.02 13.97-50.66 10.51-17.85-4.53-19.67-.06-33.75 6.56l-70.9 33.35c-18.88 8.88-29.02-16.33-44.11-13.69-7.8-8.85-16.09-16.54-27.71-23.55-5.54 13.91 5.59 19.55 11.96 29.74l20.51 33.09c-3.53 6.47-13.22 11.91-19.97 15.19-35.16-30.35-63.23-68.2-82.03-112.1-2.46-5.74-4.94-9.29-10.34-10.82 1.94-1.09 1.6-2.88 1.22-3.79a20.5 20.5 0 0 0-4.47-6.5l-.44-8.11c-.12-2.25-2.71-4.51-3.78-6.3-9.77-47.89-25.17-129.45-.35-144.18l62.67 27.1c.23 8.9 7.54 17.74 18.39 22.27 5.06-13.19 10.23-22.48 18.84-30.41 27.64 12.84 55.07-4.31 83.29-.07l2.26 37.87c1.51 1.12 6.79 1.69 8.48 1.18 5.96-1.77 4.99-12.33 2.09-17.33l.75-2.65c14.77 5.17 2.86-19.98 39.37-43.5l5.61.86c21.71-5.2 43.33 2.7 52.05 24.75 2.67-1.06 4.9-.88 6.49-.72l.98 13.38-.93 12.13-.15 3.75c-5.69-1.67-6.78 5.22-.32 4.68-.1 1.41.32 3.3-.1 4.67l-5 .04c-4.72 3.28-11.06 5.76-16.78 5.14-10.59-1.15-9.98-20.88-29.14-20.18-4.99.18-8.6 3.84-7.44 10.3l-4.72 4.65c-10.42-3.32-13.5 16.49-9.19 35.62.67 2.99 5.32 5.17 9.84 3.3.42 20.81 18.34 80.99 35.72 72.71 15.65-7.46-25.87-33.49-14.29-65.46 2.01-5.55 12.11-10.41 16.74-11.74 10.34-2.98 26.12-2.5 35.17-9.37-1.85-44.87-2.01-90.78 18.37-130.53 16.05-11.2 32.34-22.84 52.39-19.3 1.61.28 3.77-.37 5.39-.6 1.36 1.71 4.14 3.07 5.64 4.08 30.05 20.18 33.25 58.27 27.76 92.2-2.95 3.63-10.66 10.56-16.48 7.65-9.05-4.52-13.19-14.02-17.65-20.43.87-2.38-.24-5.83-3.41-8.91-1.52-1.48-4.71-3.7-5.09 2.56l-15.37-1.27c-6.99-4.54-8.42 2.09-9.2 6.26-1 5.38-1.15 17.85 4.81 19.37-.52 4.03.7 10.31-.98 13.91-9.64 20.6-1.91 42.28 4.08 65.5 4.09 15.85-.29 46.7 18.81 46.91 3.6.04 6.5-1.85 7-6.44l4.23-3.85c8.4 1.15 12.04-4.05 11.34-12.05-.55-6.31.51-13.56-5.76-17.58-15.88-10.18-26.48-33.93-13.62-51.64 5.07-6.98 17.16-8.66 22.96-10.68l10.5-3.65c4.41-1.54 14.83-1.66 18.78 3.72 10.34 14.07 7.34 31.24 12.57 48.76 6.88-51.87 7.03-103.38 1.84-155.34-.79-7.93 3.66-18.08-3.56-24.91.83-4.49-.24-9.1-.67-13.33 2.82-11.88 8.25-19.34 19.93-22.82 8.45-2.52 19.84.37 27.43.28l11.22 26.36c15.72 19.18 24.8 38.61 31.33 60.67-5.63 14.02 3.47 40.34 13.19 51.15l1.34 6.86c-5.41 25.54-1.73 50.05 6.35 78.48 8.45-10.16 10.07-23.56 5.7-31.52l.37-39.3c7.39-21.24 6.24-48.26-5.85-67.51-.38-.61-1.58-1.7-1.32-2.72.85-3.27 1.83-9.61 1.14-13.85-.48-2.94-5.34-5.25-9.24-3.69-8.9-19.2-12.85-41.3-19.61-61.98-.72-2.2-2.25-4.3-3.61-6.18l-.34-8.25c16.58-36.05 67.09-4.96 62.46-36.56 45.86 19.93 69.87 89.06 63.72 114.05Zm-165.68 138.4c-3.06 6.6-6.65 12.45-5.47 19.06 1.48 8.28 32.37 11.2 31.9 11.32 3.06-.8 3.42-7.41 3.73-10.21 4.38-39.36-6.63-82.21-17.78-120.77-4.38 34.82 2.21 69.07-12.39 100.6ZM71.78 401.98c-4.69 9.59-3.49 20.01-3.48 29.59 0 6.1 3.76 12.25 5.86 17.83-1.35 7.82-2.33 15.32-1.13 25.32 4.94.99 7.95-.21 10.66-.12l3.8.13c1.48 8.12 5.67 3.9 4.09-.53l2.51-.74c3.08-.9 5.35-2.88 5.55-6.11.07-1.15 1.03-2.02 1.92-2.41 10.96-11.4 3.38-35.24-10.03-42.74l-.33-3.6c-.52-5.65-.68-12.17-4.16-18.29-2.59-4.56-11.92-5.17-15.26 1.67m112.63 49.18c6.09-.49 18.76-1.94 24.8.81 6.44 2.93 11.4 20.56 6.87 26.09-6.31 4.36-19.17 3.52-22.87 11.42-.01 1.03-.53 3.79-1.43 4.5-4.37 3.42 1.16 21.47 6.62 19.66l47.89-15.82-16.3-32.85c-5.83-11.74-6.67-29.39-6.65-42.57 1.44-3.29 7-8.06 3.65-14.4-20.93 7.4-39.48 12.03-60.81 15.26l5.48 26.16c2.46 3.01 9.87 1.97 12.75 1.73Zm-13.95 92.8c4.81-16.46-9.77-37.85-21.16-48.73-7.58-.54-15.1 13.58-14.3 21.11.53 5.02 31.56 40.95 35.46 27.62" class="cls-9"/>
    <path d="m266.34 106.52.29 5.01c-26.43 15.47-50.32 9.12-46.8 26.23l-.96 3.31c-5.61 4.38-8.41 11.58-9.17 17.68-1.13 9.04 5.95 13.49 18.1 12.43-2.65 39.98-29.45 30.98-35.07 47.82-2.74 8.21-3.54 17.03.49 23.64-1.01 19.27 24.88-8.02 51.82 6.9 6.17 5.54 2.38 18.53 2.81 24.42-12.12.73-7.05 15.39-10.15 20.78-3.46 6.01-8.23 17.39-10.29 26.08-16.02 8.09-38.43 17.49-58.56 18.28-21.39.84-3.13-45.47-17.73-90.96-14.04 26.83-9.76 50.27-15.08 77.22-2.06 10.46-14.16 21.3-22.31 12.22-5.78-6.44-6.05-19.12-9.05-25.32l1.03-2.3c6.99-2.9 6.63-11.51 2.94-17.27.65-.83 1.22-1.73 1.32-2.49 8.58-.61 13.53-36.53 4.49-40.31-10.73-4.49-21.04-6.07-25.84-20.31-10.64 6.43-4.78 13.39-6.01 17.72l-20.24 71.02c-4.17 2.41-14.2-.38-16.04-3.81-1.94-3.62-4.39-11.18-4.68-15.39.25-3.77 1.01-9 .55-12.8l1.73-10c12.2-53.55 40.01-103.56 77.29-144.09 4.93-2.14 12.22-6.41 13.87-2.56 4.15 9.69-.61 18.26-8.74 27.85-1.52 1.79 5.57 9.15 9.06 6.3 7.26-5.93 11.11-16.3 14.39-23.32 2.25.75 9.14.24 11.09-3.44l15.34-28.91c4.58-8.63 8.38-13.82 17.98-10.85-1.87 4.95.27 14.89-5.61 18.95l-7.09 4.9c-4.45 3.08-3.1 9.7 2.86 9.88-1.26 3.3-1.86 7.24-5.07 9.53-3.76 2.68-3.44 6.09-4.35 10.12l-18.81 83.44c-.63 2.8 3.89 7.84 7.86 8.03 3.24-22.4 3.36-45.74 15.1-62.43 3.37-4.79 5.1-8.15 5.07-14.92l-.02-4.75c6.12-5.57 6.16-14.9 10.35-23.91l3.53-7.58c.57-1.22-1.88-3.56-4.31-2.53 1.38-3.31 1.69-7.17 5.02-9.65 3.04-2.26 4.75-5.87 4.75-9.73-.02-9.13 3.97-18.09 9.14-25.79 4.14-6.17 9.62-12.75 15.33-17.95l45.41-11.14-7.07 54.75Z" class="cls-9"/>
    <path d="m457.86 42.47 3.07.32c-1.69 3.84 1.22 4.74 2.99 4.77 3.35.06 6.39-.01 8.27-.45 22.27 8.54 30.7 27.77 33.84 55.5 13.18-6.53 14.72-18.79 21.09-26.69 29.16 5.74 60 26.85 63.37 49.93-3.9 3.18-13.08 1.07-14.09 9.84l-37.31-12.03c-4-3.16-8.65 1.29-5.8 8.34 10.94 6.59 17.51 12.73 13.55 32.28 13.23-6.05 22.79-12.19 32.74-19.92l16.82-13.08c4.95-3.85 10.6 1.49 12.09 4.48 2.33 4.68 2.94 9.86 2.34 15.06-3.53 5.35-8.04 9.45-14.67 14.66l9.9 11.72c-12.76 8.08-32.83 3.13-47.66 9.08-28.47 11.44-54.96 25.74-83.2 34.31l-1.11-11.63c-1.12-11.69 11.18-25.13 3.67-40.03-17.8 36.43-42.28 67.92-77.83 84.98-16.59-1.2-25.19 6.77-31.49-6.58l.24-9.52c2.74 1.37 8.64.43 9.28-4.97 1.36-11.49.02-21.24-1.99-30.4 4.32-20.96 8.19-42.01 13.87-62.69 11.08-2.39 16.13-31.25 16.86-53.45-.3-1.44.2-3.87.59-3.95 12.76-8.01 12.96-24.27 20.11-37.45l30.49-2.44Zm-.11 64.3c-4.17-2.75-14.8-8.03-20.17-4.57l-28.82 93.02c41.16-2.68 72.67-72.84 48.99-88.45M343.03 231.6c-1.24 1.23-3.67 3.6-3.45 5.13l.76 5.21c-16.33 19.46-18.25 45.84-48.39 64.21-13.47 2.38-24.21-3.88-35.62-10.05-.45-.86-.5-2.22-.5-3.27 3.06-9.71-3.78-20.25-2.56-31.19l3.84-34.33c1-8.96 6.56-19.37 13.77-24.29 5.67 4.68 9.78 11.51 10.75 18.91.73 5.6 3.99 9.43 9.99 9.69l8.81.39c5.32.23 12.43-3.57 14.29-7.49 2.7-5.7.38-13.95-4.25-16.65l-39.32-23.03c.02-1.52.61-4.53-.22-5.87l1.1-62.21c.02-2.37 4.31-6.4 4.14-8.02-.32-3.01-6.77-4.31-9.83-2.21l7.07-54.75L228 62.92c14.59-13.29 36.15-18.26 58.17-24.32 4.47 19.59-8.55 32.06-5.49 54.6 18.23-37.69 52.46-75.83 78.53-62.35 7.49 3.87 14.27 15.11 14.94 27.21l1.44 25.67c-9.11 16.51-20.79 28.05-34.8 38.21-5.59-7.1-9.07-12.22-13.83-15.47-10.16 4.08-14.22 10.09-15.03 17.98-1.68 16.41 40.38 22.79 35.8 64.44l-4.7 42.74Z" class="cls-1"/>
    <path d="M109.98 290.22c-.11.75-.67 1.66-1.32 2.49a94.4 94.4 0 0 0-2.94 17.27l-1.03 2.3c-3.84 8.59-3.11 17.92-2.87 27.21l.46 17.5-62.67-27.1 2.05-30.75c.29 4.21 2.74 11.76 4.68 15.39 1.84 3.43 11.87 6.22 16.04 3.81l20.24-71.02 31.53 13.18-4.16 29.72Z" class="cls-4"/>
    <path d="M310.38 315.65c-10.74-1.32-22.89-.26-29.02 9.56l-5.61-.86c-18.45 6.58-33.99 24.62-39.37 43.5l-.75 2.65c-1.6 5.64-3.14 11.3-2.09 17.33-1.7.5-6.97-.07-8.48-1.18l-2.26-37.87.91-14.2c10.42-10.21 14.64-24.34 13.99-39.82 3.1-5.4-1.97-20.06 10.15-20.78.46 6.31 4.27 13.87 7.99 18.86 0 1.04.05 2.41.5 3.27 3.32 6.32 8.88 11.73 13.96 13.54 9 3.2 15.55.24 21.67-3.49 30.14-18.37 32.06-44.75 48.39-64.21 3.35 23.05-20.75 49.79-29.96 73.71Z" class="cls-6"/>
    <path d="M625.47 172.67c4.63 31.59-45.88.51-62.46 36.56-11.88-10.63-22.61 6.21-30.67 11.49-7.6.09-18.98-2.8-27.43-.28-11.68 3.49-17.11 10.95-19.93 22.82-.53-5.22-3.37-6.25-8.04-9.19-4.25-2.68-1.45-10.34-1.75-13.46 28.24-8.58 54.73-22.88 83.2-34.31 14.83-5.96 34.9-1 47.66-9.08l-9.9-11.72c6.63-5.2 11.14-9.31 14.67-14.66l6.46-.6c-4.45 8.81.56 19.11 8.2 22.43ZM474.08 208.98c-1.07-.63-2.58-2.29-3.99-2.92-3.87-1.74-4.96 2.83-4.87 6.05-11.63 21.78-27.81 36.53-44.18 50.91-20.05-3.54-36.34 8.1-52.39 19.3 2.22-4.32 1.85-11.3 4.47-15.58l26.78-12.81c35.56-17.06 60.03-48.56 77.83-84.98 7.51 14.9-4.79 28.34-3.67 40.03ZM139.79 621.67c-30.86 14.97-78.23-73.58-92.36-122.92 5.4 1.53 7.88 5.08 10.34 10.82 18.79 43.89 46.86 81.75 82.03 112.1ZM155 567.2c11.04 12.53 27.56 21.39 44.23 19.83-8.25 8.83-19.61 12.53-32.65 13.11-2.37.2-5.85 4.57-6.81 6.35l-20.51-33.09c-6.37-10.19-17.5-15.83-11.96-29.74 11.62 7 19.91 14.7 27.71 23.55ZM335.02 397.59c4.47 4.78 4.22 9.2 5.41 12.04 1.43 3.43 7.32 4.8 9.86 3.22-9.05 6.87-24.84 6.39-35.17 9.37-6.46-15.93-22.74-24.81-38.64-18.62l-.18-15.8 4.72-4.65c31.55-8.26 29.41 33.36 54.01 14.44ZM212.67 80.86c-5.18 7.71-9.16 16.66-9.14 25.79-3.64 1.76-5.19 5.77-4.75 9.73-3.32 2.48-3.64 6.34-5.02 9.65-4.58 11.01-9.63 21.9-9.58 34.02l.02 4.75c-5.21 2.78-5.95 9.29-5.07 14.92-11.74 16.69-11.86 40.03-15.1 62.43-3.97-.19-8.49-5.23-7.86-8.03l18.81-83.44c3.23-2.08 4.79-6.08 4.35-10.12 3.22-2.29 3.81-6.22 5.07-9.53 1.84-4.84 4.13-9.4 4.23-14.77 5.88-4.06 3.74-14 5.61-18.95 1.78-4.71 8.19-9.34 9.18-14.98 2.4.23 6.4-1.01 9.25-1.47M689.19 286.72c-1.26 5.14 4.37 15.93-5.23 20.18-19.78 8.75-47.63-3.14-44.82 13.39-1.22-6.08-7.57-14.21-5.5-26.91 18.91-1.21 37.39-2.19 55.54-6.65Z" class="cls-8"/>
    <path d="M305.46 559.87c-1.38.09-2.67.45-3.71 1.21 1.28-.27 2.5-.69 3.71-1.21" style="fill:#3e3e3e"/>
    <path d="M545.28 520.48c2.17 13.05 63.63 32.57 89.51 31.91 22.75-.58 24.27-39.47 44.11-53.17-.02 12.38-26.63 58.03-35.49 61.88-15.58 6.77-34.15-7.58-48.79-11.37l-56.5-14.65c-2.42-5.28 2.36-15.22 7.16-14.6" class="cls-7"/>
    <path d="m635.33 446.54 5.35-29.72c14 .87 28.81 3.12 37.76-4.35 1.44-.33 3.78-.44 4.66-.33.15 7.83-2.95 17.61-8.5 26.79-16.4-4.34-32.43-4.99-39.27 7.62ZM154.14 131.28l-4.31 9.23c-3.28 7.02-7.13 17.39-14.39 23.32-3.49 2.85-10.58-4.51-9.06-6.3 8.13-9.59 12.89-18.16 8.74-27.85-1.65-3.85-8.94.43-13.87 2.56 8.21-8.93 13.43-20.99 27.23-22.36-.37 10.68 1.61 16.87 5.67 21.4Z" class="cls-8"/>
    <path d="M678.9 495.7c.02-11.52 3.53-21.56 8.24-35.39-29.01-5.31-52.74 5.86-52.27-4.13l56.46-2.51c-.83 15.31-3.47 31.34-12.43 42.03" class="cls-7"/>
    <path d="M310.38 315.65c13.73 1.69 24.63 12.97 24.87 27.01l-1.83 7.3c-8.72-22.05-30.34-29.95-52.05-24.75 6.13-9.82 18.28-10.88 29.02-9.56Z" class="cls-1"/>
    <path d="M683.09 412.14c-.88-.11-3.22 0-4.66.33l-1.22-66.33c-4.06-4.64-15.01-7.25-19.82-8.04 4.14-5.39 24.12-6.33 24.3 2.55l1.41 71.48ZM203.43 82.33c-.99 5.65-7.41 10.27-9.18 14.98-9.6-2.97-13.4 2.22-17.98 10.85l-15.34 28.91c-1.95 3.67-8.84 4.19-11.09 3.44l4.31-9.23 33.69-50.53c3.01-4.52 7.79-5.31 11.18-3.51 1.62.86 3.28 3.79 4.41 5.09M389.82 139.77c4.9-17.85 6.67-37.29 16.86-53.45-.73 22.2-5.78 51.06-16.86 53.45M399.91 253.93l-26.78 12.81c-4.78-5.29-4.88-12.38-4.71-19.39 6.3 13.35 14.89 5.38 31.49 6.58M457.86 42.47l-30.49 2.44c-7.14 13.18-7.35 29.44-20.11 37.45 6.86-12.7 8.48-31.33 19.68-43.58 7.82-8.55 24.03-.4 30.92 3.68Z" class="cls-7"/>
    <path d="m334.38 387.89.1 4.9.54 4.8c-24.6 18.92-22.46-22.7-54.01-14.44-1.16-6.46 2.45-10.11 7.44-10.3 19.17-.7 18.55 19.03 29.14 20.18 5.72.62 12.05-1.86 16.78-5.14Z" class="cls-1"/>
    <path d="m368.67 237.83 7.29-35.38c2.01 9.16 3.34 18.91 1.99 30.4-.64 5.41-6.53 6.34-9.28 4.97ZM617.28 150.24l-6.46.6c.6-5.2 0-10.38-2.34-15.06-1.49-2.99-7.14-8.33-12.09-4.48l-16.82 13.08c.38-1.66 1.68-4.01 1.64-6.1-.04-1.73-2.78-3.42-4.82-2.57 1.01-8.78 10.19-6.67 14.09-9.84 2.43-3.4 4.82-4.89 7.58-4.23 2.68.64 24.89 17.38 19.21 28.61ZM199.11 580.89l.12 6.14c-16.67 1.56-33.19-7.3-44.23-19.83 15.1-2.65 25.24 22.57 44.11 13.69" class="cls-7"/>
    <path d="M42.21 286.34c-.22-1.78-3.54-3.14-1.82-6.23.85-1.52 2.3-2.87 3.56-3.77l-1.73 10Z" class="cls-4"/>
    <path d="M472.19 47.11c-1.88.44-4.92.51-8.27.45-1.77-.03-4.68-.93-2.99-4.77z" class="cls-7"/>
    <path d="m339.95 374.74.93-12.13c1.92 4.13 3.13 8.16-.93 12.13" class="cls-6"/>
    <path d="M43.74 480.36c-3.14-1.12-3.25-3.7-3.78-6.3 1.07 1.78 3.66 4.05 3.78 6.3" class="cls-8"/>
    <path d="M339.48 383.18c-6.46.54-5.37-6.36.32-4.68z" class="cls-6"/>
    <path d="m334.48 392.79-.1-4.9 5-.04c-.68 2.25-2.71 4.13-4.9 4.95Z" class="cls-8"/>
    <path d="M339.59 236.73c-.22-1.53 2.21-3.89 3.45-5.13-.26 2.4-1.21 4.43-3.45 5.13M339.91 349.24c-1.59-.17-3.82-.35-6.49.72l1.83-7.3c1.54 1.88 4.48 4.2 4.66 6.58" class="cls-6"/>
    <path d="M48.65 494.97c-3.03-.59-4.31-3.5-4.47-6.5 1.9 1.87 3.44 4.07 4.47 6.5" class="cls-8"/>
    <path d="m474.08 208.98 1.11 11.63c.3 3.13-2.5 10.79 1.75 13.46 4.67 2.94 7.5 3.97 8.04 9.19.43 4.23 1.51 8.84.67 13.33-1.56 8.4-2.96 18.52 3.56 24.91 5.19 51.96 5.04 103.47-1.84 155.34-5.23-17.52-2.23-34.69-12.57-48.76-3.95-5.37-14.37-5.25-18.78-3.72 3.73-8.24 2.47-17.32 3.82-25.66 5.49-33.93 2.29-72.02-27.76-92.2-.33-2.42-2.94-4.46-5.64-4.08-1.62.23-3.78.88-5.39.6 16.37-14.38 32.55-29.14 44.18-50.91-.09-3.23 1-7.8 4.87-6.05 1.41.63 2.92 2.29 3.99 2.92Z" class="cls-5"/>
    <path d="m563.01 209.23.34 8.25c.33 2.6 1.39 4.92 3.61 6.18 6.76 20.69 10.71 42.78 19.61 61.98l8.1 17.54c-.27 1.02.93 2.12 1.32 2.72l5.85 67.51-.37 39.3c-8.06-14.67-8.96-31.05-12.05-46.97l-1.34-6.86c-3.39-17.42-8.26-34.48-13.19-51.15-6.53-22.06-15.61-41.49-31.33-60.67l-11.22-26.36c8.06-5.28 18.79-22.12 30.67-11.49ZM445.51 388.02c-5.8 2.02-17.89 3.7-22.96 10.68-12.86 17.71-2.26 41.46 13.62 51.64.91 10.37-1.55 20.29-5.58 29.63l-4.23 3.85c-1.28 1.19-11.4 2.41-12.99-.2l-16.89-105.77c1.69-3.6.46-9.87.98-13.91l.48-3.73c23.82-8.61 25.53 12.08 47.58 27.81ZM553.68 445.28l-29.57.51-.59-20.67c14.6-31.54 8.01-65.79 12.39-100.6 11.15 38.56 22.16 81.4 17.78 120.77Z" class="cls-4"/>
    <path d="M315.12 422.22c-4.62 1.33-14.73 6.19-16.74 11.74-11.59 31.98 29.94 58.01 14.29 65.46-17.38 8.28-35.3-51.9-35.72-72.71l-.47-23.11c15.89-6.2 32.18 2.68 38.64 18.62" class="cls-5"/>
    <path d="m223.71 334.57-.91 14.2c-28.22-4.24-55.65 12.9-83.29.07-8.61 7.94-13.78 17.22-18.84 30.41-10.86-4.53-18.16-13.38-18.39-22.27l-.46-17.5c12.95 12.14 29.03 1.99 44.25 1.71 15.11-.28 28.05 9.02 44.32-1.23 9.36-5.9 23.68-5.96 33.32-5.39M417.21 339.58c2.76.23 6.82 3.94 8.5 6.35 4.45 6.41 8.6 15.91 17.65 20.43 5.82 2.91 13.53-4.02 16.48-7.65-1.35 8.34-.09 17.42-3.82 25.66l-10.5 3.65c-22.04-15.74-23.76-36.42-47.58-27.81.87-6.75-1.89-15.95 3.9-21.9zM223.34 422.4c-9.27 11.35-24.91 12.58-41.2 17.47-8.91-.12-8.46 9.52 1.63 6.33.5.82.68 3.35.65 4.96-2.88.23-10.29 1.28-12.75-1.73l-5.48-26.16c21.33-3.23 39.88-7.87 60.81-15.26 3.35 6.34-2.22 11.11-3.65 14.4Z" class="cls-8"/>
    <path d="M170.46 543.96c-3.9 13.33-34.93-22.6-35.46-27.62-.8-7.53 6.72-21.65 14.3-21.11 11.39 10.88 25.97 32.28 21.16 48.73" class="cls-7"/>
    <path d="M91.88 426.92c.95 12.74 10.62 24.19 9.67 38.01-.89.4-1.85 1.26-1.92 2.41l-5.55 6.11-2.51.74-4.09.53-3.8-.13-9.52-25.2c-2.1-5.58-5.85-11.73-5.86-17.83 4.45-9.72 14.51-7.13 23.58-4.65Z" class="cls-4"/>
    <path d="m191.78 493.98 31 9.22c2.49-10.65.29-14.16.24-18.26l-.25-19.38 7.23-.59 16.3 32.85-47.89 15.82c-5.46 1.8-10.99-16.24-6.62-19.66Z" class="cls-6"/>
    <path d="M426.36 483.83c-.5 4.59-3.4 6.48-7 6.44-19.1-.21-14.73-31.06-18.81-46.91-5.99-23.23-13.72-44.91-4.08-65.5l16.89 105.77c1.59 2.62 11.71 1.39 12.99.2ZM601.47 412.71c4.37 7.95 2.75 21.35-5.7 31.52-8.09-28.44-11.76-52.95-6.35-78.48 3.1 15.92 3.99 32.29 12.05 46.97Z" class="cls-7"/>
    <path d="m229.99 464.98-7.23.59-6.18-24.18c-12.01-1.16-21.95 3.7-32.82 4.81-10.09 3.2-10.54-6.45-1.63-6.33 16.29-4.89 31.93-6.11 41.2-17.47-.02 13.18.83 30.83 6.65 42.57Z" class="cls-4"/>
    <path d="m222.76 465.57.25 19.38c-9.51 3.98-19.55 6.84-29.81 4.54 3.71-7.9 16.56-7.07 22.87-11.42 4.53-5.53-.43-23.16-6.87-26.09-6.05-2.75-18.71-1.3-24.8-.81.03-1.61-.14-4.15-.65-4.96 10.86-1.11 20.8-5.96 32.82-4.81l6.18 24.18Z" class="cls-7"/>
    <path d="m91.2 418.6.33 3.6.35 4.73c-9.07-2.48-19.13-5.07-23.58 4.65-.01-9.58-1.22-20 3.48-29.59 9.22 2.81 15.81 8.81 19.42 16.62Z" class="cls-8"/>
    <path d="M601.85 373.4 596 305.89c12.09 19.25 13.24 46.27 5.85 67.51M276.3 387.8l.18 15.8.47 23.11c-4.52 1.87-9.16-.31-9.84-3.3-4.32-19.13-1.23-38.94 9.19-35.62ZM101.56 464.94c.95-13.82-8.73-25.27-9.67-38.01l-.35-4.73c13.4 7.49 20.98 31.34 10.03 42.74Z" class="cls-7"/>
    <path d="M553.68 445.28c-.31 2.8-.67 9.41-3.73 10.21.46-.12-30.42-3.04-31.9-11.32-1.18-6.6 2.41-12.45 5.47-19.06l.59 20.67 29.57-.51Z" class="cls-1"/>
    <path d="M223.02 484.95c.05 4.09 2.25 7.61-.24 18.26l-31-9.22c.9-.71 1.42-3.46 1.43-4.5 10.25 2.3 20.29-.56 29.81-4.54" class="cls-8"/>
    <path d="M430.59 479.98c4.03-9.34 6.48-19.27 5.58-29.63 6.28 4.02 5.21 11.27 5.76 17.58.7 8-2.93 13.2-11.34 12.05M588.08 358.88c-9.72-10.8-18.82-37.13-13.19-51.15 4.93 16.67 9.8 33.73 13.19 51.15M83.69 474.6c-2.71-.09-5.72 1.11-10.66.12-1.19-10-.22-17.5 1.13-25.32l9.52 25.2Z" class="cls-7"/>
    <path d="M275.75 324.35c-36.51 23.52-24.6 48.67-39.37 43.5 5.38-18.88 20.92-36.92 39.37-43.5" class="cls-1"/>
    <path d="M401.84 338.32c-5.79 5.95-3.03 15.15-3.9 21.9l-.48 3.73c-5.96-1.52-5.81-13.99-4.81-19.37.78-4.17 2.21-10.8 9.2-6.26ZM91.2 418.6c-3.61-7.81-10.2-13.81-19.42-16.62 3.34-6.84 12.67-6.23 15.26-1.67 3.47 6.11 3.64 12.64 4.16 18.29" class="cls-7"/>
    <path d="M489.2 281.5c-6.52-6.39-5.12-16.51-3.56-24.91 7.22 6.83 2.77 16.98 3.56 24.91" class="cls-8"/>
    <path d="m594.67 303.17-8.1-17.54c3.9-1.56 8.76.75 9.24 3.69.69 4.24-.29 10.58-1.14 13.85" class="cls-7"/>
    <path d="M233.54 387.82c-1.05-6.03.49-11.7 2.09-17.33 2.9 5 3.87 15.56-2.09 17.33" class="cls-1"/>
    <path d="m87.49 474.73 4.09-.53c1.58 4.43-2.62 8.66-4.09.53M425.71 345.93c-1.68-2.41-5.74-6.12-8.5-6.35.38-6.26 3.57-4.03 5.09-2.56 3.17 3.07 4.28 6.53 3.41 8.91" class="cls-7"/>
    <path d="M432.07 266.51c-1.5-1.01-4.28-2.37-5.64-4.08 2.7-.38 5.31 1.66 5.64 4.08" class="cls-8"/>
    <path d="m94.09 473.46 5.55-6.11c-.19 3.22-2.46 5.2-5.55 6.11" class="cls-7"/>
    <path d="M566.96 223.66c-2.22-1.26-3.28-3.59-3.61-6.18 1.35 1.89 2.89 3.99 3.61 6.18" class="cls-8"/>
    <path d="M237.7 294.75c.65 15.48-3.58 29.61-13.99 39.82-9.64-.57-23.96-.51-33.32 5.39-16.27 10.25-29.21.95-44.32 1.23-15.22.28-31.29 10.43-44.25-1.71-.24-9.28-.97-18.62 2.87-27.21 3 6.19 3.26 18.88 9.05 25.32 8.15 9.08 20.25-1.76 22.31-12.22 5.32-26.95 1.04-50.39 15.08-77.22 14.6 45.49-3.67 91.8 17.73 90.96 20.13-.8 42.53-10.19 58.56-18.28 2.06-8.69 6.83-20.07 10.29-26.08Z" class="cls-7"/>
    <path d="M270.93 178.97c-7.46-12.1-4.27-26.42-5.13-43.2-12.79 14.27-30.88 17.52-47.65 19.38l.72-14.07.96-3.31c22.74-7.44 47.57-12.95 46.8-26.23l-.29-5.01c3.05-2.1 9.51-.81 9.83 2.21.17 1.62-4.12 5.66-4.14 8.02z" class="cls-8"/>
    <path d="M255.84 292.83c-3.72-4.99-7.52-12.55-7.99-18.86-.43-5.89 3.36-18.88-2.81-24.42-26.94-14.92-52.82 12.37-51.82-6.9 27.13 1.21 40.39-17.6 52.38.38 5.31-7.6 7.18-11.87 11.51-15.72l-3.84 34.33c-1.22 10.94 5.62 21.48 2.56 31.19Z" class="cls-7"/>
    <path d="M218.15 155.15c-7.65 1.11-3.57 8.01-.28 7.69 2.51-.24 11.62-2.63 13.85-.83 4.18 12.97.01 33.55-6.85 48.2l-26.38 7.58c.3 10.46-2.07 17.77-5.27 24.84-4.03-6.61-3.22-15.43-.49-23.64 5.62-16.84 32.42-7.84 35.07-47.82-12.14 1.05-19.23-3.39-18.1-12.43.76-6.1 3.56-13.3 9.17-17.68l-.72 14.07Z" class="cls-1"/>
    <path d="m109.98 290.22 4.16-29.72-31.53-13.18c1.23-4.32-4.63-11.29 6.01-17.72 4.8 14.24 15.11 15.82 25.84 20.31 9.05 3.78 4.1 39.7-4.49 40.31Z" class="cls-7"/>
    <path d="M219.83 137.77c-3.52-17.11 20.37-10.77 46.8-26.23.77 13.28-24.06 18.79-46.8 26.23" class="cls-1"/>
    <path d="M184.4 131.03c-5.96-.18-7.32-6.8-2.86-9.88l7.09-4.9c-.1 5.38-2.39 9.94-4.23 14.77Z" class="cls-7"/>
    <path d="M179.14 179.71c-.88-5.63-.14-12.15 5.07-14.92.03 6.77-1.7 10.13-5.07 14.92M184.19 160.04c-.05-12.12 5-23.01 9.58-34.02 2.43-1.03 4.88 1.3 4.31 2.53l-3.53 7.58c-4.19 9.01-4.23 18.33-10.35 23.91Z" class="cls-1"/>
    <path d="M105.72 309.98c.45-6.01 1.48-11.8 2.94-17.27 3.69 5.76 4.04 14.37-2.94 17.27" class="cls-7"/>
    <path d="M198.78 116.38c-.45-3.96 1.11-7.97 4.75-9.73 0 3.86-1.71 7.46-4.75 9.73" class="cls-1"/>
    <path d="M174.98 150.68c.91-4.02.59-7.44 4.35-10.12.44 4.03-1.12 8.04-4.35 10.12" class="cls-7"/>
    <path d="M457.75 106.77c23.68 15.61-7.83 85.77-48.99 88.45l28.82-93.02c5.37-3.46 15.99 1.82 20.17 4.57" class="cls-4"/>
    <path d="M576.39 135.7c2.04-.85 4.78.84 4.82 2.57.04 2.08-1.26 4.44-1.64 6.1-9.95 7.74-19.5 13.88-32.74 19.92 3.95-19.55-2.62-25.69-13.55-32.28-2.85-7.05 1.8-11.5 5.8-8.34z" class="cls-8"/>
    <path d="M270.93 178.97c.82 1.34.24 4.34.22 5.87l-.27 18.19c-7.21 4.92-12.76 15.33-13.77 24.29-4.33 3.85-6.2 8.12-11.51 15.72-11.99-17.98-25.25.83-52.38-.38 3.2-7.07 5.58-14.38 5.27-24.84l26.38-7.58c6.86-14.65 11.03-35.23 6.85-48.2-2.22-1.8-11.34.59-13.85.83-3.29.32-7.37-6.59.28-7.69 16.77-1.86 34.86-5.11 47.65-19.38.85 16.78-2.33 31.1 5.13 43.2Z" class="cls-5"/>
    <path d="M310.47 207.86c-1.26 9.35-5.22 17.21-10.04 24.15l-8.81-.39a45.5 45.5 0 0 0-9.99-9.69c-.97-7.41-5.08-14.23-10.75-18.91l.27-18.19z" class="cls-8"/>
    <path d="M300.42 232.01c4.82-6.94 8.78-14.8 10.04-24.15 4.63 2.7 6.95 10.96 4.25 16.65-1.86 3.93-8.98 7.73-14.29 7.49ZM291.96 306.15c-6.12 3.73-12.67 6.68-21.67 3.49-5.08-1.8-10.64-7.22-13.96-13.54 11.42 6.18 22.15 12.43 35.62 10.05ZM291.61 231.62c-6-.26-9.26-4.09-9.99-9.69 3.85 2.73 7.17 5.97 9.99 9.69" class="cls-7"/>
  </g>
</svg>
