<svg xmlns="http://www.w3.org/2000/svg" id="Capa_2" data-name="Capa 2" viewBox="0 0 1588.12 558.05">
  <defs>
    <style>
      .cls-1{fill:#7c2823}.cls-2{fill:#6b1613}.cls-3{fill:#1c1917}.cls-4{fill:#5f6b46}.cls-5{fill:#992d29}.cls-6{fill:#821f1d}.cls-7{fill:#34533c}.cls-8{fill:#727c56}
    </style>
  </defs>
  <g id="Capa_1-2" data-name="Capa 1">
    <path d="M459.15 50.44c24.52 6.37 53.01 12.59 73.32 30.38l46.76 40.96c-1.03 3.81-1.02 9.53 1.4 11.4 1.76 1.36 8.31 1.29 9.42 3.19 2.42 4.15 3.61 10.45 8.96 10.83-2.21 4.16-4.2 6.9-7.11 9.93-4.26-5.75-9.45-3.5-15.78-2.25l-94.18 18.56c-11.85-3-13-11.43-22.72-12.8-3.93-.56-10.26.21-11.88 6.46-1.5 5.79.89 12.4 1.1 17.45-4.15-.33-7.41 3.36-8.51 7.38-1.3 4.74 3.45 6.79 9.07 8.85-13.44 7.48-20.81 12.93-24.8 26.28-3.15-8.5-4.44-10.24-10.21-12.3-3.56-1.27-9.66-2.14-12.35 3.39-1.22 2.51 1.73 7.43 3.15 9.19-2.88 3.32-6.04 10.41-11.97 11.35-4.98.79-6.08-6.73-7.57-8.28-4.85-1.66-13.17-6.01-17.54-6.58-10.37.81-19.28 3.29-30.78 1.8-2.99.4-6.26-.13-5.84-6.77l16.81-.87c0-6.76 2.11-10.17 6.49-13.28-11.99-4.38-22.35 5.59-29.11 4.07-2.44-.55-4.41-5.73-7.27-7.22-4.25-2.23-8.19.13-9.07 2.95-.94 3-1.96 5.96-1.89 11.79 8.7 1.44 16.35 7.96 16.5 17.51-5.71 2.28-12.11-1.48-16.39-2.43-5.34 3.7.89 7.9 2.35 10.44 8.03 14.04-6.39 29.48-.89 42.73l29.85-1.59c3.42-.18 6.34-3.61 6.59-6.18 1.01-10.67-17.35-.67-30.75-2.4 3.97-12.09 7.96-21.89 6.07-32.04 22.15-18.28 38.81 6.02 65.4 10.79-1.31 13.38-11.39 16.9-2.68 17.76-10.66 25.73-17.6 52.65-22.34 79.7-6.36 3.52-3.67 10.86-3.55 16.27-7.16 1-10.01 5.74-14.94 11.4-3.16 3.63-9.8-5.49-11.2-8.53-3.93 3.33-7.83 8.31-13.29 7.52-1.7 9.13 8.07 5.76 10.95 6.72 7.67 2.57 13.42 8.08 22.49 6.24 1.57-.32 3.28 4.83 2.26 6.06-3.95 4.82-16-2.34-16.57 5.24-.19 2.47 3.59 5.7 5.39 8.05 1.84 5.51-5.6 5.35-8.55 4.26-2.38-.88-5.2-6.14-7.7-6.92-9.37-.98-16.72-2.65-18.13-13.53l-18.05 1.17c-4.43.29-2.21-8.09-.34-10.31 7.85-9.33 21.13 1.86 27.07-9.6l-18.18-15.24c-.84-.7-5.52.32-6.52-.15-1.5-.71-1.98-5.42.78-6.2 4.01-1.14 7.76-2.67 8.8-4.8 3.07-6.34-2.57-15.26 1.51-17.01 3.09-1.32 4.34 6.76 9.88 4.34 2.71-1.18 3.26-6.44.67-7.7-9.58-4.66-4.71-17.12-7.96-22.2-4.52-7.06-9.53-8.24-6.5-18.54 1.84-6.24 4.4-19.38.07-25.25-11.64-15.79.67-19.59-2.63-25.92-.92-1.77-5.54-2.15-7.74-2.91-5.27-1.83-2.74-7.05-2.19-9.56.92-4.21 5.75-6.95 11.53-6.29l-.4-27.68c-.04-2.9 1.09-6.65.69-8.85-.33-1.82-5.48-3.82-8.95-2.4-3.67 5.42-5.43 13.56-6.61 20.01-9.76-.63-3.58 13.93-18.02 15.04 3.45 2.19 8.2 4.3 11.89 3.91.56 2.57.81 7.63-.59 9.72-.21.31-19.12 8.72-31.85 5.89-1.51-6.66 14.26-40.56 24.68-58.5 18.1-31.17 36.5-61 58.31-88.73 1.02-1.3 3.43-1.6 4.73-2.02s2.66-4.25 2.04-5.48c-.97-1.93-5.89-2.09-7.47-1.29-.17-.93-.36-2.13-.18-2.93.39-1.7-.05-4.58-1.53-5.33-2.83-1.43-6.66-.4-7.04 3.08-2.64-1.15-6.85-1.98-8.76-4.9 1.49-3.25 1.37-7.02.53-10.84.82-.21 1.75-1.24 2.46-1.84-.3 1.27.5 2.69 2.1 2.91 1.28.18 3.04-.72 3.81-2.42h5.51c6.08 0 9.71.17 14.19 6.17 2.61 3.5 13.74 4 17.38.69 1.38-1.25 1.44-6.19 2.46-7.59 3.64-5.01 13.62-1.43 18.5-7.47 7.25-3.2 11.3 5.95 17.4 7.2 4.44.91 11.65-7.65 17.07 1.46 1.34-4.96 2.33-6.48 4.09-7.69 3.26-2.25 26.33.27 37.65 6.25 3.08 1.63 5.9-.14 6.93-3.11Zm-64.68 35.31c-23.99 6.07-44.06 21.6-58.92 40.99-2.15-.8-5.37.12-6.07 1.66-.84 1.82-.63 5.41-.24 7.03.14.56.23 1.56-.07 2.01-1.33.81-2.22 2.19-2.48 3.75-.84.63-1.39 1.45-1.63 2.17-5.46-3.03-10.7-6.55-19.84-6.54l6.18 32.54c1.58 8.32 13.88 7.53 19.96 10.05l22.76 9.46c1.77 1.23 2.49 5.54 6.82 4.49 2.64-.64 5.39-1.01 7.6-3.04l1.69-.15-.83 17.8c10.17-3.41 18.09-3.16 26.04.71 2.45-.38 3.91-6.46 2.14-8.4-2.15-2.37-5.81-3.36-9.63-6.71 9.98.6 11.33-4.47 14.32-6.58 13.16-9.25 29.77-15.42 38.33-31.71 13.98-26.62-1.18-58.52-28.41-67.44-10.39-17.86 13.55-.61 22.13-3.98 3.69-1.45 4.96-7.61 6.44-11.08 4.5.31 13.64 3.1 18.04-2.17.71-3.69-3.51-9.87-6.24-12.06-3.01-2.42-11.42-.08-15.46-1.29-25.98-7.76-28.91 16.28-42.64 28.5Zm1.31 131.99c0-1.7-1.38-3.08-3.08-3.08s-3.08 1.38-3.08 3.08 1.38 3.08 3.08 3.08 3.08-1.38 3.08-3.08m-30.44 70.17c-8.79.3-17.27-.41-27.13 4.42 9.39 4.66 19.42 2.8 27.13-4.42m-17.79 65.92c-8.47-5.97-19.26-5.82-24.85 2.75 7.27 4.35 18.97 4.39 24.85-2.75M71.92 54.58c.6 6.15-.57 12.13-3.15 18.61 3 1.25 4.52.78 5.76.74l.69 8.25c-4.58.02-2.71 4.36.48 2.75 3.5 7.03 5.1 14.88 7.28 22.37-1.37-1.32-6.2.12-5.22 1.2 2.16 2.39 2.41 4.58 2.85 5.98.36 1.15 3.59 1.71 4.25-.7l1.23 3.59c-1.01 6.02 3.15 11.44 11.54 12.61 11.66 1.63 23.65-9.86 23.94-21.06.45-.83 1.02-1.36 1.76-1.6l4.68.32c.56 2.32 2.32 3.99 4.07 4.78 3.02 1.36 4.9.2 6.42-1.99 2-2.9 5.7-5.04 10.01-6.37l78.58-24.38c6.4-1.98 13.02-1.7 18.02-4.18l15.87 12.41c-2.86 2.77-3.7 6.14-3.27 9.5l-22.36 26.56c-24.39 28.97-39.5 63-45.74 99.33l-7.37 7.86c-10.13 3.99-19.75 3.99-29.47 4.49-2.98-7.32-3.65-15.44-8.63-21.94.09-.44.22-1.33.12-1.9-4.6-25.95-11.17-49.87-22.53-38.45l-7.16 1.01c-6.56.93-14.38 3.33-14.77 10.65l-8.91 5.11-20.56 12.65c-2.41 1.48-5.44 2.32-7.83 1.23-1.58-.72-2.47-3.56-2.56-6.27 6.05-6.45 9.26-17.83 18.53-23.08 10.9-6.17 22.58-9.68 32.02-16.29-5.28-3.38-8.62-5.98-13.12-6.26-4.03-2.92-4.24-8.33-.36-14.47-3.64-1.54-5.68 0-7.81.25l-7.71.89c-1.93-.72-4.79-1.31-7.66-.96-2.22.28-4.71 2.72-4.27 6.18-.5.08-1.24.61-1.54 1-1.09-4.63-3.26-4.43-6.4-2.7s-4.01 3.61-3.33 7.35c-1.78.36-4.11 1.68-5.76 2.42-2.73-.05-4.5-3.42-2.9-6.01 4.29-6.94 13.19-9.96 19.39-13.91 6.41-4.09 2-10.68.87-14.49L59.23 81.64c-2.88-9.73 3.27-19.99 5-27.69l7.67.65Zm108.91 93.56c6.15-12.75 20.49-18.73 21.79-35.1-29.04 19.16-47.26 51.16-41.26 85.91 6.08-16.81 10.89-33.03 19.48-50.81Zm-60.45-11.19c1.04 6.38 6.73 10.9 9.57 16.12l-15.54 1.29c-1.07 9.52 5.76 7.3 8.75 8.01 7.06 1.69 8.33-5.4 12.65-7.49l22.02-10.64c-3.08-1.7-8.54-1.26-10.17-2.76-1.73-1.6-.27-6.14-.58-8.77s-1-5.27-2.37-5.88c-1.7-.75-22.48 1.69-24.32 10.12Z" class="cls-6"/>
    <path d="M1584.76 286.96c-5.54-1.21-11.32 1.6-16.35 1.72l-44.57 1.11-24.83.14c-13.86 2.67-26.1 2.2-38.8 2.62l-71.85 2.39-5.57.19-5.4.13c-9.36.23-18.51 1.31-27.7 1.59l-63.77 1.92-47.32 2.05-38.28 2-16.82.48-41.18.31c-1.91.01-4.02.6-5.7 1.41l-80.1 1.25h-5.6l-8.12.06c-10.35.07-20.55.4-30.71.91l-19.29.98-69.05.95-47.16 1.86c-10.72.42-22.94-.98-32.93 2.8l-8.36.13-11.41.44-32.88 2.26-30.69 1.6c-18.37.96-36.68 1.51-55.09 4.12-3.72.53-11.47 1.39-15.25-.88-4.29-3.27-3.34-11.36-2.97-15.52l679.37-21.93 13.39-.03 14.28-1.18 19.19-.82 138.09-3.69 8.66-.95h21.67c2.49.38 2.89 7.58 3.11 9.57Z" class="cls-3"/>
    <path d="M266.58 154.37c-31.33 61.47-48.26 130.76-45.38 202.36 7.4-10.33 6.18-22.79 7.48-33.92 2.99-4.34 6.89-6.42 13.49-2.79 6.01 2.01 5.47-9.08-1.65-4.61-7.78-2.12-7.15-10.85-5.02-18.11 1.19-4.04 9.35-3.34 12.78-5.14-.7 5.38 8.4 5.19 11.28 6.42-.65 7.99 3.43 16.59 7.7 22.29.08 9.54-6.3 21.87-3.53 31.94-3.69 1.93-9.02 1.41-10.73.48-5.12-2.77 1.34-13.62-5.61-19.85-2.84-2.54-9.26-.72-8.74 3.02.59 4.23 2.69 8.05 1.29 11.82-1.39 3.74-6.91 4.64-10.96 7.19-9.68 6.09-1.6 25.05-16.02 34.43-2.04 1.33-4.27 4.94-7.08 5.02-2.62.08-5.3-1.06-8.11-2.18l-9.45-25.78-2.27-4.08c-.24-.43-.33-1.07-.31-1.58.18-4.09-.62-8.16-3.06-11.51l-.02-2.07c-.09-9.22-3.14-18.21-7.78-26.13l-.31-1.75c-1.26-7.19-2.67-14.89-4.82-22.95l-13.62-51.22c11.13-.36 22.33-2.78 31.39 3l-1.53 19.02c-.67 8.29-1.19 16.38 2.14 26.52 2.5-9.35 4.59-18.87 3.87-26.19-1.13-11.51 2.5-20.41 5.06-31.15 10.73.55 22.48.92 30.8-7.79l-20.79-19.14c2.19-1.95 5.77-4.88 4.65-6.16-1.83-2.1-5.21-2.98-7.06-2.67 5.12-14.92 10.52-29.65 21.18-41.63 3.5 1.53 4.39-3.33-.32-2.76.95-2.02 2.25-3.76 3.8-5.34 1.27-.8 2.4-1.92 3.1-3.24.23-.42.17-1.4.04-1.94 5.9-5.25 14.78-9.74 22.31-3.28 4.05 3.48 6.74 8.51 11.77 11.44Z" class="cls-6"/>
    <path d="m965.24 151.41 2.9.45c-1.46 6.51-.12 13.22 2.52 19.22-6.81.58-10.93 3.69-11.55 9.5-.6 5.67 2.21 13.62 8.01 11.94 2.92-3.92 2.72-12.29 3.65-16.01 7.54-1.34 8.47-10.22 8.43-16.57 9.29.38 18.61-1.4 24.71-8.57l8.19.22c1.34.04 2.16 1.65 2.91 2.22.09 2.42.74 4.65 2.17 6.56l2.28 13.1 2.76 14.63 8.56 41.18c1.86 8.93.39 19.52 6.54 26.94l-.52 6.43c-.32 4 1.23 7.63.2 12.95l-30.23-2.56c-8.14-22.49-6.69-44.55-12.97-68.51-6.85 8.94-8.03 18.68-9.05 27.09l-.9 7.4c-1.83 2.74-2.55 5.89-2.61 9.12l-1.93-.06-19.59-.07c.12-23.77-6.46-50.4-11.8-41.22-13.05 1.04-22.47 15.25-20.96 17.2l4.3 5.55c.85 8.15-4.51 16.45-6.66 24.49 6.38-4.37 9.92-8.22 15.82-5.66l-.02 13.64c-3.86-1.36-5.92.92-5.83 4.15l.16 6.84-2.37-.05c-8.26-.19-15.4 1.17-26.68 1.05l16.82-78.89c7.3 1.11 13.49 4.04 22.16 1.54l-.27-19.41c-8.96 5.53-13.97 9.65-21.1 10.57l6.03-36.1 35.91-.28Z" class="cls-1"/>
    <path d="m1184.33 367.21-25.76 2.33c-2.37.21-4.17.8-5.04 1.93-.73.96-.64 2.78-.63 3.9l.13 13.85.45 19.42v30.22c-.01 2.9 0 5.92 1.44 8.64l.82 29.98-41.55.16c1.77-17.21-.57-32.69-1.75-49.52l-3.32-47.49c-.21-3.03.34-5.97-1.66-7.75-.81-.73-2.74-.92-3.95-.92l-16.61.06-16.57.32 1.08-40.99 45.46-.46c8.4-.09 15.19-1 22.8-1.21l44.5-1.28c.28 14.06 2.58 26.62.16 38.8Zm-71.38-5.93c-.39-10.66-6.7-8.11-12.06-8.22-7.64-.15-13.68-.09-14.32 7.84l26.38.37Z" class="cls-7"/>
    <path d="M645.93 192.31c-.25 4.63 1.42 10.84-1.96 16.56-4.19-1.13-12.52-1.47-14.33 3.69-1.56 4.44 1.31 16.5-3.98 19.79-10.09 6.27-23.76-2.21-30.32-11.54l-11.29 18.98c-10.85 6.62-21.17-2.51-29.92-9.13-2.92 5.23-2.93 10.08-4.98 12.03-6.36 6.05-20.2-1.17-32.13-12.43-2.7 7.45-4.41 16.39-9.2 18.7-14.26 6.86-24.63-5.65-33.38-12.55-8.61-6.79-17.76 5.75-19.82 13.12l-21.81 78.13 18.01 3.42c-1.35 2.27-2.42 5.26-2.28 7.5.47 7.62 15.9.84 12.14 11.76-7.58-3.26-16.06-1.41-23.97 3-4.85-3.03-6.78-7.22-11.51-12.19-7.94 4.34-11.82 16.39-8.54 23.37 3.21-.06 7.95-.56 10.17.22s2.89 5.06 1.8 7.83c-7.07-.04-10.76 7.18-10.6 13.97-2.12-.42-4.71.41-5.7 1.8-2.06 2.87 4.98 10.46 1.02 12.37-11.09 5.36-4.19-12.02-10.04-25.3 11.1-37.18 22.42-74.39 30.37-113.88 2.68-13.32 7.4-24.9 12.64-38.77l128.66-18.93 8.57-.41 35.76-5.12c2.36-.34 4.62-.39 6.26-2.4l4.89-.15 6.13-.88 9.37-2.54Z" class="cls-1"/>
    <path d="m1115.9 166.49 7.09 1.96 8.06 18.8 3.43 36.24c1.43 13.81-2.69 26.6-6.54 38.47-.3.94-1.74 1.92-2.52 2.48-13.4 4.28-27.38 2.79-41.3 2.9l-8.19.06-16.08-8.69c-9.74-12-8.29-27.74-10.7-41.13l-1.16-6.43.68-18.3-.3-5.93c2.99-2.65 3.03-7.21 2.29-11.18 2.64-1.82 5.34-3.44 8.57-4.53l5.88-1.97 7.86-1.15 5.59-.21c11.73-2.99 26.69.44 37.33-1.39Zm-21.08 85.9c11.21-33.14 2.4-69.71-8.93-67.28-11.12 2.39-8.85 33.15-5.55 58.08.52 3.93 3.15 6.96 4.21 8.96s9.12 3.65 10.27.23ZM1347.36 195.09c2.84 2.63 6.19 3.23 8.54 2.54 9.78-2.89 10.23-27.04 4.97-39.59-1.06-2.52-6.62-3.41-11.16-7.55 3.96-5.99 14.19-5.94 21.54-3.81 5.16 1.49 10.07 7.83 10.61 15.88.09 1.3-4.93 2.98-4.37 4.11s5.09 2.66 7.11 3.2l3.6 25.66c.12.88.13 2.19.04 3.02l-1.69.08c-1.21.06-2.91.66-3.35 1.57-.51 1.04-.58 3.29-.35 4.27.11.46.04 1.26.02 1.84-3.49-.46-3.67 3.71-.16 3.61l.27 5.04c-3.6 3-2.59 6.75-1.26 10.61 1.18 3.44 2.32 6.31 6.57 6.24l.12 5.41c-4.21.74-1.62 3.99.47 2.39l.55 1.39c-2.53 6.12 4.53 6.14 5.16 1.74 3.89-.5 2.44-10.85 6.78-13.02 1.74-.87 4.03-.45 5.89-.53l9.01-.43c2.54 4.98 4.64 10.89 2.88 16.63-.38 1.25-1.87 2.74-2.76 3.83-.7 15.4-33.1 20.29-49.11 6.16-.26-17.86-2.53-33.6-10.69-31.84-10.06 2.17 2.55 21.42-4.04 36.13-3.56-1.5-10.22-1.07-13.9-.5-3.29.51-12.71 1.19-12.88-3.36l-2.78-71.44-.83-16.37-.2-19.4c8.62-2.56 17.05-3.76 28.39-2.13-10.46 17.86-14.41 38.08-3.01 48.62Z" class="cls-5"/>
    <path d="m597.33 458.54 5.79 7.33c0 6.33 2.67 11.99 8.32 15.11 1.61.61 3.19 2.04 5.37 2.14-.21 2.83 2.69 3.27 2.59.03l24.35.8c-.32 4.93 7.64 4.61 10.54 5.87 2.53 6.79 1.09 18.22.72 25.92l-24.2 5.24c-2.56.55-5.9.92-8.55.87-3.96-.08-7.68.13-11.35 1.66-1.45.6-3.66.74-5.26.77-4.77.08-9.46.37-13.99 1.93-1.37.47-3.74.79-5.2.62-8.12-.95-16.34 2.09-25.36 2.97-32.79 3.17-63.56 8.95-94.74 18.88l-41.07 9.23c-1.39-.42-3.29-.58-4.94-.48-32.28 1.9-66.29-.05-94.95-15.06 6.88-2.38 14.53-.49 21.21 3.01 13.04 6.85 24.75 3.87 37.76 1.84l30.07-4.69c4.84-.76 13.16.59 17.2-2.19 2.11-1.45 8.75 2.35 8.56-4.95-6.45 2.04-12.6 1.09-14.78-3.26l131.57-11.78c5.55-.5 9.02-3.73 9.57-8 2.56-.94 4.89-2.5 6.98-4.71 24.54 1.63 49.23.45 74.5-4.06 1.66-.38 1.26-6.73-.31-6.89l-72.06-6.97c8.56-5.87 7.78-13.82 3.33-22.07l.93-3.77c5.64-2.24 11.32-4.54 17.41-5.34Z" class="cls-1"/>
    <path d="m1573.06 150.35 6.18 11.7.34 17.01 2.31 46.71.04 8.5c1.65 6.11 3.05 12.71-1.21 17.33-7.43-.06-14.59 1.98-22.47.62l-.24-29.11c-.08-9.11-14.73-10.52-21.76-6.38s-2.76 10.25-1.64 14.84c-3.55 3.06-2.98 9.82-2.07 16.18-6.05.71-10.78.28-15.87-.62-2.56-11.66.52-22.63.14-33.84l-1.25-37.19c-.08-2.3-.43-4.43-1.48-5.24-.83-.64-3.12-.45-3.92-.15-.05-3.35 1.38-6.94.48-10.49l2.48-4.06c.43-.73.96-1.62 1.11-2.44 16.43-16.51 35.41-13.76 58.83-3.37m-19.22 25.35c-.87-7.74-7.44-13.34-12.48-9.06-6.72 5.69-5.7 26.84 3.83 27.74 7.86.74 9.34-12.49 8.65-18.68" class="cls-5"/>
    <path d="m810.23 176.25 5.62.71 4.3.65 11.67 13.54.26 1.92c.49 3.7.04 7.95 3.03 11.15-1.73 7.93-.42 18.93-.15 27.27l.27 8.56 2.48 34.97c-7.68 1.11-15.27 2.37-24.37.72l.1-30.03c-6.48 1.48-11.37.62-17.37-.24-3.77 1-.38 6.21-.34 8.39l.42 23.23-10.58 1.24-5.61.1-5.71-.06c-.46-39.05-12.9-89.31 13.65-102.77 6.43 2.32 15.82-.16 22.33.66Zm-7.07 48.58c11.27-.63 8.68-26-1.06-25.48-8.61.46-8.39 26 1.06 25.48" class="cls-8"/>
    <path d="M741.18 342.2h8.29l24.3 1.15c1.44 5.26.88 10.65.83 15.23l.02 5.9c-.03 2.38-.58 6.44.13 8.64-10.1 5.18-18.62-10.07-38.14-5.59l-.17 7.59c-.1 4.72-.68 10.2 1.7 14.15l-.2 2.91c-.48 2.73-.3 6.41.52 10.65l16.4.06 6.44.23c5.36 3.7 5.04 28.01 3.01 29.4-1.42.97-5.24.2-6.73 1.11-1.49-3.5-4.87-3.93-8.1-4.31 1.06-2.23 3.24-4.82.95-8.05-5.1 1.77-4.24 5.51-3.86 7.7l-6.13.71c.43-1.79.89-4.05.35-5.55-.61-1.67-3.61-3.78-5.97-3.5l-25.61 2.99-1.17 40.23h-5.61l-.04-58.06c3.87.48 5.46 3.33 7.44 5.04-1.62-7.42.71-10.3 1.19-14.62.37-3.33-3.64-6.46-8.32-5.71.1-5.19.57-11.17-1.28-17.48-.75-2.55-7.8-1.64-9.55.69-4.77-4.25-1.33-12.62-2.28-17.51-.18-4.01.73-7.73 2-11.48l49.6-2.53Zm-18.76 53.2c-2.36 2.75.31 5.74 3.3 5.07.99-.22 2.89.9 3.99-1.6.34-.77-4.86-6.31-7.3-3.47Zm-4.75 18.71-1.38 1.38 1.38 1.38 1.38-1.38z" class="cls-4"/>
    <path d="m940.08 359.37 2.8 1.62c-2.92 3.04-2.11 6.13-.28 7.88 3.69 3.52 5.98 5.18 12.46 7.65-3.39 1.66-5.65 4.4-6.47 7.65l-9.5-3.79c1.83-3.79-.72-6.21-3.13-7.7-2.28-1.42-5.94-3.52-8.93-1.76-1.59 2.22-.16 7.05-.17 9.27l-.06 8.9.58 8.25c.27 3.76-.58 7.81.94 12.05l17.73-1.06c3.92 5.46 3.69 15.57 1.59 22.33-5.16-.1-12.81-1.97-17.21 1.17-3.06 2.54-1.18 9.65-1.23 12.71l-.14 8c-.09 4.8 2.31 5.96 6.88 5.02l7.31-1.5c5.68-1.17 12.45-4.31 16.77.39 2.98 3.25 9.33 12.31 5.55 15.98-3.75 2.64-12.72 4.68-17.22 4.65-14.78-.09-35.04 4.45-51.37 1.01-10.61-2.29.43-17.67.64-24.97l1.86-64.91c3.76 3.23 15.28-.59 15.23-7.23-.04-5.61-9.17-11.69-13.43-8.85-4.34 2.89-6.9 6.22-11.43 6.33-.07-5.24-.9-10.67.87-16.7 17.58-.5 33.6.68 49.37-2.39Z" class="cls-8"/>
    <path d="M202.28 438.04c1.91 8.64 15.39 11.64 24.11 15.94 5.6 14.39-17.96 21.05-10.84 32.18 5.5-6.43 9.22-11.18 14.44-13.52.46 1.86 1.27 5 2.65 5.96 3.79 2.62 10.19-4.2 16.55-2.4 8.82 2.5-6.66 10.74-2.65 18.12-2.05-1.81-3.85-5-7.01-4.91-2.46.07-3.72 2.96-5.22 3.99l-5.01 3.43c-5.06-.62-8.2 6.06-11.38 7.85-4.9 2.75-11.09 7.36-16.05 10.87l-27.69 20.64c-2.43-1.22-5.85 1.41-7.84 2.1-3.15 1.08-6.59 3.21-12.49 2.12 10.02-20.63 21.76-39.84 36.62-57.52 5.48-6.51 11.6-11.69 11.13-21.48-19.87-6.52-35.47-18.6-49.01-34.62-1.7-2.01-.41-4.7 2.28-4.28 1.57.25 4.06.64 5.53.19l8.44-.24c6.7-.4 15.14-2.1 22.29-2.02 2.96.03 9.12.12 10.39-2.59 1.36-2.9.14-7.17-.05-9.7 4.46 5.17 8.12 13.73 4.36 20.87-.56 1.07-4.68 2.33-5.45 3.39-1.64 2.24 1.52 3.83 1.91 5.62Z" class="cls-1"/>
    <path d="m1264.76 146.15 7.82 2.37c-3.2 2.82-7.36 3.17-12.84 4.43 6.25 13.81 4.23 24.37-2.02 36.64 6.45 4.12 12.3 3.79 19.96 3.5-.34 11.01.81 19.96 4.12 29.22-2.06 2.46-2.88 4.53-3.55 6.39l-11.46.18c.33-.87 3.02-3.62 2.16-4.52-1.42-1.47-5.53-1.8-6.49-1.12l-4.22 3.02c-1.23.88-4.54-.32-5.56 1.69-.86 1.69-1.23 3.59-1.11 6.07l1.38 27.52.09 6.13-27.79-.15-.38-74.7c-.06-12.42-2.46-24.92 2.89-35.02 5.53 5.97 11.61-19.34 36.99-11.66ZM1454.71 148.72l2.79-.12 11.32.42c9.13 13.63 14.48 32.54 8.4 49.74-1.92 5.42-4.86 9.93-.52 14.1l-.05 1.65c-.17 5.4-.86 11.25 4.09 17.59 3.91-5.3 14.07-9.68 20.14-4.59 5.38 4.51 2.63 16.24-.94 20.39-4.42 5.14-12.19 6.71-18.34 6.52l-7.33-.22c-1.7-.05-4-.64-5.56-1.28l-5.37-2.21c.06-5.65.82-12.21-2.76-16.63l-.3-5.19c-.08-1.43-1.44-2.88-2.5-3.8-.27-.39-.15-1.16-.09-1.67.2-1.5-.74-2.6-1.69-2.94-2.5-.9-4.52.92-4.78 3.06l-1.18 26.39-14.8 1.03c-2.32.15-3.94-.66-5.65-2.17l.38-30.97c-3.64-10.26-3.94-20.17-1.57-29.48l17.77 7.63c1.39.53 2.23 4.24 4.58 3.75 9.43-1.98 6.87-18.12 6.82-34.35 0-1.9-1.04-3.41-3.18-2.42-1.41.65-3.66.15-4.92.17-1.2.28-2.45 1.74-3.29 2.32-3.16.72-6.61-1.84-7.25-5.11s.52-6.54 2.47-9.42c4.36 0 8.62-2 13.29-2.21Z" class="cls-5"/>
    <path d="m1286.13 355.75 2.73 2.82c-.49 2.87-.2 6.61 2.73 8.2l-.17 19.51c-2.08 1.49-2.16 3.68-2.8 5.76l-2.46 8.02c-4.38 1.45-6.29 5.08-5.27 9.17 1 3.98 2.04 7.94 5.53 10.53-1.76 3.01 1.56 7.9 1.85 10.79.44 4.32.82 9.05 4.37 13.74-1.08 1.64-1.57 3.56-.96 4.46 1.16 1.71 3.09 1.59 4.06 1.11 4.67-2.32 2.08-11.8 6.29-16.25 1.7-1.8 5.54-2.07 7.99-1.52 4.82-.82 11.29-.85 14.49 2.96 2.73 3.25.78 8.48.98 11.89-4.49.71-10.14 1.67-13.26 5.84-2.54 3.39-.5 9.19 1.5 12.99.48.91.02 2.86 0 3.79-3.12-.13-6.28.61-8.8 2.51l-17.59.82-9.83-.39c-.12-4.47-7.37-2.65-8.07-3.2-1.23-.97-3.41-2.7-5.27-3.14l-.12-4.8-.05-11.48c1.18 1.95 3.16 4.26 4.9 4.79 2.96.9 6.6-2.35 7.79-4.27 1.95-3.16-8.32-15.89-15.5-16.77l-2.12-.26-.51-5.52c-.31-3.32-1.59-9.33 1.02-13.38 2.04-1.82 8.79.2 13.51-1.78-5.97-3.87-9.93-6.41-10.59-14.1l-9.51-4.21c7.41-11.52 4.84-25.35 4.62-38.32l28.52-.32ZM1523.35 366.88c-4.21 3.62-2.44 8.45.64 12.36 4.46 5.68 23.45 3.06 27.96-2.67 1.6-.81 4.93-1.1 6.32-3.57.65-1.16.65-3.26-.17-4.92 12.31-6.54.84-7.69-23.68-5.66-3.19-1.2-11.85 2.49-13.26-4.13s21.73-1.15 19.29-10.95c12.36 3.44 27.77 11.3 41.42 7.49l.91 6.9.18 7.43c-7.77-3.39-12.3-.4-17.51 6.59l-7.32 4.91c-2.41 1.62 1.4 5.95 4.62 7.28-5.13 3.04-7.25 5.89-7.73 9.68-5.91-.31-12.03-4.72-19.36-2.38l-1.35 8.97c-1.27 8.45-19.36-10.63-20.21 6.07-3.62.22-10.12-3.24-14.23-.62-2.49 1.59-1 7.43 1.93 8.72 4.06 1.8 9.44-4.66 24.95 6.74l.27 10.98c.18 7.42-1.95 15.74 2.31 22.37-.07 1.76.56 7.29-2.91 7.45l-23.13 1.08c-3.63-.08-7.68-1.78-7.21-5.54l-1.11-39.26.11-25.14c1.67 1.36 3.48 2.53 5.34 6.81 10.66-10.56 28.8-8.01 14.13-15.98-2.42-6.24-11.07-4.19-15.8-10.82 2.74-2.28 6.61-2.09 9.5-1.77l1.17-1.95c-1.13-7.79-8.02-14.23-15.91-14.56l-.02-5.53c3.02.33 5.63.84 9.68-1.01-.52-1.85-.73-4.31.51-4.53 6.94-1.24 4.39 10.89 19.69 19.15Zm-11.54 8.04-1.96 2.15c1.91 2.25 4.2-.64 1.96-2.15" class="cls-4"/>
    <path d="M1197.32 146.58c2.87.2 5.34 2.7 8.64 2.19l2.05 19.19.31 5.46.16 13.79-.04 36.06.17 7.87c-2.46 5.09-4.54 10.85-2.57 16.59-1.72 8.33-10.37 15.2-19.57 16.54-10.97 1.3-22.97 1-33.42-4.51-11.49-6.05-13.6-17.8-11.55-27.53 9.32 2.39 18.58 1.66 27.79 2.05-.93 3.33.27 9.22 4.56 10.68 2.78.95 6.71-2.3 8.75-5.37.86.3 4.49.32 6.37-.74v-37.06c-1.5-1.14-5.19-.87-6.28-.42l-3.19-22.45-.99-7.85.07-19.61c.01-3.34 5.6-4.8 7.79-5.66l10.96.77Z" class="cls-5"/>
    <path d="M716.44 183.56c-.67 8.06 1.58 15.99 1.66 22.87l.44 38.8c.04 3.29-.58 8.89 4.23 8.09l7.65-1.28 16.29-.55 5.1.4.25 4.43.12 5.62v11.01l-.75 5.2-2.15.23-26.78.96c-7.44.27-13.63 1.56-20.07 1.52l-8.08-.05c.31-11.4.23-23.08-3.32-35.26l-.89-61.94c6.95-6.81 21.44-6.9 26.3-.06ZM1009.44 406.31c.06 17.7 2.55 35.39 7.9 52.39l-1.62 2.8c-.54.94-1.16 3.09-.54 3.74 3.27 3.44 11.86-3.72 14.26-.86l4.92 5.87c2.01 2.4 10.86-2.54 10.54-6.58-.43-5.41-9.14-6.65-13.01-7.19l-.06-23.17 22.36.52c10.08 2.48 2.16 20.01 5.58 30.18-5.85 9.68-14.15 11.02-25.36 10.96-16.31-.09-31.78 1.97-46.44-6.32-7.18-25.59-11.92-52.68-6.58-77.36 13.37 2.51 18.36 13.25 28.05 15.01Z" class="cls-4"/>
    <path d="m839.88 380.98.89 44.1c.12 5.89-1.34 12.28 1.21 17.59l1.02 2.13c-.18 2.06 1.13 4.86 3.37 4.88l7.96.09c1.18 5.01-2.43 9.4-8.15 11.79-.28 7.01 1.82 11.74 3.02 17.58-4.4-.12-10.2-.22-13.78 4.25l-16.56-.34c.06.35-4.85.18-5.01-.86-4.92-31.42.1-62.61-4.5-92.72l-1.31-8.55-1.47-8.24c1 .36 2.8.35 3.91.27 3.18 2.31 3.6 7.68 3.88 13.98l7.25-7.28c6.33 2.66 9.76 7.26 12.43 12.71l1.53-8.81c.26-1.5 1.89-2.82 4.32-2.58Z" class="cls-8"/>
    <path d="m1294.85 156.94-.25 1.78.14 4.68c.05 1.6 1.66 2.78 3.67 1.5l3.7 27.83.52 8.41.18 13.72c.16 12.11-1.38 24.39 2.69 36.27-.84 3.51-.68 9.41-.09 13.28-3.95-.04-7.84.26-11.16 1.99l-8.3.19-7.69-.04-.94-18.39c3.54-.38 6.11-3.32 5.46-6.4-.84-3.98-2.51-7.53-4.84-10.26.03-.87.01-1.98.3-2.8.66-1.87 1.49-3.93 3.55-6.39-3.32-9.26-4.46-18.21-4.12-29.22-7.66.29-13.5.63-19.96-3.5 6.25-12.27 8.27-22.83 2.02-36.64 5.49-1.26 9.64-1.61 12.84-4.43 7.93 2.4 14.6 5.85 22.27 8.43Z" class="cls-1"/>
    <path d="M517.03 444.91c1.76.13 4.32 1.65 5.6 2.89s3.06 2.89 5.17 2.8l.34 5.28 6.94 19.09c2.03-4.1 5.94-7.21 10.98-5.91 4.75 1.23 8.05 15.26 18.95 14.03 4.14-.47 3.48-5.81 5.19-7.62 2.18-2.3 7.83-3.96 8.78-7.82 4.45 8.24 5.23 16.2-3.33 22.07l-109.79-7.56c-17.52-1.21-32.38-10.13-43.55-20.41 5.82-5 11.74-8.44 9.83-15.69.52.31 1.58.46 2.4.31 3.79 5.3 9.63 8.25 15.09 10.68 2.43 1.08 4.68 5.31 9.11 4.8-.21 1.65-2.28 10.27 3.29 9.52 5.9-9.12 15.28-9.03 16.27-5.55 1.53 5.35-.74 8.63-5.95 10.68 10.68 3.15 20.19 5.68 34.74 2-8.29-5.42-7.41-11.63-10.41-16.08l7.35-11.87c.49-.11 1.41-.46 1.96-.38 1.69-.89 2.86-3.35 3.95-4.42 1.8-.64 5.12-.99 7.08-.84ZM507.58 345.55l-1.57 7.9-3.25 7.72-.47 1.65c-3.79 11.02-21.02 5.54-48.84 8.35l-10.88 1.1c-.51-1.43-2.73-2.12-2.84.35l-11.12-.06c1.09-2.77.39-7.06-1.8-7.83s-6.96-.28-10.17-.22c-3.29-6.98.59-19.03 8.54-23.37 4.74 4.97 6.66 9.16 11.51 12.19 7.91-4.41 16.39-6.27 23.97-3 3.76-10.92-11.67-4.14-12.14-11.76-.14-2.24.94-5.23 2.28-7.5l32.02 5.64 12.34-11.65c3.2 1.89 1.95 4.69.86 5.92l-5.92 6.65c2.57 3.81 6.77 6.87 8.89 13.11 1.98-3.12 4.95-4.77 8.59-5.19" class="cls-2"/>
    <path d="M507.58 345.55c-3.63.42-6.6 2.07-8.59 5.19-2.12-6.24-6.32-9.3-8.89-13.11l5.92-6.65c1.1-1.23 2.34-4.03-.86-5.92 2.59-2.44 3.97-8.19 9.56-8.48l44.69-2.29c16.15-21.92 25.15-26.28 53.79-30.49-2.41 9.5-14.53 7.6-17.37 13.16l-16.99 33.33c-18.25 3.32-35.58 2.07-54.02 3.37l-7.25 11.88Z" class="cls-1"/>
    <path d="m740.43 429.7-1.34 5.59-.3 14.8c-.11 5.47-2.98 13.96 4.98 14.81 1.49 5.22-3.23 7.33-6.03 2.74-1.01-2.48-2.57-3.89-3.61-4.06s-3.59.51-5.83 3.82l16.7 10.03c-4.84 4.88-6.76 9.23-6.43 13.77l-42.2-.5.84-20.44c1.98-1 5.56-1.28 8.58-1.13 4.39 2.65 7.81-3.69 2.26-5.26l1.17-40.23 25.61-2.99c2.36-.28 5.36 1.83 5.97 3.5.54 1.5.08 3.76-.35 5.55Z" class="cls-7"/>
    <path d="M1430.01 383.83c-.8 16.67.84 33.33 4.76 49.59.87 3.6.8 8.3 4.34 11.39 1.9 1.66 6.82 3.26 9.5-.93 4.57-7.15 2.65-16.81 3-24.17.74.43 2.36-.11 3.12-.09l5.69.08 18.62 1.47c1.45 12.09 2.43 26.56-4.58 37.34-2.08 3.06-10.46.81-12.59.17 1.64-6.76.02-12.87-5.89-19.32-4.88 6.26-4.73 13.98-3.89 21.85l-5.49.07-18.54-.12c-1.88-.01-4.8-.54-6.56.2a15.7 15.7 0 0 0-5.82-5.22c-2.46-9.6.17-19.15 5.64-27.38-3.95-6.25-15.14-3.29-17.77 2.58l-3.43-17.31c-.82-4.11-.61-9.45-.54-13.67l-.07-11.18c.33-3 .33-8-.59-10.79l3.25-.2c.28 4.27.41 9.67 3.05 12.42 8.64 9 15.43-9.16 24.79-6.78m33.32 54.44c-1.5 2.7 1.62 4.83 3.7 3.6.87-.51 1.33-1.56.44-2.95-.48-.75-2.44-3.72-4.14-.66Z" class="cls-8"/>
    <path d="M1031.59 358.04c7.66 1.44 15.38 2.81 22.54 5.68l.09 17.19-4.51 7.25c-6.97-.8-18.84-3.04-21.86 7.03 11.49-3.79 20.3-5.62 26.84 2.02l1.5 13.72-24.62.34-2.51-.42c-.5-.08-1.24-.36-1.64-.22-3.49-22.69 2.73-36.87-10.45-27.15l-3.67 2.71c-3.77-1.58-8.11.94-13.5-1.44l-3.19-21.77c2.98-2.1 6.32-3.74 9.98-4.16 8.23-.95 16.8-2.33 25.01-.78Zm-.94 24.21-1.8.05 1.8.05h1.87l1.8-.05-1.8-.05z" class="cls-4"/>
    <path d="M1582.96 369.17c.21 8.51 2.24 19.76 2.02 28.04-.72.78-3.39 2.48-2.92 4.25s3.21 2.37 4.64 2.15l.96 40.36c-7.42 1.38-17.35 2.86-21.17-5.9-.87-1.98-1.54-3.85-2.71-4.75-1.36-1.04-4.17-.05-4.01 1.47l.38 4.33c-.54-2.61-2.29-7.3-6.39-5.44l-.11-4.44.62-4.08c4.3.3 8.33.17 12.72-.82 3.99-.9 9.47 2.48 13.74-5.25-7.43-.81-12.82-1.02-16.31-4.97.71-.47 1.5-1.95 1.87-2.74 3.34 2.47 6.55-2.79 1.3-3.54-.5.09-1.72.13-2.99-.41 1.64-.7 1.51-3.32.95-4.64-2.08-4.89-5.86-4.92-10.53-5.16.48-3.79 2.6-6.64 7.73-9.68-3.22-1.33-7.03-5.67-4.62-7.28l7.32-4.91c5.21-6.99 9.74-9.98 17.51-6.59m-10.24 32.44-1.8.05 1.8.05h1.87l1.8-.05-1.8-.05z" class="cls-7"/>
    <path d="M38.55 168.71 17.13 215.9c-5.41 11.91 1.5 14.4 15.26-11.95l5.54 8.89c-6.63 9.74-10.1 16.23-4.89 18.73-.14 3.09-.1 5.55.53 9.2.31 1.8 1.69 3.27 4.44 1.83 0 1.62-.76 3.45-1.86 4.2-.87.59-3.2.93-4.58.05L0 226.56l32.62-74.54 5.93 16.68Z" class="cls-1"/>
    <path d="M1247.97 452.3c.71 4.45.75 10.15-.32 14l-33.3 1.14-1.21-41.99c3-.83 4.79-1.8 6.48-3.24 6.05 5.94 19.01.66 21.99 7.36.62 1.39-2.86 4.18-3.47 6.78-1.24 5.21 4.37 15.34 9.84 15.95Z" class="cls-4"/>
    <path d="m1252.99 394.4 9.51 4.21c.66 7.69 4.62 10.23 10.59 14.1-4.72 1.97-11.47-.04-13.51 1.78-2.61 4.05-1.33 10.06-1.02 13.38l-3.18.18c-1.51-3.09-5.34-4.34-8.13-1.66-2.99 2.86-1.53 11.84-.11 20.72l.83 5.21c-5.47-.6-11.07-10.73-9.84-15.95.62-2.6 4.09-5.39 3.47-6.78-2.98-6.71-15.94-1.42-21.99-7.36 3.24-2.75 9.37-4.87 10.66-9.76-1.35-1.65-4.09-4.39-4.62-5.77-.97-2.52 1.41-6 4.08-6.04s5.3 1.48 9.34 3.82c3.19 1.84 6.48-7 5.62-10.13l8.29.06Z" class="cls-7"/>
    <path d="m1381.75 389.05 1.41 47.37-17.7-.75-9.9-7.74c-1.02-14.26-1.64-28.04.95-42.12 2.02 4 2.75 6.2 4.27 7.47 4.4 3.65 11.55-3.47 20.97-4.23M765.88 461.13l6.29-.26c9.26-.38 13.65 11.66 13.47 21.91-15.34 4.75-31.14 8.61-47.08 8.42-.33-4.54 1.59-8.89 6.43-13.77l-16.7-10.03c2.24-3.31 4.79-4 5.83-3.82s2.6 1.58 3.61 4.06c2.8 4.59 7.52 2.48 6.03-2.74l22.11-3.78Z" class="cls-4"/>
    <path d="m645.93 192.31-9.37 2.54c.13-4.22-4.71-8.93-9.11-7.84-1.62-3.7 2.91-8.1 7.04-10.5-7.02-4.9-11.26-.49-17.06.23-3.29-8.98-7.84-12.34-14.67-12.2-4.97.1-8.48-4.22-10.84-7.4 2.91-3.03 4.9-5.77 7.11-9.93-5.35-.38-6.54-6.69-8.96-10.83-1.11-1.91-7.66-1.83-9.42-3.19-2.42-1.87-2.43-7.59-1.4-11.4 5.19 1.41 7.93 6.6 12.39 10.32 18.67 15.6 37.68 29.97 54.05 48.02 2.68 3.08.41 9.43.26 12.18Z" class="cls-2"/>
    <path d="m1283.84 346.8-10.68-.67c-4.74 4.52-10.31 5.62-15.65 4.63l.13-2.16c.62-1.06 1.33-3.22.67-4.91s-2.34-1.61-4.06-1.73c-2.79-.2-4.77.88-4.27 4.31l-8.44-1.04c-.13-1.25-.42-2.64-.99-3.68-2.43-4.38-9.09 2-13.61.68-2.59-.76-3.43-5.28-4.66-8.49l-12.21-5.47 23.08-.14 8.73-1.66c9.03-1.72 19.73-2.02 30.15-.19 9.13 1.61 11.15 14.27 11.81 20.52" class="cls-4"/>
    <path d="m265.49 69.34 16.32-1.06c10.37 3.05 18.74 2.01 27.28-1.56 1.91 2.92 6.12 3.75 8.76 4.9s4.8 3.84 8.57 2.25c-.18.8 0 2 .18 2.93-5.35-.77-9.41 3.83-15.37 4.37l-22.44 2.04c-9.07 4.34-18.75 7.43-27.79 4.68l-15.87-12.41c5.84-2.9 13.77-5.71 20.37-6.14Z" class="cls-5"/>
    <path d="m488.48 450.25 8.21 12.17c3 4.45 2.12 10.66 10.41 16.08-14.55 3.68-24.07 1.15-34.74-2 5.21-2.05 7.48-5.33 5.95-10.68-.99-3.48-10.37-3.57-16.27 5.55-5.58.75-3.5-7.88-3.29-9.52 3.45-5.27 4.42-11.56 5.99-17.74 3.31-1.64 9.75-5.03 13.81-2.46 2.94 1.86 7.58 5.11 9.94 8.6Z" class="cls-1"/>
    <path d="m1381.62 376.16.13 12.89c-9.42.76-16.57 7.89-20.97 4.23-1.53-1.27-2.26-3.47-4.27-7.47-2.59 14.08-1.97 27.86-.95 42.12l-3.83.28c-.08-.97-1.5-2.28-2.21-3.08l.12-2.73v-11.06l.26-2.77-.38-8.11.34-42.32c6.23 8.55 11.94 11.27 25 8.65-1.47 5.95-4.4 9.79-1.66 14.87 3.55-3.15 5.58-5.59 8.43-5.51ZM1559.03 320.07c4.71 16.55-17.56-1.28-29.72 16.81-3.43 4.33-12.39 3.45-16.65 5.43-3.49-1.52-10.37-.46-14.33-.29-.83-6.3 2.32-11.7 5.62-16.96 16.94-9.09 37.63-12.93 55.08-5Zm-33.32 6.87-1.8.05 1.8.05h1.87l1.8-.05-1.8-.05z" class="cls-8"/>
    <path d="M419.7 417.19c.74-.05 2.35-.34 3.11-.18l-.63 2.79c-1.94 8.54 2.75 19.85 9.96 26.26 1.91 7.25-4.01 10.69-9.83 15.69-15.09-13.88-22.72-33.21-21.88-53.7l19.27 9.15Z" class="cls-1"/>
    <path d="M1570.68 325.36c-.34 2.1.36 4.3 1.9 5.32 1.08.72 2.63.96 3.85.93.38 2.67 1.36 5.31 2.7 7.49.07 2.46-.53 6.21.46 8.3-13.7 1.07-21.61-8.85-47.36-4.98-6.94 1.04-13.52 5.15-19.58-.11 4.26-1.98 13.22-1.1 16.65-5.43 12.16-18.09 34.42-.26 29.72-16.81l11.65 5.29Z" class="cls-4"/>
    <path d="m1476.5 375.06-27.99 2.97-.41-5.41c5.5 1.03 6.15-6.29-.29-4.98l-7.3-.86c2.74-1.24 5.87-2.24 8.79-5.1l.39-16.93 22.57 2.18c3.91 9.5 4.14 19 4.23 28.14Z" class="cls-8"/>
    <path d="M1385.1 154.1c-.42 3.52 1.86 6.21 2.58 8.86 2.91 10.67 3.28 21.72 3.42 32.66l-2.92-.1-3.6-25.66c-2.02-.53-6.54-2.05-7.11-3.2s4.46-2.8 4.37-4.11c-.54-8.06-5.44-14.39-10.61-15.88-7.35-2.12-17.58-2.17-21.54 3.81 4.54 4.14 10.11 5.03 11.16 7.55-3.03-.6-10.64-.88-12.87 2.02l-.63 35.03c-11.4-10.54-7.45-30.76 3.01-48.62-11.34-1.63-19.78-.42-28.39 2.13v-2.76l-.03-2.95c8.83.97 17.29-.02 25.81-.99 8.45-.96 19.1-2.19 28.13 0 5.66 1.37 6.43 9.73 9.2 12.19ZM110.79 12.1c1.15 2.47.68 8.11-1.68 8.84-2.21-1.03-5.68-2.17-7.31-1.87-1.15.21-2.06 1.75-.98 3.58l-4.59 1.51c-1.65.54-3.64.26-5.42.01.06-2.1-.63-4.1-1.74-5.11-1.68-1.54-5.27-.92-5.79 1.02-.25.93-.32 2.96-1.11 3.58-4.55 3.53-10.08 6.78-15.7 6.1 2.8-9.52 4.1-18.57 6.6-29.76 12.77 4.6 27.37 4.83 37.72 12.1" class="cls-1"/>
    <path d="M1498.33 342.03c3.96-.17 10.84-1.24 14.33.29 6.06 5.26 12.63 1.15 19.58.11-.67 1.6-.23 4.09 1.62 5.27 1.67 1.07 4.94-.16 6.59-.34 2.44 9.8-20.63 4.63-19.29 10.95s10.06 2.93 13.26 4.13c6.49 2.45 16.14 5.96 23.68 5.66.82 1.66.82 3.76.17 4.92-1.39 2.46-4.72 2.76-6.32 3.57-5.26-10.52-17.9-3.91-28.6-9.69-15.3-8.27-12.75-20.4-19.69-19.15-1.24.22-1.03 2.68-.51 4.53-4.05 1.85-6.66 1.33-9.68 1.01l.45-5.53-.15-5.44 4.56-.26Z" class="cls-7"/>
    <path d="M1381.62 376.16c-2.85-.08-4.88 2.36-8.43 5.51-2.74-5.08.19-8.92 1.66-14.87-13.06 2.61-18.77-.1-25-8.65l.05-5.07c.75-3.62 3.67-6.76 8.54-6.79l21.41-.11z" class="cls-4"/>
    <path d="M459.15 50.44c-1.03 2.97-3.85 4.74-6.93 3.11-11.32-5.98-34.39-8.5-37.65-6.25-1.76 1.22-2.75 2.74-4.09 7.69-5.42-9.11-12.63-.55-17.07-1.46-6.1-1.25-10.14-10.4-17.4-7.2-2.02.89-6.27-.85-7.7-2.63l30.15-4.29c21.17-.05 41.91 4.96 60.68 11.01ZM119.71 58.26l13.37 43.19c-1.06-.04-3.76-2.68-4.84-1.85-1.56 1.2-1.23 7.04-.22 8.02l-4.68-.32c-5.8-22.52-17.27-32.54-17.24-64.68 6.37 2.68 8.02 10.33 13.62 15.63Z" class="cls-1"/>
    <path d="M1441.42 150.93c-1.95 2.87-3.09 6.19-2.47 9.42s4.08 5.83 7.25 5.11v30.53l-17.78-7.63-1.47-23.22-.04-10.98 2.96-3.24 11.56.02Z" class="cls-2"/>
    <path d="M551.69 452.33c1.03.56 3.1.82 4.22.41.83 3.81 4.26 6.11 8.17 5.57-.62 2.64 2.09 4.16 2.54 5.73l3.59 11.44c-1.71 1.8-1.05 7.15-5.19 7.62-10.9 1.23-14.2-12.8-18.95-14.03-5.04-1.31-8.95 1.8-10.98 5.91l-6.94-19.09c5.6 1.73 7.24 7.25 9.8 12.66 2.16-6.85 2.54-11.16 4.81-13.71 2.11-2.37 6.24-2.49 8.94-2.49Z" class="cls-1"/>
    <path d="m1435.62 369.82.04 2.49c-3.45 2.69-5.43 7.13-5.65 11.52-9.36-2.38-16.15 15.78-24.79 6.78-2.64-2.75-2.77-8.15-3.05-12.42l-1.37-16.67c1.28.18 2.43.39 3.26.83 9.74 5.22 20.69 6.1 31.55 7.47Z" class="cls-4"/>
    <path d="M1437.63 344.71c1.21 4.82-.29 9.46-4.11 13.41l4.62 8.64c.1 1.5-.94 3.17-2.53 3.07-10.87-1.37-21.81-2.25-31.55-7.47l1.81-11.41c8.99-2.07 21.8-6.28 31.76-6.24" class="cls-8"/>
    <path d="m995.23 362.83 1.37.15 3.19 21.77c5.39 2.38 9.73-.14 13.5 1.44-2.44 1.8-3.26 5.38-3.47 8.48l-4.46.11c-1.07.02-2.49 2.22-1.46 4.03.93 1.65 3.34 2.15 5.52 1.59l.02 5.9c-9.69-1.76-14.68-12.5-28.05-15.01l.41-12.87 4.08-.25c.96-.05 2.09-2.53 1.51-3.91-.37-.86-1.44-1.62-3.08-1.65 1.42-3.89 2.52-7.65 5.81-10.44l5.12.65Z" class="cls-7"/>
    <path d="m940.18 328.62 3.25-.06c2.79 4.98 1.81 13.07 1.94 18.73-11.02 1.79-23.06.32-34.47-.09l-1.05-11.01 5.77.53c3.14.34 3.23-3.62-.22-3.21l.14-2.79c8.17 2.07 16.72-1.74 24.65-2.1ZM1587.65 443.97l.24 8.64c.81 2.7-.43 10.24-4.55 10.03l-29.54-1.6c.02-.89.54-2.09.92-2.94l-.48-2.54.11-3.39 7.02.17c1.28-5.85-.36-9.09-1.21-13.22l-.38-4.33c-.16-1.52 2.65-2.51 4.01-1.47 1.17.9 1.84 2.77 2.71 4.75 3.83 8.76 13.75 7.28 21.17 5.9Z" class="cls-4"/>
    <path d="M947.95 206.79c-1.57 5.18-2.58 10.63-2.36 16.15l-1.23 10.01-1.5 7.12c-1.03 2.04-2.4 6.06-2.42 8.3-5.89-2.56-9.44 1.3-15.82 5.66 2.14-8.04 7.5-16.35 6.66-24.49l-4.3-5.55c-1.51-1.95 7.91-16.16 20.96-17.2Z" class="cls-2"/>
    <path d="M834.46 364.76c-.33 3.98 1.48 7.97 5.57 8.36l-.14 7.86c-2.42-.24-4.06 1.08-4.32 2.58l-1.53 8.81c-2.68-5.45-6.11-10.05-12.43-12.71l-7.25 7.28c-.28-6.3-.7-11.67-3.88-13.98-1.06-1.03-1.28-6.19.87-7.15 7.14-3.2 16.91-1.07 23.12-1.05Z" class="cls-4"/>
    <path d="M52.54 152.06c-7.16 3.25-10.85 9.74-13.99 16.64l-5.93-16.68c6.37-14.55 34.95-17.92 37.29-34.37 1.13 3.81 5.54 10.4-.87 14.49-6.2 3.95-15.11 6.97-19.39 13.91-1.6 2.59.16 5.96 2.9 6.01Z" class="cls-2"/>
    <path d="M865.93 449.68c1.35 9.15-4.33 18.06.42 26.05 1.56 2.62 5.93 3.2 8.53 2.92l-.77 4.05c-1.47-.62-3.98-2.98-6.08-3.04l-18.83-.51c-1.2-5.85-3.3-10.57-3.02-17.58 5.72-2.39 9.33-6.78 8.15-11.79l11.6-.09ZM885.48 223.02l1.74 9c-2.21 6.34-8.26 8.46-13.13 8.79-4.66-.57-9.8-2.15-12.56-6.51-1.77-2.79.15-7.67 2.5-11.23 4.08-1.1 7.06-4.72 11.14-5.01 2.81-.2 5.94 3.87 10.32 4.96Z" class="cls-4"/>
    <path d="m82.17 23.66-4.6 30.79-5.65.13-7.67-.65c1.73-7.68-.04-16.52 2.21-24.17 5.63.68 11.16-2.57 15.7-6.1ZM368.32 43.72c1.43 1.77 5.68 3.52 7.7 2.63-4.88 6.04-14.86 2.47-18.5 7.47-1.02 1.4-1.07 6.33-2.46 7.59-3.64 3.3-14.76 2.81-17.38-.69-4.48-6-8.1-6.17-14.19-6.17 9.75-6.5 23.36 2.15 22.3-8.13l5.41-.15c1.27 2.18 3.82 3.58 6.29 2.75 2.26-.76 4.05-2.9 4.86-5.21l5.95-.09Z" class="cls-2"/>
    <path d="m879.88 449.8 1 19.87c.28 5.19-2.33 8.42-6 8.99-2.6.28-6.97-.3-8.53-2.92-4.75-7.99.93-16.9-.42-26.05z" class="cls-3"/>
    <path d="M117.54 41.97c-.29 1.16-1.6 4.04 1.59 4.59.53 3.39.74 6.81.58 11.7-5.6-5.29-7.25-12.94-13.62-15.63 0-6.83.1-15.62-5.27-19.99-1.08-1.82-.17-3.37.98-3.58 1.63-.3 5.1.84 7.31 1.87 2.36-.73 2.83-6.37 1.68-8.84 8.66 6.07 6.21 20.96 6.75 29.87ZM309.61 55.88c.84 3.83.96 7.6-.53 10.84-8.54 3.57-16.9 4.6-27.28 1.56l-16.32 1.06 44.12-13.46ZM55.08 223.26c-2.91 8.3-9.6 14.8-17.07 19.32-2.75 1.44-4.13-.03-4.44-1.83-.63-3.65-.67-6.1-.53-9.2l18.64-20.71c.81 4.69 1.47 8.66 3.4 12.41Z" class="cls-2"/>
    <path d="M90.9 190.12c-1.72 5.67-7.98 7.97-12.44 12.3-8 7.78-13.44 17.7-23.38 20.84-1.93-3.75-2.59-7.73-3.4-12.41 2.65-3.17 4.79-9.42 8.27-13.12.09 2.71.98 5.55 2.56 6.27 2.39 1.09 5.42.25 7.83-1.23z" class="cls-1"/>
    <path d="m1476.5 375.06.15 14.57-28.12-.99-.02-10.61z" class="cls-4"/>
    <path d="m1383.16 436.42 1.2 18.58c-5.93 1.64-11.78 4.34-17.81 4.04-.44-1.85.04-4.9 2.06-5.66l6.77-2.55-9.66-12.23-.26-2.93zM1476.65 389.63c.03 3.28-.64 5.36-2.13 8.05l-28-.52.08-1.42c.12-2.09 1.93-4.98 1.92-7.09z" class="cls-8"/>
    <path d="m1449.7 344.74-.39 16.93c-2.93 2.87-6.06 3.86-8.79 5.1l-2.36-.02-4.62-8.64c3.82-3.95 5.32-8.59 4.11-13.41l12.06.04Z" class="cls-4"/>
    <path d="M1549.01 137.42c9.73 2.58 18.96 3.29 24.05 12.93-23.43-10.39-42.4-13.14-58.83 3.37.94-5.3 4.81-9.07 7.94-13.3l1.77-.04 25.08-2.96ZM1264.49 140.21l.28 5.93c-25.38-7.68-31.46 17.62-36.99 11.66.54-1.02.4-3.34 0-4.83l11.56-9.63c4.36-.73 9.28-.41 13.73-2.69 2.78-1.42 8.35-.84 11.44-.45Z" class="cls-1"/>
    <path d="M1283.84 346.8c.25 2.37 4.57 5.35 2.28 8.95l-28.52.32-.09-5.32c5.34.99 10.91-.12 15.65-4.63l10.68.67ZM1325.5 446.96c.53 8.79-1.88 18.37-11.76 18.83-2-3.81-4.04-9.6-1.5-12.99 3.12-4.16 8.77-5.12 13.26-5.84" class="cls-7"/>
    <path d="m1269.2 140.82 2.96.42 8.35 1.57 2.79.55c5.02 3.53 12.44 7.36 11.56 13.58-7.68-2.58-14.34-6.03-22.27-8.43l-7.82-2.37-.28-5.93 4.71.6Z" class="cls-2"/>
    <path d="m1384.36 455 .61 8.88-29.91-.05c-2.29-.8-2.69-3.13-2.69-5.46l14.17.68c6.03.3 11.88-2.4 17.81-4.04Z" class="cls-7"/>
    <path d="M1461.87 458.67c-.21.85-1.08 1.81-1.71 2.57l-8.07-.04c-.84-7.88-.99-15.6 3.89-21.85 5.91 6.46 7.53 12.56 5.89 19.32M948.55 361.33c-.8 2.09.14 4.77 1.85 5.38 2.35.84 4.63.7 6.73.42l-.32 14.26c-1.14 3.16-5.16 4.01-8.24 2.78.83-3.25 3.08-5.99 6.47-7.65-6.48-2.47-8.77-4.13-12.46-7.65-1.83-1.75-2.64-4.83.28-7.88l5.68.34Z" class="cls-4"/>
    <path d="m985.22 151.2 18.7.17c-6.11 7.17-15.42 8.95-24.71 8.57l.05-9.03c1.44.8 4.36.27 5.96.29" class="cls-2"/>
    <path d="M345.81 46.41c1.06 10.27-12.55 1.62-22.3 8.13H318l-.1-2.9c8-6.14 18.21-4.96 27.92-5.22Z" class="cls-1"/>
    <path d="M1054.69 397.21c-6.53-7.65-15.35-5.81-26.84-2.02 3.03-10.07 14.89-7.83 21.86-7.03l4.51-7.25c.03 5.48-.14 10.81.46 16.3ZM1365.46 435.68l.26 2.93-5.02-.02-8.51.11.01-5.16-.47-5.33 3.83-.28z" class="cls-7"/>
    <path d="M1560.14 439.11c.85 4.13 2.49 7.38 1.21 13.22l-7.02-.17v-2.13l-.58-16.37c4.09-1.86 5.85 2.83 6.39 5.44Z" class="cls-8"/>
    <path d="M133.08 101.46c.91 2.93 5.08 5.05 5.42 8.96-1.51 2.19-3.4 3.35-6.42 1.99-1.75-.79-3.51-2.46-4.07-4.78-1-.98-1.33-6.82.22-8.02 1.08-.83 3.79 1.81 4.84 1.85Z" class="cls-2"/>
    <path d="M1384.92 214.7c.74 5.8 3.21 10.96 3.35 17.1-4.25.08-5.39-2.8-6.57-6.24-1.33-3.85-2.34-7.6 1.26-10.61zM362.37 43.81c-.81 2.31-2.6 4.45-4.86 5.21-2.47.83-5.03-.57-6.29-2.75 2.13-3.47 7.47-3.27 11.16-2.46Z" class="cls-1"/>
    <path d="m940.43 262-.14 2.76c-.04 3.81-1.71 8.32-5.53 8.23l-.16-6.84c-.09-3.23 1.97-5.51 5.83-4.15" class="cls-2"/>
    <path d="M957.14 367.13c-2.11.29-4.38.42-6.73-.42-1.71-.61-2.65-3.29-1.85-5.38 1.92.11 4.22-.37 6.59.56 1.97.78 2.04 3.13 2 5.23Z" class="cls-8"/>
    <path d="M114.57 174.37c-3.71 5.05-9.54 7.65-14.77 10.65.39-7.32 8.21-9.72 14.77-10.65" class="cls-1"/>
    <path d="M1360.7 438.59c-1.34 3.71-5.61 4.37-8.32 5.94l-.19-5.83z" class="cls-8"/>
    <path d="m317.89 51.63.1 2.9c-.77 1.7-2.53 2.6-3.81 2.42-1.61-.23-2.4-1.65-2.1-2.91 1.41-1.21 4.52-1.41 5.82-2.41Z" class="cls-2"/>
    <path d="M1382.83 204.46c-.23-.98-.16-3.22.35-4.27.45-.91 2.14-1.51 3.35-1.57-.44 2.36-1.69 4.46-3.7 5.84" class="cls-1"/>
    <path d="M1298.42 164.91c-2.02 1.28-3.63.1-3.67-1.5l-.14-4.68c1.77 1.65 3.51 3.86 3.82 6.19Z" class="cls-2"/>
    <path d="m1426.9 154.15.15-2.95c.85.12 1.99-.29 2.81-.29z" class="cls-5"/>
    <path d="M1382.69 209.91c-3.5.1-3.32-4.06.16-3.61z" class="cls-1"/>
    <path d="m616.81 483.12 2.59.03c.1 3.23-2.8 2.8-2.59-.03" class="cls-5"/>
    <path d="M119.12 46.56c-3.19-.55-1.88-3.42-1.59-4.59z" class="cls-1"/>
    <path d="m357.21 366.86.64 56.29c-12.01-8.57-19.33 6.43-38.87-.67-3.27 2.95-.28 8.71 1.94 9.62 8.2 3.35 17.57-.28 21.54 3.22 6.58 5.81-12.54 15.09-6.24 22.4 3.13 1.6 9.67-4.3 15.21 1.04-5.19 5.5 1.51 11.62 1.48 15.92-.02 3.32-8.6 9.95-.66 12.99 4.14 1.59 11.59-4.4 13.05-8.21 1.44 10.87 25.47 36.76 36.46 44.57-19.64-3.35-27.01 21.81-41.28 1.95l-35.24 2.6c-2.18.16-6.66 1.82-7.52 3.27-1.02 1.72 1.92 5.78 2.67 7.94-27.27-9.3-52.12-26.29-73.87-45.43-4.01-7.38 11.46-15.62 2.65-18.12-6.36-1.8-12.76 5.02-16.55 2.4-1.38-.95-2.19-4.1-2.65-5.96.27-.81.76-2.56 1.53-3.54.84-1.08 3.55-1.83 5.02-1.01 2.07 1.15 7.4 2.54 9.12-.32 1.17-1.95.55-6.79.25-9.49 8.66-10.05 22.07-13.28 28.73-27.85-18.79 3.96-36.97 6.72-52.89 6.34-1.79-.4-3.4-.41-4.62-.58-1.46-.19-2.46-3.1-1.41-4.09.8-.75 3.14-1.82 7.65-1.98-.88-3.51-6.74-2.67-9.35-2.34-5.14.64-4.95 7.16-4.14 11.01-1.78-.98-5.2-.82-7.6-.76-.4-1.79-3.56-3.38-1.91-5.62.77-1.05 4.89-2.32 5.45-3.39 3.76-7.15.1-15.71-4.36-20.87-3.28-3.8-2.19-11.38-3.67-15.4 2.8 1.12 5.49 2.26 8.11 2.18 2.82-.08 5.04-3.69 7.08-5.02 14.42-9.38 6.34-28.34 16.02-34.43 4.05-2.55 9.57-3.45 10.96-7.19 1.4-3.76-.7-7.59-1.29-11.82-.53-3.74 5.9-5.56 8.74-3.02 6.96 6.22.5 17.08 5.61 19.85 1.7.92 7.04 1.44 10.73-.48-2.77-10.08 3.6-22.41 3.53-31.94-4.28-5.69-8.35-14.3-7.7-22.29-2.88-1.23-11.98-1.04-11.28-6.42 1.98-1.93 1.92-8.13 7.01-9.68-5.97-4.7-9.61-4.37-16.23-5.97 4.57-13.61 33.95-11.37 31.72-20.8-.8-3.38-3.16-7.87-5.31-9.28-5.87-3.82-21.82 9.07-24.55-1.18.72-3.43 4.13-9.16 3.38-12.46 12.73 2.83 31.64-5.58 31.85-5.89 1.39-2.09 1.14-7.15.59-9.72 3.33-.35 5.83-.88 12.3-2.51-6.93-4.55-7.29-10.36-6.18-16.44 1.18-6.45 2.95-14.58 6.61-20.01 3.46-1.43 8.62.58 8.95 2.4.4 2.21-.73 5.96-.69 8.85l.4 27.68c-5.78-.65-10.61 2.08-11.53 6.29-.55 2.52-3.08 7.73 2.19 9.56 2.2.76 6.82 1.14 7.74 2.91 3.29 6.33-9.01 10.13 2.63 25.92 4.33 5.87 1.77 19.01-.07 25.25-3.03 10.3 1.98 11.48 6.5 18.54 3.25 5.08-1.62 17.53 7.96 22.2 2.59 1.26 2.04 6.52-.67 7.7-5.54 2.41-6.79-5.67-9.88-4.34-4.09 1.75 1.55 10.67-1.51 17.01-1.03 2.13-4.78 3.66-8.8 4.8-2.76.78-2.27 5.49-.78 6.2 1 .47 5.68-.55 6.52.15l18.18 15.24c-5.94 11.45-19.22.27-27.07 9.6-1.87 2.22-4.09 10.6.34 10.31l18.05-1.17c1.41 10.88 8.76 12.55 18.13 13.53 2.49.79 5.32 6.05 7.7 6.92 2.94 1.09 10.39 1.25 8.55-4.26-1.79-2.35-5.57-5.58-5.39-8.05.57-7.58 12.62-.42 16.57-5.24 1.02-1.24-.69-6.38-2.26-6.06-9.07 1.84-14.82-3.67-22.49-6.24-2.87-.96-12.65 2.41-10.95-6.72 5.46.79 9.36-4.19 13.29-7.52 1.4 3.04 8.04 12.16 11.2 8.53 4.93-5.66 7.78-10.4 14.94-11.4Zm-80.19 79.12c18.26 1.65 29.72 12.31 44.99-1.6-12.32-11.39-27.17-10.73-41.06-7.95-6.22 1.24-6.04 2.12-10.52 8.35-1.87 2.6-8.77 3.57-7.19 9.3 1.09 3.97 1.89 9.19 6.62 9.6 3.37.29 7.36-.69 12.21-3.57-4.06-2.75-5.64-6.82-5.05-14.13m53.14 53.45c.19-7.4 6.71-10.07 9.01-14.43 4.16-7.85-10.74-19.97-15.56-13.36-1.72 2.36-14.74 33.57-13.56 40.15.6 3.36 9.72 2.59 13.1.41 3.32-2.14 6.82-5.81 7-12.77Zm-16.28 28.07-1.38 1.38 1.38 1.38 1.38-1.38z" class="cls-2"/>
    <path d="M627.45 187.02c-11.31 3.07-22.78 3.41-35.59 4.64L461.6 204.1c-11.9 1.14-26.26 8.82-31.45 20.58-16.52 37.39-28.07 76.01-36.57 114.55-4.77-3.22-9.05-3.93-12.47 1.02-3.07 4.45-4.74 13.1 2.65 12.77 1.98-4.14 4.18-11.78 9.66-10.83-2.25 5.24-2.46 10.88-3.46 16.44-11.58 1.75-6.34 19.61-8.9 30.15-4.41 18.15-2.54 57.18 4.57 77.22L373 463.89c-2.79-69.94-7.19-112.85 16.63-185.1l2.07-4.53c1.64-3.46 5.9 2.7 7.57 3.3 10.5 3.79 12.76-21.5 8.33-23.55-2.41-1.11-6.88-.49-9.75-.17l1.28-4.11c2.66-2.07 4.29-5.02 5.45-8.16l.4-1.07c2.52-6.81 6.78-11.87 10.15-19.97-4.88.97-8.09 4.22-10.34 6.82-1.42-1.76-4.37-6.67-3.15-9.19 2.69-5.52 8.79-4.66 12.35-3.39 5.77 2.06 7.06 3.8 10.21 12.3 3.99-13.35 11.36-18.8 24.8-26.28-5.62-2.06-10.37-4.11-9.07-8.85 1.1-4.02 4.36-7.7 8.51-7.38.91.07 1.74.2 2.62.62-1.52 1.64-3.28 3.94-2.69 6.85l149.05-20.8c2.48-.35 4.31-1.13 5.03-2.2s.61-3.14.29-4.48c6.84-.14 11.38 3.23 14.67 12.2 5.8-.72 10.04-5.13 17.06-.23-4.13 2.4-8.67 6.8-7.04 10.5Zm-218.58 57.35-.69.5c-1.66 2.43-1.98 5.09-.07 7.22 1.87-3.15 4.32-5.1 5.11-5.41 3.07-1.2 1.06-2.03-4.34-2.31ZM326.59 76.81c1.58-.8 6.5-.64 7.47 1.29.62 1.23-.67 5.03-2.04 5.48s-3.71.73-4.73 2.02c.17-3.83-3.43-3.85-5.39-2.22-23.82 19.92-41.74 44.35-55.32 70.99-5.03-2.92-7.72-7.96-11.77-11.44-7.53-6.47-16.41-1.97-22.31 3.28l37.15-52.6c-4.86-1.89-10.08 1.6-11.93 3.79-.43-3.37.41-6.73 3.27-9.5 9.04 2.76 18.72-.33 27.79-4.68l22.44-2.04c5.96-.54 10.02-5.14 15.37-4.37" class="cls-1"/>
    <path d="M404.8 227.34c2.26-2.6 5.46-5.86 10.34-6.82-3.37 8.11-7.63 13.16-10.15 19.97.55 1.85 2.38 3.68 3.88 3.88 5.4.29 7.41 1.11 4.34 2.31-.78.31-3.24 2.26-5.11 5.41-1.9-2.13-1.59-4.79.07-7.22l-3.58-3.31c-1.16 3.14-2.79 6.08-5.45 8.16-.17-1.59-1.29-3.71-2.74-4.63-6.93 9-9.77 17.28-13.3 25.8-8.71-.86 1.37-4.37 2.68-17.76-26.6-4.77-43.26-29.07-65.4-10.79-3.36.56-6.88.18-10.85-.52-1.45-2.54-7.69-6.75-2.35-10.44 4.28.94 10.68 4.71 16.39 2.43-.16-9.56-7.81-16.07-16.5-17.51-.08-5.83.94-8.78 1.89-11.79.88-2.82 4.82-5.18 9.07-2.95 2.85 1.49 4.82 6.67 7.27 7.22 6.77 1.52 17.12-8.45 29.11-4.07-4.38 3.11-6.49 6.51-6.49 13.28l-16.81.87c-.42 6.65 2.84 7.17 5.84 6.77 11.5 1.48 20.41-.99 30.78-1.8 4.37.57 12.69 4.92 17.54 6.58 1.49 1.55 2.59 9.07 7.57 8.28 5.92-.94 9.09-8.03 11.97-11.35Z" class="cls-5"/>
    <path d="M412.2 87.82c-5.08-1.66-12.67-3.35-17.73-2.07 13.74-12.23 16.67-36.26 42.64-28.5 4.04 1.21 12.45-1.13 15.46 1.29 2.73 2.19 6.95 8.37 6.24 12.06-4.4 5.26-13.54 2.48-18.04 2.17-1.48 3.48-2.75 9.64-6.44 11.08-8.58 3.36-32.52-13.88-22.13 3.98Z" class="cls-1"/>
    <path d="M320.39 242.35c1.9 10.15-2.1 19.95-6.07 32.04 13.4 1.73 31.76-8.27 30.75 2.4-.24 2.57-3.17 6-6.59 6.18l-29.85 1.59c-5.5-13.25 8.92-28.7.89-42.73 3.97.71 7.49 1.08 10.85.52ZM325.06 143.35c-4.11 12.66-4.48 26.51 6.3 36.06-6.08-2.53-18.38-1.73-19.96-10.05l-6.18-32.54c9.14 0 14.38 3.51 19.84 6.54ZM481.96 173.45c-14.68 2.89-20.82 8.9-30.89 11.72-.87-.42-1.71-.55-2.62-.62-.21-5.04-2.6-11.65-1.1-17.45 1.62-6.26 7.95-7.02 11.88-6.46 9.72 1.38 10.87 9.81 22.72 12.8ZM402.28 186.97c-2.99 2.1-4.34 7.18-14.32 6.58 3.82 3.34 7.47 4.34 9.63 6.71 1.76 1.94.3 8.03-2.14 8.4-7.95-3.87-15.87-4.12-26.04-.71l.83-17.8c10.58-.91 21.08-1.82 32.05-3.19Z" class="cls-2"/>
    <path d="M282.87 198.26c-1.12 6.09-.76 11.89 6.18 16.44-6.48 1.63-8.97 2.16-12.3 2.51-3.68.39-8.44-1.72-11.89-3.91 14.44-1.11 8.25-15.67 18.02-15.04Z" class="cls-5"/>
    <path d="M347.55 353.83c-5.89 7.14-17.58 7.1-24.85 2.75 5.59-8.58 16.38-8.72 24.85-2.75" class="cls-1"/>
    <path d="M365.34 287.91c-7.71 7.22-17.74 9.08-27.13 4.42 9.86-4.83 18.33-4.12 27.13-4.42" class="cls-5"/>
    <path d="M326.41 73.87c-3.77 1.59-5.99-1.13-8.57-2.25.39-3.48 4.21-4.5 7.04-3.08 1.48.74 1.91 3.63 1.53 5.33M357.21 366.86c-.12-5.4-2.81-12.75 3.55-16.27-.96 4.42.34 14.32-3.55 16.27" class="cls-1"/>
    <path d="M335.55 126.74c-.78 3.65-2.87 6.96-6.31 8.68-.4-1.62-.6-5.2.24-7.03.71-1.54 3.92-2.45 6.07-1.66ZM368.55 190.31c-2.21 2.04-4.96 2.41-7.6 3.04-4.34 1.05-5.05-3.25-6.82-4.49 4.96.98 9.69 1.43 14.42 1.44Z" class="cls-2"/>
    <circle cx="392.7" cy="217.74" r="3.08" class="cls-1"/>
    <path d="M326.69 141.18c.27-1.56 1.15-2.94 2.48-3.75zM96.22 24.15l.51 46.78 12.24 40.21c4.12-1.05 8.14-2.05 12.6-2.24-.28 11.2-12.28 22.69-23.94 21.06-8.39-1.17-12.55-6.59-11.54-12.61 5.39.73 11.56-.22 15.71-5.32C97.98 100.74 89.66 90 87.87 77.62c-2.58-17.91 1.37-36.45 2.92-53.46 1.79.25 3.77.53 5.42-.01Z" class="cls-2"/>
    <path d="M97.38 152.1 67 168.81c-5.69 3.13-10.65 11.46-13.2 16.32-3.43-2.74-5.07-5.76-6.24-9.16 2.78-4.4 3.87-11.06 9.86-14.18l32.79-17.05c1.72-.89-.18-6.35-1-6.87 2.13-.24 4.17-1.79 7.81-.25-3.88 6.13-3.67 11.55.36 14.47Z" class="cls-1"/>
    <path d="M187.55 248.68c-9.06-5.77-20.26-3.36-31.39-3-.78-2.94-2.18-7.11-3.38-10.05 9.72-.5 19.34-.5 29.47-4.49l7.37-7.86zM120.38 136.95c8.27 4.19 10.48 11.79 16.11 10.99 7.17-1.02 5.25-10.36 10.58-15.23.31 2.64-1.15 7.18.58 8.77 1.63 1.5 7.09 1.05 10.17 2.76l-22.02 10.64c-4.32 2.09-5.59 9.19-12.65 7.49-2.99-.72-9.82 1.51-8.75-8.01l15.54-1.29c-2.84-5.22-8.53-9.75-9.57-16.12Z" class="cls-2"/>
    <path d="m77.57 54.45-3.04 19.48c-1.23.04-2.76.52-5.76-.74 2.57-6.48 3.75-12.47 3.15-18.61zM68.02 144.99c-2.43 3.16-6.03 3.91-9.72 4.65-.68-3.74.25-5.65 3.33-7.35s5.3-1.93 6.4 2.7ZM81.49 138.76c-3.59 2.58-7.48 4.52-11.93 5.22-.44-3.46 2.05-5.9 4.27-6.18 2.86-.36 5.73.24 7.66.96" class="cls-1"/>
    <path d="m82.98 107.29 1.88 6.48c-.67 2.42-3.89 1.85-4.25.7-.44-1.4-.69-3.59-2.85-5.98-.98-1.08 3.85-2.52 5.22-1.2" class="cls-2"/>
    <path d="M75.7 84.92c-3.19 1.61-5.06-2.72-.48-2.75.07.83.09 1.96.48 2.75M248.28 292.18c-3.43 1.8-11.59 1.1-12.78 5.14-2.13 7.26-2.75 15.99 5.02 18.11 7.12-4.47 7.66 6.62 1.65 4.61-6.6-3.63-10.5-1.55-13.49 2.79 3.06-26.06 6.82-51.84 12.23-77.53 2.72 10.25 18.68-2.65 24.55 1.18 2.15 1.4 4.52 5.9 5.31 9.28 2.22 9.43-27.16 7.19-31.72 20.8 6.62 1.6 10.26 1.27 16.23 5.97-5.09 1.55-5.03 7.75-7.01 9.68Z" class="cls-1"/>
    <path d="M197.09 236.88c2.75-11.51 3.61-24.13 7.6-35.76 1.85-.31 5.23.57 7.06 2.67 1.12 1.29-2.46 4.21-4.65 6.16l20.79 19.14c-8.33 8.71-20.07 8.33-30.8 7.79" class="cls-2"/>
    <path d="M192.03 268.03c.72 7.32-1.37 16.84-3.87 26.19-3.33-10.14-2.8-18.23-2.14-26.52z" class="cls-8"/>
    <path d="m225.87 159.49-.32-2.76c4.71-.57 3.82 4.29.32 2.76M229.35 151.39l3.1-3.24c-.71 1.32-1.83 2.44-3.1 3.24" class="cls-1"/>
    <path d="m922.52 195.09.78-7.29c7.13-.92 12.15-5.04 21.1-10.57l.27 19.41c-8.67 2.5-14.86-.43-22.16-1.54ZM970.78 176.51c-.93 3.72-.72 12.09-3.65 16.01-5.8 1.67-8.61-6.27-8.01-11.94.62-5.81 4.74-8.93 11.55-9.5.54 1.24.45 4.06.11 5.44Z" class="cls-2"/>
    <path d="m1112.95 361.28-26.38-.37c.64-7.94 6.68-7.99 14.32-7.84 5.36.1 11.67-2.44 12.06 8.22Z" class="cls-3"/>
    <path d="M418 386.52c-.54 10.09-1.82 20.78 1.7 30.67l-19.27-9.15c.44-10.67-.38-21.84 2.85-32.65 5.85 13.27-1.05 30.65 10.04 25.3 3.96-1.91-3.08-9.5-1.02-12.37.99-1.38 3.58-2.21 5.7-1.8" class="cls-2"/>
    <path d="M1394.59 242.73c-.63 4.41-7.69 4.38-5.16-1.74 1.23.73 3.56 1.94 5.16 1.74M1388.87 239.6c-2.09 1.6-4.68-1.66-.47-2.39z" class="cls-1"/>
    <path d="M389.97 358.62c-6.83 38.13-13.11 107.03 13.77 124.38 23.42 15.12 126.62 21.78 169.8 24.65-2.09 2.21-4.41 3.76-6.98 4.71-23.68 2.93-47.68 1.62-71.51 1.81-.01-2.83.53-5.5 2.54-7.85-7.27-1.75-14.49-3.11-20.82.09-1.85.93-1.61 6.74-1.31 7.92l-54.13 1.49c-14.49-9.23-28.9-16.16-40.41-26.9.85-5.35 5.75-7.83 11.19-9.18-1.35-3.31-5.05-8.24-8.5-7.29-2.87.79-5.6 3.88-8.01 5.26l.18-2.46c.18-2.41.08-5.35-2.56-6.05l-.21-5.32 12.63 2.11c-7.11-20.04-8.98-59.07-4.57-77.22 2.56-10.54-2.68-28.4 8.9-30.15" class="cls-2"/>
    <path d="M401.77 524.01c3.97 2.82 8.8 4.59 11.16 11.16l12.49-3.03c2.18 4.34 8.33 5.3 14.78 3.26.18 7.3-6.46 3.51-8.56 4.95-4.04 2.78-12.35 1.44-17.2 2.19l-30.07 4.69c-13.01 2.03-24.72 5.01-37.76-1.84-6.67-3.5-14.33-5.39-21.21-3.01l-5.01-2.62c-.75-2.15-3.69-6.22-2.67-7.94.86-1.45 5.34-3.11 7.52-3.27l35.24-2.6c14.27 19.86 21.65-5.3 41.28-1.95Z" class="cls-6"/>
    <path d="m611.49 471.41-.06 9.57c-5.65-3.12-8.33-8.78-8.32-15.11l8.38 5.53Z" class="cls-5"/>
    <path d="M1534.61 231.57c1.53 6.28.36 13.88-.47 20.76l-18.4.82c-3.68.16-3.39-3-3.84-4.26l.92-25.62-2.15-16.33c3.38-.17 3.09-3.38-.06-3.32l-.45-32.91c.81-.29 3.1-.49 3.92.15 1.05.81 1.4 2.94 1.48 5.24l1.25 37.19c.38 11.21-2.7 22.18-.14 33.84 5.09.9 9.83 1.34 15.87.62-.91-6.36-1.48-13.12 2.07-16.18" class="cls-6"/>
    <path d="M1510.64 160.22c-.39-1.52-.74-4.32 2.48-4.06zM702.43 463.88h5.61c5.55 1.56 2.13 7.9-2.26 5.25-3.02-.15-6.59.13-8.58 1.13l-.84 20.44c-4.1-10.03-2.91-25.23-.6-26.6 1.57-.93 4.89-.21 6.66-.22ZM702.39 405.81l.3-15.29c4.68-.75 8.69 2.38 8.32 5.71-.48 4.32-2.8 7.2-1.19 14.62-1.98-1.71-3.57-4.56-7.44-5.04ZM722.42 395.4c2.44-2.84 7.64 2.7 7.3 3.47-1.11 2.5-3 1.38-3.99 1.6-2.99.67-5.66-2.32-3.3-5.07ZM749.48 429.34l-2.92-.35c-.37-2.19-1.24-5.93 3.86-7.7 2.29 3.22.12 5.81-.95 8.05ZM716.296 415.49l1.386-1.387 1.386 1.386-1.386 1.386z" class="cls-8"/>
    <path d="M899.47 388.22c-3.32-2.86-7.42-5.94-9.63-9.75 4.54-.12 7.1-3.44 11.43-6.33 4.26-2.85 13.4 3.24 13.43 8.85.04 6.65-11.47 10.47-15.23 7.23M939.08 380.38c-3.7-1.48-8.19-.51-12.22-.19.01-2.23-1.41-7.06.17-9.27 2.99-1.76 6.65.34 8.93 1.76 2.41 1.5 4.96 3.91 3.13 7.7Z" class="cls-4"/>
    <path d="M1266.79 228.88c-2.55-1.53-5.45-2.3-8.54-2.63l4.22-3.02c.95-.68 5.07-.35 6.49 1.12.86.9-1.84 3.65-2.16 4.52Z" class="cls-1"/>
    <path d="m1457.58 165.39-3.18-2.42c2.14-.99 3.17.53 3.18 2.42M1446.2 165.45c.85-.58 2.09-2.03 3.29-2.32-.81.6-1.88 2.11-3.29 2.32" class="cls-8"/>
    <path d="m1264 449.89-2.65-.05-.17-16.2c7.18.88 17.45 13.61 15.5 16.77-1.19 1.92-4.82 5.17-7.79 4.27-1.74-.53-3.72-2.83-4.9-4.79Z" class="cls-7"/>
    <path d="M1555.01 397.63c4.67.24 8.45.27 10.53 5.16-5.33-.98-13.65-2.48-18.16 1.53.08 3.03 1.76 9.09-.59 12.65 9.72-1.5 12.24-7.17 17.8-9.54 1.27.54 2.49.5 2.99.41l-1.3 3.54c-.37.79-1.16 2.27-1.87 2.74-1.88.25-4.59-.12-7.07 1.47 5.18 5.65 8.11 5.34 9.64 8.74-4.39.99-8.41 1.12-12.72.82-.43-11.03-13.16-.79-22.19-8.55.4-.75 1.37-1.94 3.81-3.79.7-2.04-3.94-5.94-7.53-3.89-1.92 1.1-2.1 4.83-1.98 7.72l.36 8.48c-15.51-11.41-20.88-4.95-24.95-6.74-2.93-1.29-4.42-7.14-1.93-8.72 4.11-2.62 10.62.84 14.23.62.85-16.7 18.94 2.38 20.21-6.07l1.35-8.97c7.33-2.33 13.45 2.08 19.36 2.38Z" class="cls-8"/>
    <path d="M1514.53 387.89c-7.04 1.12-13.37 2.96-19.55 5.4l-1.49-34.5c7.89.33 14.78 6.77 15.91 14.56l2.42 1.57c2.25 1.51-.05 4.39-1.96 2.15-.32-.56-.99-1.33-1.63-1.76-2.89-.33-6.76-.52-9.5 1.77 4.74 6.62 13.38 4.57 15.8 10.82Z" class="cls-7"/>
    <path d="M1579.59 347.4c1.18 2.47 1.89 4.54 2.27 7.44-13.65 3.81-29.06-4.05-41.42-7.49-1.65.18-4.92 1.41-6.59.34-1.84-1.18-2.29-3.67-1.62-5.27 25.75-3.87 33.66 6.05 47.36 4.98M1551.95 376.57c-4.51 5.74-23.5 8.35-27.96 2.67-3.07-3.91-4.84-8.75-.64-12.36 10.7 5.78 23.34-.83 28.6 9.69M1514.53 387.89c14.67 7.97-3.47 5.42-14.13 15.98-1.86-4.27-3.66-5.44-5.34-6.81l-.09-3.77c6.18-2.45 12.51-4.28 19.55-5.4ZM1558.09 368.09c-7.54.3-17.19-3.21-23.68-5.66 24.52-2.03 35.99-.89 23.68 5.66" class="cls-8"/>
    <path d="M1182.58 239.6c1.24-12.55 1.87-25.65.08-38.22 1.09-.45 4.78-.72 6.29.42v37.06c-1.89 1.06-5.51 1.04-6.38.74Z" class="cls-6"/>
    <path d="M1017.34 458.7c4.16 1.95 9.36 2.17 11.28-2.68l3.27.46c3.87.54 12.58 1.78 13.01 7.19.32 4.04-8.53 8.98-10.54 6.58l-4.92-5.87c-2.4-2.86-10.99 4.3-14.26.86-.61-.65 0-2.8.54-3.74z" class="cls-7"/>
    <path d="m1277.33 248.17.62-16.67c2.33 2.73 4 6.29 4.84 10.26.65 3.08-1.93 6.02-5.46 6.4Z" class="cls-5"/>
    <path d="m909.85 336.19 1.05 11.01c-2.31-.08-7.09.76-9.67-1.01-1.85-1.27-1.31-6.69.14-10.33 1.04-2.64 6-3.96 8.49.34ZM915.62 336.72l-.22-3.21c3.45-.41 3.36 3.55.22 3.21" class="cls-7"/>
    <path d="M442.57 372.27c-.64-.05-2.01.35-2.84.35.11-2.46 2.33-1.77 2.84-.35" class="cls-1"/>
    <path d="M1511.9 248.89c-2.87-7.97-3.56-18.32.92-25.62zM1510.67 206.94l-.06-3.32c3.15-.06 3.44 3.16.06 3.32" class="cls-8"/>
    <path d="m1415.67 456.14-7.69-.34-.23-5.88.04-2.58c4.01-.41 2.08-3.97-.51-2.57-2.47-4.18-2.82-8.83-3.73-13.42 2.63-5.87 13.82-8.83 17.77-2.58-5.47 8.22-8.1 17.78-5.64 27.38Z" class="cls-4"/>
    <path d="M1030.65 382.25h1.86l1.81.05-1.81.05h-1.86l-1.81-.05z" class="cls-7"/>
    <path d="m1009.82 394.67-.4 5.74c-2.18.56-4.59.06-5.52-1.59-1.03-1.82.39-4.01 1.46-4.03l4.46-.11ZM1565.54 402.79c.56 1.32.69 3.94-.95 4.64-5.56 2.36-8.08 8.03-17.8 9.54 2.35-3.56.67-9.63.59-12.65 4.5-4.01 12.83-2.5 18.16-1.53M1564.41 414.12c3.5 3.95 8.89 4.16 16.31 4.97-4.27 7.73-9.75 4.35-13.74 5.25-1.53-3.4-4.46-3.1-9.64-8.74 2.49-1.59 5.19-1.23 7.07-1.47ZM1572.72 401.61h1.87l1.81.05-1.81.05h-1.87l-1.8-.05zM1566.28 411.38l1.3-3.54c5.24.75 2.04 6.01-1.3 3.54" class="cls-4"/>
    <path d="M53.79 185.13c-4.99 9.5-9.7 18.66-15.86 27.71l-5.54-8.89c4.93-9.44 9.41-18.89 15.16-27.97 1.18 3.4 2.81 6.42 6.24 9.16Z" class="cls-2"/>
    <path d="M981.8 378.43c.08-2.52 1.87-4.08 2.51-5.81 1.64.03 2.71.79 3.08 1.65.59 1.38-.55 3.86-1.51 3.91z" class="cls-4"/>
    <path d="m1241.55 345.24-1.49 2.47c-1.15-.67-5.18-.23-5.66 1.18s1.22 5.45 1.75 7.89c-4.92 2.04-13.61 2.11-16.8 6.96-7.06 10.75 12.39 4.95 20.21 14.25l.04 5.67-27.99 4.77-1.53-60.13 12.21 5.47c1.23 3.21 2.07 7.74 4.66 8.49 4.52 1.32 11.17-5.07 13.61-.68.58 1.04.86 2.42.99 3.68ZM1239.89 392.28c1.38.01 3.32 1.42 4.81 2.06.85 3.13-2.44 11.98-5.62 10.13-4.05-2.34-6.56-3.87-9.34-3.82s-5.05 3.52-4.08 6.04c.53 1.38 3.27 4.11 4.62 5.77-1.29 4.89-7.42 7.01-10.66 9.76-1.7 1.44-3.49 2.41-6.48 3.24-.26-9.02-2.08-18.81-1.79-28.28 9.01-5.9 18.07-5 28.55-4.9Z" class="cls-8"/>
    <path d="m1239.6 383.65.29 8.63c-10.48-.1-19.54-1-28.55 4.9l.26-8.76 27.99-4.77Z" class="cls-4"/>
    <path d="m1257.65 348.6-7.67-2.32c-.5-3.43 1.48-4.51 4.27-4.31 1.72.12 3.39.01 4.06 1.73s-.05 3.85-.67 4.91Z" class="cls-8"/>
    <path d="M1525.71 326.94h1.86l1.81.05-1.81.05h-1.86l-1.81-.05zM1463.33 438.27c1.7-3.06 3.66-.09 4.14.66.89 1.39.43 2.43-.44 2.95-2.08 1.23-5.2-.91-3.7-3.6ZM1448.1 372.63c-.13-1.67.18-3.33-.29-4.98 6.44-1.3 5.79 6.02.29 4.98M1365.72 438.61l9.66 12.23-6.77 2.55c-2.02.76-2.5 3.81-2.06 5.66l-14.17-.68.02-13.84c2.71-1.57 6.98-2.23 8.32-5.94l5.02.02Z" class="cls-4"/>
    <path d="M1407.79 447.34c.01-.75-.14-1.94-.51-2.57 2.58-1.39 4.51 2.16.51 2.57" class="cls-8"/>
    <path d="m1532.08 416.61-5.7.04c-.12-2.89.06-6.62 1.98-7.72 3.59-2.05 8.23 1.84 7.53 3.89-2.44 1.84-3.41 3.03-3.81 3.79" class="cls-4"/>
    <path d="m357.86 423.14 7.45 56.3c-1.47 3.81-8.91 9.8-13.05 8.21-7.93-3.04.64-9.67.66-12.99.03-4.29-6.67-10.42-1.48-15.92-5.54-5.33-12.08.56-15.21-1.04-6.3-7.32 12.82-16.59 6.24-22.4-3.96-3.5-13.34.13-21.54-3.22-2.22-.91-5.21-6.66-1.94-9.62 19.54 7.1 26.86-7.9 38.87.67Z" class="cls-1"/>
    <path d="M277.02 445.98c-.59 7.3.99 11.38 5.05 14.13-4.85 2.88-8.83 3.86-12.21 3.57-4.73-.41-5.53-5.63-6.62-9.6-1.58-5.73 5.32-6.69 7.19-9.3 4.48-6.23 4.3-7.11 10.52-8.35 13.89-2.78 28.74-3.43 41.06 7.95-15.27 13.92-26.73 3.25-44.99 1.6M330.16 499.43c-.18 6.95-3.68 10.62-7 12.77-3.38 2.18-12.5 2.95-13.1-.41-1.18-6.58 11.84-37.79 13.56-40.15 4.82-6.61 19.72 5.51 15.56 13.36-2.31 4.36-8.82 7.03-9.01 14.43Z" class="cls-6"/>
    <path d="M221.74 436.77c-3.18.1-7.49 4.45-11.87 2.03-.81-3.85-1-10.38 4.14-11.01 2.61-.32 8.47-1.17 9.35 2.34-4.51.16-6.86 1.23-7.65 1.98-1.05.99-.05 3.89 1.41 4.09 1.21.16 2.82.17 4.62.58ZM236.54 468.09c-.05-5.84 6.81-6.85 9.36-9.81.31 2.7.92 7.54-.25 9.49-1.71 2.86-7.05 1.47-9.12.32Z" class="cls-1"/>
    <path d="m312.502 528.885 1.386-1.386 1.386 1.386-1.386 1.386z" class="cls-6"/>
    <path d="m389.64 278.79 8.23-24.95c2.86-.32 7.34-.95 9.75.17 4.43 2.05 2.17 27.34-8.33 23.55-1.67-.6-5.93-6.76-7.57-3.3l-2.07 4.53ZM393.58 339.23l-.16 2.96c-5.48-.95-7.68 6.69-9.66 10.83-7.4.33-5.72-8.33-2.65-12.77 3.42-4.94 7.69-4.24 12.47-1.02" class="cls-5"/>
    <path d="m495.06 514.16-19.59.16c-.3-1.18-.54-6.98 1.31-7.92 6.33-3.2 13.56-1.84 20.82-.09-2.01 2.35-2.55 5.02-2.54 7.85M380.93 488.92c-3.31-3.1-6.39-5.82-5.33-11.21 2.42-1.38 5.15-4.47 8.01-5.26 3.46-.95 7.15 3.98 8.5 7.29-5.45 1.35-10.34 3.83-11.19 9.18ZM375.78 475.25c-1.74-1.53-2.47-3.74-2.56-6.05 2.64.69 2.73 3.64 2.56 6.05M434.23 131.94c2.24 32.49-33.99 41.26-68.69 41.32-10.21.02-27.06 1.7-28.67-13.93-1.78-17.21 11.78-31.89 22.86-43.48 12.2-12.75 26.44-20.44 44.72-16.18 12.91 3.01 28.67 16.26 29.77 32.28Zm-24.64 2c5.64 1.13 15.19 1.03 18.16-3.29.58-4.55-2.47-11.92-5.73-12.86-4.72-1.37-10.11 1.64-13.96 5.16-2.46-3.59-7.27-9.62-13.44-9.16-17.23 1.3-37.52 18.32-37 36.79.4 14.35 19.22 15.48 29.08 12.29 14.16-4.58 24.24-13.3 22.9-28.92Z" class="cls-1"/>
    <path d="m1240.05 347.7-.49 30.27c-7.83-9.3-27.28-3.5-20.21-14.25 3.19-4.85 11.88-4.93 16.8-6.96-.53-2.44-2.21-6.52-1.75-7.89s4.5-1.85 5.66-1.18Z" class="cls-4"/>
    <path d="M409.59 133.94c-.28-3.25-.01-8.78-1.53-11 3.85-3.51 9.24-6.52 13.96-5.16 3.26.95 6.31 8.32 5.73 12.86-2.97 4.32-12.51 4.42-18.16 3.29Z" class="cls-5"/>
  </g>
</svg>
