<svg xmlns="http://www.w3.org/2000/svg" id="Capa_2" data-name="Capa 2" viewBox="0 0 186.22 247.41">
  <defs>
    <style>
      .cls-1{fill:#f9f9f9}.cls-2{fill:#292929}.cls-3{fill:#eb9250}
    </style>
  </defs>
  <g id="Capa_1-2" data-name="Capa 1">
    <path d="M10.56 166.05c1.45-5.82 12.41-20.39 12.01-26.51 5.2-3.88 4.85-10.77 7.93-15.46 1.92-2.93 2.8-5.78 4.3-8.83 2.19-4.45 4.63-7.9 6.29-12.73 1.47-4.26 5.93-7.5 6.03-12.74 0-.45 7.2-13.19 7.41-13.7l3.27-7.66c.72-1.69 2.4-4.33 3.04-5.69l3.82-8.06c1.86-3.93 3.2-6.88 4.96-10.35l6.41-12.66c2.56-5.05 3.99-10.21 7.35-14.86 2.78-3.84.31-9.71 10.97-16.81 6.94 4.43 9.54 11.51 12.69 18.49l2.83 6.26 3.36 6.57c1.68 3.28 5.31 6.24 5.46 10.2s2.17 6.12 3.9 9.24l3.61 6.54c2.45 4.45 2.85 9.48 6.9 13.34.71.68-.1 3.18.71 3.74 2.46 1.68 1.88 3.91 3.03 6.21l42.55 85.26c.49.98 1.84 1.12 2.01 1.96.1.47-3.1 5.65-7.1 5.68l-91.83.71-67.79.22c-4.02.01-4.91-5.12-4.11-8.36ZM121.33 53.72 97.79 6.06c-1.04-1.51-2.29-2.49-3.85-2.27-1.16.16-1.93.91-2.82 2.47L24.95 142.61l53.21.48 43.17-89.36ZM13.52 170.17c.05.88.93 1.97 1.89 1.97l52.74.08 24.15-49.26c10.76-21.94 22.12-42.76 31.36-66.03-9.4 12.51-14.47 26.53-21 40.24l-14.22 29.87c-2.96 6.21-6.03 11.98-9.11 18.1l-12.55 24.9-53.26.12Zm97.94-53.66 19.73-42.27c-2.21-4.46-3.34-8.85-6.41-12.42L70.88 171.9c5.03.99 8.93.54 13.78.33l26.79-55.72Zm15.17 17.99 17.83 36.82 31.7-.72c3-1.17-.01-6.12-1.07-8.25l-13.48-27.28-21.74-42.95c-2.46-4.86-4.11-9.77-7.31-14.44-4.14 7.44-6.57 14.54-10.05 21.72l-19.26 39.85c-5.29 10.95-11.27 20.84-15 32.82 5.57-.35 11.93 1.41 16.36-.51 3.31-3.14 3.7-8.86 5.79-12.64 4.33-7.82 8.01-15.38 11.34-23.59.5-1.24 1.31-2.15 2.24-2.05.66.07 2.04-.03 2.64 1.21Z" class="cls-1"/>
    <path d="m121.33 53.72-43.17 89.36-53.21-.48L91.12 6.25c.89-1.55 1.66-2.31 2.82-2.47 1.56-.21 2.81.76 3.85 2.27z" class="cls-2"/>
    <path d="M126.63 134.5c-.6-1.24-1.98-1.14-2.64-1.21-.93-.1-1.73.81-2.24 2.05-3.32 8.21-7.01 15.77-11.34 23.59-2.09 3.78-2.48 9.5-5.79 12.64-4.43 1.92-10.8.16-16.36.51 3.73-11.98 9.71-21.88 15-32.82l19.26-39.85c3.47-7.19 5.91-14.29 10.05-21.72 3.2 4.67 4.85 9.58 7.31 14.44l21.74 42.95 13.48 27.28c1.05 2.13 4.07 7.08 1.07 8.25l-31.7.72-17.83-36.82Z" class="cls-3"/>
    <path d="m111.46 116.51-26.79 55.72c-4.85.21-8.75.66-13.78-.33l53.9-110.08c3.07 3.56 4.2 7.96 6.41 12.42l-19.73 42.27Z" class="cls-2"/>
    <path d="m13.52 170.17 53.26-.12 12.55-24.9c3.08-6.12 6.15-11.89 9.11-18.1l14.22-29.87c6.53-13.71 11.6-27.73 21-40.24-9.24 23.27-20.6 44.09-31.36 66.03l-24.15 49.26-52.74-.08c-.96 0-1.84-1.09-1.89-1.97Z" class="cls-3"/>
    <path d="M17.85 246.14c-1.25 0-1.95-.83-1.95-2v-37.42l-14.36-.05c-1.02 0-1.54-.77-1.54-1.72l.02-9.34c0-.85.53-1.74 1.56-1.74l46.3-.03c1.16 0 2.03.66 1.99 1.79-.13 3.68.3 7.21-.25 10.95l-15.67.14-.02 37.86c0 1.1-.65 1.57-1.63 1.57H17.85ZM85.49 235.94c-.09-15.18 21.14-12.45 25.79-14.2 1.27-.48.34-3.53-.55-4.41-1.18-1.17-2.72-1.33-4.58-1.07-1.5.21-3.04-.24-4.21 1.45l-1.63 2.36c-4.01-.95-7.89-1.56-11.96-1.98-.22-2.66.98-4.8 2.69-6.55 6.06-6.22 26.45-6.2 32.35.81 2.01 2.38 3.03 5.57 3.07 8.75l.19 18.62c.03 3.03 3.68 6.49 1.01 6.46l-12.58-.11c-1.11-1.32-1.07-2.67-2.33-4.52-5.56 5.63-13.9 7.47-21.1 4.29-3.98-1.76-6.13-5.44-6.16-9.91Zm26.02-1.31c.81-1.68.11-3.49.12-5.09-3.59.52-10.13-.04-11.03 3.87-.41 1.79-.19 3.72 1.72 4.59 3.12 1.42 7.6-.05 9.19-3.37M177.29 245.91c-4.43.5-8.42.1-12.63.25-1.08.04-1.9-.56-1.9-1.74l-.12-25.72c-2.3-.11-4.12.36-6.14-.3-.37-3.25-.51-6.64.14-9.83l5.86-.43c-.09-5.44.09-12.57 6.41-14.39 5.6-1.61 11.59-1.64 17.11-.07.45 3.25.11 6.16-.13 9.23-2.37.87-6.66-.93-8.11 1.59-.46.79-1.1 3.16-.21 3.52 2.34.94 4.74-.2 7.1.54.45 3.3.46 6.76 0 9.96-2.51.47-4.6.07-7.24.27l-.12 27.13ZM67.38 246.06l-14.32-.07-.11-37.64c3.35-.35 6.42-.29 9.6-.08 2.23.15 1.97 5.22 3.14 6.44 1.67-2.59 2.92-4.21 5.26-5.97 2.95-2.21 9.97-1.84 10.75 2.47s-2.24 8.63-2.89 12.45c-2.06 1.09-2.59-2.64-5.76-2.78-2.83-.12-5.64 3.49-5.65 5.01l-.03 20.17ZM148.62 246.08l-11.08.05c-.84 0-1.42-.62-1.42-1.55l-.17-34.53c0-.57.32-1.17.5-1.45.23-.35.89-.36 1.46-.36h10.27c.98 0 1.55.72 1.55 1.7l.14 34.65c0 .67-.49 1.48-1.25 1.48ZM142.7 184.19l-7.98 8.36 8.18 8.09 8.03-8.04zm-2.04 10.16c-1.11-1.11-1.11-2.9 0-4.01s2.9-1.11 4.01 0 1.11 2.9 0 4.01-2.9 1.11-4.01 0" class="cls-1"/>
  </g>
</svg>
