<svg xmlns="http://www.w3.org/2000/svg" id="Capa_2" data-name="Capa 2" viewBox="0 0 691.93 329.87">
  <defs>
    <style>
      .cls-1{fill:#ded1ac}.cls-3{fill:#040403}
    </style>
  </defs>
  <g id="Capa_1-2" data-name="Capa 1">
    <path d="m653.08 328.44-50.75.47c-7.15.07-13.5-2.3-19.7-5.64-11.59 4.51-23.55 5.81-36.08 5.72l-55.48-.54c-12.51-.12-23.27-4.59-33.91-11.03-18.58 10.72-40.95 15.26-61.8 10.65-5.86-1.3-9.35.24-14.97.28l-54.16.42c-6.22.05-11.79-2.66-17.36-5.6-11.02 4-22.27 5.81-34.33 5.79l-57.17-.13-19.08-3.44c-6.94 1.1-12.66 3.74-20.03 3.72l-43.18-.11c-8.65-.02-16.31-1.72-23.77-6.77-7.26 4.89-15.12 6.8-23.66 6.73l-51.53-.38c-17.61-.13-32.28-15-32.31-33.23l-.17-126.07c-4.23-6.46-3.72-13.03-3.48-20.34 1.36-42.09 9.97-81.86 22.86-121.58C28.23 11.31 38.92-.02 57.17 0l73.59.08c14.2.01 25.19 8.03 31.3 20.18l11.85 23.56c11.6-11.98 25.84-18.87 42.05-18.99l64.91-.48 16.7 2.37C299.81 12.98 310.53.66 325.19.61l58.16-.23c14.09-.06 25.15 10.48 28.55 23.94l58.22.31c4.35.02 8.59 1.72 12.92-.25 17.99-2.21 40.13-3.33 55.09 5.13 8.88-3.06 17.52-5.09 26.77-5.12l54.29-.16c36.87-.11 65.16 19.65 70.8 56.55 2.6 17.01 2.39 33.53.58 50.44-1.09 10.18-5.66 18.48-9.62 27.58 1.2 4.47 3.74 10 3.73 15.41l-.28 121.13c-.04 17.75-13.25 32.95-31.31 33.11ZM105.49 107.86l21.9 46.45 63.73-.16-59.44-120.72-75.46-.07c-14.15 39.67-22.21 79.59-23.07 121.11l55.68-.04.08-102.38 16.37.09.22 55.73Zm225.88-50.87-14.73.48.02 16.49 13.07.43.2 56.52c.06 15.88 14.16 23.27 29.71 23.36l47.65.27-.04-18.13-20.89-.2c-3.03-.03-5.37-2.49-5.37-5.56V74.38l26.58.08-.02-16.84-26.78-.29.11-23.93-49.12-.08c-.95.13-1.48 1.18-1.49 2.68l1.09 20.99Zm137.05 97.32.06-73.23c14.92-11.87 35.37-6.49 51.51 4.88l.15-28.04c-18.76-2.8-35.81-3.21-51.39 7.79l-.42-8.34-50.76.17.26 96.81zm-226.68.23c14.99-.17 28.69.51 42.46-1.14 16.23-1.96 27.53-12.93 26.81-28.71-1.31-28.93-32.94-28.15-61.52-27.37-8.46.23-7.87-8.97-5.78-21.45 1.83-3.05 11.35-3.2 13.84-.59 3.2 3.35 1.27 9.33 1.57 13.53h51.38c-.17-18.65-12.47-30.53-30.37-31.19-21.19-.78-41.37-.97-62.45.36-7.72.49-16.53 3.95-21.27 10.17-7.99 10.47-6.81 26.26 1.32 36.21 4.06 4.96 10.78 6.96 16.73 8.37 22.45 5.28 45.34-2.56 44.7 7.01l-1.12 16.89c-4.49.82-11.57 2.26-14.57-.81l-.97-13.49-51.36.03c-.51 12.1 4.66 23.08 15.5 27.57s22.45 4.77 35.08 4.62Zm386.66-1.06c17.69-.05 29.55-14.52 29.54-30.84l-.03-32.3c-.01-17.07-12.8-32.5-30.79-32.43l-67.19.24c-15.24.05-26.67 11.86-28.82 26.54-2.12 14.49-2.36 29.19.04 43.63 2.38 14.31 14.03 25.4 28.81 25.36l68.43-.19Zm-116.03 11-10.18-15.96c-.31 6.6-.72 11.21-1.86 16.99 4.56.25 8.39.8 12.04-1.04ZM181.73 295.45l-24.04-51.4c6.01-4.89 10.1-10.2 12.04-16.9 5.5-19 1.37-41.97-16.68-50.01-5.8-1.59-11.69-3.93-18.09-3.93l-98.49-.13.11 122.71 56-.26.06-103.51 16.88-.21.68 59.81 19.56 43.94 51.97-.09Zm250.47-94.57c-14.8-5.07-30.71-4.56-45.38.46l-9.11 5.16v-33.47h-52.14v122.59l51.9-.2.86-7.78c13.84 9.48 30.41 10.25 46.86 7.74 14.35-2.19 24.71-12.63 25.58-27.32 1.6-26.99 4.21-59.35-18.57-67.15Zm219.04 94.42-.05-122.19-51.36-.04.02 122.65 51.38-.42Zm-392.65-16.9-15.56-.49-.41-21.9 70.97-.15-.3-28.66c-.16-15.16-12.65-26.06-28.07-27.43-22.09-1.96-44-1.38-66.39-.39-14.74.65-26.87 9.97-29.34 24.82s-2.38 29.5-.78 44.41 14.39 26.82 30.15 26.78l66.54-.18c16.76-.04 28.42-14.21 27.27-30.42l-53.13-.03c.18 5.01.69 9.1-.94 13.63Zm274.77-.48c-5.57 1.02-11.02 1.4-16.2-.29v-21.8l70.71.06-.42-27.76c-.24-15.75-12.35-27.36-28.64-28.55-22.14-1.62-44.12-1.42-66.46-.08-14.19.85-25.75 10.11-28.31 24.5-2.66 14.94-2.7 30.68-.66 45.93 1.9 14.17 13.35 25.2 27.59 25.22l67.83.12c17.09.03 29.37-13.71 28.02-30.51h-53.07l-.38 13.16Z" class="cls-3"/>
    <path d="m181.73 295.45-51.97.09-19.56-43.94-.68-59.81-16.88.21-.06 103.51-56 .26-.11-122.71 98.49.13c6.4 0 12.29 2.35 18.09 3.93 18.05 8.04 22.18 31.01 16.68 50.01-1.94 6.7-6.02 12.02-12.04 16.9l24.04 51.4ZM105.49 107.86l-.22-55.73-16.37-.09-.08 102.38-55.68.04c.86-41.52 8.93-81.44 23.07-121.11l75.46.07 59.44 120.72-63.73.16-21.9-46.45ZM432.2 200.88c22.78 7.8 20.17 40.16 18.57 67.15-.87 14.7-11.23 25.13-25.58 27.32-16.45 2.51-33.01 1.74-46.86-7.74l-.86 7.78-51.91.2V173h52.16v33.47l9.1-5.16c14.67-5.02 30.58-5.53 45.38-.46Zm-37.62 76.17-.25-61.81c-5.15-2.05-13.67-.5-16.24 3.71l.17 54.22c1.31 5.12 12.1 7.06 16.32 3.89ZM628.4 153.48l-68.43.19c-14.78.04-26.43-11.04-28.81-25.36-2.4-14.43-2.17-29.13-.04-43.63 2.15-14.67 13.58-26.48 28.82-26.54l67.19-.24c17.99-.06 30.77 15.36 30.79 32.43l.03 32.3c.01 16.32-11.85 30.79-29.54 30.84Zm-25.84-17.82-.42-60.88c-6.16-.98-11.14-1.07-16.43.48l.07 60.71c5.61 1.74 10.86 1.85 16.77-.31ZM258.59 278.4c1.62-4.53 1.12-8.63.94-13.63l53.13.03c1.15 16.21-10.5 30.38-27.27 30.42l-66.54.18c-15.76.04-28.49-11.3-30.15-26.78s-1.65-29.8.78-44.41 14.61-24.16 29.34-24.82c22.39-.99 44.29-1.57 66.39.39 15.42 1.37 27.91 12.27 28.07 27.43l.3 28.66-70.97.15.41 21.9 15.56.49Zm1.09-38.8-.21-23.9c-5.9-.58-11.15-.98-16.53.59l-.23 23.33 16.96-.02ZM533.36 277.92l.38-13.17h53.07c1.35 16.82-10.93 30.56-28.02 30.53l-67.83-.12c-14.24-.02-25.69-11.05-27.59-25.22-2.04-15.25-2-30.99.66-45.93 2.56-14.38 14.12-23.64 28.31-24.5 22.34-1.35 44.32-1.54 66.46.08 16.29 1.19 28.4 12.8 28.64 28.55l.42 27.76-70.71-.06v21.8c5.18 1.69 10.63 1.3 16.2.29Zm.19-38.42-.54-23.79c-5.37-.94-10.62-.75-15.76.1l-.26 23.86zM241.74 154.54c-12.63.14-24.07-.06-35.08-4.62s-16-15.47-15.5-27.57l51.36-.03.97 13.49c3 3.08 10.08 1.64 14.57.81l1.12-16.89c.63-9.57-22.26-1.73-44.7-7.01-5.96-1.4-12.68-3.4-16.73-8.37-8.14-9.95-9.31-25.73-1.32-36.21 4.75-6.22 13.55-9.68 21.27-10.17 21.08-1.33 41.25-1.13 62.45-.36 17.89.66 30.19 12.54 30.37 31.18h-51.38c-.3-4.2 1.63-10.18-1.57-13.53-2.49-2.61-12.02-2.47-13.84.59-2.08 12.48-2.68 21.68 5.78 21.45 28.58-.78 60.21-1.56 61.52 27.37.72 15.78-10.58 26.76-26.81 28.71-13.76 1.66-27.46.97-42.46 1.14ZM331.37 56.99l.4-23.67 49.12.08-.11 23.93 26.78.29.02 16.84-26.57-.08v56.27c0 3.07 2.34 5.53 5.36 5.56l20.89.2.04 18.13-47.65-.27c-15.55-.09-29.66-7.48-29.71-23.36l-.2-56.52-13.07-.43-.02-16.49 14.73-.48ZM651.24 295.3l-51.38.42-.02-122.65 51.35.04zM468.42 154.31l-50.59.04-.26-96.81 50.76-.17.42 8.34c15.58-11.01 32.64-10.59 51.39-7.79l-.15 28.04c-16.14-11.37-36.59-16.75-51.51-4.88z" class="cls-1"/>
    <path d="M331.37 56.99 330.28 36c0-1.5.54-2.55 1.49-2.68z" style="fill:#fefefe"/>
    <path d="M394.58 277.05c-4.21 3.17-15 1.23-16.32-3.89l-.17-54.22c2.56-4.21 11.09-5.76 16.24-3.71l.25 61.81ZM602.56 135.66c-5.92 2.15-11.16 2.04-16.77.31l-.07-60.71c5.29-1.55 10.27-1.46 16.43-.48l.42 60.88ZM259.68 239.6l-16.96.02.23-23.33c5.38-1.57 10.63-1.17 16.53-.59l.21 23.9ZM533.55 239.5l-16.56.17.26-23.86c5.15-.85 10.39-1.03 15.76-.1z" class="cls-3"/>
  </g>
</svg>
