<svg xmlns="http://www.w3.org/2000/svg" data-name="Capa 2" viewBox="0 0 2801.97 519.6">
  <g data-name="Capa 1">
    <path d="M1603.93 0c-.99 1.22.6 4.32-.65 4.98l-6.75 3.53-1.79 10.43-10.42-3c2.81-4.69 2.56-10.72 1.41-15.93h18.2ZM2111.36 183.93l-10.07 4.9c-9.87 4.8 6.44 4.34 20.86 10.34l12.92-.94-15.07 24.05-18.21-9.04c-1.14 10.18-7.28 16.57-14.84 17.43l-.79 15.73c-1.4 27.64 22.48 28.29 9.51 65.64l8.76 9.77-2.79 4.25c-.72 1.09.99 3.34 1.96 5.14l.12 3.38c.03.98 1.14 3.65 1.88 2.93l5.01-4.96c-.27 10.68 3.72 17.33 14.58 22.34 4.14 1.91.7-9.22 3.41-13.55l17.32 11.49c-2.98 4.53-4.94 17.52.35 20.41 1.73.95 8.48-.77 8.31 1.12l-.87 9.83 7.06-9.45 1.19 14.36-8.11 3.86 3.74 13.1c1.3 4.54 1.85 10.86 1.53 16.56 33.23 32.16 103.2 32.45 143.78 9.58 30.23-17.05 51.05-45.52 64.35-77.56 10.75-25.9 10.4-53.08 7.88-81.38l42.21-41.07 9.52 33.96 8.7-28.58c10.6 19.11 14.82 32.97 38.34 30.29l3.91-17.23-3.26-17.04c-3.77-8-3.74-15.86 1.66-23.64l-15.07-15.65c5.61-13.13 15.97-18.08 28.44-14.36 9.23 2.75 5.08-10.74 15.15-18.18l-5.72-1.14c-1.06-.21-3.76-2.15-2.89-2.88 1.45-1.21 5.58-4.12 6.81-3.35l5.4 3.36c1.21.75 2.29-.44 6.67-3.34l3.74 10.64c3.49-1.2 8.26-2.07 15.85-2.98 2.34-6.5 3.32-19.37 2.53-29.26 25.47-13.09 54.07-16.04 82.63-16.04 50.35 0 96.81 20.98 131.19 60.12l.58-54.26 46.49-.28 3.97 21.88-3.05 26.98.19 57.3-5.39-8.48-3.12 32.68-1.26 16.04c-.58 7.43 3.55 20.38-2 25.41-15.6 14.13 7.05 20.4-2.33 34.84l-7.57-5.97 2.61 25.99c-.05 2.72.79 3.95-6.14 2.06l2.54 16.3 1.43 33.77-4.91 32.58c-.29 1.9 1.8 5.95.54 6.55l-6.27 2.99c12.94 17.43.32 26.66 3.39 42.91-.63 4.67-15 6.17-18.68 1.44l-.75-50.72c-57.02 67.74-151.49 82.12-227.15 44.92-51.31-25.23-92.24-84.82-100.05-141.87-10.38 50.39-40.23 89.52-79.89 119.41-16.65 12.55-33.63 21.92-53.84 27.48-51.51 14.16-107.37 9.79-153.05-19.06-8.96-5.66-12.55-8.74-25.69-.64l-1.1-18.25c-1.52-1.65-12.67-.5-14.79 2.9l-7.68 12.33-18.47-10.52 9.37-7.47c4.07-3.24-8.29-17.77-4.97-20.83l9.22-8.51c-14.11-21.32-26.02-44.6-30.61-70.23l-6.61-36.91 9.47-61.43c3.36-21.8 18.65-51.23 41.37-52.47-.5-2.66-2.13-8.54-.27-9.72l10.43-6.58c1.29 1.3 4.47 4.51 4.47 4.5Zm369.39 195.24-8.22 14.41c1.49.44 7.15.47 7.89-1.4l2.53-6.45 4.02 10.24c4.1-1.42 5.66-2.31 6.42-1.42.54.64 3 2.49 2.95 2.55s-2.88 1.88-4.2 2.71l7.42 7.88-.69-5.86c-.11-.97 2.84-2.5 3.41-1.7l3.05 4.22 10.46 16.66 7.35.18c17.52 15.42 36.34 26.09 58.31 31.47.75 1.57 2.74 5.82 2.75 5.73s3.32-3.2 4.68-4.5c47.22 8.99 93.98-8.18 124.29-45.79 39.05-48.46 48.7-99.32 28.55-157.95l-13.34-11.67c-19.4-16.97-6.33-23.89-15.86-32.05-5.97.67-10.63 1.45-12.91-.35-1.9-1.5-2.49-8.5-3.76-10.73-11.97-20.94-36.3-23.34-51.32-36.33-1.42 2.52-8.24 5.04-13.39 3.84-22.38-5.22-45.5 2.06-66.95 5.79l-12.85-.84c-2.52-.17-3.5 6-5.98 12.34l-5.1-17.32c-3.21 2.97-6.4 7.55-5.31 9.51l5.29 9.54c-18.69 15.12-35.54 32.21-49.13 52.3l-1.45 6.67c-.25 1.15-3.58-.9-4.22-1.93l-2.59-4.19c-1.37.35-4.35 5.79-3.24 7.6l4.01 6.49-11.36 45.11c-3.02.62-6.95 1.39-6.2 2.53 5.55 8.41-1.11 11 4.62 19.92l-8.54 6.61c5.74 7.67 7.22 18.25 3.82 26.53.81 1.39 4.89 7.23 3.14 8.58l-6.81 5.2 11.66 10.42-4.87 9.93 11.69-4.45ZM1021.14 270.54c27.02-1.4 51.04-.89 74.97-5.84 39.27-8.14 63.8-35.92 70.3-74.55 8.59-51.06-18.55-99.09-68.87-115.53-28.3-4.19-56.7-4.87-84.81-3.32l-9.17 5.53c-8.61 5.19 23.05 16.3 20.84 36.51-3.55.61-12.07 1.03-15.01-.75l-18.23-11.05c-2.05 7.69-3.24 13.66-5.31 17.6l-7.44 14.19-7.79-4.83c-1.96-3.97-4.41-9.69-8.78-12.63l.67 385.17-47.93.59-.07-26.77c0-1.34 6.18-2.22 7.53-2.23 1.81-.02 2.77-6.64 1.08-7.28l-8.85-3.36-1.09-30.29 8.84 1.93-8.17-9.35-.53-40.98c-.05-3.95 4.35-10.58 7.74-14.17l-7.44-5.67c3.88-7.6 4.53-9.05-.49-17.22l16.92-11.55-3.43-4.29c-.7-.88.56-3.95 1.63-3.66l6.82 1.84 7.1-12.34-6.54-5.47 10.28-15.52c-10.86 6.47-23.21 9.01-32.74 3.31l.41-40.23.67-21.38-.63-26.81L913 63.08l10.53.24-9.46-13.17c-2.39-3.33.26-12.49 3.07-14.14 2.02 2.93 4.13 7.53 5.77 6.96l8.58-2.95-7.81-4.9 9.28-14.38 24.76-1.72 55.28 1.53c59.73 1.65 120.98-.31 161.73 44.85 20.1 22.28 35.22 46.85 41.47 76.97 6.57-8.96 17.4-6.33 24.96-1.03l5.31-4.49c1.24-1.05 7.43 2 6.68 2.18l-5.67 9.43 16.73-1.68-.9 95.92-.09 21.5.55 79.29-11.69 11.52 15.47 30.68c-4.49 1.5-8.99 1.91-17.68 2.49.39 2.12 7.89 6.53 14.32 9.47l-8.34 6.07-.55 16.43 6.65 1.24c1.39.26 2.29 3.19 3.56 6.03l10.08-12.49.34 23.14 5.7-8.66 9.13 12.74-43.26 20.51c-30.32-45.88-30.19-109.11-30.54-163l-.57-88.33c-15.57 53.62-54.58 97.88-111.12 104.57l110.88 181.72c6.46-4.06 9.3-1.23 4.85 2.23l-10.82 19.8-12.67-12.48-6.97 9.53c.53.57-4.61-2.5-3.76-3.37l4.26-4.32c.74-.75 2.93-3.08 2.86-2.97-.06.1-1.79-2.17-2.18-2.87-.58-1.04-3.5 1.1-4.29 2.24l-8.46 12.18c-11.23-5.57-14.98-13.21-20.83-22.69l-74.65-121.05-62.39-103.26Zm236.39-22.18c-4.68-1.88-11.42-1.9-11.46.46l-.14 9.48c-.04 2.5 7.54.97 9.35-.73s4.36-8.26 2.24-9.2ZM703.17 501.64l-.83-53.15c-46.51 55.53-116.53 74.88-189.32 55.71l4-11.5-14.87-4.32-4.58 7.43c-3.27 5.31-39.08-13.63-58.27-33.45-20.66-21.34-38.88-45.61-49.06-74.36-16.03-45.25-14.99-94.46 1.3-140.78l11.3 18.21c4.24 6.83 15.56 15.03 24.51 10.41 7.16-3.7 7.56-29.84-.95-40.84l4.59-16.52c-5.87-5.05-11.63-10.76-13.92-14.64 13.14-25.25 33.61-10.61 34.76-15.17l1.78-7.07c.62-2.44 3.23-6.36 5.19-9.17l-5.32-.43c-1.51-.12.27-6.89 1.87-6.58l16.43 3.17c5.19 5.94 14.68 5.56 20.21 3.07l.74-28.06c29.64-13.22 62-16.45 95.26-13.63 45.11 3.82 82.67 25.17 113.49 59.5l.73-42.06c.1-5.66 4.45-11.16 10.73-10.9l36.53 1.49.35 81.27-13.46 1.09 10.84 4.53c-1.8 3-3.55 8.34-3.19 11.23l.71 5.65c.14 1.14-1.76 1.08-5.22 1.69l6.78 9.25c7.87 10.74 3.06 30.13 4.31 42.51L761.87 306l-11.89 4.25.12 102.27-10.39 1.42 7.47 2.58c1.54.53 1.23 5.7-.31 5.02-4.64-2.04-14.72-3.76-19.17-.24l-12.02-1.01 2.63 3.66c.45.62 3.25 1.98 2.54 2.31l-8.5 3.94c9.54 8.08 21.98 11.44 37.57 15.12l.69 56.17-47.46.13Zm-16.83-138-5.05-20.68c-3.33 2.32-8.08 5.73-8.63 3.86l-3.23-11.08c-5.17 5.81-8.59 11.79-10.63 22.25l-7.58 1.07 11.16-33.7c-3.78-.8-9.34-1.6-9.22-3.66l.62-10.53c.2-3.36-.66-9.19-2.95-10.89-1.96-1.46-7.88 3.46-9.65 4.65l-12.95-6.71c4.48-2.11 9.85-4.91 11.35-7.53l11.34-19.76c-2.88-.3-12-1.85-11.35-4.37l2.46-9.52c1.16-4.49-2.4-13.16-5.49-18.53l7.88-7.65c5.2-.4 8.1-.76 8.61-3.34.58-2.96.61-10.68-1.57-10.22l-10.27 2.19c.42 7.64-2.22 4.64-3.25 1.39-7.54-6.2-14.45-13.66-16.24-21.01 3.65-1.09 8.96-7.07 6.79-8.29L611.48 182c-6.71-3.78-12.28-7.71-15.75-12.41l-1.75 6.88c-.27 1.07-4.65.29-6 0-22.83-4.92-45.72-1.44-67.92 4.89l-18.19-1.53 1.17 7.49c.13.83-3.35 1.15-3.25.81l-5.09-12.67c-3.63 2.09-6.94 7-5.48 8.57l7.39 7.99c-18.62 14.87-36.53 32.43-50.26 52.79l-1.9 6.74c-.21.75-2.21-2.28-2.84-2.75l-4.15-3.14c-.42-.02-3.22 5.56-2.21 6.63l4.57 4.85c-22.15 66.98-16.06 129.72 40.84 176.19 41.77 34.11 99.11 43.72 147.24 17.14 22.56-12.46 39.45-31.84 52.21-53.56l-7.56 4.15-1.09-18.05c-2.64-1.29-6.96-2.83-7.35-4.69l-1.46-6.92c-.91-4.33-2.96-13.45 2.37-13.78 4-.25 7.28 7.29 8.21 14.07l13.09-8.07Zm-7.31-46.66 5.41-6.45c.84-1-.74-5.46-.89-4.88l-15.96-6.09 4.03 17.23c.34 1.46 2.94 5.51 3.86 4.42zM265.85 277.78l-69.01 101.64c-14.28 21.03-14.31 34.02-27.1 39-8.69 10.92-17.33 25.89-25.95 38.08l-29.56 41.78-68.88-.4.59-194.73c12.21-10.56 20.31-19.93 28.34-32.7l11.36 9.81c.94.81 2.77 3.71 3.9 3.5l5.36-1-.52 68.74 1.59 92.18 86.34-124.13 41.66-60.9 13.81-2.35-8.06-6.41 6.41-6.9c6.19-.49 13.43-3.16 16.34-6.45l-11.48-3.08 33.44-49.15c10.64-15.65 20.69-28.77 40.42-38.01 4.43 11.11 4.37 1.24 26.67-1.03 4.68-.48 12.65-5.68 18.88-1.34l-.06 101.89-.65 252.49-46.6.52-.69-78.24c1.35-1.18 3.82-3.11 3.44-4.03l-2.09-4.99c-2.11-5.05-2.28-17.86 1.36-21.94 5.55-6.22 12.44-10.96 11.39-21.05l-12.88 14.78c-1.04-17.92-.99-29.71-.29-46.17l-11.28-7.55 10.09-10.63-17.11-7.6c-1.97-.88-4.81-5.66-3.13-6.75l7.94-5.16c1.73-1.12 5.04 4.56 6.72 7.6l25.49-17.63c-9.77-1.41-19.17-5.31-18.47-14.31l38.92-11.84-38.29 1.87-1.51-51.58-39.23 53.06c-12.64 1.24-27-.51-42.01-2.91 2.41 14.29 24.49 1.95 34.4 14.02ZM1754.75 339.9c14.06 35.29 14.74 77.18-5.54 108.92-23 36.01-63.66 53.05-105.54 52.48-69.48-.95-106.14-55.94-108.21-122.76l45.88-1.36 6.67 32.89c1.6 7.91 10.51 20.56 16.46 26.92 18.56 19.84 45.32 22.42 69.14 13.8s38.36-26.83 39.24-52.43c1.47-42.67-34.19-64.43-74.32-76.44-52.16-15.61-89.5-42.51-87.66-99.8.63-19.53 2.38-37.98 14.11-53.97 12.32-16.78 28.08-28.95 45.94-39.11 16.86-9.59 33.08-8.18 50.17-9.8 42.53-4.04 78.99 23.6 91.47 63.39-5.52 1.19-10.57 2.57-12.51 4.47-2.27 2.22-1.48 10.36.67 13.12l13.34 17.07-43.51 1.2-8.51-24.41c-8.82-25.29-39.51-31.63-63.39-24.82-18.71 5.34-36.52 18.35-36.72 39.11l-.32 34.51 24.15 21.12c17.18 15.03 66.65 19.37 87.05 33.84l16.84 11.94 18.08 16.65c-.93 6.51.94 11.7 7.04 13.44ZM2002.57 260.74l-21.6 1.8-.6-54.95c8.51-.36 12.16-.35 18.73-3.93l-16.88-1.94c-3.54-8.2-2.62-18.79 3.76-27.96l-34.87-.18c-1.92 1.36-4.2 2.7-4 1.88l1.95-8.04-35.31-10.37c-5.85 4.54-4.19 14.74-2.66 21.57-5.57 5.77-20.08 4.25-23.42-4.18l-16.11 2.75-2.6 31.26-1.64 18.67c8.85.15 16.55 3.06 18.39 8.15l-7.04 26.78c-7.53-3.31-17.15-4.66-22.69-.58 4.65 36.6 42.38 36.87 41.62 59.28l-.71 20.95-6.05 3.64c-1.38.83.14 4.52 1.3 7.99-13.04 8.01-25.69 14.53-42.63 20.23l.17-190.79-68.51.98.41-48.95 68.3-1.01-.46-69.61c3.87-7.72 13.36-4.05 15.81-12.28.62-2.07-4.37-6.84-6.02-5.49l-9.2 7.56-.08-37.84 46.57-.52.73 33.04.34 32.64c-17.37 2.23-3.97 23.46-24.28 25.15l-.35 7.96c-.06 1.39 4.06 1.63 4.76.46l3.19-5.34c3.89 1.78 6.45 2.41 16.22 3.9l.25 18.94 128.73-1.34 2.24 21.34-1 344.15-47.15.41-.48-70.23 6.67-9.41c-6.58-5.96-10.27-21.28-3.74-28.97 13.31-15.68 25.09-39.19 11.72-45.83l3.06 14.99-15 22.97c-3.51-7.56-3.72-18.08 2.67-25.63-12.46-12.04 4.77-38.16-15.1-43.63l-9.65-2.66c-3.2-.88.54-8 3.91-9.01 4.1-1.22 6.68.99 9.09 6.78l9.82-7.93c5.24-4.23 10.86-7.5 17.18-10.71-8.32-2.05-15.19-3.86-20.52-10.44 3.18-4.35 10.71-8.24 15.6-9.58l25.9-7.09-18.73.19ZM1882.19 81.82c-.73-2.95-1.18-8.28-1.33-11.41l-5.51-14.81c-4.05 1.13-9.49 8.75-7.84 12.1l10.85 21.98c.18.61 6.28 2.02 5.87.36l-2.04-8.23Zm-32.59 89.04c6.6-2.32 10.86-6.18 10.51-9.18-.29-2.43-6.19-6.71-8.49-5.62-3.89 1.84-5.52 13.26-2.02 14.8M1472.51 317.13l.61-79.8c2.51-2.01 6.01-4.7 5.22-6.14s-5.14-5.79-5.19-7.43l-1.05-36.44c-8.9-7.78-.83-13.89-5.02-24.93l-10.44 5.22 4.75-21.92 6.94 1.16c3.65.61-.22-13.45 6.72-15.71l10.15 4.53c2.02.9 6.45-2.97 7.1-3.34l16.27 2.7c4.2.7 8.97 2.29 12.11 5.9 2.31 2.66-.67 9.39-.99 12.97l-.13 35.62-.59 139.57c-4.9 10.15-24.3 13.37-32.36 7.08l-14.1-19.05Z"/>
    <path d="m2186.94 162 3.15-27.81c.13-1.16-2.07-4.98-3.22-4.73l-7.61 1.66-1.36-4.71-7.46 1.51c.04.27-.52-3.96-.73-5.56s3.49-4.16 5.03-4.75c47.11-17.78 113.58-13.9 160.11 15.58l-34.47 33.11c-6.93-.22-15.84-5.75-20.85-9.94l-20.07-.4c-25.61-3.51-47.47-2.89-72.52 6.04M1896.42 497.81l-47.13.86.45-115.09c3.1-4.94 14.62-6.74 19.25-6l16.15-14.9c3.43 12.75 5.35 19.83 11.31 30.25l-.04 104.89ZM63.96 246.27l-7.92 15.06 5.65.31c.92.05 4.05.86 3.3 1.4-1.3.94-4.36 2.76-5.74 2.65l-9.62-.81 4.14 9.07c.81 1.78-4.87 5.38-7.64 6.62l-.18-44.18 12.98-7.02c1.57-10.9 5.34-19.37 11.82-29.56l-13.1-8.34-5.32 4.28c-1 .81-3.64-1.45-5.98-3.47l9.95-9.91c-9.74-8.82-10.33-22.6-9.09-35.86l-6.27-.99c-.81-.13-1.61-3.38-.78-3.43l7.1-.48.16-32.1c-5.39.45-15.76-6.46-13.11-9.32 3.63-3.55 9.93-7.58 13.2-9.69l1.9-20.06c10.81 4.41 17.24 12.64 19.28 23.79-7.05-4.59-14.06-3.53-19.49 1.55 2.6 0 10.47-.78 11.84 1.21l6.22 9.03 5.65-10.86 4.1 14.36c.77 2.7-5.18 6.15-7.66 7.54 4.83 12.69-1.06 24.52-10.45 32.14l8.97 25.17 7.78-8.48 13.99 11.1c1.18-.51 8.45-1.59 8.05.26L96 185.1c-.41 1.9-4.2-1.07-7.56-3.84l-6.01 12.54c17.33-1.78 23.49 26.02 19.48 43.02-2.07 8.78-21.55 21.79-37.97 9.45ZM1466.41 443.64c-3.04 2.92 3.04-2.92 4.62-4.44-.53-1.73-2.18-5.58-.85-6.22l9.54-4.56-8.42-7.45 13.91-9.08c-7.69-1.91-9.71-1.96-11.31-3.42-1.91-1.75 3.23-8.98 5.71-9.79l6.52-2.14c1.61-.53-1.89-4.41-5.67-7.93l22.03-17.25-4.1-6.29c5.7-.29 11.17-1.25 12.46-5.63 1.16-3.92.18-6.43-4.04-13.11l12.25-10.6-.36 46.4v14.06l.4 103.93-27.69-.37-18.76-.25-.04-28.39 13.17-3.45c4.39 3.67 9.14 7.52 14.99 10.87-6.56-10.09-13.49-16.88-21.92-24.14l-12.45-10.72ZM1339.67 136.92c8.61-5.13 12.31-5.01 25.55-8.51l-28.77-10.13 10.96-12.95c1.6-1.89 9.51-2.54 10.95-4.62s.75-6.69.82-10.24c6.46-16.22 15.58-29.99 26.41-44.21l30.83-.65 10.45 23.58-39.71 58.84c-6.51 9.65-15.8 18.77-27.74 15.06l-19.76-6.15ZM339.65 116.46l-28.01-11.03 18.1-12.3 13.72 3.45c-4.57-6.24-7.8-10.19-9.52-13.8-3.52-7.4 14.21-34.86 28.15-48.15 8.65-.51 23.5.52 30.23 2.13 3.83 8.34 5.8 12.31 10.23 19.45l-43.21 61.55c-5.17.09-15.31.19-19.7-1.31ZM2028.39 89.67l-47.15 1.52-1.86-30.38V47.52l1.73-30.72c2.19-1.29 9.73-2.33 13.03-2.35l33.82-.26.44 75.48Z"/>
    <path d="m54.24 69.24-5.95-2.27.62-34.12c4.52 4.84 9.96 9.94 14.21 12.23 5.93-3.47 10.32-13.98 6.49-15.68L55.2 23.08l-4.74 8.89-1.76-8.91c-.41-2.08 5.4-5.22 7.57-5.17l40.27.97-.99 102.95c-22.53-9.14 2.26-33.97-19.27-26.51L53.25 45.16c-.89 9.25-.32 13.09.99 24.06ZM186.91 222.8c-7.98 9.45-19.25 9.81-25.02 1.71s-5.9-17.32 3.42-24.26c6.61-4.92 15.32-6.52 22.54.25 4.47 4.19 4.62 15.71-.94 22.29ZM142.31 184.33c-6.47 4.01-20.12 1.15-24.74-3.11-1.38-1.27.21-7.65 1.99-8.24 8.14-2.68 16.93 1.04 22.75 11.35M407.15 229.79c-4.08 1.28-11.72-.95-13.08-3.87s1.27-10.11 5.01-12.39c2.42-1.06 7.16 2.72 8.78 4.96s1.85 10.49-.71 11.3M1.2 333.67c2.04-2.22 10.66-1.44 11.23 1.14s.3 7.52-.92 9.86-6.84 3.78-8.85 2.06c-2.54-2.16-3.72-10.6-1.46-13.07Z"/>
  </g>
</svg>
