<svg xmlns="http://www.w3.org/2000/svg" id="Capa_2" data-name="Capa 2" viewBox="0 0 887.81 701.04">
  <defs>
    <style>
      .cls-1{fill:#243b39}.cls-3{fill:#61817c}.cls-4{fill:#223332}.cls-5{fill:#578f89}
    </style>
  </defs>
  <g id="Capa_1-2" data-name="Capa 1">
    <path d="m798.01.27 68.1.33c4.78.02 12.76-1.19 18.18 1.56 3.17 1.61 4.01 8.39 3.26 12.34-6.63-.76-11.09 5.59-10.63 11.92.06 10.11-6.25 17.96-10.57 26.4l-32.42 63.35-37.86 75.11c-16.84 33.41-35.71 67.52-51.42 102.18l.17 3.27c-4.76.14-7.27 4.3-8.21 7.69-.6 2.18-3.26 5.52-1.9 7.9-5.71 1.25-8.43 6.12-8.5 11.64l-.08 6.71c-6.64.45-7.85 6.06-8.63 11.71-.38 2.77-3.63 7.33-2.64 10.52l-10.96 1.77c1.8-13.95 11.18-25.12 18.29-39.11L877.9 9.08 662.84 5.82l-.31-5.59 135.48.03Z" class="cls-3"/>
    <path d="M887.55 14.49c-.5 3.53-.92 8.01-3.22 9.76-2.02 1.54-4.96 2.05-7.41 2.16-.47-6.33 4-12.68 10.63-11.92" style="fill:#d8c8b5"/>
    <path d="m426.8 2.95 5.97 11.53.89 437.61c-4.72 4.21-4.31 10.89-3.88 19.18-6.99-3.14-5.45-12.27-15.02-11.19l-42.05-87.24c-6.25-12.97-13.58-24.6-15.14-37.8 1.85-.68 4.37-3.27 4.36-7.57l-.47-314.44c4.26-.45 9.97-.79 15.27-2.91 2.58-1.03 4.01-5.2 3.45-9.16 15.57.54 31.11-.59 46.62 1.98Z" class="cls-5"/>
    <path d="m643.72.26-.38 6.09-187.75.95c-9.83.05-17.82-.86-22.82 7.18L426.8 2.95 426.61 0zM380.17.97c.57 3.95-.86 8.12-3.45 9.16-5.31 2.12-11.01 2.46-15.27 2.91l.37-12.71z" class="cls-3"/>
    <path d="M357.56 335.05c1.56 13.21 8.89 24.83 15.14 37.8l42.05 87.24c4.05 8.41 6.48 18.56 13.45 27.69 14.48-11.69 5.46-25.54 5.44-35.68l-.89-437.61c5-8.03 12.99-7.13 22.82-7.18l187.75-.95c5.67-5.62 14.21-1.22 19.5-.53l215.06 3.26-155.72 306.47c-7.11 13.99-16.5 25.16-18.29 39.11-.18 1.41-.94 4.22-2.07 5.02-8.85 6.22-31.47 49.73-22.1 60.04 16.91 18.61 27.94 38.92 42.55 59.19l138.63 192.34c4.19 5.81 6.13 10.12 12.92 9.43.49 1.32-.21 3.46-.23 4.73l-.14 11.85-48.98-.26c-6.49-7.52-21.37-3.81-29.7-4.3-1.32-.97-3.81-5.11-6.15-3.68-2.89 1.77-2.55 5.58-2.02 7.72l-22.71.62-.29-12.08c-.61-18.87-21.78-37.69-36.52-57.23l-59.98-79.51c-14.26-18.9-19.88-42.57-40.02-40.3-5.39.61-8.23 7.31-11.07 13.39l-24.4 52.13-56.88 115.03-116.23.61c-7.4-8.54-8.22-20.49-14.17-28.77-15.88-22.12-25.6-45.68-34.19-72.02l-22.54-36.51c-11.33-33.64-31.13-60.91-46.2-92.35l-31.74-66.23-28.83-54.44c-11.14-21.03-19.13-42.55-30.52-63.96l-18.28-34.35c-12.76-23.99-20.91-48.16-33.77-71.37l-22.96-41.46-38.99-82.14C89.67 31.86 75.86 19.64 79.27 3.72l103.86 1.47 164.32 325.23c2.39 4.73 6.89 5.07 10.08 4.62Zm176.86-123.81c-.1.79-.28 2.12-1.07 3.42l36.31 51.53c8.83 12.53 22.69 23.78 29.68 38.07 2.68 5.48 14.82 19.71 19.88 10.12l49.16-93.24 46.43-93.1c4.9-9.82 10.35-17.5 7.36-30.69-22.9 2.91-44.3-1.91-66.93-1.97l-127.79-.37-3.48 40.78c-1.43 16.81 2.68 72.41 3.34 73.09 1.51 1.57 4.71 2.14 7.1 2.37Zm29.85 212.21c2.8-14.47-11.55-24.06-16.88-32.83s-8.84-16.13-20.77-14.13l1.49 104.71c.04 3.11 10.2-.11 12.43-5.07l23.73-52.69Z" class="cls-4"/>
    <path d="m67.24 6.7 334.03 671.66c4.22 8.45 5.07 14.5 5.98 21.21-22.72-.9-46.05 2.81-68.17-2.23-2.78-12.89-12.13-23.07-17.03-36.45-2.74-7.47-4.58-14.03-12.98-13.56l-.04-6.95c-5.41-17.1-8.37-31.54-18.63-30.85l-.2-6.77c-.05-1.62-.04-3.62-.91-5.58-.95-2.14-3.99-3.41-6.69-2.98.24-2.17-.63-5.37.97-8.05l-22-45.74c-2-4.17-5.96-6.06-9.07-5.83l.02-6.52c.02-8.01-10.68-32.1-18.81-30.91l-.06-7.28c-.06-7.15-10.66-31.42-18.9-30.23l.31-9.2-44.66-93.28c-3.18-6.65-4.7-11.22-12.54-10.09 1.17-1.99.76-4.36.79-5.99.09-4.6-1.54-8.06-4.34-13.64L6.29 32.18C2.76 25.14.39 11.05 7.63 8.28 27.67.59 48.55 5.22 67.23 6.71Z" class="cls-5"/>
    <path d="M79.3 3.73c-3.41 15.92 10.39 28.14 17.02 42.09l38.99 82.14 22.96 41.46c12.86 23.21 21 47.38 33.77 71.37l18.28 34.35c11.39 21.41 19.39 42.93 30.52 63.96l28.83 54.44 31.74 66.23c15.07 31.44 34.87 58.71 46.2 92.35l22.54 36.51c8.59 26.34 18.31 49.9 34.19 72.02 5.95 8.28 6.76 20.23 14.17 28.77l116.23-.61c-1.77 3.58-3.04 7.34-3.72 11.25l-7.5-.12c-3.1-.05-8.63-1.11-11.45.19-2.49-4.97-11.55-5.25-15.5-.11l-33.53-.22c-16.41-.11-32.28.72-48.41.08l-7.39-.29c-.91-6.71-1.76-12.76-5.98-21.21L67.24 6.7z" class="cls-1"/>
    <path d="m169.76 575.93 74.1.21c1.67 0 4.16 2.94 5.45 2.48.96-.35 2.24-2.25 2.77-2.69l8.21-.29c6.44 9.19-.87 15.87-6.94 24.03l-71.95 96.79-109.54.23c-.97-6.72.39-14.36 5.67-20.87L123 619.76c5.78-18.01 21.59-29.01 23.08-43.82h23.68Z" class="cls-4"/>
    <path d="M146.09 575.94c-1.49 14.81-17.31 25.81-23.08 43.82l-45.47 56.06c-5.28 6.51-6.64 14.15-5.67 20.87l-8.19.07-56.78.23c-18.76-6.19 5.94-17.89 12.81-39.59 2.82-8.92 16.3-14.23 15.05-24.16 16.12-5.12 29.94-36.55 38.45-44.7l13.56-13.24 59.31.63Z" style="fill:#a23941"/>
    <path d="M414.76 460.09c9.57-1.08 8.03 8.04 15.02 11.19-.43-8.29-.84-14.98 3.88-19.18.02 10.14 9.03 23.99-5.44 35.68-6.97-9.13-9.4-19.27-13.45-27.69Z" class="cls-3"/>
    <path d="m763.61 685.3.29 12.08c-21.61.59-45.36 4.52-68.19-1-10.72-2.59-16.82-26.67-29.44-25.99.68-1.95.92-3.24.69-4.08-2.66-9.89-8.81-21.36-19.57-23.29-.06-.48.09-1.04.17-1.47 1.37-7.05-2.87-13.15-9.67-14.93-.39-.6-.85-1.41-.87-2.06-.14-4.54-3.49-7.79-8.05-7.51.42-.95.58-2.44.55-3.42-.23-6.72-5.19-10.06-9.77-13.97-3.21-2.74-7.97-8.46-9.09-12.48-1.43-5.18-1.31-6.85-6.53-7.69-7.04-1.13-9.51 1.32-9.67 8.05l-.15 6.34c-4.88.11-7.16 4.06-7.52 8.74l-.54 6.87c-7.14 1.38-10.36 8.42-10.55 15.25l-.19 6.84c-4.79.15-6.85 4.07-7.59 8.57l-.98 5.89c-4.49 1.32-5.31 5.16-7.05 8.58-2.38 4.68-4.14 9.21-3.24 14.74-6.16.48-7.09 6.62-8.17 12.01l-1.09 5.49c-5.37 2.22-8.97 7.04-9.11 12.85l-7.27.33c.67-3.91 1.95-7.67 3.72-11.25l56.88-115.03c11.02-5.25 15.96-16.4 21.71-28.32l11.05-22.94c2.13-4.43 9.12-4.44 12.67-2.51 2.51 1.37 3.37 4.47 5.93 7.99l104.57 143.58c4.74 6.51 8.23 14.19 16.06 13.71Z" class="cls-5"/>
    <path d="m533.35 214.66 4.71-.51 7.6 1.73c-.41 6.12 5.15 10.82 11.17 10.86-2.16 7.84 1.73 14.45 7.44 18.48.72 2.38.43 7.29 3.72 9.67 3.07 2.23 8.26.73 11.4-2.14-4.5 9.11 17.22 29.07 31.24 52.48 16.75-15.03 22.61-35.14 32.15-54.03l44.12-87.36 26.34-55.27-64.68-.93c-2.87-2.22-6.46-5.11-11-5.28l-16.42-.62c-22.84-.86-45.54-.2-68.47 1.43-5.44.39-14.66.12-19.85 4.48-4.15 3.49-2.1 12.5-2.01 16.63l.83 37.21-.17 5.79c-.06 1.93 2.98 3.49 6.22 2.72-2.23 5.89-1.42 15.59-.52 21.55-2.15-.55-5.54.27-6.29 2.67-.61 1.97 1.8 5 3.77 5.53l.49 7.37-.74 4.13c-2.39-.23-5.59-.8-7.1-2.37-.66-.69-4.77-56.28-3.34-73.09l3.48-40.78 127.79.37c22.63.07 44.03 4.88 66.93 1.97 2.99 13.19-2.46 20.88-7.36 30.69l-46.43 93.1-49.16 93.24c-5.06 9.6-17.2-4.64-19.88-10.12-6.99-14.29-20.86-25.55-29.68-38.07l-36.31-51.53ZM701.82 359.68c1.77.45 3.91.69 5.34 1.42-.08 2.19-.46 4.95.08 7.1-4.93.1-6.87 4.08-7.58 8.65l-.91 5.91c-6.64 2.83-10.04 9.64-10.13 16.51l-.2 14.83c-.07 5.31 2.94 10.01 8.2 11.94.73 9.42 11.4 15.15 16.84 23.41 5.14 7.82 8.74 16.83 14.86 21.96 2.49 2.09 3.43 8.21 8.74 8.54-.36 9.2 10.82 20.97 17.86 28.95 2.51 2.84 3.26 7.9 8.73 7.91-1.08 8.11 5.18 13.39 10.2 18.37 2.14 2.13 2.93 8.02 7.8 9.08-1.01 9.3 13.16 20.04 18.8 28.55 3.05 4.61 3.39 11.93 11.47 11.44l-.25 3.59c5.22 8.73 9.31 20.18 19.54 23.43l.4 2.41c.73 4.41 2.63 8.36 7.37 8.49-.18 1.83-.31 4.57.3 6.27 1.62 4.58 5.69 7.95 9.91 9.97.32.62.69 1.36.71 1.98.1 4.51 3.41 7.76 7.93 7.81l-.27 3.44c-.49 6.27 4.74 11.35 11 11.87-.04 1.04-.11 2.43.23 3.36l5.07 13.8c-6.79.69-8.73-3.62-12.92-9.43L722.31 478.9c-14.61-20.27-25.64-40.58-42.55-59.19-9.37-10.31 13.25-53.82 22.1-60.04ZM564.27 423.45l-23.73 52.69c-2.23 4.95-12.39 8.18-12.43 5.07l-1.49-104.71c11.93-2 15.45 5.37 20.77 14.13s19.68 18.36 16.88 32.83Z" class="cls-3"/>
    <path d="M763.61 685.3c-7.82.47-11.32-7.21-16.06-13.71L642.98 528.01c-2.56-3.52-3.42-6.62-5.93-7.99-3.55-1.93-10.54-1.92-12.67 2.51l-11.05 22.94c-5.74 11.92-10.68 23.06-21.71 28.32l24.4-52.13c2.84-6.08 5.68-12.78 11.07-13.39 20.14-2.26 25.77 21.4 40.02 40.3l59.98 79.51c14.74 19.54 35.91 38.36 36.52 57.23Z" class="cls-1"/>
    <path d="M824.47 697.01c-9.02 5.3-21.61 5.57-30.28-.36l.57-3.94c8.33.49 23.21-3.22 29.7 4.3ZM884.51 695.62c-.18.8-.47 2.51-.11 3.21l-10.95-1.57.14-11.85c2.35-.15 5.04.2 7.21 1.74 2.56 1.81 3.85 5.27 3.71 8.47" class="cls-3"/>
    <path d="m794.77 692.71-.57 3.94-7.59.1c-.54-2.14-.88-5.95 2.02-7.72 2.33-1.43 4.83 2.7 6.15 3.68Z" class="cls-1"/>
    <path d="m579.39 252.75 57.47-116.32c4.92-9.96 10.44-18.58 11.71-28.79l64.68.93-26.34 55.27-44.12 87.36c-9.54 18.89-15.4 39-32.15 54.03-14.02-23.42-35.74-43.37-31.24-52.48Z" class="cls-5"/>
  </g>
</svg>
