<svg xmlns="http://www.w3.org/2000/svg" id="Capa_2" data-name="Capa 2" viewBox="0 0 400.33 221.54">
  <defs>
    <style>
      .cls-5,.cls-6{letter-spacing:-.08em}.cls-8{letter-spacing:-.09em}
    </style>
  </defs>
  <g id="Capa_1-2" data-name="Capa 1">
    <path d="M67.35 93.47c.02-.05.63-.86.68-.88.22-.1.45-.07.68-.07.15.57-.45.99-.54 1.43-.22 1.17.3 2.31.81 3.32-.65-.1-.98-.12-1.29-.81-.23-.52-.5-2.5-.34-2.99"/>
    <path d="M71.28 43.15c.39.72-.03 1.43-.12 2.12-.1.78-.48 3.2-.38 3.79.02.12.28.14.36.3.4.79.08.86.81 1.46.63.51.48 4.49.72 5.52.14.57.59 1.06.65 1.52.1.7.07 2.66-.02 3.38-.13 1.06-1.03 2.18-1.08 3.14-.06 1.12.67 2.43.55 3.59.24.05.27-.07.38-.23.34-.44.5-1.24.81-1.77.83-1.42 2.91-2.92 3.61-4.26.12-.23 1.06-3.21 1.15-3.59.18-.78.44-2.98.4-3.77-.1-2.45-2.42-5.27-2.57-7.88-.04-.63-.17-1.94.55-2.11l.41 2.98.81-1.08c.18.86-.26 1.96-.1 2.75.31 1.54 2.41 3.86 2.41 5.73v2.78l.48-.13 3.79-2.72c.2-1.18-.04-2.42.07-3.59.05-.53.14-1.38.81-1.16-.04 2.01 1.07 4.12.51 6.14-.29 1.06-2.66 1.91-3.41 2.69-1.36 1.4-2.44 3.99-3.55 5.54-.72 1.01-2.12 1.91-2.88 2.95-1.88 2.55-3.68 12.29-1.33 14.65.52.52 1.6.94 2.18.31.38-.41.88-2.12 1.27-2.8 1.4-2.37 5.01-2.51 5.88-4.29.52-1.07-.06-2.23.14-3.39.14-.83 1.05-1.75 1.33-2.6.47-1.42.46-4.05.4-5.57s-.79-3.29.74-4.4c.5.36-.01.7-.06 1.02-.27 1.88.48 2.91.68 4.47.12.97-.17 1.95-.14 2.92.52-.39.68-1.27 1.02-1.76.43-.62 1.32-1.13 1.72-1.81.82-1.38.67-3.49 2.07-4.57.23-.03.21 0 .21.2-.05 2.81-1.89 4.77-3.15 7.03-.53.96-2.7 5.24-2.77 6.06-.01.15-.06.37.15.41.13.02 1.74-1.18 2.14-1.38.6-.3 2.76-.92 3.01-1.2.31-.35.41-1.36.61-1.83.43-1.04 2.69-2.2 3.59-2.91 1.82-1.45 2.07-3.63 3.39-5.42.95.71-1.32 3.88-1.02 4.2.6.12 2.53-1.54 2.85-1.22.07 1.29-1.51 1.59-2.38 2.17-.97.65-4.06 2.9-4.37 3.9-.18.59-.07 1.35-.3 1.93 1.14-.07 1.86-1.06 2.67-1.6s1.65-.95 2.42-1.51c.22.61-1.01 1.95-1.49 2.31-.39.29-.99.21-.88.81l3.83.11c.43-.09 1.84-1.9 2.13-1.6.17 1.87-1.87 2.92-2.92 4.2-.46.56-1.75 2.89-1.91 3.53-.07.29.03.42.08.68 1-.43 2.1-.49 3.11-.88 1.32-.52 2.15-1.39 3.73-1.56.81-.08 1.75.1 2.56-.01 1.92-.25 3.45-2.78 5.32-3.5.91-.35 1.94-.46 2.9-.42.07.3-.47.52-.67.62-.85.42-1.72.55-2.57 1.09-1.53.98-2.35 2.84-4.08 3.65 1.18.8 2.64.27 3.93.61l-.16.66-6.13-.1c-1.92.1-3.21 1.6-4.96 1.96-.94.19-1.95.25-2.89.08l-1.86 2.49c-.27.36-2.27 2.03-2.03 2.37.2.02.39.15.6.13 1.27-.08 2.42-.83 3.77-.5 1.09.26 1.92 1.2 3.02 1.32 1.35.15 2.77-.85 3.87-.48.77.26.7 2.49.26 2.86-.49.41-3.29.92-4 .89-2.07-.11-3.26-1.77-4.89-1.89-1.02-.07-4.26.54-5.16 1.04-.63.35-.79.89-1.63 1.22-1.73.69-3.6.47-5.19 1.72-1.36 1.08-2.84 2.92-3.12 4.68 2.5 0 4.92-.18 7.27.79 2.2.9 2.39 1.85 5.17 1.15 1.41-.36 2.23-.75 3.07-1.95.76-1.08 1-2.04.89-3.38l.62.13c.17.25 0 1.3.06 1.71.02.17-.07.26.21.2.78-.15 1.17-1.33 1.87-1.66.3-.15 3.62-.92 3.76-.78.01.22.05.32-.14.47-.45.37-1.84.62-2.46.93-1.06.51-1.18 1.2-1.88 1.78-.3.25-.79.36-1.14.62s-1.8 1.71-1.54 2.15c.5.14.96.67 1.39.84 1.46.6 1.7-.23 2.92-.62.92-.3 1.57-.38 2.53-.86.69-.34 2.05-1.38 2.58-1.49 1.73-.35 3.76-.1 5.43-.53.52-.13.91-.65 1.43-.3s-.59 1.08-.91 1.23c-.41.2-.94.28-1.4.36-1.13.22-2.64.49-3.75.86-.48.16-2.39 1.62-2.61 2-.05.1-.09.14-.06.27.49-.21 1.39.24 1.69.21.1 0 .25-.17.42-.2.92-.13 1.86-.21 2.77-.42-.34 1.14-2.3 1.27-3.32 1.35-1.18.09-2.21.14-3.4.26-2.31.24-7.01-1.94-8.63-.26-.75.78.47 1.17.84 1.44.52.37 1.17 1.07 1.77 1.22.7.18 1.46-.08 2.14.23l.17.92h-1.97c-.34 0-1.48-.21-1.86-.31-1.47-.4-1.87-1.65-3.12-2.17-2.24-.92-8.5-2.02-10.79-1.5-4.48 1.01-4.94 5.27-5.67 9.11-1.1 5.79-2.13 10.97 1.61 16.08 4.7 6.42 10.97 3.96 16.77 7.9 2.87 1.95 4.15 4.97 7.38 6.73 2.24 1.22 3.64 2.05 6.19 1.13.39-.14 3.02-1.94 2.56-.56-.09.28-3.49 2.14-4.05 2.4-.18.25 1.28 1-.19 1.22-.09-.34-.96-.68-1.23-.68h-2.1c.23.46 1.31.59 1.49 1.02.12.29-.31.21-.47.2-.51-.04-1.33-.39-1.78-.66-.81-.47-1.09-1.23-2.21-1.24.03.48.26 1.15.61 1.49 1.09 1.09 2.52 1.38 3.58 2.25 1.24 1.01 1.59 2.74 1.31 4.27-.17.95-1.05 2.89-2.24 2.71.4-2.64.26-5.52-2.98-5.83.36 3.06 2.2 7.33 1.73 10.34-.16 1.02-1.08 1.62-1.17 1.96s.23.56-.11 1.08c-.15.23-.37.25-.51.45-1.2 1.68-1.35 4.19-2.26 6.15-1.04 2.24-2.91 3.85-3.84 6.46-.67 1.88-.47 3.82-.92 5.73-.04.17-.56 1.83-.91 1.46.12-.54.15-1 .13-1.56-.08-2.41-.83-4.72-.37-7.15.34-1.79 2.17-3.65 3.14-5.27.22-.36.68-1.6.79-1.72.13-.15.51-.07.66-.26.39-.51.08-1.55-.21-2.08-.85.82-1.64 1.71-2.35 2.66s-.96 1.47-1.49 2.58c-.93 1.95-2.15 4.02-2.33 6.22-.09 1.11.19 2.73-.07 3.73-.4 1.58-3.51 5.01-4.34 7.05-.8 1.97-1 5.09-1.73 6.68-.15.32-.43.29-.51.48-.37.87-.4 2.69-.78 3.8-.27.79-.77 1.42-1.06 2.19l-.47.14c.16-2.66.34-5.54-.18-8.17-.21-1.07-.5-2.37-1.38-3.09-.53.95-1.93 2.18-2.3 3.12-.49 1.23-.42 3-.84 4.31-.2.64-.62 1.1-.88 1.7-1.22 2.84-.32 5.45-.65 8.3-.03.29-.11.63-.41.74-.41-2.92-2.68-5.72-1.56-8.68.16-.43.97-1.17.15-1.48-.37.27-.83.56-1.09.95-.22.33-.34 1.01-.38 1.05-.07.08-.33-.02-.55.33-2.05 3.34-2.04 9.93-2.56 13.85-.17 1.33-.73 2.49-1 3.74-.25 1.12-.17 2.38-.56 3.4-.44.02-1.16 0-1.13-.6.03-.64.58-1.8.66-2.61.38-3.77-1-7.63-.93-11.38 0-.19.15-.43.14-.53-.01-.12-.31-.09-.39-.3-.15-.41-.1-1.21-.22-1.68s-1.36-2.94-1.77-2.84c-.35.39-.56.89-.89 1.29-.28.34-1.19 1.13-1.33 1.39-.17.33-.59 3.55-.58 4.04.01.93.54 2.09.65 3.02.04.29.19 1.13-.3 1.12-.26-.07-.53-.34-.67-.56-.19-.3-.84-2.39-.89-2.77-.31-2.48.6-5.16.42-7.74-.12-1.75-.71-3.48-.96-5.22-1.09 1.2-1.09 3.31-2.71 4.07.04-1.02.94-1.8 1.07-2.79.06-.46.17-3.56.11-3.9-.03-.15-.31-.44-.4-.67-.35-.93-.57-2.11-1.46-2.67-.26 1.24-.21 2.6-.44 3.83-.31 1.65-1.2 3.18-1.18 4.92.01 1.58.98 3.34.95 4.95l-1.22-1.15c-.83-2.11-1.49-4.07-1.2-6.36.1-.79.51-1.7.54-2.46.04-1.17-.07-3.13-.14-4.35-.12-2.02-.92-3.96-2.07-5.59l-.78-.17-1.19 3.22c-.8 2.16-.91 4.56-.56 6.87.21 1.4 1.27 2.44 1.19 3.87-.5.84-1.86-1.94-2-2.24-1.17-2.49-1.97-6.72-1.14-9.38.35-1.12 1.32-2.23 1.5-3.52.36-2.66-2.18-6.11-4.1-7.76-.3-.04-.16.04-.21.2-.91 3.05-2.57 6.26-1.83 9.43.63 2.67 1.63 4.31.41 7.19-.22.53-.47.77-1.02.95-.2-.67.2-1.18.28-1.69.51-3.54-2.4-6.18-2.02-9.89.07-.72.46-1.54.52-2.2.14-1.68-2.11-4.83-2.39-7.07-.15-1.21.11-2.58-.05-3.75-.08-.63-.5-1.39-.63-2.08-.21-1.14-.1-2.34-.32-3.48-.3-1.51-1.39-2.89-2.22-4.15-1.27 2.68-1.78 5.51-1.11 8.44.25 1.07.79 2.16 1.01 3.19.03.14.14.48-.1.44-.37-.94-1.18-1.62-1.61-2.53-.7-1.46-1.09-3.39-.96-5 .1-1.36.66-2.81.54-4.21-.02-.21-.4-1.29-.5-1.54-.88-2.22-2.44-3.38-4.04-5.05l-.23-3.09c-.77-.54-1.54-.08-2.22-.14-.2-.02-1.3-.28-1.56-.35-.62-.16-1.14-.95-1.62-1.36.61.03 1.19.31 1.82.34 1.37.08 2.61-.2 3.67-1.09.57-.48 1.06-1.3 1.69-1.83 1.99-1.66 4.05-1.37 6.37-2.03 3.44-.99 4.65-2.9 6.78-5.42 4.43-5.26 12.44-1.77 17.01-6.99.76-.87 2.78-5.37 2.99-6.51.17-.92.09-2.08.21-3.04.43-3.42 1.43-5.36.59-9.04-.57-2.52-3.07-9.98-4.49-11.92-1.37-1.88-2.77-1.95-5.01-1.78-3.99.3-6.84 4.98-10.95 2.97-2.05-1-3.87-3-6.05-3.84-2.44-.95-5.14-.5-7.66-.28-.66.06-2.18.85-2.93 1.06-.22.06-.42.12-.65.09.26-1.01 1.65-1.29 2.16-1.84.12-.13.23-.13.08-.34-.1-.14-2.85-1.41-3.15-1.46-.95-.13-1.85.48-2.75.1v-.27c.68-.03 1.35-.42 2-.51 2.05-.27 3.01 1.08 4.88 1.42 1.5.27 3.53.39 4.9-.3-.29-.29-2.47-2.49-2.17-2.78 1.52.24 1.78 1.78 3.25 2.37 1.73.69 3.7.99 5.55 1.77 1.65.7 3.95 2.44 5.63 2.24.6-.07 2.25-1.49 2.78-1.97.5-.45.93-.98 1.43-1.43l.05-.18c-.62-.92-1.71-.88-2.59-1.21-4.5-1.7-6.27-3.89-11.55-4.17-1.52-.08-3.09.52-4.33.4-.6-.06-4.36-1.15-4.56-1.55-.06-.23.09-.22.27-.27.68-.19 1.82.32 2.55.44 1.52.25 2.89.11 4.4-.14.18-.03.73-.03.65-.3-.79-.37-1.74-.66-2.37-1.29-.3-.3-.39-.66-.55-.82-.13-.13-.32.02-.54-.11-.67-.41-1.44-1.68-2.19-2.16-.86-.55-2.41-.81-3.16-1.31-.06-.04-.18-.17-.13-.2 1.05-.23 2.15-.13 3.12.33.87.41 1.51 1.2 2.25 1.68 1.03.67 2.44 1.13 3.53 1.76 2.06 1.18 2.63 2.09 5.4 2.07.74 0 1.61-.38 2.18-.41.45-.02 1.14.41 1.55-.08-.78-.56-1.38-1.35-2.1-1.96-2.23-1.88-5.29-2.82-5.99-5.94-.12-.53-.48-3.7.57-2.33.28.36.63 1.59.95 2.17.73 1.31 1.95 2.66 3.46 2.98v-1.97c0-.12.4-.73.48-1.01.1-.37.52-2.71.68-2.71 1.17 1.37-.36 3.74-.06 5.22.07.34.37.44.52.7.71 1.25.82 1.65 1.92 2.69 2.07 1.95 8.08 6.51 10.68 7.22 1.04.28 2.01.3 3.04.48 1.11.19 1.67.8 2.8-.25 1.4-1.28-.43-4.58-1.48-5.69-.81-.85-2.18-1.36-3.12-2.17-1.64-1.42-2.53-3.55-5.08-3.73-1.03-.07-1.56.56-2.54.37-.26-.05-1.15-.49-1.37-.67-.17-.14-1.02-1.13-.43-1.06s.89.54 1.26.64c1.02.28 1.76-.5 2.68-.51.45 0 2.42.63 2.51.54.06-.81-.89-.99-1.43-1.49-1.14-1.07-1.71-1.99-3.03-2.93-.77-.55-3.48-2.48-4.29-2.45s-2.8 2.18-4.03 1.82l-3.62-2.49c1.58-.37 3.17 1.24 4.75.82.42-.11.75-.58 1.21-.62.44-.58-4.35-1.87-4.61-1.97-1.77-.69-2.79-3.61-2.98-5.35l.52.02c.59.98 1.47 2.71 2.42 3.34.89.59 2.26.67 3.3.84-.1-3.49-4.59-4.55-4.74-7.87.29-.04.52.12.72.29 1 .81 2.09 2.31 3.14 3.24.28.24.59.45.88.67-.43-1.37-1.08-2.47-.91-3.97.02-.2.14-.84.37-.92.34 1.65 1.18 3.12 1.77 4.68s.66 2.43 1.6 3.96c1.38 2.26 1.2 1.37 3.18 2.37 1.28.65 2.3 2.63 3.89 2.82.35-.25-.59-4.41-1.12-4.85-.12-.1-.8-.28-1.09-.47-.55-.35-1.18-1.15-1.62-1.36-.94-.45-2.49-.42-3.45-1.02-.14-.09-.24 0-.17-.31h2.17c-.02-.74-.23-1.46-.31-2.2-.02-.17-.26-.27.1-.24.63.62 1 1.77 1.57 2.36.72.74 1.93 1 2.83 1.44.66-1.55-.93-2.88-1.08-4.27-.05-.49-.14-1.4.54-1.42-.29 1.61 1.08 2.57 1.65 3.84s.59 2.86 1.19 4.1c.2.41.58.72.75 1.15.45 1.17.3 2.95.82 4.34.45 1.19 2.9 3.91 3.93 4.75 1.26 1.02 2.89 1.35 4.2 2.45.7.59 2.07 2.7 2.83 2.67 2.26-.07 1.9-5.89 1.7-7.34-.39-2.81-1.91-5.03-4.49-6.22-.27-.13-.6-.09-.87-.21-2.11-.96-2.71-1.52-3.02-3.9-.16-1.23.05-2.97-.17-4.04-.22-1.09-2.29-5.44-3.02-6.34-.96-1.17-2.34-1.65-3.32-2.78-.06-.3.13-.19.34-.2.76-.05 1.27.31 1.9.68.21-1.47-1.02-2.72-1.58-3.98-.49-1.09-.79-2.13-.65-3.35.9-.05.69 1.14.96 1.68.47.92 2.33 2.21 2.94 3.43.52 1.05.28 2.11.68 3.12.1.25 1.39 2.17 1.52 2.08l1.23-6.72-1.63-4.2c0-.45.59-.39.82-.1.53 1.05 1.35 1.82 1.78 2.93.85 2.15.84 4.65.32 6.88-.09.4-.41.63-.41 1.09 0 .95.84 4.13 1.1 5.25.36 1.5.8 3.54 1.75 4.76s2.97 1.25 4.11 2.4l3.13 3.31c.04-.2.12-.39.14-.61.09-1.09-.59-4.45-.94-5.57-.93-2.92-4.8-4.67-3.6-8.07l.61-.13c-.28.99.12 2.09.2 3.12.75.53 1.4 1.21 2.3 1.5 1.69-2.44 2.2-7.67.22-9.98-.59-.68-1.66-1.08-1.63-2.1.29-.3 1.85 1.32 2.17 1.56.14.1.17.26.41.2l-.41-3.72 1.09-5.63h.41Zm9.35 43.81c.88-.04 1.77.05 2.64 0 1.87-.11 5.93-.48 7.38-1.57 2.23-1.67 3.49-5.09 4.87-7.47 1.23-2.13 2.47-4.05 4.36-5.67 0-.27-1.06-.22-1.29-.21-2.4.1-5.75.21-7.78 1.58-1.07.72-1.83 1.88-2.79 2.63-.42.33-1.28.62-1.48.82-.23.22-.59 1.1-.85 1.45-1.74 2.36-4.15 3.21-4.84 6.27-.17.74-.26 1.41-.2 2.17Zm-13.28 6.51c-.91 3.24 1.07 5.53 4.41 5.16.65-.07 1.38-.35 1.69-.95-1.09.15-3.26 1.3-4.14.28-.19-.22-.21-.45-.33-.69.64.1 2.53.37 3.05.27.15-.03.9-.6 1.02-.74 1.03-1.08.79-2.52.31-3.81l.29-.34c.99 1.1.72 2.18.68 3.53 1.33-1.04.36-4.11-1.22-4.34l-.07.41c-.08.08-1.6-.42-1.97-.42-.57 0-1.08.41-1.69.28 0-1.08 1.52-.89 2.3-.95v-.41c-2.25.09-3.68.38-4.34 2.71Zm26.43 51.27v-2.92c0-.5-1.08-1.7-1.5-2.02s-2.42-1.43-2.91-1.57c-.19-.06-.24.02-.2.2.77 1.55 2.24 2.57 3.23 3.96zm-28.87 1.15c.09-.75 0-1.79 0-2.58 0-.02-.22-.24-.27-.2-.26.66-.85 1.15-1.11 1.8-.72 1.79-.56 4.09-.11 5.93.39-.17.25-.77.36-1.2.29-1.12 1.01-2.69 1.13-3.75m22.5 8.21c.58-.09 1.17-.83 1.3-1.36.05-.2-.05-1.9-.08-2.24-.15-1.75-.72-5.09-1.51-6.63-.3-.6-.67-.75-.6.05.2 2.28 2.3 5.81 1.78 8.01-.09.37-1.13 1.9-.89 2.16Zm-10.85-6.38c.64-1.19.27-2.45-.23-3.63-.07-.17-.07-.4-.31-.44-.07 1.19-.45 2.85.24 3.89.08.13-.02.25.3.17Zm-37.14-2.98-2.04 1.42c-.92 1.09-1.43 2.12-1.21 3.6l1.61-1.17c.91-1.05 1.65-2.4 1.64-3.85m-5.69 1.49c-1.27.16-2.13-.67-2.82.77-1.1 2.26 2.7 4.54 2.83 6.83.3-.08.26-.37.28-.6.15-1.88-.49-4.01-.42-5.98.01-.34.17-.66.14-1.01Zm65.06 2.04c-.26-.04-.37.02-.55.2-.73.7-1.89 5.68-1.9 6.79-.02 1.7 1.44 2.74 2.11 4.14l.34-.1c.35-1.12.58-2.28.2-3.44-.12-.36-.43-.63-.54-.95-.82-2.34-.53-4.39.34-6.64m-60.86 8.41c.97-1.78 2.58-4.63 2.29-6.7-.08-.57-.46-.9-.53-1.44-1.65 1.3-3.15 2.65-2.98 4.95.05.64.58 2.49.91 3.02.09.14 0 .24.3.17Zm13.69-6.11c-.1 1.58.48 3.84 1.51 5.07 1.1 1.31 1.46.78.82-.68-.37-.86-.83-1.88-1.22-2.71-.25-.52-.73-1.22-1.11-1.67Zm27.52 5.29c1.94-.35 2.54-3.18 2.44-4.88-.84.42-.82 1.31-1.15 2.03-.15.33-1.41 2.73-1.29 2.85m-37.34-3.25c-.27.06-1.78 4.39-1.93 4.99-.28 1.15-.49 2.6.03 3.69.58.03 2.31-2.54 2.58-3.11.65-1.35.55-2.45.19-3.86-.08-.3-.48-1.8-.87-1.71m26.77 10.58v-4.41s-.42-.74-.5-.85c-.07-.09-.1-.37-.31-.17-.38.35-.11 4.95.81 5.43m-18.34.78c.11-.2-.05-4.19-.11-4.64-.05-.4-.31-1.08-.66-1.3-.69 2.38-1.65 5.25.47 7.19.18-.32-.01-.8.07-1.13.02-.1.22-.09.24-.12Zm44.63-4.99v3.32c0 .6-.55 1.45-.55 2.03 0 .16-.06.45.21.34.38-.16 1.11-.99 1.35-1.37 1.28-2.02.4-2.54-.7-4.15-.08-.12.02-.25-.3-.18Zm-4.33.14c-3.26.65-3.07 4.88-2.03 7.32l.79-.9c.74-.57 1.48-6.19 1.24-6.42m-46.77 3.59c.13-.65-.1-1.67 0-2.37-.77.71-3.06 2.86-3.06 3.87.17.48 1.04 3.38 1.58 2.18.27-.61.43-1.58.7-2.28.14-.36.72-1.09.78-1.39Zm39.85-.06c-.23.03-.61-.08-.79.03-.15.09-1 1.77-1.11 2.07-.43 1.2-.67 2.09.14 3.19l.28-.08c.86-1.59 1.3-3.41 1.48-5.2Zm-22.51.41c-.08-.05-.31-.04-.41.08-.37.46-1.26 3.84-.6 3.98 1.01-.23 1.48-3.76 1.01-4.06m-11.92 12.06c.14-1.79.26-3.84.14-5.64s-.69-3.45-2.04-4.67c-.26.99.29 1.96.13 2.98l-1.08-1.36c-1.05 3.16.69 6.43 2.84 8.68Zm13.83-1.49c-.21-1.26.96-2.65 1.09-3.73.07-.6.07-3.6-.48-3.87-.27-.06-.19.1-.27.26-.52 1.02-1.92 3.82-1.97 4.83-.05.94.77 2.16 1.63 2.5Zm22.64-4.13c.11-.55 0-1.79 0-2.44 0-.03-.22-.24-.27-.2-.37 1.16-.74 2.35-.68 3.59.08.6.9-.72.95-.95m-32.81 6.17c.21-.6.46-1.2.53-1.85.17-1.63.15-2.85.02-4.46-.04-.47.03-.95 0-1.42l-.5 1.05c-.34 1.17-.88 5.42-.37 6.39.05.09.27.33.33.28Zm-11.65-2.72v-3.05c0-.06-.44-.87-.51-.98-.31-.48-.41.1-.44.43-.09.94-.31 3.52.95 3.6m37.27-.88c.1-.72 0-1.8 0-2.58 0-.09-.13-.6-.41-.47-.22 1.08-.61 2.36.13 3.32.12.19.27-.25.27-.27Zm1.36-1.08c-.13.97.1 2.19 0 3.19.39.06.22-.09.29-.31.31-1.07.42-2.24.39-3.35-.44-.08-.62.03-.68.48Zm-23.86 9.15c.31.04.35 0 .52-.22s.65-1.23.76-1.54c.57-1.55-.12-3.13-.07-4.75-.24.14-.45.6-.57.86-.76 1.7-.59 3.82-.65 5.65Zm25.75-6.24c-.8.04-.79.76-1.11 1.26s-1.17 1.44-1.07 2.04c.02.11.48.21.42.5l1.68-2.31.07-1.48Zm1.9 18.99c.94-2.53-.16-5.5.64-7.97.43-1.32 1.72-1.99 2.55-3.01.97-1.21 1.39-2.8 1.28-4.34-1.01 1.03-1.64 2.5-2.64 3.53-.35.36-.87.59-1.16.91-.32.35-1.64 2.56-1.73 2.98-.31 1.53.15 5.38.58 6.96.07.26.23.81.48.95Zm-7.18-8.68c1.33-1.39 1.01-4.55-.47-5.7-.2.13-.19.26-.21.47-.08.72.04 3.04.14 3.81.07.55.45.9.55 1.42Zm-16.81-2.78c.07-.62-.05-1.34 0-1.97-.29.04-.14.63-.31.78-.09.09-.33 0-.49.26-.51.82-.91 3.2-.43 4.12.14.11.75-1.49.82-1.69.12-.38.36-1.15.4-1.5Zm3.24.62c-.64-.44-1.27 1.25-1.34 1.69-.1.65-.13 1.97-.15 2.7-.04 1.16-.06 2.47.14 3.6.22-.06.36-.5.44-.71.89-2.2 1.79-4.98.9-7.28Zm9.23 9.76c.36.04.52-.36.66-.63.29-.56 1.26-2.98 1.25-3.51-.01-.43-.21-.88-.35-1.29-.27-.75-.93-2.39-1.31-3.03-.12-.2-.31-.28-.52-.36-.05.74-.66 1.29-.78 2-.1.62-.06 1.63-.04 2.28.06 1.64.38 3.06 1.09 4.54m-7.05 3.25h.61c.76-1.33-.02-2.89.07-4.34-.33.15-.68 1.28-.68 1.56zm3.93 1.63c.05-1.13 1.33-1.66 1.37-2.78.04-1.19-.91-1.75-1.23-2.78-.98.69-.28 2.02-.27 2.92 0 .23-.14.46-.13.68 0 .54-.07 1.25 0 1.76.02.19.08.41.27.2Zm-7.05 2.17c.19-.78.4-2.26-.54-2.58-.11.12.04 2.4.54 2.58"/>
    <path d="M46.77 52.74c.22.03.83.32.91.23l.23-1.63 1.2 6.12c.9 1.31 1.24 4.55-.51 5.17-.44.16-4.53-2.2-5.39-2.43 0-1.45-1.1-2.24-.79-3.74-3.69-.57-.13 3.55-.69 4.19-1.66-.39-1.25-3.34-2.97-3.03-.03.8-.41 1.22.23 1.86-1.15-.12-2.06-.28-3.21 0l.23 1.4c-.61-.55-.81-1.33-1.83-.82.37 1.41 1.96 1.94 3.19 2.23v.92l-2.5-.7c.05 1.26 1.88.61 1.01 1.86 1.35 1.3 2.12 2.8 4.25 2.1l-1.14.47v.33c.92.81.26 1.55.56 2.47.4 1.24 3.02 1.48 4.1 1.83.94-1.83 1.84-2.32 3.74-2.96l3.05.88c-.83 2.16 1.04 4 1.13 6.21.03.84-.26 2.82-1.35 2.88l-.83-2.08c-1.08.23-1.71 1.3-1.93 2.31-1.02-.75-2.04-1.8-3.43-1.63.16-1.73 3.19-.99 3.2-3.02-.9-.47-.52.24-1.02.26-.45.01-.89-.28-1.33-.22s-.92.66-1.38.6c-.14-.02-1.69-.84-1.78-.97-.51-.73.24-1.78-.96-2.29-.58-.25-1.16-.19-1.77-.17-.22 1.54.47 1.31.88 2.02.26.45.23 1.44.48 1.79.19.27 1.21.32 1.61.74.16.16 1.02 1.85.92 1.97l-1.6-.93.23.93-1.46-.25-.25.49c-1.17-1.16-2.38-1.43-4.01-1.4.01.97-.3 2.17.92 2.33-.35.92-2.26.17-2.91-.19-1-.56-1.61-1.93-3.04-1.91l.92 1.05-.46.11.23 1.4-.69.12c.34.83 1.9.35 1.83 1.28-1.07-.24-1.86-.18-2.51-1.16.05 1.24 1.13 1.86.65 3.35-.13.37-1.83.99-1.58.15l-.23.11c-.12.11-1.41 2.69-1.49 2.93-.13.41.23.79.01 1.15-.28.49-2.42.86-.55 1.48 1.79.6 4.77.86 2.71-1.71h2.6c.01-.61.74-.88.79-1.07.02-.08.02-1.49 0-1.57-.09-.39-1.03-.9-.65-1.79.68-.18.24.44.79.49.82.07 1.6-.33 2.42-.26.11.92-.8.08-1.35.83-.38.53-1.04 2.72-.13 2.89 2.22.41 1.96-1.21 3.78-1.4l.25 1.61c1.53-.16 3.18.88 2.62 2.6-.16.5-.77.78-.82 1.27s.41 1.16.21 1.73l-1.81.72c-.29-1.27.93-2 .94-3.14.02-1.44-1.15-1.47-1.17-.12l-1.14-.23c-.4.41 2.33 2.99 0 3.03.05.42.76.08.45.81-.13.31-1.15.41-.68 1.75-1.36.24-2.23-.79-3.55-.93-1.39-.15-2.47.38-3.78.23-.07.09.15 1.48.24 1.69.11.26.61.09.44.52-.65.46-1.51 1.15-1.38 2.09.14 1.02 1.93 1.02 1.59 1.86-.28.69-1.83.35-1.59 1.54l-1.14-.23.46 1.39-.91-.23-.7 1.29-2.29.11.28 1.11 1.79.28v.7l-1.15-.23.18.42-.97.93c-.54-.32-1.11-.62-1.73-.31v1.74l-1.14.16-.22-1.53-1.03.89-1.03-.77c-.06-.12.83-.22.92-.93s-1 .1-.69-1.05c1.35-.35 1.5.43 2.52.7.25-1.51.34-6.53-2.06-4.19l.68-1.4h-3.43c-.34 1.02 2.46 0 2.06.81l-2.05 1.87.68.12c.11.73-.64 1.2-.81 1.86-.36 1.38.14 2.47-1.8 3.05-.52-.9-2.08-.95-1.73-2.11-.77.09-2.22-.33-2.63.48-.2.4.07.87-.58 1.03l.92 1.63c-.87.93-1.31-.45-1.74-1.02-.31-.42-1.07-.33-.55-1.19l-1.97.22-.53-.37c-.12-.44.76-2.76 1.13-3 .88-.55.73.33 1.37-1.39.29-.79.8-2.31-.39-2.65-1.38-.4-.87 1.15-1.43 1.73-.5.52-1.4.6-2.07.57.65-1.05.94-1.75.09-2.81-1.32.07-1.13.72-1.49 1.47-.1.22-.43.2-.45.33-.04.36.33.83.24 1.25-1.21-.29-2.87-1.08-2.06-2.56 1.23.77 2.37-.08 2.69-1.33.11-.44-.04-1.25.08-1.43.04-.06.9-.26 1.23-.5.69-.49 1.59-1.72 1.96-1.97.71-.48 3.37-.38 2.26-1.86-.47-.62-1.32 0-1.39-1.27l-2.49-.03.23-.46-.69.23c.02-1.34-1.02-1.23-2.06-1.17-.38.89.64 1.47.67 1.96.02.29-.32 3.07-.44 3.16-1.34.11-1.01-2.23-1.49-2.33l-1.71.93c-.32-.58.64-2.98.98-3.21.37-.26.84.37.52-.76-.15-.52-.58-.92-.81-1.39.77-.28 1.87 1.15 2.17 1.17.36.03.89-.25 1.37-.25.93-.01 1.82 0 2.73.23 1.25-1.47-.07-2.05-1.46-2.32.09-1.18.81-1.28 1.83-1.16-.31-1.8-.78-2.61-2.75-2.33v-1.4c.72-.16.31.58 1.02.7.25.04 2.61.14 1.95-.47-.34-.02-.92-.1-1.15-.34-.51-.53.3-1.3-1.12-1.07-.05-.05-.07-1.13-.24-1.45-.21-.4-1.41-.36-1.15-1.22.3-.98 2.9-.07 1.83 1.51h1.15c-.36 1.66.63 2.31 2.06 2.46l.7-1.19-.12-.35c-.9-.24-.49-.84-.61-1.59-.09-.15-1.33-.36-1.64-.54-1.23-.73.54-1.21.55-1.7l-.94-2.45 1.23.45c.19-.64 1.51-1.17 1.53-1.27.12-.68-.8-1.57-.47-2.44-1.1.33-1.64-.9-2.52-.47-.1-.58.38-1.01.45-1.53.04-.32-.94-3.46-1.13-3.66-.29-.32-1.17-.23-1.17-.98 0-.87 2.01-1.06 1.84-2.21l.34 1.4c.62-.65 1.61-.53 2-1.46.54-1.27-.23-1.59-.26-2.38-.01-.4.26-3.09.41-3.29l2.42-1.73c1.17 1.37-.92 2.45-.8 3.96 1.04.31.92-1.16 1.52-1.36l1.91-.04v.94c.5-.35.69.28 1.09.4.47.15 1.6.17 1.89.4.4.32.03 1.47.79 1.69.4.03 2.38-1.55 2.54-2.02.61-1.84-1.39-1.97-1.29-2.91.03-.26 1.4-2.11 1.62-2.59l1.69.35.39-.9c1.19-.43 1.09.91 1.5 1.16.34.21.94.1 1.17.26.38.27.74 2.72 2.11 2.51l.23-.59-1.14-.93.91-.7c-1.23-.15.57-2.25-.35-2.44-.63-.13-.95 1.78-2.48.88-.51-.3-.65-.59-1.51-1.01-.41-.2-.53-.91-1.05-.33-.33.37-.23 1.32-.81.81l.23-.58c-1.09-.32-1.68.71-2.75-.23l.68 1.63-2.75-.23v.7c2.89-.73 2.01 3-.46 2.45l.69-.81c-.92-.12-1.64.03-2.06.93l.91.47-1.03.47c-.84-1.69-1.18-3.48-1.74-5.24l1.4-1.51c-.79-.24-1.23.53-1.55.68-.21.1-.65-.03-.97.13-.47.24-1.34 2.95-2.74 2.45l-.23-1.86c1.84-.05-.59-1.45-1.38-1.17.2-.8.1-1.9.28-2.63.12-.52.62-.78.66-1.44.05-.83-1.19-2.66-.84-3.15.65-.94 1.9.25 2.52.24.82-.01.79-.86 1.16-.69.76.57.25 1.46 1.49 1.16l-.46.58c.58.84.91.74 1.83.58l-.69-.69.91-.24c.57-.83-2.36-2.29-2.74-2.68-.32-.33-.37-1.1-.92-1.39l.57-.34.37.9c.44.16 1.65-.07 1.76-.57-.21-.51-.24-2.34-.47-2.61-.09-.11-1.82-.78-1.78-.87l2.05-.81c.41 1.86 1.73 1.88 3.01.78l-.48-1.71.89.03.02.49c.33.79.66-.67 1.03-.75.67-.14.48 1.53 1.25 1.63-.05-.96.26-1.96-.42-2.73l.99-1.46c.6 1.1 1.69 1.57 1.03-.12-.44-1.11-.54-1.41-1.12-2.34-.45-.71-.19-1.75-.05-2.55 1.91-.72 2.72 1.31 4.37 1.29l-.23 1.16h1.37c.07-.06-.4-1.55-.5-1.71-.2-.34-.66-.35-.66-.51.01-.31.44-.6.49-1.16.06-.68-.31-1.31-.25-1.98.2-.24 1.8 1.36 1.37 1.86l.91-.23c.27.67-.39.69-.41.74-.26.67 1.22 1.3 1.78 1.13-1.05-1.22.05-1.75-.46-3.02l2.26-.5-.2-2.76 1.37.7v-.93c.33-.02.65-.02.97.07.83.22 1.59 2.15 2.12 2.03.84-.18-.28-1.94-.11-2.09h1.36c-.21-2.24 1.8-.51 2.07-.7l.23-1.63c-.78.5-1.11.79-2.06.46-.22-.8.35-.64.55-.94.46-.67 1.05-1.5 1.08-2.29l1.56-.26.51 2.28c.29.01 1.46.66 1.52.78.05.1-.33.55.03.79.28.19 1.12.2 1.4 0 .08-.05.9-1.54.9-1.63.01-.45-.53-.97-.63-1.46-.11-.54.03-1.08-.06-1.57-.2-1.08-1.35-1.65.6-1.97.65-2.26-.61-4.03-2.88-3.98-.08.07 1.02 1.89-.23 1.86-.76-2.09.59-3.89 2.81-3.27.21.06.55 1.02 1 1.37s1.5.7 2.04.74c.91.07 2.19-1.61 2.39-1.41.07 1.23 1.47.97.69 2.56.53-.18 1.14.36 1.49.38s.77-.4 1.12-.33c.3.06.48.64.94.65 1.28.04 1.68-2.07 1.87-2.11l2.6.72.23-1.87 1.82.24c.06 1.02-.8 1.47-.22 2.56l2.97-1.4-1.14-1.51c.02-.09 1.27-1.03 1.44-1.11.74-.35 1.24.27.85.99l1.83-.47c.13-.53-.57-.7-.63-1.07-.04-.26.22-.63.17-.89-.11-.63-.76-1.3-.34-1.99.65.69 1.43 1.18 1.51 2.22.02.33-.42 1.16.1 1.27.4.09.59-.66 1.13-.69.62-.03 1.47.77 2.19.69-.03.67-.35 1.25-.22 1.96.09.52.68.87.63 1.37-.06.68-1.23 1.73-.87 2.72h.99l.38-2.1 1.14.23c0-.69-.93-1.02-.91-1.75.01-.57.85-.77.92-1.4.01-.11-.13-2.03-.17-2.13-.52-1.36-3.1-.76-4.19-.3l-.04-1.83c-.34-.03-2.37-1.05-2.02-1.43.93-.14 1.04-.46 1.71.26l1.15-.49c1.35 3.34 4-.07 2.18-2.09 1-.17 1.05.26 1.36 1.07 1.92-.8 1.9.97 2.6 1.43.63.41 2.07-.16 1.77 1 .59.2.56-.67.84-.72.74-.12 1.91.93 2.1 1.59.18.6-.47 1.29.15 1.23.42-.14.95-1.27 1.09-1.35.23-.13.63.03.82-.09s.48-1.56 1.66-1.5c-.06-.46.19-2.05-.35-2.15-1.2.17-3.82 1.82-4.24.19.86-.02 1.54-.36 2.06-1.05-.34-.26-1.03-.12-.91-.81.38-.33 2.58.44 3.05.74s.34.72.62 1.01c.32.33 1.31.62 1.6 1.41l1.03-.59.56 1.06c.62.45 1.59-.34 2.28-.39l.05-1.12.56-.24c.59 2.03 3.61 1.41 3.32-.36-.01-.08-1.17-.18-.92-1.05.51-.51 1.51 1.46 1.56 1.79.05.37-.77.76-.25 1.88.56 1.19 3.18 1.04 2.14 3.21-.55.29-1.37-.37-1.85.46-.12.49.59.49.66.6.06.09-.66 1.67.14 2.07.63.32.07-1.25.68-1.36 3.27 1.3 1.89-.71 2.43-1.74.48-.93 2.46-2.36 2.61-2.72.48-1.11-.12-3.47 1.93-.61-.66.82-1.96 1.62-1.03 2.73.53.64 1.14.29.82 1.84l1.01-.25.48.48c.38-.34.76-.7.89-1.22.14-.58-1.06-2.06.83-1.8-.37.61-.13 1.31-.28 1.93-.18.74-.99 1.35-.53 2.27.26.52 1.3.44.8 2.09-1.12.06-1.82.45-2.85-.23l-.57 1.29c.03.43 1.31.01 1.82.47.29.26.23.91.6 1.03.66.22 1.6-.96 2.04-1.38.13.68.91.65.98.73.16.18-.06.9.39 1.12.53-.89.46-1.37 1.72-1.16l-.46-1.39 3.85-.97c.34-1.21-.02-2.1-.42-3.22 1.16-.26 1.07.29 1.63.8.32.29 1.07-.09.61 1.37-.14.44-.73.55-.64 1.09l.9.38c-.68 2.92.98 3.31 3.44 2.65l.35 1.16c1.33-1.09-.44-3.04 2.06-3.05 1.56 0 2.02.67 1.75 2.2-.68.33-1.74.67-2.2 1.32-.26.37-.76 1.98-.22 2.09.85-.02 2.25-.81 2.51-1.64.15-.48-.34-2.56.91-.69.63-.87 1.17-.17 1.95 0l-.46.46c.93-.16 2.11.39 1.6 1.4h1.61l.03 1.14.79.24c.28 1.22-.38 2.2-1.28 2.94-1.66-.72 1.22-2.73-.6-3.84-.7.33-1.8 1.19-1.91 1.98-.07.56.63 1.01-.7 1.04.87 1.43-.72 1.91-.45 3.26 1-.12 1.43-1.41 2.52-1.16.24.82-1.16 3.16-.46 3.62l1.13-.15c-.21-.88.41-1.27.6-1.83.15-.45.03-.96.22-1.41.23-.53 1.31-.84 1.04-1.86 1.21-.31.8.48 1.25.93.23.23.66.15.82.38.18.24.1.8.44 1.13.4.39 1.23.12 1.15.7-.7 1.74-1.78-.8-3.15.64-.57.6.15 1.93-.06 2.73.89-.32 1.97-.46 2.4-1.4-.01 1.83 1.9 2.39 2.39.6.1-.32.46-.1.59.09.67 1.01-2.35 2.6-1.61 4.19.03.08.96 1.24 1.03 1.28 1.31.8 2.19-.59 2.55-1.71 1.77-.43 1.07.84 1.44 1.38.23.34 1.05-.02 1.16.68.68-.26 1.1-1.07 1.6-1.41.18-.12 1.59-.97 1.73-1.04 2.36-1.14 1.59 2.07 1.7 2.22.13.18.99.38 1.39.68 1.15.85.8 1.55.57 2.8l-2.06-.23.68.35-.83 1.04-1.23-.45c-.31.25.32 2.86.71 3.13.45.31.86-.15.66 1.06l1.37-.23.35 1.63.56-1.3 1.38.14c-1.26 2.5-.3 2.42 2.06 2.33v.94c.64-.38 1.53.07 1.91.02.11-.01.72-1.48 1.75-.95v.7h-.92c.38.77.4 1.57-.35 2.09-1.06 0 .96-1.3 0-1.39-.61-.06-.75 1.07-.83 1.13-.28.19-1.55-.27-1.77.66l.69 2.83 1.34.27c.2.67-.58.44-.81.93-.17.37-.02.85-.16 1.12-.05.09-1.8.94-.24 1.41 1.05.32 1.9-.83 2.46-.8.23.01.65.5 1.04.38l-.11.93 2.29-.9c.23.85 1.94 2.43 1.45 3.2-2.52-.03-1.84 1.66-2.61 2.59-.42.5-1.93.36-1.72 1.87-.4.38-1.61-1.86-1.37-2.33-.76-.15-.99.57-1.53.92-.26.16-.54.05-.77.16s-.29.94-1.37.56c-.07.69.65.97.23 1.63l.67-.22c.03.74 1.69 1.57 2.24 1.57s1.34-1.35 2.13-1.12c.17.16-1.06 2.49-1.13 2.92-.18 1.02.26 2.17-.24 3.13 1.04.2 1.16-.49 1.61-1.22.08-.13.36-.17.39-.23.27-.67-.19-1.79.74-2.39-.3-.59-1.32 0-1.14-.81 2.56.31.93-1.66 1.15-1.86h1.14c-.19 1.07.82 2.79 1.83 2.8l-.47 1.85c-.82 0-2.35-.08-2.64.93-.3 1.03.77.43.82.48.09.47-.41.59-.44 1.03-.02.27.27 1.46.57 1.52 1.24.25.82-2.56 1.58-3.02l.11.93c.59.22.41-.35.5-.4.6-.33 1.06-.05.87.63h.68c.13-.13-.8-3.57.81-2.8.32.5-.1 1.15-.07 1.7.03.46.5 1.18.3 1.57-.5.98-3.65 1.73-3.1 3.49-.78-.38-1.35-.01-1.6.81.6 1 1.95-.23 2.29-.01.95.61.45 3.75 1.96 2.71.81-.56.88-1.31 2.39-.94-.41.81.08 2.01 1.02 1.87.12-.02.1-.43.28-.47.32-.08 1.43-.07 1.68.11l.22.82-1.14.24c-.18.85.69 1.1 1.31 1.34 2.09.81 4.61.56 3.68 3.85-.65 2.29-2.39-.99-3.61-.54.54-.95.05-1.44-.8-1.87-.33-.17-.08-.32-.45.02-.67.62-.58 1.7-.11 2.42.71 1.07 2.93-.07 2.97 1.64.02.67-.55.19-.94.45-.03 1.62-1.34.74-1.59 2 .91.02 1.85.78 2.7.89.61.08.96-.19 1.33-.17.48.02 1.02.97 1.44.06l.04-1.24c2.12-.03 1.23-.76 1.46-1.65.21-.81 1.6-1.75.82-3.25l1.8.26c.46 1.02-.74 1.85-.63 2.6.26 1.69 5.85 3.94-.49 5.06-.05-.37.37-.15.54-.52.44-.98-.34-1.84-1.35-1.83s-.7 1.14-1.05 1.39c-.26.19-.86-.2-1.2-.14-.62.1-1.16 1.33-2.52.83-.29-.11-.3-.53-.42-.6-.11-.07-2.23-.67-2.39-.68-.8-.03-1.62.52-2.37.73.23 1.29 1.42 1.2 1.84 1.63.27.28.18.75.35 1.04.53.96 2.99 1.3 4 1.17v.93c.72-.21 1.33-.37 2.03.03-.23.74.42 1.58.45 1.99s-.75.72-.2 1.13h1.38c.66-1.15 1.32-1.74 2.4-2.45.47.31.07.83.32 1.23.23.37.98.38 1.25.61.25.21 0 .58.43.79.82.4 1.2-.86 2-1.01.38 1.26-.72 2.7-1.96 2.49-.55-.09-.66-2.77-2.62-.74l.69 1.27c-.8-.01-1.79.82-2.42.93-.67.11-1.11-.21-1.6-.2-.58.01-1.21.79-1.93-.14l.68-1.05-3.52-.5-.3-.32.16-.58-3.89-.23c.07.35 1.04.6 1.31.64.81.13 1.99-.24 2.35.52-.53-.16-2.92 1.18-2.52 1.63 1.4-.05 1.95 1.39 3.4 1.2l.04 1.36c.29.01.62.08.81-.23.17-.28-.53-1.03.21-.93.66.39.65 1.24 1.03 1.75.68.94 2.24.99 1.01 2.92-1.27-.13-2.12-1.1-3.37-.28l-.61-1.14c-1.49-.07-.62.98-.45 1.86l1.01-.21c.8 1.98 1.53 1.15 2.72 1.37.08.02.5.47 1.41.72 2.14.59-1.03 1.9-1.14 2.08-.27.46 0 1.43-.21 2.11-.35 1.14-1.99 1.24-1.73 2.55-.6.1-.35-.09-.48-.33-.42-.84-.72-2.01-1.8-2.36-.88-.29-1.5.2-2.3-.11l-.12 1.4-.81-1.16-.46.17c-.25 1.64-.75-.65-.9-.78l-.92.14c-.22-.98.77-1.02.69-1.74l-2.68-2.88c-1.71.06-3.43-.64-5.11-.04-.42.64 1.62 1.95 1.83 2.56-1.26-.21-1.93-1.72-2.9-2.29-.4-.23-.41-.39-.76.08.1.66.52 1.06 1.08 1.35l1.7 3.39.66.03-.46-1.63 2.48.27.95 1.59c-1.25.47-1.68.03-2.75-.46-.41.41 2.28 2.15 2.69 2.26.32.09.64.08.97.06l-.12-1.16 1.38 1.63.34-1.63c.65-.22 1.3 1.4 1.49 1.39 1.22-1.71 1.85-.46 1.61 1.18-.34 2.3-.76 1.15-1.95 1.74-.36.18-.58 1.07-1.26 1.28-.18-.84-1.47-4.14-2.48-3.91-.25.06-1.97 1.63-2.21 1.35.1-1.23-1.05-2.64-2.28-2.57v-2.55c-1.38.38-1.33-.44-1.86-.8-.82-.55-2.01-.43-1.82-2.23l1.6-.12c-.27-.59-1.55-2.45-2.17-2.46-.99-.01-.38 1.7-.49 2.31-.1.55-.82.59-.54 1.43-.82.27-.25-.92-.57-.94-.62.18-2.47.01-2.17 1.04.02.06.78.27.46 1.06.83.06 2.01-.29 2.53.57.66 1.11-.42 1.6-.15 2.47.29.96 2.48 1.19 2.19 2.65l-.51.33-.85-.19.46 2.09c-.46.1-.61-.45-1.02-.46-.71-.02-1.39 1.14-2.63.57-.82-.37-1.06-2.51-1.14-3.37h.68l-.23-2.1c1.12.46 1.78.06 2.4 1.39.33-.22.32-.45.35-.8.08-.97-.21-.33-.47-.5-.16-.1-.19-.43-.39-.58-.54-.39-1.04.38-1.66.25-.22-.28-.02-1.08-.05-1.13-.07-.12-1.95-1.12-2.34-1.44-.43-.35-.53-1.27-1.49-1.18l.21-1.38c-.44-.2-1.04-.12-1.44-.25-.05-.02-.81-.3-.85-.32-.45-.2-.85-.56-1.26-.83l-.23.7c-1.24-1.09-2.08-2.25-3.48-3.22-1-.69-2.04-1.04-3.03-1.58-.39-.21-.5-.7-1.06-.8-.23-.04-2.47.44-2.58.51s-.19.65-.38.89c-.33.4-.87.35-.81.81.08.65.87.83 1.28 1.28.94 1.02 1.06 1.15 2.15 2 1.6 1.26-1.24 1.21-1.34 1.3-.06.06.03.43-.08.59-.25.34-.81.1-.39 1.01l-.91-.23-.21.83c-1.43.02-1.42.23-2.07 1.38.67 1 1.47-.28 1.94-.28l2.17 1.09c-1.58-.47-2.98-.48-3.33 1.41l-2.15-.47-.24 2.09c-.43.58-.86-1.57-1.25-1.6l-1.15.67-.12-.46-1.02.69c-.67-.5-.22-1.22-.12-1.86l-.89-.03c-.06-2.44-2.49-2.77-2.54-5.19.79-.98 1.5.55 2.28.69s1.34-.45.76-.83c-.7-.45-1.66-.55-1.9-1.74l.69-.12c-1.61-2.34.28-1.02 1.37-2.09l-1.83-.47c1.29-.83 4.15.3 4.12-1.63l-1.25.47c-.78-.57.34-.59.53-1.08.41-1.02-.43-.69-.97-1.04-.79-.52-.86-1.35-2.07-1.13-.37.07-.63.4-1.15.47-.73.1-1.65-.1-2.41-.01l1.77-.41 3.72-2.27c-.51-.07-1.15-.97-1.29-1.02-.74-.26-2.33.42-2.6 1.25l1.83.35c-.64-.03-1.3.07-1.94 0-.31-.03-.59-.4-.7-.4s-1.01 1.07-1.71.64c.14-.4.62-.26 1.04-.68.54-.54.42-1.08.69-1.64.08-.16.44-.19.5-.29.19-.33.01-1.14.05-1.57-.76.03-1.35-.22-1.82-.83l.46-.35-.78-.22-.85 2.28-2.49-.2.92-1.75-.46-.46c1.24-.58.67-2.36.96-2.87.05-.08.55-.25.76-.5.26-.29.5-.92.79-1.07.73-.37 2.03.09 2.82-.16.57-.18.61-1.14 1.15-1.1.98.67 1.25 1.43 2.67 1.14.1.37-.32.15-.39.29-.13.28-.04.61-.19.88-.16.28-.78.06-.57.7 1.05-.21 1.44.81 1.87 1.61l2.71-.43.35 1.39h1.03l.21 1.06c3.4.52.75-1.07.91-2.08 3.63-2.11-3.04-2.86-4.56-2.71-.05-.41.52-.22.8-.23.57-.02 1.15.02 1.72 0 .12-1.27-2.51-.45-2.75-.7v-.7l1.92.45.37-.56c-.13-.61-1.62-.73-2.13-.59-.31.08-.04.78-1.16.7-.29-.02-2.95-1.09-3.06-1.22-.12-.15-.12-.63-.29-.87 1.52.62 2.5-1.49 1.95-2.57-.2-.4-.8-.29-.81-.69l1.75-1.11c.88.51 2.35-.05 2.93.89.21.35.06.89.47 1.15l1.02-.93v1.16l.47-.12.22.83c1.21-.66 1.72.14 1.2 1.34-.44 1.01-1.93.89-.95 3.06.95.28 1.63-.26 2.49-.45l-.19-.42 1.54-.77c-.22-1.66-1.59-3.02.94-3.7-.19 2.28.73.69 1.49.46.08-.02.03.74 1.36.48l.13-.72.23.93c.89.37 1.09-.65 1.3-.7.42-.1 1 .11 1.51-.04s.83-1.11 1.53-1.12l-.69-.46.46-1.39c-1.49-.54-1.68 1.01-2.41 1.17-.46.1-.98-.9-1.94-.48.59-1.3 2.28-.57 2.96-1.77-.64-1.62-2.98-2.38-3.54-.33-.26.96.3 1.54-1.02 1.65.46 1.21-.26 1.65-1.14 2.32l.45-1.29c-.48-1.82-2.52-.94-3.43-1.39-.36-.18-.68-1.14-1.14-1.4l2.74-2.21c-2.88-.19-5.43 2.7-8.14 2.8-2.16.08-.3-2.22.27-2.32.2-.03 1.06 1.01 2.67.63 1.09-.26 3.85-3.38 1.54-3.79l.69-.81-1.83.46.04-.89 2.02-.74c-1.09-1.52-3.29 1.23-4.81 1.17l.13 1.41c-1.18.14-.63.76-1.03 1.29-.25.33-1.47.58-1.74 1.26-.38-.66.91-2.51.21-3.05s-1.31.37-1.86.45c-.99.14-1.17-.61-2.03.96H112c-.54-1.22-1.63-.75-.68.24.23.24.76.22.95.71l2.13-.7c-.55 1.33 1.13 1.65 1.16 1.76.18.72-.48 1.56-1.16 1.73-.09-.73-1.18-1.67-1.86-1.52-.63.15-3.42 2.58-2.49 3.61l-6.18 1.16 2.05-.59c.92-.63.2-2.08.26-2.18s.68-.12.66-.49l-2.06-.58c1.23-1.16.58-3.7 2.98-3.61l-.23-.46 1.14-.24c.03-.73-.78-1.03-1.35-1.19-.25-.8.39-.68.79-1.12.25-.27.53-.84.72-.96 1.11-.7 3.83-.19 3.5-2.77-.88-.4-2.18.77-2.51-.6-.16-.68.4-.02.68-.21.33-.23.51-1.11.86-1.32.37-.23.94.06 1.09-.2.06-.09.77-1.9.79-2.01.05-.26 0-.54 0-.8-.68.93-2.41-.28-2.83-.2-.36.07-.54.81-1.06.66.61-1.07 2.15-1.56 1.83-3.03-.79-.18-.16.55-.74.77-.48.18-1.13-.28-1.78.04-.3.15-.47.94-1.02 1.05l-.14-.9c-1.09-.56-3.25-.26-2.9 1.32l1.79 1.09c-.99.76-2.74 3.36-4.06 2.74-.93-.43.42-1.14.57-1.63.1-.32 0-.73.11-1.05.22-.66.87-.87.4-1.81l-1.52 1.65c-1.27-.86-1.99.53-2.51.63-.27.05-.65-.22-1.06-.14-.52.09-.77.72-1.31.66l.12-1.18-1.17-.68c-.18-.3.36-.87-.22-1.17-.87.15-1.19 1.16-2.17.93l.91-2.33-1.91.67-.86-1.57-.89-.03c-.09-.06 1.36-2.28.35-1.86l-1.72 2.79c-.48-.27-.07-1.38-.68-1.75-1.26-.77-1.46 1.51-1.84 2.22l1.37.58-2.17 5.01-.12-2.4c-1.05-.32-.15-2.81-.28-3.15-.01-.03-.31-.04-.39-.22-.22-.52-.28-1.15-.71-1.59l-1.14.13-.1-1.88-1.51-.57.47-1.16c-.74 0-.41-1.56-.18-1.92.1-.15.79-.43 1.07-.66 1.11-.96 2.16-2.02 3.34-2.89l.11 2.09h-.92v.69c.6.03 1.63.41 1.93.95.28.49.63 1.68-.11 1.74l.04.43c.19.56 1.33.63 1.12 1.55l.92-.24-.23-.69 1.03.46.95-1.59 2.13.2.11-1.65c.95-.3 1.71-.43 1.27-1.61h.92c.29-.96-1.3-2.27.34-2.35 1.22-.06 1.29.84 1.26 1.89l1.8-.26.49-1.83-1.14-.12c1.14-.61 1.13-1.63 1.95-2.45.56.7.16 1.59-.12 2.33.16.13 1.69-.7 2.06-.82.22-.07.73-.32.69.12-2.68.7-2.77 2.15-2.38 4.67l-2.88.92c.84-.4 1.22.45 1.3.46.47.11 1.05-.1 1.52 0 .24.06-.08.71 1.08.35 2.27-.7.96-1.56 1.4-2.19.11-.16 1.28-.18 1.68-.98.21-.43.01-1.28.89-1.11.56.11.92 1.68.82 2.16-.2 1.02-2.53 1.66-1.59 3.39 2.18-.81 3.96.09 4.8-2.79l-.67-.38.22-1.02c-2.38.66-.08-.47-.68-1.63h1.15v-.7c-1.54.38-1.53-1.09-2.19-2.08l-2.16-.25 2.06-1.16c-.73.18-.54-2.05-.92-2.33l-1.6.93-.12-.71-2.82-.02-.26-1.36c-1.01-.2-.71.93-1.71.94-.64 0-.19-.83-.8-.94-.18.97.45 2.62-.46 3.26.17-1.16.51-2.54.01-3.63-1.23-.88-4.37 3.35-6.2 1.99l.68-1.28-.34-.34-1.8 1.61c-.81-.89-2.08-.79-1.75-2.31h.92v-.7l-.92-.11c-.7-.57.23-1.22.23-1.64 0-.35-.51-.64-.47-1.15 0-.07.95-.5.7-1.06-.82-.11-1.54.2-2.18.7l-.23-.48c-.87.7-1.88.51-2.7.76-.9.27-1.11 2.02-2.22 1.81l.68-4.89c-1.18.35-1.34 1.55-1.66 2.62-.89 2.97-.12 5.75-1.78 8.33-.84-.02-1.05-.93-1.36-1.54l-.68.13c-.05-.82-.81-1.75-.88-2.49-.09-.97 1-3.63-.11-4.1-1.24-.46-.92.99-.4 1.7-1.1-.62-2.32 3.97-2.98 3.26.08-.74.86-1.22.91-1.99.08-1.41-.53-3.46-.17-5.06.16-.74 1.9-2.37 2.26-3.29.15-.39.74-3.43.68-3.74l-.68-.13c.21-2.72-1.89-1.73-1.61.57.07.53.38 1 .44 1.53l.45-.58.21.44c-.33 1.04-.7 2.24-1.25 3.17-.17.3.04.59-.57.46.17-1.14.43-2.65.18-3.79-.14-.65-.91-1.2-1.04-1.74-.19-.75.05-1.44-.23-2.33-.1-.32-.93-1.78-1.31-1.69-.75.16.02 1.44.06 1.8.08.69-.02 1.38.08 2.02.55 3.51 1.64 6.66 1.12 10.39l-.57-1.16c-1.64.59-2.42 2.99-1.5 4.48.05.08 1.46 1.09.35 1.33-1.27.28-1.12-4.3-.8-5.12l-1.73.93c-.17.28.41 2.77.32 3.13-.08.31-.62.37-.77.6-.61.97.33 2.66 1.49 2.56l.23-.7.23 1.63-1.37-.47v.7c-.83-.16-2.25-.14-3.08.01-1.01.19-1.66 1.17-2.93.45-.54-.31-.44-1.35-1.67 0-.48.53-.52 1.26-1.02 1.64v-1.17H58.3c-.23-1.02.91-1.3.69-2.33l-1.04.45c-1.11.25.76-1.37.83-1.49 1-1.72-1.84-1.71-2.07-.93-.23.58.76.93.67 1.36s-2.09 1.21-1.6 2.47c-.65-.17.18-1.67 0-1.86-.6.04-.74.58-1.47.47-.68-.1-.8-.98-1.5-.94l.9 3.47c-1.34.85-1.89-.98-3.05-.91s-.94 1.05-1.27 1.29c-.31.23-1.2.07-1.38-.31-.64-1.38 1.29-5.02-1.83-4.72-.22 1.01.29 1.81.44 2.7.04.23.18.86-.21.79l-.23-1.63-1.14.46c-.4-1.01.18-2.65-1.38-2.56.46.7.27 1.67.51 2.39.3.9 1.92 2.18 1.78 3.55-.03.42-1.98-.28-2.18-.57-.33.26-.37.35-.3.76.15 1.01 2.45 2.37 3.17 3.19-.15-.02-.31 0-.46 0-.38.6 1.26 2.71 1.6 2.33.11-.87-.61-1.71-1.14-2.33ZM90.73 4.28l-1.49-.46c-.47.32-.35.9-.34 1.39.67.05 1.81-.01 1.83-.93m-.23 4.65c-.12-.16 1.01-1.54-.23-2.22-1.3-.71-2.07 2.43-1.37 3.39-1.27.03-1.67 1.21-1.26 2.34l1.47.47.02.92c1.68-.36 1.11-1.02 1.47-2.11.25-.75 1.29-1.24.78-2.52zm8.65-.88c-.05-.08-1.45-1.1-1.55-.98v1.38l1.6.24c-.01-.21.06-.45-.05-.65Zm-13.7 1.13.35 1.15c1.07-.69 2.16-.02 1.94-1.72-.32-2.44-2.76-.79-3.91-.26-.25.12-.56-.1-.62-.06-.13.08-.53 1.17-1.17 1.22.84 2.33 1.01.15 1.82-.22.48-.22 1.08-.13 1.59-.11m-9.14 1.15c.11-.76-.26-1.18-.8-1.63-1.18 1.12-.07 1.51.44 2.34.17.28.08.86.35 1.05.24.17.73.04.99.16.47.23.66.79 1.31.64-.34-.81-.83-5.28-1.61-2.57h-.67Zm-2.13 2.63c-.14-.18-.58-.33-.79-.49-.96-.17-1.4 1.54-2 2.06-.52.45-1.25.43-1.57.67-.24.18-.38 1.21-.95 1.41-.55-.44-.9-1.3-1.71-1.15 0 1.29-2.36 2.16-2.04 3.32.1.37.8.62.66 1.21l-.92-.11c.1.94-.07 1.87-.13 2.8-.02.39-.24.61.25.92.55.11.33-.45.34-.81.02-.65-.07-1.31.04-1.94l.65-.27c-.42 2.04.73.86.69-.47l1.49.69c.56-.58.21-1.32.79-1.98.45-.5 1.07-.45 1.5-.8.48-.39.58-1.47 1.55-.92 1.06.6 1.22 1.95 2.97 1.56.47-.1 1.25-.64 1.07-1.22-.03-.09-1.27-1.28-1.33-1.45-.24-.74.08-2.25-.56-3.05Zm12.61-.24c-1.21-.63-2.02 2.3-1.56 3.2l-.91.11 1.49.34c.76.83.22 3.28 1.37 3.27 1.32-.39 1.62-1.53 1.72-2.8l-2.06.23c.35-1.38.61-2.57.46-4.08l-.41.05c-.06-.09-.05-.32-.09-.34Zm8.51-.06c-1.59-.23-1.03 3.48-2.37 3.22-.22-.04-.45-.46-.78-.59-1.26-.49-2.44-.14-2.57 1.33 1.52-.71 2.53 1.22 3.14 1.37.47.12.77-.33 1.13-.37s.83.35 1.23.07c.77-.61.17-1.31.22-1.85.01-.17.43-.03.49-.48.13-.96-.24-1.8-.48-2.7Zm-41.63 3.06c-.66 1.69.57 4.91 2.48 2.87.3-.32 1.21-2.15.94-2.56-.6-.92-1.03-.34-1.71-.37-.55-.02-1.08-.42-1.71.06m5.92 3.23c-.13-.39-1.29-4.09-2.06-3.26-.41.64 1.65 3.65 2.06 3.26m61.96-1.81c-1.46.26-2.21 6.08.78 3.33.41-.38 2.27-3.2 1.27-3.33-.65.49-1.59-.08-2.04 0Zm-60.13 5.54c-.32-.69.46-1.78.41-2.17-.03-.23-.41-.57-.49-.9-.19-.8-.03-1.88-.83-2.29-.4 1.29.6 2.51.69 3.86.04.63-.59 1.69.22 1.5m15.8-5.36h-.68c-.27 1.18-.53 3.16.44 4.04.25.23.61.11.67.17.11.12 0 2.13.83 2.54l.31-3.59c-1.09-.71-1.62-1.84-1.57-3.17Zm14.59.53c-.61-.6-1.75-.06-2.24.52-.69.81-.88 1.32-1.31 2.16-.29.56-.93.82-.75 1.68h-.91c-.04.44 1.13 1.39 1.37 1.18l.81-2.09.34 1.16h.68l.49-2.3 1.14-.17c.03-.73 1.01-1.5.37-2.13Zm7.39 5.29c-.33-.35 1.37-2.35.81-3.26-.16-.26-.77-.35-.93-.7-.21-.45.03-1.27-.33-1.54-1.26-.6-2.01 1.29-2.35 1.48-.26.15-.79-.02-.86.05-.12.11-.44 3.23.76 2.77l.84-.67c.38.96-1.32 1.98-1.14 2.68.19.75 2.17-.39 2.75-.11l-.69 1.86h1.83c-1.47.92-2.97 3.12-1.48 4.66.61.25.5-1.31.57-1.4 1.41 1.09 2.38-1.21 2.07-2.55.52-.08 1.76-.18 2.13-.45.56-.41.74-2.26.05-2.84s-.85.24-1.51.25l-.37-1.15zm-49.23-1.16c1.08.1 1.98-.28 2.63-1.15l-1.16-2.79c-2.48.67.04 2.62-1.46 3.94Zm7.78 2.09c-.66-1.72.98-4.09-1.14-4.88.56 1.22.45 1.58 0 2.8-.07.08-.75-.84-.91-.11-.18.82 1 2.9 2.05 2.2Zm51.53-1.39c1.27-.69 2.58-1.85 2.28-3.49-.2-.27-2.83 2.73-2.28 3.49m-50.44-1.01c-.21.27-.79.16-.6.86.08.31.92.9 1.21.83.88-.39.47-2.06-.21-2.31-.52-.19-.24.42-.4.62m10.55 1.43c.38-.64-.45-2.05-1.09-1.72-1.07.55-1.08 2.11-1.17 2.2-.1.1-.63-.07-1.01.25-.18.16-.63 1.25-.57 1.51l.57.36c.54-.39.42-1.15 1.26-.93l-.46 1.16c.91.25 3.1 2.4 3.23.12.14-2.5-2.38-1.1-2.54-1.28v-.7c.99.2.81-.2 1.26-.7.13-.14.47-.17.53-.27Zm50.62-1.09c-1.08-.34-1.97 1.09-2.83-.02-.65.57-.7 1.32-.31 2.06l2.03.03v1.17c1.21-.48 1.72-2.03 1.11-3.23Zm-79.88 1.14c-.2-.15-.76.06-.91.35.99.03 1.04 1.24.69 1.98.59-.04.85-.14 1.03.47l.38-.89.88-.04c-.58 1.16 1.38 2.57 1.38 2.91.01.95-1.07.09-1.38.71l.69 1.04-.89.26.2 1.6-1.38.11-.22.82c1.05.16 2.06-.37 3.1-.25.83.1 1.75 1.23 3.08.72 0 .4-1 .26-1.27.24-1.1-.06-2.18-.4-3.31-.24.45 1.43-.61 2.34-.68 3.71 1.7.89 2.45-1.06 3.65-1.85l.46 1.63-1.37.23 2.03-.03.94-2.76.23 2.63.92.63-.23-1.63c.12-.13 1.41.92 1.37.12 0-.07-.43-.38-.55-.6-.58-1.15-.81-2.27-1.93-3.12 1.27-1.17-.14-1.86-.61-2.91-.29-.64-.37-1.43-.58-2.1h-.68l-.23.69-1.38-2.09-.68.93c-.55-1.04.88-1.67.68-2.21-.28-.75-1.67.36-2.37.28-.95-.12-1-1.27-1.07-1.33Zm45.55.47c-2.12.12-3.64 3.07-1.47 4.42 1.17-1.55 2.28-2.21 1.47-4.42m-26.33 1.4.59 1.4c.29.28 2.59.21 2.06-.94-.44-.96-1.87-.8-2.64-1.04-.37-.11-.59-.51-.79-.59-.62-.26-.59 1.73-.34 2.09l-.69.13-.8-1.29c-.47-.09-.39.19-.29.53.09.32 1.02 2.61 1.14 2.69.21.13.67-.03.93.09.35.15.58.59.77.63.18.03.88-.58 1.43-.22l.25-.69-2.06-.58c.63-.43.29-.89.22-1.52l-.45.23c-.26-.71-.21-1 .68-.92Zm5.96-.94c-1.47-.14-1.32.51-1.84 1.47-.08.15-.45.16-.47.3-.08.74 1.08 1.4 1.5 1.97.96-1.13.85-2.31.8-3.73Zm49 .7c-.8-.22-.76.5-1.17.79-.78.56-2.26.98-2.04 2.24 2.16.12 3.69-.56 3.2-3.03ZM88.9 25.94c-.17-.09-2.39 1.1-2.46 1.22-.04.06-.5 1.39-.5 1.47-.03.3.21.64.17.89s-.75.72-.67 1.27l-1.34.04c-.38 1.04.78 1.56.88 2.26.07.48-.32 1.06-.2 1.54.05.2.93.41.7 1.1h1.03l-.12.7c.54.15.39-.14.52-.3.34-.4 1.47-1.56 1.5-1.95l-1.06-2.25c.44-.76.69-1.62 1.05-2.42.16-.36.59-.61.69-.93.31-1.02-.42-1.71-.18-2.63Zm-33.89 3.03c-.91-.59-.75-1.64-1.71-2.33-.24-.17-1.14-.69-1.26-.11l1.14 2.44-.91-.7-.48 2.43c.88.23 1.25.86 1.39 1.77-.85.28-.87-.74-1.26-.92-1.47-.68.24 1.62.26 1.73.09.7-.6 1.27.68 1.76l-2.19 4.66c1.05.45 2.8-1.14 3.22.46h.33c1.21-1.44 1.53-2.01 3.55-2.09.05-.97-.93-.57-1.45-.73l-.35-.35q-.075-1.38-.03-2.76c.045-1.38.62-1.29-.24-2.09l.58-1.06c.66.3.72 3.5.86 4.25.38 2.06 2.4 3.54 3.18 5.51.93-.16 2.57-.39 2.49.96.62.18.4-.33.67-.58.4-.37.96-.56 1.25-1.06.31-.54.24-1.3.57-1.75.42-.57 1.53-.45 1.82-1.2-.25-.7-.79-2.81-1.69-2.65-.61 1.49-1.13-.08-2.18.48-.14-.14.88-2.08.34-2.56-.49.4-.39 1.14-.7 1.62-.27.43-.83.52-1.04.81-.24.34-.12.77-.27 1-.1.15-.52.17-.6.44-.16.53.78 2.4-.36 3.11-.12 0-1.33-1.99-.92-1.86l1.03.46-.92-5.59c-.14-.11-.52.47-.58.69-.15.54.09 1.43-.33 1.64-.09-.6-.25-1.92-.5-2.41s-.69-.28-.89-.54c-.35-.45-.58-2.22-.68-2.87h-.91c.08-1.26-.14-2.57-1.6-2.57l.68 2.56Zm63.19 1.86c.2.25 2.29-1.85 2.4-2.1.2-.44.25-2.33-.22-2.32-.82.46-1.13 2.11-2.18 1.77-.34-.11-1.22-1.1-1.49-.61-.88 2.23 2.03 1.26 1.5 3.27Zm-80.63-3.22L36 27.57l.23.45c-1.77.08-1.03 1.73-1.25 2.11-.04.06-.97 1.01-1.04 1.05-1.05.53-2.2-.02-1.38 2.21l-.68-.16-.21-.98.43-.25c-.92-.15-1.54.13-1.58 1.14.81.04 1.11 1.49 1.73 1.61 1.02.21 1.03-1.61 1-2.28.06-.06 1.42.21 1.6.35.35.27.21 1.18.92 1.04.35-.58-.4-2.22-.36-2.33.55-1.34 2.69-.04 2.89-.86l-.74-3.07Zm72.62-.04c-.77.1-1.99.74-2.39 1.42-.29.48-.11.81-.18 1.03-.04.13-.38.02-.43.45-.04.4-.03 1.37.36 1.53.32-1.01 1-.55 1.73-.8.6-.21.72-.77 1.69-.6.44.08.59.54 1.04.47.7-.65-2.9-1.49-3.2-1.4.02-.46.64-.07 1.04-.46.35-.34.36-1.16.33-1.64Zm-16.64 1.56c-.22-.17-.21-.71-.64-.62-.78.35-.46 1.65-.85 2.04-.25.26-.94.18-1.06.33s.05.65-.26 1.01c-.41.48-2.74.69-.6 1.52.24-.68.63-.49 1.28-.48l-.47 1.26c1.3.68.14.51.02 1.53 1.59-.32 2.17-2.37 3.89-2.57l-.27-.64c-2.23-.01-.05-1.02-.01-1.32.09-.75-.8-.36-.86-.71-.11-.57.33-.37.57-.38 1.06-.06-.66-.92-.73-.97Zm18.04 3.13c.46 3.67 1.81.14 2.6-.5.65-.53 1.5-.31 1.91-1.04-.51-1.2-1.77-1.8-2.91-2.21-.09.55-1.36 1.56-.65 2.04.24.17 1-.21.59.82-.19.48-1.11.68-1.54.88Zm13.71-3.06c-.81.11-2.18-.71-2.84-.22-.96.72.31 2.03-.52 2.29-.96.3-1.35-.61-2.14-.91-.46.77.52 2.22.45 2.33-.04.06-.97.24-.68 1.17l1.83-.7-.23-.69c1.03-.21.72.95 1.68.92 1.53-.05 4.81-1.46 3.01-3.25-.43-.1-1.17 1.29-1.48.93-.59-.69 1.24-1.54.91-1.86Zm-55.05 1.31c1.5-2.88-3.92-.79-3.31 1.1.08.25.27.41.53.39.5-.56 1.79-.27 1.97-.35.06-.03.74-1.02.8-1.14Zm60.72.26c.17-.17.72-1.26.17-1.34-.69-.1-2.26 1.31-1.11 1.62.24.06.76-.1.94-.28m-47.34-.87c-.55-.11-.9.57-1.31.66-.3.06-.72-.22-.74-.19-.04.04-.01.81-.29 1.11s-1.21.27-1.31.75c1.52.24 3.72-.5 3.66-2.33Zm18.04 2.29c.35-.61-.32-2.44-.98-2.28-.64.43-1.57 3.22-.46 3.23.09 0 1.4-.88 1.44-.95m-41.39-1.82c-.72-.06-1.33-.25-2.04.02l-.02 1.14c.8-.09 2.27-.01 2.06-1.16m11.44 3.96c.95-2.63 1.34-2.99-1.84-2.46l-.22 2.23zm-32.73.47c-.36-.93.08-3.45-1.46-2.53-.83.5-.9 1.4-.83 2.3-.75.25-2.16-.47-2.63 0-.3.29-.61 1.39-1.03 1.76 1.21.81 1.94 2.36 1.83 3.84 1.25.13.7-.61.83-1.18.18-.73 1.86-1.63 2.05-.68 1.63.32 1.16-2.45 2.04-2.8.29.59.75 1.16 1.49 1.16.12-.84-.5-3.81-1.62-2.67-.2.21.19.7-.67.81Zm85.85 2.56h4.81c.19-1.4.78-1.95-.23-3.26.49.15 1.38-1.19 1.15-1.4-.76.3-1.25-.68-1.71-.7-1.08-.03-2.05 1.51-2.53 2.32l-.45-.46c-.56.53-1.03 1.28-1.03 2.1l.68-.12zm-5.98-3.93c-.08-.07-1.98-.2-2.14-.16-.35.1-2.61 1.29-1.8 1.75l1.44.25c.04.63.05 1.28-.05 1.91-.16 1.01-1.44 2.94.52 2.59 0-.24-.07-.52.05-.73.06-.1 1.68-1.51 1.79-1.56.37-.17.75-.14 1.14-.12l-.23-1.16c1.03-.29 2.24-.38 2.97-1.29-.97-.55-1.88.6-2.81.31-.81-.24-.72-1.67-.88-1.8ZM80.65 40.5c.28-1.37 0-4.88 0-6.52 0-.04.58-.8-.11-.58-.17.05-1.33.63-1.38.7-1.07 1.47.63 5.44.57 7.22.24.27.87-.58.91-.81Zm24.27-6.64-2.06-.13c-.48.97-1.65 1.49-1.61 2.69l-1.13-.45c-.9 1.77-.25 1.65.92 2.66.56.48.29 1.13 1.58.83l-.91 2.09.91-.23c.02.55-.18 1.24.35 1.63.36.08 2.03-1.77.8-1.98.78-1.8 2.4.42 2.98-.35.35-.46-1.53-2.63-2.52-1.63-.44-2.25 3.17-1.45 2.52-3.96-1.05-.25-1.43.73-2.29.93l.46-2.09Zm-86.08 9.56h3.32s.36.31.34.46c-1.28-.22-2.21.6-3.2 1.28 1.66 1.34 3.97.33 5.72 1.75.5-.51-2.03-1.29-1.83-2.21.15-.69 1.3.19 1.37.11.02-1.01 1.24-1.82.89-2.87l-1.8-1.32c.65-.52 1.18.33 1.6.13.99-.83 1.58-2.89-.1-3.17l-.37.93c-1.94-.08-2.7-.61-1.82-2.55-.74-.03-1.31-1.05-2.06-.59l.91 1.75-1.14-.46-.25 1.96c.05.19 2.28.56 2.08 1.54l-.92-.12c-.32.24 0 .66-.2.95-.35.46-3.11 1.87-2.54 2.44Zm11.62-7.87c-.25-.14-.59-.03-.87-.05-.09.62-.03 1.87.8 1.87.98 0 .43-1.62.06-1.82Zm105.58.43c-1.15-.73-3.36 1.85-1.47 1.86 1.02 0 1.75-.83 1.47-1.86m-84.92 1.15c-.42-.01-2.33-1.23-2.52-.35-.11.56 2.66 1.69 2.52.35m-22.67-.47c-.75-.05-1.53-.05-2.05.58-.03.63 2.23.25 2.05-.58m3.87.26-.66-.03c-.31.29 1.07 3.04 1.92 2.78l.59-.8c-.87-.52-1.64-.8-1.86-1.95Zm107.4 2.3h-.68c-.24.98.74.93.47 1.97l-.69.13c-.07 1.25.64 2.97 2.12 2.52.96-.29 1.5-3.54-.3-2.99l.46-1.16-1.36.21v-.68Zm-17.17 3.03c1.16.03.97-2.45.34-2.79-.52-.1-.32.23-.34.58-.05.73.03 1.48 0 2.22Zm-84.28-.91-2.16-.65-.78.95c.74 1.22 1.5 1.77 2.93 1.29v-1.58Zm41.7 2.54c.26-.24-.94-2.98-1.49-3.26-.84 0-.09 3.95 1.49 3.26m40.98-2.56c-1.24.15-.58 1.86-1.58 2.48-.08.42.77 1.09 1.15.64 1.05-1.25-.05-1.72.44-3.12Zm7.03 2.04c.28-.55-.68-.9-.01-1.46l-.49-.58-4.23 4.31c-.06.68.83.19 1.32.41.07.03.08.33.21.4.51.28.97.05 1.21.82l-1.37.11-.02 1.85-.67.13.8 1.28.24-.48.56.25c.17-.45-.43-.87-.36-1.18.12-.48 1.43-2.08 1.96-1.62l.24 1.16c.8.18.26-.66.57-1.17.13-.22.52-.25.69-.46l.49.91 1.92-.21-1.83.7c.8 2.22 2.96-.44 4.35-1.05 1.32-.58 2.79-.72 4.12-1.29-.09-.37-1.22-.74-1.46-.71-.14.02-.12.44-.29.48-.35.08-2.78.62-2.94.62s-.44-.38-.9-.4c-.55-.01-1.3.44-1.96.25l1.14-.58-1.35-.6c-.32-.47 1-1.89.09-2.08-.73-.15-1.37 1.19-1.25 1.86l.91-.23c-.61 1.16-1.94 1.37-3.09 1.62-.99-.81.9-1.75.98-1.91.14-.27-.02-.67.05-.96.05-.2.37-.17.39-.21Zm7.39-1.81c-1.11.14-1.96.72-3.2.46v.69c.73.46 1.33-.19 1.68-.18.23 0 1.37.19 1.81.24.27.03.82.85 1.2-.05.1-.23-.16-.65-.11-.94l-1.37.47v-.7Zm-93.58.53c-.75.77.45 1.64 1.19 1.8.71-.14-.14-2.88-1.19-1.8m-7.84 4.83c-.06-1.56.76-2.26-.58-3.49-.9-.83-2.07-1.1-1.66.52.06.25 2.47 4.22 2.7 4.48.33.39.58.67 1.14.58.35-1.45-1.08-1.09-.46-2.56zm29.98-1.41c.26-.77.06-1.63-.67-2.08v1.17h-.92v.68zm-36.39-1.62c-.64-.2-.41.42-.68.58-.49.29-1.11-.22-1.08.98.02.7 1.09 2.2 1.65 2.63.93.74 5.65 2.14 6.19.94.22-.49-1-1.31-.99-1.51 0-.15.43-.39.39-.67-.02-.11-1.11-1.43-1.24-1.78-.43-.2-1 1.11-.34 1.39-.48-.1-2.41-.12-2.48-.61l.19-.56c-.67.18-1.17.35-1.72-.22l.12-1.18Zm33.88.7c-1.47-.56-1.92-.09-1.37 1.39.8.14 1.3-.66 1.37-1.39m50.83 12.58c.09-.14 0-2.85 0-3.38 0-.05.39-.43.46-.35l-.23 2.33c.85.06 1.58.04 2.29-.47l-.23.93c1.11.29 1.12-.64 1.62-1.03 1.55-1.22 1.8-1.32 2.85-3.16.95-1.67.58-2.98 3.31-2.1l-1.14-.58c.02-1.03.89-.74.93-.94.17-.86-.47-1.23-.48-1.62 1.79-1.15.14-2.22-1.33-1.48l.07 1.38.82.22-.47 2.08c-.99-.4-1.36.69-1.52.73-.44.1-.93-.3-1.34-.04-.77.5-.57 1.56-.92 2.11-.26.41-1.27.6-1.25 1.41l-.45-.15c.04-1.91-2.35-1.17-2.3-3.21-.18-.46-1.54 1.34-1.58 1.44-.27.76-.46 4.06-.49 5.06 0 .33-.03 1.21.36 1.29.06.01.99-.42 1.02-.47m33.42-11.41c-.95-.81-2.62 2.47-2.97 3.08-.09.15-.38.17-.41.22-.19.4.53 1.22-.27 1.81l4.34-1.87-.68-3.24Zm-5.95.93c-1.09.05-2.85.37-2.12 1.82.2.41.66.47.71.56.35.61-1.26 1.97-1.12 3.1.08.61 1.01.94 1.51.61.81-.54 1.98-2.14 2.63-2.95l.68.14c-.38-.87.68-1.63.02-2.47-.74-.94-2.13.34-2.31.14v-.93ZM9.45 50.17c.95.11 1.42-.8 2.21-1.15.52-.23.88.08 1.22-.36-.59-.9-1.54-.91-2.51-1.05.24 1.42-1.35 1.09-.92 2.56m32.47.43c.61-.39.61-2.14-.65-1.83v.94l-2.97.23-.02 1.02c.99.21 1.07.87 1.64 1.4.27.26.98.52 1.07.66.15.25-.01.81.27 1.01.35.25 1.78.02 2.31 1.03.09-.37-.07-.54-.22-.82-.58-1.09-1.43-2.41-2.29-3.26-.14-.64.56-.18.88-.38Zm-12.55 4.94c.5.06 1.59-1.41 1.6-1.75-.2-.73-1.12-2.41-1.95-1.77-1.16.88-.05 3.73-.09 5.01-.75.06-.89.77-1.17.95-.41.26-1.2-.05-1.37.59 1.42.32 2.29 1.72 3.89 1.4l-1.6.23c-.29 2.21 2.85 2.27 3.9 3.85l1.59-.36c.19-.71-.55-.43-.86-.75-.69-.72-.14-1.56.85-1.36v-.92c-1.88.99-1.85-1.73-3.65-.93l.9-.81-2.04-3.37Zm100.28-2.57c-1.54-.4-1.81.84-2.76 1.51-.36.25-1.07.34-1.11.38-.27.31 0 2.45.89 2.31l-.46.69c1.32.22 1.06-.47 1.71-.95.2-.15.51.02.54-.02.09-.11.04-.47.17-.62.94-1.21 1.23-1.55 1.01-3.29Zm-9.2 2.37c-.37-.22-.99.14-1.42.12-.24-.01-.45-.28-.84-.28-1.23 0-2.27.6-1.81 1.98l1.37-.46c1.39 1.8-.24 4.82 2.98 4.77-.68 1.6-1.71.52-2.81.81-.13.03-.78 1.15-1.53.94-.11 1.04 1.21 1.05.15 2.02-.15.14-.5.1-.71.31-.43.44-1.14 2.36-1.18 3-.02.3.02.3.25.49l1.25-.47.46.93.81-.94-.12-1.86c-.23-.25-1.43 1.26-1.37.35 0-.14 1.18-.9.91-1.52l.68.24-.23-1.16.68.46c.02-.28-.09-.64.05-.88.05-.09 1.58-1.17 1.67-1.21.68-.3-.07 1.4.8 1.17-1.44 1.2-.64 2.1.57.47.57.45.3 1.23.34 1.86-.06.09-1.46-1.42-1.83-.24 1.43-.23.92.22 1.29.67.15.19.43.21.54.44.12.27.31 1.79.47 1.91 1.48-.4 2.69-1.38 3.32-2.79.77-.12-.43 1.08.46.93.83-.14 1.71-.78 2.83-.5l.25-.76.47-.14c-.03.97.95 1.43 1.49 2.1l.25-.48 1.03.34.21 1.3c.6.18.53-.63.85-.7.36-.08 1.28.13 1.43-.02l.03-.64c.99.02 2.32-.43 2.49-1.53l-.66-.39.21-.68c-2.15.13-3.63-.11-2.52-2.56-.31-.32-2.52 1.99-2.07 2.78h-1.59l.68-.92-1.83-.24 2.03-2.91c-.59-.71-1.08-1.07-1.8-.35l.23-1.63c-.98-.06-1.48.02-1.95.93s-1.28 3.91.35 3.73c-.33 1.24-1.24.93-2.29.93l.23-1.16c-1.12.6-1.64-.77-1.58-1.77.02-.44.53-.56.44-1.03-1.09-.23-1.51.47-2.17 1.16l-1.03-1.27.88-1.13-1.5-2.13.62-1.51c-.85.24-1.01-.78-1.19-.89Zm-73.03 3.18c.07-.04.84-1.45.72-1.59-.79.88-2.46-.34-1.61 1.53.2.14.67.19.89.06m-20.57 2.14c.2-1.22-.81-.73-1.37-1.05-.31-.18-.3-.95-.92-.81l.49 1.83zm114.25 0c-1.64-.58-3.8 1.79-1.37 1.51zm-126.86 5.1c.37-.59-.12-.81-.19-1.27-.15-.91.22-1.58-.82-2.2-.47-.18-.36.6-.79.81s-.93.1-1.38.11l1.15 1.98-.92 1.51c1.38.05 1.54-1.25 2.95-.95Zm128.69-3.01c-.26-.22-2.36.24-2.29 1.04.18.87 2.71-.68 2.29-1.04M27.56 65.52l-.14-1.38-.51-.42c-1.22-.36-2.55 1.42-3.62 2.04-.24.14-.6-.04-.33.6s1.45.22 1.59.37l.12.68c.67-1.14 2.82-3.5 2.64-.7.53-.4.72-.61 1.37-.23l-.13-.72zm-8.27-.67c-.92-.89-1.78-1.26-2.99-.57l.04.78c.07.09 1.7.32 2.04.61.25.21.16.68.37.83.34.24 1.34.21 1.8.45-.32-1.28 1.14-1.08.46-2.57-.51-.53-1.28-.49-1.95-.46zm127.49.51c-.07-.11-.45-.13-.53-.26-.14-.24.37-.89-.23-1.18l-1.25 1.05.7.5-.25 1.48c.77.3 2.02-.85 1.55-1.59ZM18.81 66.98c-.26-.43-4.36.12-4.32 1.36l2.52.47c-.13 1.38-.64 1.54-1.93 1.41-.51-1.9-1.85-.22-2.87-.01l.25 1.14c1.41-.39 2.18.12 3.41.72l-.22-1.16 1.13.21.06-.64.61-.06c-.27-1.73 1.96-1.51 1.38-3.44Zm10.33 1.13.91-.35c-4.2-2.4-1.21 3.06-.45 2.21zm-16.72-.23-1.83.23c-.04.6-.14 2.17.58 2.32.45.1 1.71-2.05 1.25-2.56Zm127.53.47c-1.61.38-3.67-.68-4.58 1.28.11.47 1.77.8 2.26.62l.26 1.6h.68c-.28-1.04 1.1-.73 1.34-1.56l.04-1.93Zm-10.98 2.32c1.55.59 1.68-.27 1.37-1.63-.65.31-1.49.76-1.37 1.63M11.74 73c-.13-.92-.8-1.77-1.49-2.32-.5-.4-1.2-1.11-1.71-.35-.21.8 2.94 2.93 3.2 2.67m106.23-1.62h-1.37l.46 2.79c.45-.22.15-1.16.28-1.69.06-.24.71-1.04.63-1.1m-89.34.29c-.53-.34-.89.07-.53.65.18.29 1.29.63 1.67.86.33.2.32.71.97.53-.09.4-.46.23-.71.79-.15.32-.35.96.01 1.2.25.17 3.69-.17 3.8-.35l.1-.95-1.14.46.23-.92c-.17-.22-3.28-1.28-3.83-1.59-.41-.23-.48-.64-.56-.69Zm98.5-.06c-.96-.11-1.13 1.52-1.6 1.76-1.07-.6-1.75.11-.49.59l-.2 1.14c.17.18 2.61-.59 2.52-1.39l-1.37.23c1.08-.78 1.34-.78 1.14-2.33m-105.8.25c-2.29.09-2.14 2.49-3.29 3.94-.29-1.16-.48-2.09-1.82-2.11-.57 0-1.05.38-1.6.47l-.36-.92-.35.48c-.44-.45-3.2-.33-2.02.43.38.25.93.08.77.72-.18.15-1.88-.32-1.6.35.58.26 1.58 1.76 2.03 1.88 1.36.35 2.83-.19 4.23.6 1.6.9 1.12 1.96.83 3.46h1.83c-.59-1.78 1.54-4.06-1.14-4.54.31-.54.12-1.04.74-1.35.78-.4.95.22 1.21.23.18 0 .97-.84 1.49-.63-.47-1-.27-2.05-.94-3.01Zm124.35 1.84c.08-1.42-1.99-1.94-2.74-.81 0 .43 2.28.94 2.74.81m10.99 4.2c.19-1.37.5-2.95-1.23-3.25l-1.98 2.43c.81 1.29 2.08 2.41 2.06 4.08.06.07 1.63-.18 1.78-.29.36-.26 1.32-3.04.97-3.44l-1.6.46Zm-127.99-.94c-.34-1.2-1.99-2.25-2.75-.81-.16.74 2.27.83 2.75.81m-5.95-1.16h-1.61v1.17h1.61zm7.32 3.73c.17-1.39-1.03-2.26-2.29-2.33l.29 1.1 1.99 1.23Zm132.34.93c-.77.16-.69-.46-1.14-.7l-.12 1.64.82.12.45-1.05ZM17.31 82.25c-.3-.57-.54-1.36-.54-2.02-1.04.32-2.06.91-2.52 1.98l1.04 1.28 1.03-.7c.03 1.04.73 1.52 1.72 1.4.28-.03.46.09.33-.34-.23-.79-.89-1.28-1.05-1.6Zm124.02 3.11c.01-.57-.09-1.11-.36-1.62-.55-1.02-1.34-1.49-2.03-2.13-.6-.55-.47-1.41-1.74-1.05-.18.05-1.84.97-1.93 1.07-1.27 1.35.66 1.37 1.24 1.75.83.56.22.89.27 1.4.04.4.4.43.27.95-.33 1.31-4.05 2.77-.75 3.69-.27.23-.5.66-.85.77-1.3.39-3.03-.82-1.51 1.46l2.13.91c-.55-.03-.82.66-1.15.81-.86.41-2.22-.17-3.2.12l-.23-.7c-.28.84-1.24.82-.92 2.09-1.59.23-3.49-.84-4.89.27-.24.19-.8.9-.6 1.13.36.43.55-.58.82-.66.65-.21 2.82-.01 3.3.66l-3.44-.23c-.08.42.29.9.24 1.25-.02.15-.42.12-.47.3-.06.25-.06 1.51.03 1.67.08.13 2.37 1.44 2.55 1.5.59.2.88.05 1.3-.41l-1.14-2.45c1.31.57 1.61-1.16 1.73-1.18.84-.14 1.49.77 2.26.72s1.6-1.26 2.48-1.13c.73.11 1.81 1.53 2.38 2.02l2.36.04-1.6.23v.46c.86-.03.17 1.55.92 2.22 0 .73-1.28.24-.24 1.39.13.14 1.51 1.35 1.61 1.4 1.48.7 2.03-1.43 2.29-2.45l2.29 1.4v-2.17c3.22-.98-1.89-2.61-2.28-2.24l-.12.68-.8-.93c.81.17 5.53-.64 4.55-2.08-.13-.18-1.12-.08-.89-.6.08-.19 3.58-3.05 1.26-3.06-.87 0-2.68 1.58-4.24.73-.54-.35.61-.84.46-1.05-.92-.61-2.22-.83-1.83-2.1h-1.37l.35-1.18.57.02-.46-1.63-2.97 1.4c.51-.63.64-1.1.23-1.86 1.17.38 1.26-.15 2.08-.57.33-.17.75.28 1.01-.6.9-.33.39 1.26 1.37.94.32-.11.26-1.03.8-1.05-.36-.51-.57-.55-1.14-.35Zm8.95-.96-.19-.57.61-.89-1.13-.85v.68c-1.26-.58-2.19 1.1-2.42 1.15-.34.08-1.12-.48-1.78.02-.25.19-.78 1.84-1.52 2 .96.24.64 1.38 1.07 1.76.34.3 1.91.66 2.38.58.91-.16 1.13-1.24 2.27-.6l-.23-.7 2.64-.22.11-2.34zm-140.1 1.14c-.12-.18 0-.64-.16-.88-1.85-.93.58 1.36-1.09 2.15-.34.16-.72.18-1.09.17l.2.59-.43.8c1.58.37 1.59-1.99 3.2-.35-3.08 2.28 1.24 2.5 2.95 1.48.38-1.49-1.44-1.36-.88-3.23.46.15.85.34.91-.34-.15-.71-3.24.17-3.62-.4Zm148.75.31c-1.43.17-2.3-.07-3.63-.5.23 1.37 2.01 1.02 2.69 1.46.16.1.26.57.5.77 1.18 1 2.64-.55 2.31-.83l-1.62-.11-.24-.79Zm-134.14-.03h-.69c-.48 3.06 2.04 3.18 2.75.47l-.78-.25c-.24.63-.53.51-1.16.49zm126.2 4.61c2.63 1.82 2.03-2.01-.05-1.82zm-1.19.28c.6-.58-2.96-2.08-3.2-1.86-.05.78.86.78 1.36 1.07.15.08.19.43.3.49.3.17 1.13.12 1.54.3m-117.23.23c-.18-2.79-3.06-1.1-4.5-1.01-.61.04-1.45-.32-2.14-.15l2.06 1.39c-.69-.34-2.97.09-3.28-.02-.33-.11-.36-.62-.62-.79-.41-.26-.97.07-1.25-.82-.96 2.14 1.17 4.44 3.32 4.32l1.03-1.76c1.24.74 5.73 2.73 6.88 1.87.23-.17.39-.4.33-.71l-2.06-.24.2-1.46-1.12-.85 1.14.23Zm122.72-.23c-.1-.47-2.07-1.63-2.29-1.39-.1.11-.02.83.23 1.05.41.35 1.52.36 2.06.35Zm-136.31.79c-.37-.16-2.37-.7-2.73-.71s-4.57.75-4.79.86-.3.47-.4.69l3.89-.46c-.59 1.63-2.21 2.24-1.14 4.19l1.6-.23-.91.46c-.14.32.34.82.62.9.21.06 2.48-.63 2.81-.78.77-.34 1.27-1.24 2.17-1.29s-.21 2.02.69 2.1l.33-1.29 1.85-.11c.29-1.12-1.17-.85-1.27-1.6 1.68-3.09-.18-1.41-1.32-1.69-.28-.07-1.18-.95-1.39-1.04Zm107.7-.32h-1.14c0 .75.09 1.47-.69 1.75l.69.11c.26 1.17-1.52 1.03-1.6 2.1.76.11 3.54-1.55 3.77-2.1.16-.38.15-.76.12-1.16l-1.14.23v-.93Zm-8.71 3.96c.69.18 3.52-.08 3.2-1.28-.73-.94-.74.27-1.07.35-.41.1-2.02-.12-2.13 0zm40.62.61c-.48-.61-1.87-1.97-2.61-1.19-.24 1.02-2.65 4.95-.17 4.3.17-.04.16-.37.48-.5.55-.21 1.17-.21 1.75-.19.28-1.18-.64-.28-.69-1.04.48-.52 1.65-.28 1.58-1.27-.11-.02-.28-.03-.34-.1Zm6.71-.79c-3.88.81 2.02 4.57 2.03.17-.27-.37-1.57-.26-2.03-.17M9.22 97.23c.01-.84 1.48-1.08 1.72-1.63.4-.88-2.9-.17-2.33.87.02.04.25.03.3.13.15.27-.08.69.31.62Zm125.01 1.87-2.28-.23c-.05.71-.04 1.78-.92 1.87 1.21.68 1.29 2.78 2.97 1.86l-.7-.81c.56-.92 1.16-1.46.93-2.68Zm1.83.46c-.54-.03-.4-.08-.46.35-.14 1.08.5 2.34-.68 2.8.31.48 1.03.34 1.38.7.29.29.06.99.56.82l.92-.68c.42-2.26-1.99-2.05-1.72-3.97Zm15.8 4.67c.08.08-.26 2.04.69 1.52.52-.28 1.21-3.6.68-4.2-.14-.16-3.56-1.8-3.88-1.87-.75-.16-1.34-.16-2.06.15v2.53l1.03.47c-.86.93 1 2.59 2 2.29.52-.16.76-1.12 1.54-.89m7.29-3.24-.79-.25.02-.94-1.49 1.86c.26.09.98.14 1.1.29.27.32-.38.72.57.59.19-.02.41-.14.58-.22v-1.33Zm-35.49 1.58.04-.32c-.49-.67-.98-.97-1.83-.82.1.47 1.16.38.45 1.04-1.21.84-1.4-.09-1.48-.12-.82-.26-.38.28-.48.47-.44.8-1.84 1.81-2.33 2.85-.04.08-.08 1.54-.05 1.8l1.14-.35c-1.39-1.44.89-1.49 1.77-.61l.31-.07c.36-.41.38-.98.68-1.42.45-.66 1.8-1.56 1.43-2.41l.36-.06Zm41.02-.91c-.79-.14-1.32.67-1.37 1.4h1.6zm-151.11 4.43c-.24 1.71 2.54 1.41 2.29.12-.14-.73-1.81-.07-2.29-.12m146.07.47c.14 1.11 1.47 1.13 2.06.34-.19-1.01-1.4-.5-2.06-.34m5.72 1.16c-1.49.16-2.68.67-3.98 1.39-.39.28.22.96.46 1.15.56.44 4.7 2.07 5.11 1.65.14-1.06.51-1.59-.79-1.86l-.36.92c-1.48.24-1.13-1.45-2.28-1.63.29-1.01 1.88.08 2.29-.23l-.46-1.4Z"/>
    <path d="M116.3 79.45c-.59.75-5.67 2.48-6.91 2.87-2.02.64-4.04 1.05-6.07 1.63.23.83 1 1.21 1.83 1.16.01.45-.71.12-.91.58-.29.65.52.56.46.7l-.46.58 2.05-.22c.46.87-.2 1.3-.21 1.94-.02 1 1.1 1.14.65 2.56-.06.2-2.36.88-2.59.86-.43-.05-.62-.5-.98-.66-.74-.31-3.86-1.39-4.41-.98 1.45 1.93 1.36 3.46-1.37 3.37.53 1.6 2.09.83 2.97 1.75-.8-.08-1.61-.33-2.41-.35-.37 0-.72.34-1.1.3-.3-.03-.62-.42-.96-.42-.49 0-.41.56-.74.7-.55.24-2.9.72-3.26.24l.46-.69c-1.71-.48-4.53 1.69-4.58-1.17 2.05-.04.9-1.51-.68-.7l.44-1.76c.86 0 1.48.39 1.94 1.09.27.41-.13.88.79.65.37-.8.98-2.16-.43-1.61l.23-1.16h-.66l-.02-1.4.46.7c.57.28.41-.87.91-.46.14.11.05.96.92.7l.8-2.09c1.13.57 1.55 2.16 2.86.92.03.85.11 1.54-.46 2.22-.18.22-.57.28-.7.5-.31.52-1.22 3.04.11 2.61.47-.24.7-1.29 1.05-1.49.47-.27 1.63.07 1.94-.81s-3.44-5.27.69-3.5c.61-.35.06-.8.16-1.23.2-.85 1.19-1.37 2.02-1.09.12.11-.71 2.39.12 2.79.19.04 1.89-1.63 1.72-2.09.41.13.34.6.82.9.31.19.64.3 1 .26-.9-1.42.58-4.07-1.83-3.73-.04-.44.72-.27.87-.51.14-.22-.05-.8.25-1.02 4.96-.16 8.93-2.87 13.41-4.52.25.15-.09.96-.19 1.09ZM57.76 57.39c-1.66-.14-1.01 1.72-.45 2.69l-.71.72c.12.73.15 1.3.93 1.48l.46-1.86c-.17.99.15 2.04.2 2.93 0 .13-.36.1-.43.26-.38.83-.19 1.75-.23 2.64-.64.13-.45-.24-.46-.7-.57.45-1.01-.22-1.45-.18-.81.07-1.6 1.35-1.53-.98l-.88-.03c.05-.84-.84-1.66-.94-2.19-.05-.27-.23-2.56-.22-2.81.03-.52.98-.93.67-1.73l-2.06-.23c0 .7.34 1.33.43 2 .04.24.19.85-.2.79-.46-2.48-1.54-4.58-1.14-7.22 1.12.64 2.33.15 3.09 1.4l.12-.93c.81.87 1.12-.03 2.06 0v1.4h.69c-.04-.59-.04-1.14.45-1.52-.78-.68-1.26-.33-1.28-1.59 0-.18.04-1.15.37-1.09.54.82 2.77 6.32 2.52 6.75ZM137.19 110.52l.25.93.45-.7v2.56l2.06-.46-.23 1.16h.69l-.22-1.62 1.13-.24c.43.63-.13 1.04-.14 1.28-.01.36.73 1.13.27 1.76-1.36.44-2.23.85-3.56.22-.27.59.45.4.47.6.07.59-1.22 2.45-1.78 2.62-1.29.39-.87-.82-1.9-.65-.31 1.63 1.56 1.53 1.14 3.03l-3.44-.23.2-1.36c-.85-.51-3.48-1.97-2.68-3.27.09-.15 2.94-1.56 3.11-1.61.82-.21 1.72.06 2.56-.08.21-.82.92-3.81.26-4.3-.55-.36-1.01.37-1.51.36-1.34-.01-.89-3.73-1.25-4.66 1.36 1.43 2.8 2.83 3.42 4.79l.68-.13ZM100.8 66.01v.93c.8-.27 2.52-.48 2.29.7l1.14-.23c-1.06 1.42-1.18 2.25.53 3.07l2.22.65-3.43.24c.99 2.25-3.15 2.2-2.29 4.19l-2.52.23-.23-1.86.57.14.34-.61-2.37-.99c-.83-2.07.85-3.17.78-4.01l-1.16-1.64 1.12-.39.15-.67 2.86.24ZM105.84 99.34c-.08.61-.53.76-.46 1.49.06.64.85 1.46.83 2.12-.02.53-.92 1.4-.59 2.21.84-.75 1.35-.73 2.4-.46.26.07.42-.18.34.34-1.24 1.36-1.15 2.15-.68 3.85-2.22-.57-2.28 3.24-4.35 1.28l.44-.12c.11-.71-.63-.73-1.13-.69l.22-.67c-.64-.83-3.48-.16-3.6-.83l.17-1.29c.54.39.56 1.1 1.44 1.1 1.44 0 2.23-1.39 2.22-2.73l-.66-.02c-.59-1.24 1.47-4.05.55-4.88-.32-.29-.83-.05-.81-.46.49.05.62-.57.85-.71.97-.6 1.87.28 2.81.48ZM73.56 44.11c2.38-.89 4.21 1.84 4.58 3.96l1.14-1.4c-.69 1.57-.15 3.08-.22 4.53-.05 1-.65 2.12-.69 3.15l-1.34-1.31c-.08-.41.91-1.24.2-1.83-1.01-.84-1.36-.12-1.67-.16-.6-.09-1.37-1-2.34.03-1.19-2.27-1.64-5.97.34-7.92v.93ZM47.91 83.02c-.06 1.14-.94.54-1.51.49-1.95-.16 1.11 1.25 1.18 1.37.2.35.04.85.16 1.24.15.47.72.66.85 1.46.53 3.28-2.85 4.94-5.48 3.36v-1.39l.68.23c-.03-.84.18-2.09-.68-2.44.81-.35 2.08-2.3.69-2.45-.02.36-.36 1.28-.8 1.16-.39-1.09-1.92-.71-1.13-1.86l-2.42-2.1c1.77.33 3.58.22 5.36.49 1.02.15 2.09 1 3.11.44Zm-1.6 5.6c-1.69-.46-2.36.42-1.82 2.08l1.09-.02.72-2.05ZM77.72 60.83c.19.27 1.04.21 1.39.35.38.15.52.54.98.64 1.02.2 2.3-.49 2.96.72.71 1.32.24 2.99-.35 4.26-.4.86-1 2.14-2.03 1.54l.23-.93-1.83.7v-1.86c-1.47-.22-1.09 1.8-2.98.93v-1.86c.37 0 1.72.06 1.61-.58l-1.39-2.09.47-.23-.92-1.28 1.72-.93c.22-.05.03.46.15.64ZM38.53 103.29l.79-.24.81-1.85c-.3 1.75.57 3.29.59 4.91-.22.31-1.9.31-2.27.18s-.46-.78-1-1.08c-.26-.14-2.05-.6-2.13-.51l.04.89c.92-.1 1.63 1.51 1.84 1.63.37.22 1.22-.37 1.57.16l-.47 1.27-2.74-1.17-.27 1.7-.76.39c-.6-.19-.16-1.89-.55-2.42-.26-.36-.86.25-.7-.71.06-.34.38-.6.44-.95.36-1.98-1.58-1.89-1.59-2.32 1.13-1.62 1.81-.2 2.17-.17.37.03 1.54-1.38 2.86-.76.4.19.55.91 1.15.81-.1-.81.79-2.11-.23-2.44.52-.55 1.24-.37 1.26-1.28.93 1.42-.93 2.46-.8 3.96ZM88.86 70.71c.17.62.92 1.04.93 1.71.01.7-.61 1.12-.66 1.75 1-.28.71-1.39 2.06-.69l-.83 1.6c-2.52.07-1.14 2.51-2.06 3.26-1.29 1.04-1.19.04-1.51-.16-.78-.49-2.76.8-2.93.65-.55-.89.72-1.11.69-1.74-.01-.31-.41-.57-.41-.71 0-.1.9-1.66 1.32-1.28l-.69-.23c.37-.6.15-1.84.58-2.33.2-.23.59-.16.73-.3.16-.16.01-.56.44-.83.2-.13 2.18-.79 2.34-.7M64.47 69.2c.47.36.89.24 1.26.94.36.68.84 3.55.58 4.21-.09.24-.41.25-.51.47-.48 1.05-.58 2.47-1.85 2.84v-2.1l-1.38.46c.38-1.01-.96-1.76-1.85-1.51l-1.59-2.33 1.14-.36-.23-.93 1.83.7-.12-.93c.29-.48.88 0 1.26 0-.33-1.24.66-1.21.92-2.1.19-.14.39.52.52.63Zm.36 3.83c-1.04-.46-1.36.94-1.63 1.09-.35.21-1.1-.21-1.1.28 1.02-.23 2.29.65 2.95-.39l-.23-.99ZM67.6 51.11c-.59.99-2.26.77-2.06 2.33l.7.13-.04 1.48c-1.73.97-2.01-.85-3.99-.44-.66.14-.35.65-.79.7-.09-1.12.6-1.28 1.37-1.75.35-.61-1.22-.4-1.7.37l-.58 2.08c.3-.57-.46-2.35-.35-2.57.15-.32.83-.49 1.05-.79.24-.33.22-.82.43-1.19 1.24-2.17 4.14-.93 5.96-.33ZM60.05 4.51c-.39 1.14-.92 1.96-.69 3.26.15.15 1.14-.37.92.46-.89-.25-2.09.32-2.84.24-.47-.05-.82-.54-1.34-.43-.42.09-1.21.97-1.77 1.25-.89.43-2 .66-2.98.58l.1-.95c1.42-.16.86-.71 1.62-1.61.86.25.18 1.27 1.48.93l-.23-1.4c.55.3.85-.14.92-.7l.8.69c.87-1.79 1.26.23 1.6.23.75-.66.57-1.65.57-2.56h1.83ZM54.77 78.14c.06 1.91 2.48 2.7 1.16 4.48-1.12 1.51-3.21-.14-4.58.41-.47-.47 3.04-3.89 2.75-4.89z"/>
    <path d="M31.88 103.54v.57l-.46.23.02.45c2.92 2.26-2.69 1.67-4.14 1.76.81-.48.42-1.39.56-1.63.16-.28 1.14-.63 1.5-.7l-.46-1.39 2.97.71ZM60.82 60.58c.04.09.53.05.35.4-.64.87-1.34 2.08-2.5 2.24.93-2.51-1.2-5.19.34-7.45 1.23 1.28 1.2 3.38 1.8 4.81ZM85.69 43.42c.08.07.26 1.18 1.16 1.74l2.05.82-3.89 2.1c.32-1.13-.36-3.18-.24-4.07.07-.49.66-.83.93-.59ZM90.5 64.85l1.14-.23c.37.3-3.23 1.72-3.43 2.09l.22-1.4s-1.13.63-.91-.11l1.14-3.15c1.07.72 1.95 1.31 1.83 2.8ZM2.35 68.11l.91-.24-.93-1.05c.02-.47.13-.94.24-1.4.07-.32-.2-.68.34-.57.47.46 1.26 1.21 1.4 1.86.11.49-.27.61-.29.82-.02.28.49.69.36 1.14-.23.85-2.45.01-2.05-.56ZM132.73 21.1l1.95 1.23c-.73.75-1.96 2.51-2.86 1.05-.51-.83.4-1.67.9-2.27ZM115.91 8.94c-.83 1.38.32 2.13-.25 3.36-.45.64-1.36.3-2.04.36.03-.52.86-.32.93-.6.16-.61-.34-1.29-.13-1.94.12-.38 1.08-1.57 1.49-1.18M81.8 46.21c-.22-1.58.47-3.12 1.6-4.19-.04 1.55.49 4.01-1.6 4.19M72.18 52.27l-.94-.13c-.05-.63-1.21-3.87-.32-4.06.81-.17 1.14 3.54 1.25 4.19ZM97.6 44.81c-.13 2-2.7 1.67-4.12 1.39l1.79-.86 2.33-.54ZM99.43 105.62c-1.75.27-2.2-.37-2.06-2.1 1.45-.28 1.83.89 2.06 2.1M38.76 98.87c-.34.7-1.41.53-1.39 1.5 0 .14.89.09.36.59-1 .22-.65-1.03-1.01-1.3l-1.62-.1v-.7h3.66ZM173.25 111.58c.07.09.33.09.36.25.26 1.36-1.6 1.11-2.52 1.25v-1.17h1.6l-.23-.93c.47-.1.55.31.79.6M70.11 58.55l-.67.01.23-2.62 1.37-.64zM85.46 48.54c.12.59-.08.58-.38.89-.85.87-1.9 1.54-3.05 1.9-.09-.42.22-.57.45-.82.32-.35 2.69-2.29 2.98-1.97M112.69 103.08l.02.68c-1.17-.05-3.24-.27-2.97-1.86l2.96 1.19ZM62.79 69.51c-1.42-.64-1.11.63-2.29.7-.11-1.72.68-2.25 2.3-1.75v1.06ZM106.98 93.51c-.18.7-2.98 2.57-3.43 2.09-.05-.05-.08-.54.14-.71.6-.47 2.5-1.38 3.29-1.38M177.27 101.19c-.21.98.78 1 .46 2.1-1.88.43-2.24-1.97-.46-2.1M10.82 37.36c.14.43-.38.58-.43.85-.06.37 1.01.99-.11 1.21-1.47-.77-1.54-2.46.54-2.07ZM34.83 15.96c.08.05.1.45.26.56.39.27.82-.37 1.14.22-.26.35-.39.85-.84 1.01-.96.35-.64-.24-.89-.63-.14-.23-.54-.54-.56-.62-.1-.41.54-.75.88-.54ZM2.81 81.86l-1.35-.25c-.13-.63-.04-1.29.58-1.58 1.01-.27.77 1.21.76 1.83ZM136.06 27.11c.33.33-.82 2.2-1.6 1.86-.21-1.17.48-1.87 1.6-1.86M95.08 2.41v2.1h-1.14c-.13-.12.31-2.37 1.14-2.09ZM167.42 71.83c-.39.02-2.26.17-2.27-.34.46-.63 1.25-.17 1.83-.46.34-.17.44-.87.57-.82.64.25-.35 1.1-.13 1.62M96.91 3.81c-.81.17-1.12-.59-1.15-1.28l1.38-.82zM78.59 68.58c-.69 1.09-1.4 1.64-2.75 1.39l1.54-1.11 1.21-.29ZM151.56 120.38c.36.33.52 1.11.76 1.55-1.15.19-1.68-.79-1.6-1.86.31-.04.62.1.84.31M57.3 3.34c.12.53-.08.38-.3.54-.33.25-2.22.51-2.22.04 0-.99 1.93-.46 2.51-.58ZM53.41 34.56l-.21-.79c.94-.46.56-.89.78-1.77l.98 1.52c-.39.49-.83 1.17-1.55 1.04M18.58 92.13c.7.43-.88 1.89-1.12 1.61v-1.63c.3.05.91-.11 1.12.02"/>
    <text style="font-family:Espiritu-Regular,Espiritu;font-size:14.56px" transform="translate(151.94 215.91)"><tspan x="0" y="0" class="cls-8">I</tspan><tspan x="3.79" y="0" style="letter-spacing:-.1em">D</tspan><tspan x="12.17" y="0" class="cls-6">EAS </tspan><tspan x="39.87" y="0" style="letter-spacing:-.09em">Q</tspan><tspan x="48.74" y="0" class="cls-5">UE </tspan><tspan x="68.21" y="0" class="cls-8">S</tspan><tspan x="75.96" y="0" class="cls-5">E </tspan><tspan x="86.93" y="0" class="cls-8">C</tspan><tspan x="94.05" y="0" style="letter-spacing:-.1em">O</tspan><tspan x="102.56" y="0" class="cls-6">N</tspan><tspan x="112.37" y="0" style="letter-spacing:-.1em">V</tspan><tspan x="120.59" y="0" style="letter-spacing:-.08em">I</tspan><tspan x="124.56" y="0" class="cls-6">ERTEN EN MUND</tspan><tspan x="230.68" y="0" style="letter-spacing:-.11em">O</tspan><tspan x="238.95" y="0" class="cls-6">S</tspan></text>
    <path d="M288.12 122.14c-.07-.29-1.32-1.38-1.53-1.16-3.37 10.76-4.49 22.53 5.39 30.07-3.13-.43-6.85 2.09-7.55 5.18-.99 4.41-.53 20.11-.19 25.32.14 2.2 1.02 4.29.81 6.52 6.26-4.01.2-16.77 5.43-20.4 2.1-1.46 5.13-1.13 6.94.7 1.76 1.8 2.64 13.37 2.29 16.25-.31 2.52-1.42 5.18-3.85 6.17-4.44 1.8-26.39 1.69-32.01 1.13-6.01-.6-8.38-2.18-9.58-8.16-1.8-8.96 1.81-19.21-1.58-28.36l-3.11-.5c.08 8.61-.1 17.25-.04 25.87.02 2.39 1.1 3.97.64 6.72-.82 4.85-4.51 4.73-8.74 4.47-7.45-.47-4.24-5.47-4.17-10.41.3-21.97.06-44.04-.47-65.97 8.2-5.22 22.85-2.56 27.21 6.76 2.44 5.21 3.26 17.82 1.36 23.31-.58 1.67-2.25 3.28-2.54 4.45-.63 2.5 3.34 10.13 3.68 14.47.37 4.71-.85 8.66-.8 13.13.04 3.93.24 12.6 5.88 8.89.29-19.82.77-39.96.37-59.85-.08-4.12-2.63-9.19 1.12-12.7h19.28c2.19 0 6.61 3.5 7.16 5.95.72 3.23.29 16.82-2.92 18.35-3.22 1.53-8.48.04-8.48-3.86 0-3 .58-10.04 0-12.34m-32.38 22.75c-1.07-6.58-3.2-9.55-9.63-11.57l-1.93-6.16c.28 3.26.19 12.31 1.96 14.61.83 1.08 9.09 3.51 9.6 3.11ZM196.11 98.03c-.26 2.79-1.74 10.02-4.52 11.27-3.41 1.53-7.35.23-8.68-3.33l-6.24-68.91c.11-4.97 9.04-3.58 12.58-3.25l1.97 31.5c2.08 0 1.65-23.19 1.88-25.21 1.02-9.03 12.35-8.7 13.47-.68.28 2.01.04 25.88 1.95 25.89l1.46-30.9c1.2-1.72 18.22-.39 21.48.05v73.35c0 2.37-10.4 2.62-11.66 1.14-2.1-2.47-.37-6.06-.34-8.63.26-20.15.06-40.52-.42-60.58l-2.25-2.27c-3.44 22.56-3.39 45.52-5.47 68.25-2.15 6.49-11.95 5.92-12.96-3.18-.75-6.74.6-14.48-.76-21.44-.8-.3-1.5 2.48-1.5 2.63 0 4.52.41 9.93 0 14.29ZM293.89 98.12c1.89 11.97-6 12.68-15.63 12.36-2.9-.1-8.17-.62-10.48-1.84V33.93c-.75-4.81-5.96-10.95-7.24-15.25-.78-2.61 4.11.66 4.7 1.1 4.41 3.36 7.59 8.18 9.03 13.47l5.08-.4.68 2.58.2 68 2.05 1.21V89.05c0-2.57 7.69-3.38 9.67-1.87l1.35 5.63m.57 1.84V46.12c0-5.36 4.92-11.3 10.33-12.23 9.67-1.67 18.08 1.63 19.03 12.2 1.15 12.86 1.15 38.36 0 51.22-.63 7.03-4.55 11.6-11.68 12.38-7.1.78-13.51-.75-16.35-7.72-.62-1.52-.03-3.97-1.32-4.31m-.61-5.51.6 2.49m17.3-55.66c-2.24-.72-4.03-1.36-5.11 1.28l.41 63.23c1.47 3.23 4.7.74 4.7-.19zM360.05 34.84c.47-1.53 5.57-1.66 6.44-.42 1.45 2.07-1.61 26.7-1.92 31.28-.82 12.27-.61 26.31-2.33 38.29-.76 5.29-5.58 7.32-10.28 5.15-5.32-2.45-2.18-21.76-3.95-27.27-1.1-.13-1.35 1.97-1.43 2.7-.57 5.33.16 19.25-2.41 23.17-2.27 3.48-9.59 2.42-10.87-1.76l-5.63-69.67 1.27-2.49c2.65.58 9.36-1.86 10.86.41 1.28 1.94-.25 4.39-.13 6.63.33 6.18 1.05 12.61 1.57 18.82.07.88.24 3.37 1.5 3.37-.51-2.99.65-5.8.79-8.62.39-7.61-3.22-23.36 9.21-20.56 7.24 1.63 3.01 18.29 5.26 24.08l2.05 6.6V34.83ZM322.43 114.04c8.85 1.25 8.71 8.46 8 15.71-.42 4.23-.58 8.82-5.67 9.04-9.29.41-4.24-13.04-6.48-19.06-.4-1.06.25-1.31-1.62-1.07-2.58 9.89-4.53 23.65 4.63 30.48-8.13 10.88-8.49 25.66-4.26 38.17 4.37-4.43-.12-13.77 3.12-18.48 2.32-3.38 9.35-2.41 9.53 1.94-.86 10.72 5.77 19.88-9.01 21.72-2.52.31-18.32-.3-18.72-1.79-.11-2.62.77-4.98.86-7.59.64-18.72-.17-37.74-.8-56.35-.08-2.23-.78-12.72 1.92-12.72 5.44 0 13.47-.71 18.5 0M208.93 136.67c-.86 3.1-8.17 3.66-10.08-.05-1.55-3.01-1.85-20 1.12-21.87 1.69-1.07 21.34-1.08 24.54-.72 11.22 1.26 9.17 8.16 9.09 18.01-.05 5.89-4.27 7.7-10.2 5.32l-.09-16.82h-.73v68.7c0 3.6-11.3 3.56-12.32 1.34-.86-1.86-.01-3.31-.01-4.43v-65.18h-.77c-.02 4.15.42 12.19-.54 15.69ZM248.76 103.68c4.73-3.3 1.23-14.81 4.83-17.36 1.62-1.15 7.68-1.17 8.76.56.89 1.41 1.84 15.74 1.43 17.91-1.12 5.91-11.7 5.84-16.18 5.69-2.26-.08-10.53-.71-11.29-2.29l1.09-73.42c3.61-1.56 11.24-2.88 12.05 2.38.99 6.38-.63 14.02-.73 20.23-.26 15.42.25 30.88.04 46.3"/>
  </g>
</svg>
